<?xml version="1.0" encoding="utf-8"?>
<!-- Generator: Adobe Illustrator 19.0.0, SVG Export Plug-In . SVG Version: 6.00 Build 0)  -->
<svg version="1.1" id="GoogleLogo_x5F_FullColor_x5F_rgb_21_"
	 xmlns="http://www.w3.org/2000/svg" xmlns:xlink="http://www.w3.org/1999/xlink" x="0px" y="0px" width="258.75px"
	 height="84.56px" viewBox="0 0 258.75 84.56" enable-background="new 0 0 258.75 84.56" xml:space="preserve">
<g id="_x32_59x85px">
	<path fill="#4285F4" d="M32.96,38.56v-8.75h30.48c0.32,1.6,0.48,3.55,0.48,5.63c0,6.72-1.84,15.04-7.76,20.96
		c-5.76,6-13.12,9.2-22.88,9.2C15.2,65.6,0,50.88,0,32.8C0,14.72,15.2,0,33.28,0c10,0,17.12,3.92,22.48,9.04l-6.32,6.32
		c-3.84-3.6-9.04-6.4-16.16-6.4C20.08,8.96,9.76,19.6,9.76,32.8c0,13.2,10.32,23.84,23.52,23.84c8.56,0,13.44-3.44,16.56-6.56
		c2.56-2.56,4.28-6.48,4.92-11.52H32.96z"/>
	<path fill="#E94235" d="M109.66,44.48c0,12.16-9.52,21.12-21.2,21.12s-21.2-8.96-21.2-21.12c0-12.24,9.52-21.12,21.2-21.12
		S109.66,32.24,109.66,44.48z M100.38,44.48c0-7.6-5.52-12.8-11.92-12.8s-11.92,5.2-11.92,12.8c0,7.52,5.52,12.8,11.92,12.8
		S100.38,52,100.38,44.48z"/>
	<path fill="#FABB05" d="M155.66,44.48c0,12.16-9.52,21.12-21.2,21.12s-21.2-8.96-21.2-21.12c0-12.24,9.52-21.12,21.2-21.12
		S155.66,32.24,155.66,44.48z M146.38,44.48c0-7.6-5.52-12.8-11.92-12.8s-11.92,5.2-11.92,12.8c0,7.52,5.52,12.8,11.92,12.8
		S146.38,52,146.38,44.48z"/>
	<path fill="#4285F4" d="M199.77,24.64v37.92c0,15.6-9.2,22-20.08,22c-10.24,0-16.4-6.88-18.72-12.48l8.08-3.36
		c1.44,3.44,4.96,7.52,10.64,7.52c6.96,0,11.28-4.32,11.28-12.4V60.8h-0.32c-2.08,2.56-6.08,4.8-11.12,4.8
		c-10.56,0-20.24-9.2-20.24-21.04c0-11.92,9.68-21.2,20.24-21.2c5.04,0,9.04,2.24,11.12,4.72h0.32v-3.44H199.77z M191.61,44.56
		c0-7.44-4.96-12.88-11.28-12.88c-6.4,0-11.76,5.44-11.76,12.88c0,7.36,5.36,12.72,11.76,12.72
		C186.65,57.28,191.61,51.92,191.61,44.56z"/>
	<path fill="#34A853" d="M215.25,2.32v62h-9.28v-62H215.25z"/>
	<path fill="#E94235" d="M251.15,51.44l7.2,4.8c-2.32,3.44-7.92,9.36-17.6,9.36c-12,0-20.96-9.28-20.96-21.12
		c0-12.56,9.04-21.12,19.92-21.12c10.96,0,16.32,8.72,18.08,13.44l0.96,2.4l-28.24,11.68c2.16,4.24,5.52,6.4,10.24,6.4
		C245.47,57.28,248.75,54.96,251.15,51.44z M228.99,43.84L247.87,36c-1.04-2.64-4.16-4.48-7.84-4.48
		C235.31,31.52,228.75,35.68,228.99,43.84z"/>
</g>
</svg>
