<svg xmlns="http://www.w3.org/2000/svg" xmlns:xlink="http://www.w3.org/1999/xlink" width="320" zoomAndPan="magnify" viewBox="0 0 240 132.749998" height="177" preserveAspectRatio="xMidYMid meet" version="1.0"><defs><filter x="0%" y="0%" width="100%" height="100%" id="3493f97d21"><feColorMatrix values="0 0 0 0 1 0 0 0 0 1 0 0 0 0 1 0 0 0 1 0" color-interpolation-filters="sRGB"/></filter><g/><clipPath id="f92eb76fc8"><path d="M 0.226562 30.984375 L 6.671875 30.984375 L 6.671875 101.359375 L 0.226562 101.359375 Z M 0.226562 30.984375 " clip-rule="nonzero"/></clipPath><clipPath id="233abffc44"><path d="M 0.226562 0.984375 L 6.671875 0.984375 L 6.671875 71.359375 L 0.226562 71.359375 Z M 0.226562 0.984375 " clip-rule="nonzero"/></clipPath><clipPath id="63609cb218"><rect x="0" width="7" y="0" height="72"/></clipPath><clipPath id="edb776bb78"><path d="M 0.226562 30.980469 L 19.246094 30.980469 L 19.246094 37.078125 L 0.226562 37.078125 Z M 0.226562 30.980469 " clip-rule="nonzero"/></clipPath><clipPath id="9e3d61cee1"><path d="M 0.226562 0.980469 L 19.246094 0.980469 L 19.246094 7.078125 L 0.226562 7.078125 Z M 0.226562 0.980469 " clip-rule="nonzero"/></clipPath><clipPath id="28795d18b4"><rect x="0" width="20" y="0" height="8"/></clipPath><clipPath id="1f1c52f590"><path d="M 0.226562 95.253906 L 19.246094 95.253906 L 19.246094 101.355469 L 0.226562 101.355469 Z M 0.226562 95.253906 " clip-rule="nonzero"/></clipPath><clipPath id="04fd2e76e2"><path d="M 0.226562 0.253906 L 19.246094 0.253906 L 19.246094 6.355469 L 0.226562 6.355469 Z M 0.226562 0.253906 " clip-rule="nonzero"/></clipPath><clipPath id="d56406f342"><rect x="0" width="20" y="0" height="7"/></clipPath><clipPath id="94769073f2"><path d="M 67.074219 30.980469 L 73.222656 30.980469 L 73.222656 101.351562 L 67.074219 101.351562 Z M 67.074219 30.980469 " clip-rule="nonzero"/></clipPath><clipPath id="af1a925233"><path d="M 0.0742188 0.980469 L 6.222656 0.980469 L 6.222656 71.351562 L 0.0742188 71.351562 Z M 0.0742188 0.980469 " clip-rule="nonzero"/></clipPath><clipPath id="c71815fd03"><rect x="0" width="7" y="0" height="72"/></clipPath><clipPath id="406ce08135"><path d="M 54.5 95.257812 L 73.222656 95.257812 L 73.222656 101.355469 L 54.5 101.355469 Z M 54.5 95.257812 " clip-rule="nonzero"/></clipPath><clipPath id="80a5943acb"><path d="M 0.5 0.257812 L 19.222656 0.257812 L 19.222656 6.355469 L 0.5 6.355469 Z M 0.5 0.257812 " clip-rule="nonzero"/></clipPath><clipPath id="cee12c0fcc"><rect x="0" width="20" y="0" height="7"/></clipPath><clipPath id="248e0f33a5"><path d="M 54.5 30.984375 L 73.222656 30.984375 L 73.222656 37.082031 L 54.5 37.082031 Z M 54.5 30.984375 " clip-rule="nonzero"/></clipPath><clipPath id="dceede27ad"><path d="M 0.5 0.984375 L 19.222656 0.984375 L 19.222656 7.082031 L 0.5 7.082031 Z M 0.5 0.984375 " clip-rule="nonzero"/></clipPath><clipPath id="d2adc03621"><rect x="0" width="20" y="0" height="8"/></clipPath><clipPath id="f41e2ea232"><rect x="0" width="145" y="0" height="92"/></clipPath><mask id="ce35899c26"><g filter="url(#3493f97d21)"><rect x="-24" width="288" fill="#000000" y="-13.275" height="159.299998" fill-opacity="0.29"/></g></mask><clipPath id="e52c685fa5"><path d="M 0.738281 0.488281 L 6.234375 0.488281 L 6.234375 5.691406 L 0.738281 5.691406 Z M 0.738281 0.488281 " clip-rule="nonzero"/></clipPath><clipPath id="761312026d"><path d="M 0.738281 0.488281 L 6.234375 0.488281 L 6.234375 5.691406 L 0.738281 5.691406 Z M 0.738281 0.488281 " clip-rule="nonzero"/></clipPath><clipPath id="4612bbf7bb"><rect x="0" width="7" y="0" height="6"/></clipPath><clipPath id="c8bd69ee87"><rect x="0" width="7" y="0" height="6"/></clipPath><mask id="022a79fd9f"><g filter="url(#3493f97d21)"><rect x="-24" width="288" fill="#000000" y="-13.275" height="159.299998" fill-opacity="0.29"/></g></mask><clipPath id="2e1e507eec"><path d="M 0.839844 0.488281 L 6.335938 0.488281 L 6.335938 5.691406 L 0.839844 5.691406 Z M 0.839844 0.488281 " clip-rule="nonzero"/></clipPath><clipPath id="de83969f0e"><path d="M 0.839844 0.488281 L 6.335938 0.488281 L 6.335938 5.691406 L 0.839844 5.691406 Z M 0.839844 0.488281 " clip-rule="nonzero"/></clipPath><clipPath id="79b6d555d3"><rect x="0" width="7" y="0" height="6"/></clipPath><clipPath id="68d7105b0e"><rect x="0" width="7" y="0" height="6"/></clipPath><mask id="ffc1ed2622"><g filter="url(#3493f97d21)"><rect x="-24" width="288" fill="#000000" y="-13.275" height="159.299998" fill-opacity="0.29"/></g></mask><clipPath id="c654ffe362"><path d="M 1.058594 0.488281 L 6.550781 0.488281 L 6.550781 5.691406 L 1.058594 5.691406 Z M 1.058594 0.488281 " clip-rule="nonzero"/></clipPath><clipPath id="9650fc1ded"><path d="M 0.0585938 0.488281 L 5.550781 0.488281 L 5.550781 5.691406 L 0.0585938 5.691406 Z M 0.0585938 0.488281 " clip-rule="nonzero"/></clipPath><clipPath id="589b5d81c4"><rect x="0" width="6" y="0" height="6"/></clipPath><clipPath id="f6a9360914"><rect x="0" width="7" y="0" height="6"/></clipPath><mask id="4d5c489e3f"><g filter="url(#3493f97d21)"><rect x="-24" width="288" fill="#000000" y="-13.275" height="159.299998" fill-opacity="0.29"/></g></mask><clipPath id="25267421a0"><path d="M 0.273438 0.488281 L 5.765625 0.488281 L 5.765625 5.691406 L 0.273438 5.691406 Z M 0.273438 0.488281 " clip-rule="nonzero"/></clipPath><clipPath id="60174fc268"><path d="M 0.273438 0.488281 L 5.765625 0.488281 L 5.765625 5.691406 L 0.273438 5.691406 Z M 0.273438 0.488281 " clip-rule="nonzero"/></clipPath><clipPath id="3e6e5adc1f"><rect x="0" width="6" y="0" height="6"/></clipPath><clipPath id="ba75bb5647"><rect x="0" width="6" y="0" height="6"/></clipPath><clipPath id="3440f77e2f"><path d="M 37.738281 46.253906 L 43.234375 46.253906 L 43.234375 51.457031 L 37.738281 51.457031 Z M 37.738281 46.253906 " clip-rule="nonzero"/></clipPath><clipPath id="419bf9d12c"><path d="M 0.738281 0.253906 L 6.234375 0.253906 L 6.234375 5.457031 L 0.738281 5.457031 Z M 0.738281 0.253906 " clip-rule="nonzero"/></clipPath><clipPath id="59557fcecc"><rect x="0" width="7" y="0" height="6"/></clipPath><clipPath id="d3f5dfb6c0"><path d="M 44.839844 46.253906 L 50.335938 46.253906 L 50.335938 51.457031 L 44.839844 51.457031 Z M 44.839844 46.253906 " clip-rule="nonzero"/></clipPath><clipPath id="59c4dd7fa7"><path d="M 0.839844 0.253906 L 6.335938 0.253906 L 6.335938 5.457031 L 0.839844 5.457031 Z M 0.839844 0.253906 " clip-rule="nonzero"/></clipPath><clipPath id="f5a1b190f9"><rect x="0" width="7" y="0" height="6"/></clipPath><mask id="4d03894eaa"><g filter="url(#3493f97d21)"><rect x="-24" width="288" fill="#000000" y="-13.275" height="159.299998" fill-opacity="0.29"/></g></mask><clipPath id="b310a27d46"><path d="M 1.058594 0.253906 L 6.550781 0.253906 L 6.550781 5.457031 L 1.058594 5.457031 Z M 1.058594 0.253906 " clip-rule="nonzero"/></clipPath><clipPath id="d5c79768cb"><path d="M 0.0585938 0.253906 L 5.550781 0.253906 L 5.550781 5.457031 L 0.0585938 5.457031 Z M 0.0585938 0.253906 " clip-rule="nonzero"/></clipPath><clipPath id="c339aa7e72"><rect x="0" width="6" y="0" height="6"/></clipPath><clipPath id="61fd8f3cda"><rect x="0" width="7" y="0" height="6"/></clipPath><mask id="ff766dff42"><g filter="url(#3493f97d21)"><rect x="-24" width="288" fill="#000000" y="-13.275" height="159.299998" fill-opacity="0.29"/></g></mask><clipPath id="549252ad9d"><path d="M 0.273438 0.253906 L 5.765625 0.253906 L 5.765625 5.457031 L 0.273438 5.457031 Z M 0.273438 0.253906 " clip-rule="nonzero"/></clipPath><clipPath id="4ef53b240e"><path d="M 0.273438 0.253906 L 5.765625 0.253906 L 5.765625 5.457031 L 0.273438 5.457031 Z M 0.273438 0.253906 " clip-rule="nonzero"/></clipPath><clipPath id="07a5268027"><rect x="0" width="6" y="0" height="6"/></clipPath><clipPath id="0badbacd5f"><rect x="0" width="6" y="0" height="6"/></clipPath><mask id="5d64a8fe6b"><g filter="url(#3493f97d21)"><rect x="-24" width="288" fill="#000000" y="-13.275" height="159.299998" fill-opacity="0.29"/></g></mask><clipPath id="26ba959891"><path d="M 0.738281 1.179688 L 6.234375 1.179688 L 6.234375 6.382812 L 0.738281 6.382812 Z M 0.738281 1.179688 " clip-rule="nonzero"/></clipPath><clipPath id="e174ca0460"><path d="M 0.738281 0.179688 L 6.234375 0.179688 L 6.234375 5.382812 L 0.738281 5.382812 Z M 0.738281 0.179688 " clip-rule="nonzero"/></clipPath><clipPath id="379fa31e69"><rect x="0" width="7" y="0" height="6"/></clipPath><clipPath id="46c6f9711c"><rect x="0" width="7" y="0" height="7"/></clipPath><clipPath id="083731fe15"><path d="M 44.839844 53.179688 L 50.335938 53.179688 L 50.335938 58.382812 L 44.839844 58.382812 Z M 44.839844 53.179688 " clip-rule="nonzero"/></clipPath><clipPath id="9557eaa055"><path d="M 0.839844 0.179688 L 6.335938 0.179688 L 6.335938 5.382812 L 0.839844 5.382812 Z M 0.839844 0.179688 " clip-rule="nonzero"/></clipPath><clipPath id="438f11edeb"><rect x="0" width="7" y="0" height="6"/></clipPath><clipPath id="b1241bc53e"><path d="M 52.058594 53.179688 L 57.550781 53.179688 L 57.550781 58.382812 L 52.058594 58.382812 Z M 52.058594 53.179688 " clip-rule="nonzero"/></clipPath><clipPath id="04d645c582"><path d="M 0.0585938 0.179688 L 5.550781 0.179688 L 5.550781 5.382812 L 0.0585938 5.382812 Z M 0.0585938 0.179688 " clip-rule="nonzero"/></clipPath><clipPath id="17f071ddf4"><rect x="0" width="6" y="0" height="6"/></clipPath><mask id="4cde1b96c7"><g filter="url(#3493f97d21)"><rect x="-24" width="288" fill="#000000" y="-13.275" height="159.299998" fill-opacity="0.29"/></g></mask><clipPath id="264b0638e6"><path d="M 0.273438 1.179688 L 5.765625 1.179688 L 5.765625 6.382812 L 0.273438 6.382812 Z M 0.273438 1.179688 " clip-rule="nonzero"/></clipPath><clipPath id="7dbb4407db"><path d="M 0.273438 0.179688 L 5.765625 0.179688 L 5.765625 5.382812 L 0.273438 5.382812 Z M 0.273438 0.179688 " clip-rule="nonzero"/></clipPath><clipPath id="8e254cd1af"><rect x="0" width="6" y="0" height="6"/></clipPath><clipPath id="edd43b5cfe"><rect x="0" width="6" y="0" height="7"/></clipPath><mask id="4a8262369b"><g filter="url(#3493f97d21)"><rect x="-24" width="288" fill="#000000" y="-13.275" height="159.299998" fill-opacity="0.29"/></g></mask><clipPath id="a4d733296e"><path d="M 0.738281 1.105469 L 6.234375 1.105469 L 6.234375 6.3125 L 0.738281 6.3125 Z M 0.738281 1.105469 " clip-rule="nonzero"/></clipPath><clipPath id="4a6ecad3e2"><path d="M 0.738281 0.105469 L 6.234375 0.105469 L 6.234375 5.3125 L 0.738281 5.3125 Z M 0.738281 0.105469 " clip-rule="nonzero"/></clipPath><clipPath id="48e5e016aa"><rect x="0" width="7" y="0" height="6"/></clipPath><clipPath id="02e19e54cc"><rect x="0" width="7" y="0" height="7"/></clipPath><mask id="8d1ed04f79"><g filter="url(#3493f97d21)"><rect x="-24" width="288" fill="#000000" y="-13.275" height="159.299998" fill-opacity="0.29"/></g></mask><clipPath id="b33d8e10ba"><path d="M 0.839844 1.105469 L 6.335938 1.105469 L 6.335938 6.3125 L 0.839844 6.3125 Z M 0.839844 1.105469 " clip-rule="nonzero"/></clipPath><clipPath id="9cedd748f7"><path d="M 0.839844 0.105469 L 6.335938 0.105469 L 6.335938 5.3125 L 0.839844 5.3125 Z M 0.839844 0.105469 " clip-rule="nonzero"/></clipPath><clipPath id="f0e1d523c5"><rect x="0" width="7" y="0" height="6"/></clipPath><clipPath id="67466804c5"><rect x="0" width="7" y="0" height="7"/></clipPath><clipPath id="ce88ed02a0"><path d="M 52.058594 60.105469 L 57.550781 60.105469 L 57.550781 65.3125 L 52.058594 65.3125 Z M 52.058594 60.105469 " clip-rule="nonzero"/></clipPath><clipPath id="d81d5aa538"><path d="M 0.0585938 0.105469 L 5.550781 0.105469 L 5.550781 5.3125 L 0.0585938 5.3125 Z M 0.0585938 0.105469 " clip-rule="nonzero"/></clipPath><clipPath id="dde46073a2"><rect x="0" width="6" y="0" height="6"/></clipPath><mask id="4da04ff339"><g filter="url(#3493f97d21)"><rect x="-24" width="288" fill="#000000" y="-13.275" height="159.299998" fill-opacity="0.29"/></g></mask><clipPath id="e3bf1143b6"><path d="M 0.273438 1.105469 L 5.765625 1.105469 L 5.765625 6.3125 L 0.273438 6.3125 Z M 0.273438 1.105469 " clip-rule="nonzero"/></clipPath><clipPath id="55b555f588"><path d="M 0.273438 0.105469 L 5.765625 0.105469 L 5.765625 5.3125 L 0.273438 5.3125 Z M 0.273438 0.105469 " clip-rule="nonzero"/></clipPath><clipPath id="ef78449045"><rect x="0" width="6" y="0" height="6"/></clipPath><clipPath id="3d4092de7b"><rect x="0" width="6" y="0" height="7"/></clipPath><mask id="a7f858806b"><g filter="url(#3493f97d21)"><rect x="-24" width="288" fill="#000000" y="-13.275" height="159.299998" fill-opacity="0.29"/></g></mask><clipPath id="44dba7f038"><path d="M 0.738281 0.871094 L 6.234375 0.871094 L 6.234375 6.074219 L 0.738281 6.074219 Z M 0.738281 0.871094 " clip-rule="nonzero"/></clipPath><clipPath id="4e59a37eb8"><path d="M 0.738281 0.871094 L 6.234375 0.871094 L 6.234375 6.074219 L 0.738281 6.074219 Z M 0.738281 0.871094 " clip-rule="nonzero"/></clipPath><clipPath id="85cb785824"><rect x="0" width="7" y="0" height="7"/></clipPath><clipPath id="f6b5302afe"><rect x="0" width="7" y="0" height="7"/></clipPath><mask id="0df486047f"><g filter="url(#3493f97d21)"><rect x="-24" width="288" fill="#000000" y="-13.275" height="159.299998" fill-opacity="0.29"/></g></mask><clipPath id="c492095c26"><path d="M 0.839844 0.871094 L 6.335938 0.871094 L 6.335938 6.074219 L 0.839844 6.074219 Z M 0.839844 0.871094 " clip-rule="nonzero"/></clipPath><clipPath id="52eccdca07"><path d="M 0.839844 0.871094 L 6.335938 0.871094 L 6.335938 6.074219 L 0.839844 6.074219 Z M 0.839844 0.871094 " clip-rule="nonzero"/></clipPath><clipPath id="fafa580622"><rect x="0" width="7" y="0" height="7"/></clipPath><clipPath id="d56a3418ec"><rect x="0" width="7" y="0" height="7"/></clipPath><mask id="ccea1ece0a"><g filter="url(#3493f97d21)"><rect x="-24" width="288" fill="#000000" y="-13.275" height="159.299998" fill-opacity="0.84"/></g></mask><clipPath id="39b7229e3e"><path d="M 1.058594 0.871094 L 6.550781 0.871094 L 6.550781 6.074219 L 1.058594 6.074219 Z M 1.058594 0.871094 " clip-rule="nonzero"/></clipPath><clipPath id="1304a9d832"><path d="M 0.0585938 0.871094 L 5.550781 0.871094 L 5.550781 6.074219 L 0.0585938 6.074219 Z M 0.0585938 0.871094 " clip-rule="nonzero"/></clipPath><clipPath id="4d4d16941b"><rect x="0" width="6" y="0" height="7"/></clipPath><clipPath id="daa60a0d61"><rect x="0" width="7" y="0" height="7"/></clipPath><mask id="c03f7a3df6"><g filter="url(#3493f97d21)"><rect x="-24" width="288" fill="#000000" y="-13.275" height="159.299998" fill-opacity="0.29"/></g></mask><clipPath id="bbfae83241"><path d="M 0.273438 0.871094 L 5.765625 0.871094 L 5.765625 6.074219 L 0.273438 6.074219 Z M 0.273438 0.871094 " clip-rule="nonzero"/></clipPath><clipPath id="c25fc7c29b"><path d="M 0.273438 0.871094 L 5.765625 0.871094 L 5.765625 6.074219 L 0.273438 6.074219 Z M 0.273438 0.871094 " clip-rule="nonzero"/></clipPath><clipPath id="69e0e683d2"><rect x="0" width="6" y="0" height="7"/></clipPath><clipPath id="2391d1f3ae"><rect x="0" width="6" y="0" height="7"/></clipPath><mask id="d09f280a75"><g filter="url(#3493f97d21)"><rect x="-24" width="288" fill="#000000" y="-13.275" height="159.299998" fill-opacity="0.29"/></g></mask><clipPath id="20cb2e6718"><path d="M 0.738281 0.796875 L 6.234375 0.796875 L 6.234375 6.003906 L 0.738281 6.003906 Z M 0.738281 0.796875 " clip-rule="nonzero"/></clipPath><clipPath id="98b4f76a2d"><path d="M 0.738281 0.796875 L 6.234375 0.796875 L 6.234375 6.003906 L 0.738281 6.003906 Z M 0.738281 0.796875 " clip-rule="nonzero"/></clipPath><clipPath id="983bc3a05a"><rect x="0" width="7" y="0" height="7"/></clipPath><clipPath id="e43dfbe029"><rect x="0" width="7" y="0" height="7"/></clipPath><clipPath id="965c544967"><path d="M 44.839844 73.796875 L 50.335938 73.796875 L 50.335938 79.003906 L 44.839844 79.003906 Z M 44.839844 73.796875 " clip-rule="nonzero"/></clipPath><clipPath id="0bb25677a6"><path d="M 0.839844 0.796875 L 6.335938 0.796875 L 6.335938 6.003906 L 0.839844 6.003906 Z M 0.839844 0.796875 " clip-rule="nonzero"/></clipPath><clipPath id="646a5bc27e"><rect x="0" width="7" y="0" height="7"/></clipPath><clipPath id="898baaf1b5"><path d="M 52.058594 73.796875 L 57.550781 73.796875 L 57.550781 79.003906 L 52.058594 79.003906 Z M 52.058594 73.796875 " clip-rule="nonzero"/></clipPath><clipPath id="e5ffe500d4"><path d="M 0.0585938 0.796875 L 5.550781 0.796875 L 5.550781 6.003906 L 0.0585938 6.003906 Z M 0.0585938 0.796875 " clip-rule="nonzero"/></clipPath><clipPath id="a4e48cd530"><rect x="0" width="6" y="0" height="7"/></clipPath><mask id="e7c466a2c5"><g filter="url(#3493f97d21)"><rect x="-24" width="288" fill="#000000" y="-13.275" height="159.299998" fill-opacity="0.29"/></g></mask><clipPath id="d1864008cb"><path d="M 0.273438 0.796875 L 5.765625 0.796875 L 5.765625 6.003906 L 0.273438 6.003906 Z M 0.273438 0.796875 " clip-rule="nonzero"/></clipPath><clipPath id="4d441217bf"><path d="M 0.273438 0.796875 L 5.765625 0.796875 L 5.765625 6.003906 L 0.273438 6.003906 Z M 0.273438 0.796875 " clip-rule="nonzero"/></clipPath><clipPath id="9a4291aa25"><rect x="0" width="6" y="0" height="7"/></clipPath><clipPath id="8e60491a0f"><rect x="0" width="6" y="0" height="7"/></clipPath><mask id="c52c5eb354"><g filter="url(#3493f97d21)"><rect x="-24" width="288" fill="#000000" y="-13.275" height="159.299998" fill-opacity="0.29"/></g></mask><clipPath id="04f3c67183"><path d="M 0.988281 0.488281 L 6.484375 0.488281 L 6.484375 5.691406 L 0.988281 5.691406 Z M 0.988281 0.488281 " clip-rule="nonzero"/></clipPath><clipPath id="cc7422319a"><path d="M 0.988281 0.488281 L 6.484375 0.488281 L 6.484375 5.691406 L 0.988281 5.691406 Z M 0.988281 0.488281 " clip-rule="nonzero"/></clipPath><clipPath id="d2ff3461c7"><rect x="0" width="7" y="0" height="6"/></clipPath><clipPath id="fc7b63a329"><rect x="0" width="7" y="0" height="6"/></clipPath><mask id="d2f10f1492"><g filter="url(#3493f97d21)"><rect x="-24" width="288" fill="#000000" y="-13.275" height="159.299998" fill-opacity="0.29"/></g></mask><clipPath id="da9d840d0f"><path d="M 0.0898438 0.488281 L 5.585938 0.488281 L 5.585938 5.691406 L 0.0898438 5.691406 Z M 0.0898438 0.488281 " clip-rule="nonzero"/></clipPath><clipPath id="17efc67908"><path d="M 0.0898438 0.488281 L 5.585938 0.488281 L 5.585938 5.691406 L 0.0898438 5.691406 Z M 0.0898438 0.488281 " clip-rule="nonzero"/></clipPath><clipPath id="0ee7f24d97"><rect x="0" width="6" y="0" height="6"/></clipPath><clipPath id="5ae133c7af"><rect x="0" width="6" y="0" height="6"/></clipPath><mask id="de578b3fd5"><g filter="url(#3493f97d21)"><rect x="-24" width="288" fill="#000000" y="-13.275" height="159.299998" fill-opacity="0.29"/></g></mask><clipPath id="cac7e3de5a"><path d="M 0.304688 0.488281 L 5.800781 0.488281 L 5.800781 5.691406 L 0.304688 5.691406 Z M 0.304688 0.488281 " clip-rule="nonzero"/></clipPath><clipPath id="4758844c6c"><path d="M 0.304688 0.488281 L 5.800781 0.488281 L 5.800781 5.691406 L 0.304688 5.691406 Z M 0.304688 0.488281 " clip-rule="nonzero"/></clipPath><clipPath id="0ecd61e165"><rect x="0" width="6" y="0" height="6"/></clipPath><clipPath id="ec2648d9cb"><rect x="0" width="6" y="0" height="6"/></clipPath><mask id="6a88eb0f7a"><g filter="url(#3493f97d21)"><rect x="-24" width="288" fill="#000000" y="-13.275" height="159.299998" fill-opacity="0.29"/></g></mask><clipPath id="fd29f2412c"><path d="M 0.523438 0.488281 L 6.015625 0.488281 L 6.015625 5.691406 L 0.523438 5.691406 Z M 0.523438 0.488281 " clip-rule="nonzero"/></clipPath><clipPath id="930f80bb5b"><path d="M 0.523438 0.488281 L 6.015625 0.488281 L 6.015625 5.691406 L 0.523438 5.691406 Z M 0.523438 0.488281 " clip-rule="nonzero"/></clipPath><clipPath id="79e6f2a1ed"><rect x="0" width="7" y="0" height="6"/></clipPath><clipPath id="ef3269c6e5"><rect x="0" width="7" y="0" height="6"/></clipPath><mask id="7120a007e3"><g filter="url(#3493f97d21)"><rect x="-24" width="288" fill="#000000" y="-13.275" height="159.299998" fill-opacity="0.29"/></g></mask><clipPath id="e81b43e37b"><path d="M 0.988281 0.253906 L 6.484375 0.253906 L 6.484375 5.457031 L 0.988281 5.457031 Z M 0.988281 0.253906 " clip-rule="nonzero"/></clipPath><clipPath id="8432a57c5b"><path d="M 0.988281 0.253906 L 6.484375 0.253906 L 6.484375 5.457031 L 0.988281 5.457031 Z M 0.988281 0.253906 " clip-rule="nonzero"/></clipPath><clipPath id="59d13dcc2e"><rect x="0" width="7" y="0" height="6"/></clipPath><clipPath id="febde2274f"><rect x="0" width="7" y="0" height="6"/></clipPath><mask id="ebbaa2bce7"><g filter="url(#3493f97d21)"><rect x="-24" width="288" fill="#000000" y="-13.275" height="159.299998" fill-opacity="0.29"/></g></mask><clipPath id="92c60d84ed"><path d="M 0.0898438 0.253906 L 5.585938 0.253906 L 5.585938 5.457031 L 0.0898438 5.457031 Z M 0.0898438 0.253906 " clip-rule="nonzero"/></clipPath><clipPath id="bc95eab423"><path d="M 0.0898438 0.253906 L 5.585938 0.253906 L 5.585938 5.457031 L 0.0898438 5.457031 Z M 0.0898438 0.253906 " clip-rule="nonzero"/></clipPath><clipPath id="52923d0d43"><rect x="0" width="6" y="0" height="6"/></clipPath><clipPath id="c96b5c4b6c"><rect x="0" width="6" y="0" height="6"/></clipPath><clipPath id="c35c5161b8"><path d="M 23.304688 46.253906 L 28.800781 46.253906 L 28.800781 51.457031 L 23.304688 51.457031 Z M 23.304688 46.253906 " clip-rule="nonzero"/></clipPath><clipPath id="65a56fdadb"><path d="M 0.304688 0.253906 L 5.800781 0.253906 L 5.800781 5.457031 L 0.304688 5.457031 Z M 0.304688 0.253906 " clip-rule="nonzero"/></clipPath><clipPath id="2266609ec4"><rect x="0" width="6" y="0" height="6"/></clipPath><clipPath id="fb9f09f2cd"><path d="M 30.523438 46.253906 L 36.015625 46.253906 L 36.015625 51.457031 L 30.523438 51.457031 Z M 30.523438 46.253906 " clip-rule="nonzero"/></clipPath><clipPath id="8ef7f3aa29"><path d="M 0.523438 0.253906 L 6.015625 0.253906 L 6.015625 5.457031 L 0.523438 5.457031 Z M 0.523438 0.253906 " clip-rule="nonzero"/></clipPath><clipPath id="21b2c9ef0a"><rect x="0" width="7" y="0" height="6"/></clipPath><mask id="39a3f289bb"><g filter="url(#3493f97d21)"><rect x="-24" width="288" fill="#000000" y="-13.275" height="159.299998" fill-opacity="0.29"/></g></mask><clipPath id="4b9a61db55"><path d="M 0.988281 1.179688 L 6.484375 1.179688 L 6.484375 6.382812 L 0.988281 6.382812 Z M 0.988281 1.179688 " clip-rule="nonzero"/></clipPath><clipPath id="96e2049f0b"><path d="M 0.988281 0.179688 L 6.484375 0.179688 L 6.484375 5.382812 L 0.988281 5.382812 Z M 0.988281 0.179688 " clip-rule="nonzero"/></clipPath><clipPath id="5042a42774"><rect x="0" width="7" y="0" height="6"/></clipPath><clipPath id="7b6132c563"><rect x="0" width="7" y="0" height="7"/></clipPath><clipPath id="f992a8c1a5"><path d="M 16.089844 53.179688 L 21.585938 53.179688 L 21.585938 58.382812 L 16.089844 58.382812 Z M 16.089844 53.179688 " clip-rule="nonzero"/></clipPath><clipPath id="9af93adfc1"><path d="M 0.0898438 0.179688 L 5.585938 0.179688 L 5.585938 5.382812 L 0.0898438 5.382812 Z M 0.0898438 0.179688 " clip-rule="nonzero"/></clipPath><clipPath id="f46ca61259"><rect x="0" width="6" y="0" height="6"/></clipPath><clipPath id="d84f79cc3b"><path d="M 23.304688 53.179688 L 28.800781 53.179688 L 28.800781 58.382812 L 23.304688 58.382812 Z M 23.304688 53.179688 " clip-rule="nonzero"/></clipPath><clipPath id="a3b33fa7dc"><path d="M 0.304688 0.179688 L 5.800781 0.179688 L 5.800781 5.382812 L 0.304688 5.382812 Z M 0.304688 0.179688 " clip-rule="nonzero"/></clipPath><clipPath id="03eacd2329"><rect x="0" width="6" y="0" height="6"/></clipPath><mask id="15bdd753b2"><g filter="url(#3493f97d21)"><rect x="-24" width="288" fill="#000000" y="-13.275" height="159.299998" fill-opacity="0.29"/></g></mask><clipPath id="4a10bce88e"><path d="M 0.523438 1.179688 L 6.015625 1.179688 L 6.015625 6.382812 L 0.523438 6.382812 Z M 0.523438 1.179688 " clip-rule="nonzero"/></clipPath><clipPath id="445c6142d8"><path d="M 0.523438 0.179688 L 6.015625 0.179688 L 6.015625 5.382812 L 0.523438 5.382812 Z M 0.523438 0.179688 " clip-rule="nonzero"/></clipPath><clipPath id="d106a82484"><rect x="0" width="7" y="0" height="6"/></clipPath><clipPath id="4ecf705855"><rect x="0" width="7" y="0" height="7"/></clipPath><mask id="9ae97b4106"><g filter="url(#3493f97d21)"><rect x="-24" width="288" fill="#000000" y="-13.275" height="159.299998" fill-opacity="0.29"/></g></mask><clipPath id="524c025611"><path d="M 0.988281 1.105469 L 6.484375 1.105469 L 6.484375 6.3125 L 0.988281 6.3125 Z M 0.988281 1.105469 " clip-rule="nonzero"/></clipPath><clipPath id="15507578ee"><path d="M 0.988281 0.105469 L 6.484375 0.105469 L 6.484375 5.3125 L 0.988281 5.3125 Z M 0.988281 0.105469 " clip-rule="nonzero"/></clipPath><clipPath id="77717a5787"><rect x="0" width="7" y="0" height="6"/></clipPath><clipPath id="6eb75aa367"><rect x="0" width="7" y="0" height="7"/></clipPath><clipPath id="c433f8b9aa"><path d="M 16.089844 60.105469 L 21.585938 60.105469 L 21.585938 65.3125 L 16.089844 65.3125 Z M 16.089844 60.105469 " clip-rule="nonzero"/></clipPath><clipPath id="6bb6f62fa6"><path d="M 0.0898438 0.105469 L 5.585938 0.105469 L 5.585938 5.3125 L 0.0898438 5.3125 Z M 0.0898438 0.105469 " clip-rule="nonzero"/></clipPath><clipPath id="cc5859c8de"><rect x="0" width="6" y="0" height="6"/></clipPath><mask id="ea5fca6c5e"><g filter="url(#3493f97d21)"><rect x="-24" width="288" fill="#000000" y="-13.275" height="159.299998" fill-opacity="0.29"/></g></mask><clipPath id="24f8a0e77a"><path d="M 0.304688 1.105469 L 5.800781 1.105469 L 5.800781 6.3125 L 0.304688 6.3125 Z M 0.304688 1.105469 " clip-rule="nonzero"/></clipPath><clipPath id="53b41ca86c"><path d="M 0.304688 0.105469 L 5.800781 0.105469 L 5.800781 5.3125 L 0.304688 5.3125 Z M 0.304688 0.105469 " clip-rule="nonzero"/></clipPath><clipPath id="c1c92d3fea"><rect x="0" width="6" y="0" height="6"/></clipPath><clipPath id="32135f2671"><rect x="0" width="6" y="0" height="7"/></clipPath><mask id="5c2a5fa790"><g filter="url(#3493f97d21)"><rect x="-24" width="288" fill="#000000" y="-13.275" height="159.299998" fill-opacity="0.29"/></g></mask><clipPath id="2fb8688902"><path d="M 0.523438 1.105469 L 6.015625 1.105469 L 6.015625 6.3125 L 0.523438 6.3125 Z M 0.523438 1.105469 " clip-rule="nonzero"/></clipPath><clipPath id="bc0759c35a"><path d="M 0.523438 0.105469 L 6.015625 0.105469 L 6.015625 5.3125 L 0.523438 5.3125 Z M 0.523438 0.105469 " clip-rule="nonzero"/></clipPath><clipPath id="e5783cafb3"><rect x="0" width="7" y="0" height="6"/></clipPath><clipPath id="583ac0435e"><rect x="0" width="7" y="0" height="7"/></clipPath><mask id="d709d4a646"><g filter="url(#3493f97d21)"><rect x="-24" width="288" fill="#000000" y="-13.275" height="159.299998" fill-opacity="0.29"/></g></mask><clipPath id="0523254651"><path d="M 0.988281 0.871094 L 6.484375 0.871094 L 6.484375 6.074219 L 0.988281 6.074219 Z M 0.988281 0.871094 " clip-rule="nonzero"/></clipPath><clipPath id="27f0b71345"><path d="M 0.988281 0.871094 L 6.484375 0.871094 L 6.484375 6.074219 L 0.988281 6.074219 Z M 0.988281 0.871094 " clip-rule="nonzero"/></clipPath><clipPath id="074b154436"><rect x="0" width="7" y="0" height="7"/></clipPath><clipPath id="bb8051a813"><rect x="0" width="7" y="0" height="7"/></clipPath><clipPath id="877be8b42f"><path d="M 16.089844 66.871094 L 21.585938 66.871094 L 21.585938 72.074219 L 16.089844 72.074219 Z M 16.089844 66.871094 " clip-rule="nonzero"/></clipPath><clipPath id="3d4c74ced1"><path d="M 0.0898438 0.871094 L 5.585938 0.871094 L 5.585938 6.074219 L 0.0898438 6.074219 Z M 0.0898438 0.871094 " clip-rule="nonzero"/></clipPath><clipPath id="71de006e1b"><rect x="0" width="6" y="0" height="7"/></clipPath><mask id="473ba15ba5"><g filter="url(#3493f97d21)"><rect x="-24" width="288" fill="#000000" y="-13.275" height="159.299998" fill-opacity="0.29"/></g></mask><clipPath id="65a9eba7c9"><path d="M 0.304688 0.871094 L 5.800781 0.871094 L 5.800781 6.074219 L 0.304688 6.074219 Z M 0.304688 0.871094 " clip-rule="nonzero"/></clipPath><clipPath id="1b6ada8bef"><path d="M 0.304688 0.871094 L 5.800781 0.871094 L 5.800781 6.074219 L 0.304688 6.074219 Z M 0.304688 0.871094 " clip-rule="nonzero"/></clipPath><clipPath id="c1b084469f"><rect x="0" width="6" y="0" height="7"/></clipPath><clipPath id="c7dfaf0161"><rect x="0" width="6" y="0" height="7"/></clipPath><mask id="5ebb23b86a"><g filter="url(#3493f97d21)"><rect x="-24" width="288" fill="#000000" y="-13.275" height="159.299998" fill-opacity="0.29"/></g></mask><clipPath id="6a90dfb9d5"><path d="M 0.523438 0.871094 L 6.015625 0.871094 L 6.015625 6.074219 L 0.523438 6.074219 Z M 0.523438 0.871094 " clip-rule="nonzero"/></clipPath><clipPath id="13e37eec13"><path d="M 0.523438 0.871094 L 6.015625 0.871094 L 6.015625 6.074219 L 0.523438 6.074219 Z M 0.523438 0.871094 " clip-rule="nonzero"/></clipPath><clipPath id="80ccedee07"><rect x="0" width="7" y="0" height="7"/></clipPath><clipPath id="7d134278b1"><rect x="0" width="7" y="0" height="7"/></clipPath><mask id="3a0ec50449"><g filter="url(#3493f97d21)"><rect x="-24" width="288" fill="#000000" y="-13.275" height="159.299998" fill-opacity="0.29"/></g></mask><clipPath id="db83f8ef30"><path d="M 0.988281 0.796875 L 6.484375 0.796875 L 6.484375 6.003906 L 0.988281 6.003906 Z M 0.988281 0.796875 " clip-rule="nonzero"/></clipPath><clipPath id="f1b78b5832"><path d="M 0.988281 0.796875 L 6.484375 0.796875 L 6.484375 6.003906 L 0.988281 6.003906 Z M 0.988281 0.796875 " clip-rule="nonzero"/></clipPath><clipPath id="4180a3c07e"><rect x="0" width="7" y="0" height="7"/></clipPath><clipPath id="f88782ca4c"><rect x="0" width="7" y="0" height="7"/></clipPath><clipPath id="6b945df475"><path d="M 16.089844 73.796875 L 21.585938 73.796875 L 21.585938 79.003906 L 16.089844 79.003906 Z M 16.089844 73.796875 " clip-rule="nonzero"/></clipPath><clipPath id="149eccdc35"><path d="M 0.0898438 0.796875 L 5.585938 0.796875 L 5.585938 6.003906 L 0.0898438 6.003906 Z M 0.0898438 0.796875 " clip-rule="nonzero"/></clipPath><clipPath id="6d17a708d9"><rect x="0" width="6" y="0" height="7"/></clipPath><clipPath id="4d2e3fa653"><path d="M 23.304688 73.796875 L 28.800781 73.796875 L 28.800781 79.003906 L 23.304688 79.003906 Z M 23.304688 73.796875 " clip-rule="nonzero"/></clipPath><clipPath id="5328bcd7aa"><path d="M 0.304688 0.796875 L 5.800781 0.796875 L 5.800781 6.003906 L 0.304688 6.003906 Z M 0.304688 0.796875 " clip-rule="nonzero"/></clipPath><clipPath id="e2039dcf9f"><rect x="0" width="6" y="0" height="7"/></clipPath><mask id="9ee4749840"><g filter="url(#3493f97d21)"><rect x="-24" width="288" fill="#000000" y="-13.275" height="159.299998" fill-opacity="0.29"/></g></mask><clipPath id="fa525c9b66"><path d="M 0.523438 0.796875 L 6.015625 0.796875 L 6.015625 6.003906 L 0.523438 6.003906 Z M 0.523438 0.796875 " clip-rule="nonzero"/></clipPath><clipPath id="c8dc256925"><path d="M 0.523438 0.796875 L 6.015625 0.796875 L 6.015625 6.003906 L 0.523438 6.003906 Z M 0.523438 0.796875 " clip-rule="nonzero"/></clipPath><clipPath id="6c01092af7"><rect x="0" width="7" y="0" height="7"/></clipPath><clipPath id="8ae0aa0a7c"><rect x="0" width="7" y="0" height="7"/></clipPath><clipPath id="987c74a687"><path d="M 37.738281 80.722656 L 43.234375 80.722656 L 43.234375 85.929688 L 37.738281 85.929688 Z M 37.738281 80.722656 " clip-rule="nonzero"/></clipPath><clipPath id="fef5286eb3"><path d="M 0.738281 0.722656 L 6.234375 0.722656 L 6.234375 5.929688 L 0.738281 5.929688 Z M 0.738281 0.722656 " clip-rule="nonzero"/></clipPath><clipPath id="91a74302ac"><rect x="0" width="7" y="0" height="6"/></clipPath><clipPath id="02b8da9137"><path d="M 44.839844 80.722656 L 50.335938 80.722656 L 50.335938 85.929688 L 44.839844 85.929688 Z M 44.839844 80.722656 " clip-rule="nonzero"/></clipPath><clipPath id="fa0cc4b8bb"><path d="M 0.839844 0.722656 L 6.335938 0.722656 L 6.335938 5.929688 L 0.839844 5.929688 Z M 0.839844 0.722656 " clip-rule="nonzero"/></clipPath><clipPath id="fbefe580ad"><rect x="0" width="7" y="0" height="6"/></clipPath><mask id="7d4de7e4b4"><g filter="url(#3493f97d21)"><rect x="-24" width="288" fill="#000000" y="-13.275" height="159.299998" fill-opacity="0.29"/></g></mask><clipPath id="59fa9076ab"><path d="M 1.058594 0.722656 L 6.550781 0.722656 L 6.550781 5.929688 L 1.058594 5.929688 Z M 1.058594 0.722656 " clip-rule="nonzero"/></clipPath><clipPath id="b79a4eaee0"><path d="M 0.0585938 0.722656 L 5.550781 0.722656 L 5.550781 5.929688 L 0.0585938 5.929688 Z M 0.0585938 0.722656 " clip-rule="nonzero"/></clipPath><clipPath id="24628955a3"><rect x="0" width="6" y="0" height="6"/></clipPath><clipPath id="0acb99a369"><rect x="0" width="7" y="0" height="6"/></clipPath><mask id="41f28c55d7"><g filter="url(#3493f97d21)"><rect x="-24" width="288" fill="#000000" y="-13.275" height="159.299998" fill-opacity="0.29"/></g></mask><clipPath id="552d81a5e9"><path d="M 0.273438 0.722656 L 5.765625 0.722656 L 5.765625 5.929688 L 0.273438 5.929688 Z M 0.273438 0.722656 " clip-rule="nonzero"/></clipPath><clipPath id="75b4506648"><path d="M 0.273438 0.722656 L 5.765625 0.722656 L 5.765625 5.929688 L 0.273438 5.929688 Z M 0.273438 0.722656 " clip-rule="nonzero"/></clipPath><clipPath id="30d8226260"><rect x="0" width="6" y="0" height="6"/></clipPath><clipPath id="f968397d9a"><rect x="0" width="6" y="0" height="6"/></clipPath><mask id="f7e1df7778"><g filter="url(#3493f97d21)"><rect x="-24" width="288" fill="#000000" y="-13.275" height="159.299998" fill-opacity="0.29"/></g></mask><clipPath id="693a8a1367"><path d="M 0.738281 0.652344 L 6.234375 0.652344 L 6.234375 5.855469 L 0.738281 5.855469 Z M 0.738281 0.652344 " clip-rule="nonzero"/></clipPath><clipPath id="84501a614e"><path d="M 0.738281 0.652344 L 6.234375 0.652344 L 6.234375 5.855469 L 0.738281 5.855469 Z M 0.738281 0.652344 " clip-rule="nonzero"/></clipPath><clipPath id="2e7f0d68aa"><rect x="0" width="7" y="0" height="6"/></clipPath><clipPath id="b097f5e720"><rect x="0" width="7" y="0" height="6"/></clipPath><mask id="0170abb39f"><g filter="url(#3493f97d21)"><rect x="-24" width="288" fill="#000000" y="-13.275" height="159.299998" fill-opacity="0.29"/></g></mask><clipPath id="bd05cb4009"><path d="M 0.839844 0.652344 L 6.335938 0.652344 L 6.335938 5.855469 L 0.839844 5.855469 Z M 0.839844 0.652344 " clip-rule="nonzero"/></clipPath><clipPath id="e42c7a85d4"><path d="M 0.839844 0.652344 L 6.335938 0.652344 L 6.335938 5.855469 L 0.839844 5.855469 Z M 0.839844 0.652344 " clip-rule="nonzero"/></clipPath><clipPath id="18f5685a11"><rect x="0" width="7" y="0" height="6"/></clipPath><clipPath id="8b51e8eb1b"><rect x="0" width="7" y="0" height="6"/></clipPath><mask id="14198e7447"><g filter="url(#3493f97d21)"><rect x="-24" width="288" fill="#000000" y="-13.275" height="159.299998" fill-opacity="0.29"/></g></mask><clipPath id="0ac2754edf"><path d="M 1.058594 0.652344 L 6.550781 0.652344 L 6.550781 5.855469 L 1.058594 5.855469 Z M 1.058594 0.652344 " clip-rule="nonzero"/></clipPath><clipPath id="f6eaca67ab"><path d="M 0.0585938 0.652344 L 5.550781 0.652344 L 5.550781 5.855469 L 0.0585938 5.855469 Z M 0.0585938 0.652344 " clip-rule="nonzero"/></clipPath><clipPath id="808da3ec1b"><rect x="0" width="6" y="0" height="6"/></clipPath><clipPath id="f31209b94f"><rect x="0" width="7" y="0" height="6"/></clipPath><mask id="80e65519ca"><g filter="url(#3493f97d21)"><rect x="-24" width="288" fill="#000000" y="-13.275" height="159.299998" fill-opacity="0.29"/></g></mask><clipPath id="3131bca1ab"><path d="M 0.273438 0.652344 L 5.765625 0.652344 L 5.765625 5.855469 L 0.273438 5.855469 Z M 0.273438 0.652344 " clip-rule="nonzero"/></clipPath><clipPath id="cee0d4f9b2"><path d="M 0.273438 0.652344 L 5.765625 0.652344 L 5.765625 5.855469 L 0.273438 5.855469 Z M 0.273438 0.652344 " clip-rule="nonzero"/></clipPath><clipPath id="21325a959e"><rect x="0" width="6" y="0" height="6"/></clipPath><clipPath id="4f6cb44c7a"><rect x="0" width="6" y="0" height="6"/></clipPath><mask id="8f8a5370a7"><g filter="url(#3493f97d21)"><rect x="-24" width="288" fill="#000000" y="-13.275" height="159.299998" fill-opacity="0.29"/></g></mask><clipPath id="d274266d4b"><path d="M 0.988281 0.722656 L 6.484375 0.722656 L 6.484375 5.929688 L 0.988281 5.929688 Z M 0.988281 0.722656 " clip-rule="nonzero"/></clipPath><clipPath id="63611dd231"><path d="M 0.988281 0.722656 L 6.484375 0.722656 L 6.484375 5.929688 L 0.988281 5.929688 Z M 0.988281 0.722656 " clip-rule="nonzero"/></clipPath><clipPath id="eccd8d9837"><rect x="0" width="7" y="0" height="6"/></clipPath><clipPath id="213875d05e"><rect x="0" width="7" y="0" height="6"/></clipPath><mask id="1104868f6d"><g filter="url(#3493f97d21)"><rect x="-24" width="288" fill="#000000" y="-13.275" height="159.299998" fill-opacity="0.29"/></g></mask><clipPath id="13571c6b64"><path d="M 0.0898438 0.722656 L 5.585938 0.722656 L 5.585938 5.929688 L 0.0898438 5.929688 Z M 0.0898438 0.722656 " clip-rule="nonzero"/></clipPath><clipPath id="abbeac84d7"><path d="M 0.0898438 0.722656 L 5.585938 0.722656 L 5.585938 5.929688 L 0.0898438 5.929688 Z M 0.0898438 0.722656 " clip-rule="nonzero"/></clipPath><clipPath id="1846a13b08"><rect x="0" width="6" y="0" height="6"/></clipPath><clipPath id="2bed0cbc2f"><rect x="0" width="6" y="0" height="6"/></clipPath><clipPath id="27fcbd0f47"><path d="M 23.304688 80.722656 L 28.800781 80.722656 L 28.800781 85.929688 L 23.304688 85.929688 Z M 23.304688 80.722656 " clip-rule="nonzero"/></clipPath><clipPath id="a98eceec85"><path d="M 0.304688 0.722656 L 5.800781 0.722656 L 5.800781 5.929688 L 0.304688 5.929688 Z M 0.304688 0.722656 " clip-rule="nonzero"/></clipPath><clipPath id="1026ad6f53"><rect x="0" width="6" y="0" height="6"/></clipPath><clipPath id="84cdb7ff05"><path d="M 30.523438 80.722656 L 36.015625 80.722656 L 36.015625 85.929688 L 30.523438 85.929688 Z M 30.523438 80.722656 " clip-rule="nonzero"/></clipPath><clipPath id="d096fdacd4"><path d="M 0.523438 0.722656 L 6.015625 0.722656 L 6.015625 5.929688 L 0.523438 5.929688 Z M 0.523438 0.722656 " clip-rule="nonzero"/></clipPath><clipPath id="84d80afae7"><rect x="0" width="7" y="0" height="6"/></clipPath><mask id="84331cdb70"><g filter="url(#3493f97d21)"><rect x="-24" width="288" fill="#000000" y="-13.275" height="159.299998" fill-opacity="0.29"/></g></mask><clipPath id="c7eac50462"><path d="M 0.988281 0.652344 L 6.484375 0.652344 L 6.484375 5.855469 L 0.988281 5.855469 Z M 0.988281 0.652344 " clip-rule="nonzero"/></clipPath><clipPath id="414c2ac989"><path d="M 0.988281 0.652344 L 6.484375 0.652344 L 6.484375 5.855469 L 0.988281 5.855469 Z M 0.988281 0.652344 " clip-rule="nonzero"/></clipPath><clipPath id="3d1cb46184"><rect x="0" width="7" y="0" height="6"/></clipPath><clipPath id="b173375084"><rect x="0" width="7" y="0" height="6"/></clipPath><mask id="30b59635a3"><g filter="url(#3493f97d21)"><rect x="-24" width="288" fill="#000000" y="-13.275" height="159.299998" fill-opacity="0.29"/></g></mask><clipPath id="dd5e28316e"><path d="M 0.0898438 0.652344 L 5.585938 0.652344 L 5.585938 5.855469 L 0.0898438 5.855469 Z M 0.0898438 0.652344 " clip-rule="nonzero"/></clipPath><clipPath id="6784f21dfb"><path d="M 0.0898438 0.652344 L 5.585938 0.652344 L 5.585938 5.855469 L 0.0898438 5.855469 Z M 0.0898438 0.652344 " clip-rule="nonzero"/></clipPath><clipPath id="bf3526a586"><rect x="0" width="6" y="0" height="6"/></clipPath><clipPath id="bb502f8e8c"><rect x="0" width="6" y="0" height="6"/></clipPath><mask id="93ff8cb902"><g filter="url(#3493f97d21)"><rect x="-24" width="288" fill="#000000" y="-13.275" height="159.299998" fill-opacity="0.29"/></g></mask><clipPath id="f50e5057fe"><path d="M 0.304688 0.652344 L 5.800781 0.652344 L 5.800781 5.855469 L 0.304688 5.855469 Z M 0.304688 0.652344 " clip-rule="nonzero"/></clipPath><clipPath id="10281fe479"><path d="M 0.304688 0.652344 L 5.800781 0.652344 L 5.800781 5.855469 L 0.304688 5.855469 Z M 0.304688 0.652344 " clip-rule="nonzero"/></clipPath><clipPath id="bfa52adf26"><rect x="0" width="6" y="0" height="6"/></clipPath><clipPath id="26af6c85c7"><rect x="0" width="6" y="0" height="6"/></clipPath><mask id="fa740a9015"><g filter="url(#3493f97d21)"><rect x="-24" width="288" fill="#000000" y="-13.275" height="159.299998" fill-opacity="0.29"/></g></mask><clipPath id="84f03e95f9"><path d="M 0.523438 0.652344 L 6.015625 0.652344 L 6.015625 5.855469 L 0.523438 5.855469 Z M 0.523438 0.652344 " clip-rule="nonzero"/></clipPath><clipPath id="9b26362b81"><path d="M 0.523438 0.652344 L 6.015625 0.652344 L 6.015625 5.855469 L 0.523438 5.855469 Z M 0.523438 0.652344 " clip-rule="nonzero"/></clipPath><clipPath id="51d685e689"><rect x="0" width="7" y="0" height="6"/></clipPath><clipPath id="82fbcec325"><rect x="0" width="7" y="0" height="6"/></clipPath></defs><g clip-path="url(#f92eb76fc8)"><g transform="matrix(1, 0, 0, 1, 0.000000000000000028, 30)"><g clip-path="url(#63609cb218)"><g clip-path="url(#233abffc44)"><path fill="#000000" d="M 0.226562 0.984375 L 6.671875 0.984375 L 6.671875 71.359375 L 0.226562 71.359375 Z M 0.226562 0.984375 " fill-opacity="1" fill-rule="nonzero"/></g></g></g></g><g clip-path="url(#edb776bb78)"><g transform="matrix(1, 0, 0, 1, 0.000000000000000028, 30)"><g clip-path="url(#28795d18b4)"><g clip-path="url(#9e3d61cee1)"><path fill="#000000" d="M 0.226562 7.078125 L 0.226562 0.980469 L 19.238281 0.980469 L 19.238281 7.078125 Z M 0.226562 7.078125 " fill-opacity="1" fill-rule="nonzero"/></g></g></g></g><g clip-path="url(#1f1c52f590)"><g transform="matrix(1, 0, 0, 1, 0.000000000000000028, 95)"><g clip-path="url(#d56406f342)"><g clip-path="url(#04fd2e76e2)"><path fill="#000000" d="M 0.226562 6.355469 L 0.226562 0.253906 L 19.238281 0.253906 L 19.238281 6.355469 Z M 0.226562 6.355469 " fill-opacity="1" fill-rule="nonzero"/></g></g></g></g><g clip-path="url(#94769073f2)"><g transform="matrix(1, 0, 0, 1, 67, 30)"><g clip-path="url(#c71815fd03)"><g clip-path="url(#af1a925233)"><path fill="#000000" d="M 6.222656 71.351562 L 0.0742188 71.351562 L 0.0742188 0.980469 L 6.222656 0.980469 Z M 6.222656 71.351562 " fill-opacity="1" fill-rule="nonzero"/></g></g></g></g><g clip-path="url(#406ce08135)"><g transform="matrix(1, 0, 0, 1, 54, 95)"><g clip-path="url(#cee12c0fcc)"><g clip-path="url(#80a5943acb)"><path fill="#000000" d="M 19.222656 0.257812 L 19.222656 6.355469 L 0.496094 6.355469 L 0.496094 0.257812 Z M 19.222656 0.257812 " fill-opacity="1" fill-rule="nonzero"/></g></g></g></g><g clip-path="url(#248e0f33a5)"><g transform="matrix(1, 0, 0, 1, 54, 30)"><g clip-path="url(#d2adc03621)"><g clip-path="url(#dceede27ad)"><path fill="#000000" d="M 19.222656 0.984375 L 19.222656 7.082031 L 0.496094 7.082031 L 0.496094 0.984375 Z M 19.222656 0.984375 " fill-opacity="1" fill-rule="nonzero"/></g></g></g></g><g transform="matrix(1, 0, 0, 1, 75, 20)"><g clip-path="url(#f41e2ea232)"><g fill="#000000" fill-opacity="1"><g transform="translate(0.957832, 72.879828)"><g><path d="M 54.0625 -52.1875 L 54.0625 0 L 44.140625 0 L 18.125 -31.6875 L 18.125 0 L 6.1875 0 L 6.1875 -52.1875 L 16.1875 -52.1875 L 42.125 -20.5 L 42.125 -52.1875 Z M 54.0625 -52.1875 "/></g></g></g><g fill="#000000" fill-opacity="1"><g transform="translate(61.207474, 72.879828)"><g><path d="M 6.1875 -52.1875 L 18.265625 -52.1875 L 18.265625 0 L 6.1875 0 Z M 6.1875 -52.1875 "/></g></g></g><g fill="#000000" fill-opacity="1"><g transform="translate(85.665251, 72.879828)"><g><path d="M 40.5625 -11.1875 L 16.328125 -11.1875 L 11.703125 0 L -0.671875 0 L 22.59375 -52.1875 L 34.515625 -52.1875 L 57.859375 0 L 45.1875 0 Z M 36.765625 -20.359375 L 28.484375 -40.34375 L 20.203125 -20.359375 Z M 36.765625 -20.359375 "/></g></g></g></g></g><g mask="url(#ce35899c26)"><g transform="matrix(1, 0, 0, 1, 37, 39)"><g clip-path="url(#c8bd69ee87)"><g clip-path="url(#e52c685fa5)"><g transform="matrix(1, 0, 0, 1, 0, -0.000000000000014211)"><g clip-path="url(#4612bbf7bb)"><g clip-path="url(#761312026d)"><path fill="#8c52ff" d="M 0.738281 0.488281 L 6.226562 0.488281 L 6.226562 5.691406 L 0.738281 5.691406 Z M 0.738281 0.488281 " fill-opacity="1" fill-rule="nonzero"/></g></g></g></g></g></g></g><g mask="url(#022a79fd9f)"><g transform="matrix(1, 0, 0, 1, 44, 39)"><g clip-path="url(#68d7105b0e)"><g clip-path="url(#2e1e507eec)"><g transform="matrix(1, 0, 0, 1, -0.000000000000007105, -0.000000000000014211)"><g clip-path="url(#79b6d555d3)"><g clip-path="url(#de83969f0e)"><path fill="#8c52ff" d="M 0.839844 0.488281 L 6.328125 0.488281 L 6.328125 5.691406 L 0.839844 5.691406 Z M 0.839844 0.488281 " fill-opacity="1" fill-rule="nonzero"/></g></g></g></g></g></g></g><g mask="url(#ffc1ed2622)"><g transform="matrix(1, 0, 0, 1, 51, 39)"><g clip-path="url(#f6a9360914)"><g clip-path="url(#c654ffe362)"><g transform="matrix(1, 0, 0, 1, 1, -0.000000000000014211)"><g clip-path="url(#589b5d81c4)"><g clip-path="url(#9650fc1ded)"><path fill="#8c52ff" d="M 0.0585938 0.488281 L 5.546875 0.488281 L 5.546875 5.691406 L 0.0585938 5.691406 Z M 0.0585938 0.488281 " fill-opacity="1" fill-rule="nonzero"/></g></g></g></g></g></g></g><g mask="url(#4d5c489e3f)"><g transform="matrix(1, 0, 0, 1, 59, 39)"><g clip-path="url(#ba75bb5647)"><g clip-path="url(#25267421a0)"><g transform="matrix(1, 0, 0, 1, -0.000000000000014211, -0.000000000000014211)"><g clip-path="url(#3e6e5adc1f)"><g clip-path="url(#60174fc268)"><path fill="#8c52ff" d="M 0.273438 0.488281 L 5.761719 0.488281 L 5.761719 5.691406 L 0.273438 5.691406 Z M 0.273438 0.488281 " fill-opacity="1" fill-rule="nonzero"/></g></g></g></g></g></g></g><g clip-path="url(#3440f77e2f)"><g transform="matrix(1, 0, 0, 1, 37, 46)"><g clip-path="url(#59557fcecc)"><g clip-path="url(#419bf9d12c)"><path fill="#8c52ff" d="M 0.738281 0.253906 L 6.226562 0.253906 L 6.226562 5.457031 L 0.738281 5.457031 Z M 0.738281 0.253906 " fill-opacity="1" fill-rule="nonzero"/></g></g></g></g><g clip-path="url(#d3f5dfb6c0)"><g transform="matrix(1, 0, 0, 1, 44, 46)"><g clip-path="url(#f5a1b190f9)"><g clip-path="url(#59c4dd7fa7)"><path fill="#8c52ff" d="M 0.839844 0.253906 L 6.328125 0.253906 L 6.328125 5.457031 L 0.839844 5.457031 Z M 0.839844 0.253906 " fill-opacity="1" fill-rule="nonzero"/></g></g></g></g><g mask="url(#4d03894eaa)"><g transform="matrix(1, 0, 0, 1, 51, 46)"><g clip-path="url(#61fd8f3cda)"><g clip-path="url(#b310a27d46)"><g transform="matrix(1, 0, 0, 1, 1, -0.000000000000014211)"><g clip-path="url(#c339aa7e72)"><g clip-path="url(#d5c79768cb)"><path fill="#8c52ff" d="M 0.0585938 0.253906 L 5.546875 0.253906 L 5.546875 5.457031 L 0.0585938 5.457031 Z M 0.0585938 0.253906 " fill-opacity="1" fill-rule="nonzero"/></g></g></g></g></g></g></g><g mask="url(#ff766dff42)"><g transform="matrix(1, 0, 0, 1, 59, 46)"><g clip-path="url(#0badbacd5f)"><g clip-path="url(#549252ad9d)"><g transform="matrix(1, 0, 0, 1, -0.000000000000014211, -0.000000000000014211)"><g clip-path="url(#07a5268027)"><g clip-path="url(#4ef53b240e)"><path fill="#8c52ff" d="M 0.273438 0.253906 L 5.761719 0.253906 L 5.761719 5.457031 L 0.273438 5.457031 Z M 0.273438 0.253906 " fill-opacity="1" fill-rule="nonzero"/></g></g></g></g></g></g></g><g mask="url(#5d64a8fe6b)"><g transform="matrix(1, 0, 0, 1, 37, 52)"><g clip-path="url(#46c6f9711c)"><g clip-path="url(#26ba959891)"><g transform="matrix(1, 0, 0, 1, 0, 1)"><g clip-path="url(#379fa31e69)"><g clip-path="url(#e174ca0460)"><path fill="#8c52ff" d="M 0.738281 0.179688 L 6.226562 0.179688 L 6.226562 5.382812 L 0.738281 5.382812 Z M 0.738281 0.179688 " fill-opacity="1" fill-rule="nonzero"/></g></g></g></g></g></g></g><g clip-path="url(#083731fe15)"><g transform="matrix(1, 0, 0, 1, 44, 53)"><g clip-path="url(#438f11edeb)"><g clip-path="url(#9557eaa055)"><path fill="#8c52ff" d="M 0.839844 0.179688 L 6.328125 0.179688 L 6.328125 5.382812 L 0.839844 5.382812 Z M 0.839844 0.179688 " fill-opacity="1" fill-rule="nonzero"/></g></g></g></g><g clip-path="url(#b1241bc53e)"><g transform="matrix(1, 0, 0, 1, 52, 53)"><g clip-path="url(#17f071ddf4)"><g clip-path="url(#04d645c582)"><path fill="#8c52ff" d="M 0.0585938 0.179688 L 5.546875 0.179688 L 5.546875 5.382812 L 0.0585938 5.382812 Z M 0.0585938 0.179688 " fill-opacity="1" fill-rule="nonzero"/></g></g></g></g><g mask="url(#4cde1b96c7)"><g transform="matrix(1, 0, 0, 1, 59, 52)"><g clip-path="url(#edd43b5cfe)"><g clip-path="url(#264b0638e6)"><g transform="matrix(1, 0, 0, 1, -0.000000000000014211, 1)"><g clip-path="url(#8e254cd1af)"><g clip-path="url(#7dbb4407db)"><path fill="#8c52ff" d="M 0.273438 0.179688 L 5.761719 0.179688 L 5.761719 5.382812 L 0.273438 5.382812 Z M 0.273438 0.179688 " fill-opacity="1" fill-rule="nonzero"/></g></g></g></g></g></g></g><g mask="url(#4a8262369b)"><g transform="matrix(1, 0, 0, 1, 37, 59)"><g clip-path="url(#02e19e54cc)"><g clip-path="url(#a4d733296e)"><g transform="matrix(1, 0, 0, 1, 0, 1)"><g clip-path="url(#48e5e016aa)"><g clip-path="url(#4a6ecad3e2)"><path fill="#8c52ff" d="M 0.738281 0.105469 L 6.226562 0.105469 L 6.226562 5.3125 L 0.738281 5.3125 Z M 0.738281 0.105469 " fill-opacity="1" fill-rule="nonzero"/></g></g></g></g></g></g></g><g mask="url(#8d1ed04f79)"><g transform="matrix(1, 0, 0, 1, 44, 59)"><g clip-path="url(#67466804c5)"><g clip-path="url(#b33d8e10ba)"><g transform="matrix(1, 0, 0, 1, -0.000000000000007105, 1)"><g clip-path="url(#f0e1d523c5)"><g clip-path="url(#9cedd748f7)"><path fill="#8c52ff" d="M 0.839844 0.105469 L 6.328125 0.105469 L 6.328125 5.3125 L 0.839844 5.3125 Z M 0.839844 0.105469 " fill-opacity="1" fill-rule="nonzero"/></g></g></g></g></g></g></g><g clip-path="url(#ce88ed02a0)"><g transform="matrix(1, 0, 0, 1, 52, 60)"><g clip-path="url(#dde46073a2)"><g clip-path="url(#d81d5aa538)"><path fill="#8c52ff" d="M 0.0585938 0.105469 L 5.546875 0.105469 L 5.546875 5.3125 L 0.0585938 5.3125 Z M 0.0585938 0.105469 " fill-opacity="1" fill-rule="nonzero"/></g></g></g></g><g mask="url(#4da04ff339)"><g transform="matrix(1, 0, 0, 1, 59, 59)"><g clip-path="url(#3d4092de7b)"><g clip-path="url(#e3bf1143b6)"><g transform="matrix(1, 0, 0, 1, -0.000000000000014211, 1)"><g clip-path="url(#ef78449045)"><g clip-path="url(#55b555f588)"><path fill="#8c52ff" d="M 0.273438 0.105469 L 5.761719 0.105469 L 5.761719 5.3125 L 0.273438 5.3125 Z M 0.273438 0.105469 " fill-opacity="1" fill-rule="nonzero"/></g></g></g></g></g></g></g><g mask="url(#a7f858806b)"><g transform="matrix(1, 0, 0, 1, 37, 66)"><g clip-path="url(#f6b5302afe)"><g clip-path="url(#44dba7f038)"><g transform="matrix(1, 0, 0, 1, 0, -0.000000000000014211)"><g clip-path="url(#85cb785824)"><g clip-path="url(#4e59a37eb8)"><path fill="#8c52ff" d="M 0.738281 0.871094 L 6.226562 0.871094 L 6.226562 6.074219 L 0.738281 6.074219 Z M 0.738281 0.871094 " fill-opacity="1" fill-rule="nonzero"/></g></g></g></g></g></g></g><g mask="url(#0df486047f)"><g transform="matrix(1, 0, 0, 1, 44, 66)"><g clip-path="url(#d56a3418ec)"><g clip-path="url(#c492095c26)"><g transform="matrix(1, 0, 0, 1, -0.000000000000007105, -0.000000000000014211)"><g clip-path="url(#fafa580622)"><g clip-path="url(#52eccdca07)"><path fill="#8c52ff" d="M 0.839844 0.871094 L 6.328125 0.871094 L 6.328125 6.074219 L 0.839844 6.074219 Z M 0.839844 0.871094 " fill-opacity="1" fill-rule="nonzero"/></g></g></g></g></g></g></g><g mask="url(#ccea1ece0a)"><g transform="matrix(1, 0, 0, 1, 51, 66)"><g clip-path="url(#daa60a0d61)"><g clip-path="url(#39b7229e3e)"><g transform="matrix(1, 0, 0, 1, 1, -0.000000000000014211)"><g clip-path="url(#4d4d16941b)"><g clip-path="url(#1304a9d832)"><path fill="#8c52ff" d="M 0.0585938 0.871094 L 5.546875 0.871094 L 5.546875 6.074219 L 0.0585938 6.074219 Z M 0.0585938 0.871094 " fill-opacity="1" fill-rule="nonzero"/></g></g></g></g></g></g></g><g mask="url(#c03f7a3df6)"><g transform="matrix(1, 0, 0, 1, 59, 66)"><g clip-path="url(#2391d1f3ae)"><g clip-path="url(#bbfae83241)"><g transform="matrix(1, 0, 0, 1, -0.000000000000014211, -0.000000000000014211)"><g clip-path="url(#69e0e683d2)"><g clip-path="url(#c25fc7c29b)"><path fill="#8c52ff" d="M 0.273438 0.871094 L 5.761719 0.871094 L 5.761719 6.074219 L 0.273438 6.074219 Z M 0.273438 0.871094 " fill-opacity="1" fill-rule="nonzero"/></g></g></g></g></g></g></g><g mask="url(#d09f280a75)"><g transform="matrix(1, 0, 0, 1, 37, 73)"><g clip-path="url(#e43dfbe029)"><g clip-path="url(#20cb2e6718)"><g transform="matrix(1, 0, 0, 1, 0, -0.000000000000014211)"><g clip-path="url(#983bc3a05a)"><g clip-path="url(#98b4f76a2d)"><path fill="#8c52ff" d="M 0.738281 0.796875 L 6.226562 0.796875 L 6.226562 6.003906 L 0.738281 6.003906 Z M 0.738281 0.796875 " fill-opacity="1" fill-rule="nonzero"/></g></g></g></g></g></g></g><g clip-path="url(#965c544967)"><g transform="matrix(1, 0, 0, 1, 44, 73)"><g clip-path="url(#646a5bc27e)"><g clip-path="url(#0bb25677a6)"><path fill="#8c52ff" d="M 0.839844 0.796875 L 6.328125 0.796875 L 6.328125 6.003906 L 0.839844 6.003906 Z M 0.839844 0.796875 " fill-opacity="1" fill-rule="nonzero"/></g></g></g></g><g clip-path="url(#898baaf1b5)"><g transform="matrix(1, 0, 0, 1, 52, 73)"><g clip-path="url(#a4e48cd530)"><g clip-path="url(#e5ffe500d4)"><path fill="#8c52ff" d="M 0.0585938 0.796875 L 5.546875 0.796875 L 5.546875 6.003906 L 0.0585938 6.003906 Z M 0.0585938 0.796875 " fill-opacity="1" fill-rule="nonzero"/></g></g></g></g><g mask="url(#e7c466a2c5)"><g transform="matrix(1, 0, 0, 1, 59, 73)"><g clip-path="url(#8e60491a0f)"><g clip-path="url(#d1864008cb)"><g transform="matrix(1, 0, 0, 1, -0.000000000000014211, -0.000000000000014211)"><g clip-path="url(#9a4291aa25)"><g clip-path="url(#4d441217bf)"><path fill="#8c52ff" d="M 0.273438 0.796875 L 5.761719 0.796875 L 5.761719 6.003906 L 0.273438 6.003906 Z M 0.273438 0.796875 " fill-opacity="1" fill-rule="nonzero"/></g></g></g></g></g></g></g><g mask="url(#c52c5eb354)"><g transform="matrix(1, 0, 0, 1, 8, 39)"><g clip-path="url(#fc7b63a329)"><g clip-path="url(#04f3c67183)"><g transform="matrix(1, 0, 0, 1, -0.000000000000001776, -0.000000000000014211)"><g clip-path="url(#d2ff3461c7)"><g clip-path="url(#cc7422319a)"><path fill="#8c52ff" d="M 0.988281 0.488281 L 6.476562 0.488281 L 6.476562 5.691406 L 0.988281 5.691406 Z M 0.988281 0.488281 " fill-opacity="1" fill-rule="nonzero"/></g></g></g></g></g></g></g><g mask="url(#d2f10f1492)"><g transform="matrix(1, 0, 0, 1, 16, 39)"><g clip-path="url(#5ae133c7af)"><g clip-path="url(#da9d840d0f)"><g transform="matrix(1, 0, 0, 1, -0.000000000000003553, -0.000000000000014211)"><g clip-path="url(#0ee7f24d97)"><g clip-path="url(#17efc67908)"><path fill="#8c52ff" d="M 0.0898438 0.488281 L 5.578125 0.488281 L 5.578125 5.691406 L 0.0898438 5.691406 Z M 0.0898438 0.488281 " fill-opacity="1" fill-rule="nonzero"/></g></g></g></g></g></g></g><g mask="url(#de578b3fd5)"><g transform="matrix(1, 0, 0, 1, 23, 39)"><g clip-path="url(#ec2648d9cb)"><g clip-path="url(#cac7e3de5a)"><g transform="matrix(1, 0, 0, 1, -0.000000000000003553, -0.000000000000014211)"><g clip-path="url(#0ecd61e165)"><g clip-path="url(#4758844c6c)"><path fill="#8c52ff" d="M 0.304688 0.488281 L 5.796875 0.488281 L 5.796875 5.691406 L 0.304688 5.691406 Z M 0.304688 0.488281 " fill-opacity="1" fill-rule="nonzero"/></g></g></g></g></g></g></g><g mask="url(#6a88eb0f7a)"><g transform="matrix(1, 0, 0, 1, 30, 39)"><g clip-path="url(#ef3269c6e5)"><g clip-path="url(#fd29f2412c)"><g transform="matrix(1, 0, 0, 1, -0.000000000000007105, -0.000000000000014211)"><g clip-path="url(#79e6f2a1ed)"><g clip-path="url(#930f80bb5b)"><path fill="#8c52ff" d="M 0.523438 0.488281 L 6.011719 0.488281 L 6.011719 5.691406 L 0.523438 5.691406 Z M 0.523438 0.488281 " fill-opacity="1" fill-rule="nonzero"/></g></g></g></g></g></g></g><g mask="url(#7120a007e3)"><g transform="matrix(1, 0, 0, 1, 8, 46)"><g clip-path="url(#febde2274f)"><g clip-path="url(#e81b43e37b)"><g transform="matrix(1, 0, 0, 1, -0.000000000000001776, -0.000000000000014211)"><g clip-path="url(#59d13dcc2e)"><g clip-path="url(#8432a57c5b)"><path fill="#8c52ff" d="M 0.988281 0.253906 L 6.476562 0.253906 L 6.476562 5.457031 L 0.988281 5.457031 Z M 0.988281 0.253906 " fill-opacity="1" fill-rule="nonzero"/></g></g></g></g></g></g></g><g mask="url(#ebbaa2bce7)"><g transform="matrix(1, 0, 0, 1, 16, 46)"><g clip-path="url(#c96b5c4b6c)"><g clip-path="url(#92c60d84ed)"><g transform="matrix(1, 0, 0, 1, -0.000000000000003553, -0.000000000000014211)"><g clip-path="url(#52923d0d43)"><g clip-path="url(#bc95eab423)"><path fill="#8c52ff" d="M 0.0898438 0.253906 L 5.578125 0.253906 L 5.578125 5.457031 L 0.0898438 5.457031 Z M 0.0898438 0.253906 " fill-opacity="1" fill-rule="nonzero"/></g></g></g></g></g></g></g><g clip-path="url(#c35c5161b8)"><g transform="matrix(1, 0, 0, 1, 23, 46)"><g clip-path="url(#2266609ec4)"><g clip-path="url(#65a56fdadb)"><path fill="#8c52ff" d="M 0.304688 0.253906 L 5.796875 0.253906 L 5.796875 5.457031 L 0.304688 5.457031 Z M 0.304688 0.253906 " fill-opacity="1" fill-rule="nonzero"/></g></g></g></g><g clip-path="url(#fb9f09f2cd)"><g transform="matrix(1, 0, 0, 1, 30, 46)"><g clip-path="url(#21b2c9ef0a)"><g clip-path="url(#8ef7f3aa29)"><path fill="#8c52ff" d="M 0.523438 0.253906 L 6.011719 0.253906 L 6.011719 5.457031 L 0.523438 5.457031 Z M 0.523438 0.253906 " fill-opacity="1" fill-rule="nonzero"/></g></g></g></g><g mask="url(#39a3f289bb)"><g transform="matrix(1, 0, 0, 1, 8, 52)"><g clip-path="url(#7b6132c563)"><g clip-path="url(#4b9a61db55)"><g transform="matrix(1, 0, 0, 1, -0.000000000000001776, 1)"><g clip-path="url(#5042a42774)"><g clip-path="url(#96e2049f0b)"><path fill="#8c52ff" d="M 0.988281 0.179688 L 6.476562 0.179688 L 6.476562 5.382812 L 0.988281 5.382812 Z M 0.988281 0.179688 " fill-opacity="1" fill-rule="nonzero"/></g></g></g></g></g></g></g><g clip-path="url(#f992a8c1a5)"><g transform="matrix(1, 0, 0, 1, 16, 53)"><g clip-path="url(#f46ca61259)"><g clip-path="url(#9af93adfc1)"><path fill="#8c52ff" d="M 0.0898438 0.179688 L 5.578125 0.179688 L 5.578125 5.382812 L 0.0898438 5.382812 Z M 0.0898438 0.179688 " fill-opacity="1" fill-rule="nonzero"/></g></g></g></g><g clip-path="url(#d84f79cc3b)"><g transform="matrix(1, 0, 0, 1, 23, 53)"><g clip-path="url(#03eacd2329)"><g clip-path="url(#a3b33fa7dc)"><path fill="#8c52ff" d="M 0.304688 0.179688 L 5.796875 0.179688 L 5.796875 5.382812 L 0.304688 5.382812 Z M 0.304688 0.179688 " fill-opacity="1" fill-rule="nonzero"/></g></g></g></g><g mask="url(#15bdd753b2)"><g transform="matrix(1, 0, 0, 1, 30, 52)"><g clip-path="url(#4ecf705855)"><g clip-path="url(#4a10bce88e)"><g transform="matrix(1, 0, 0, 1, -0.000000000000007105, 1)"><g clip-path="url(#d106a82484)"><g clip-path="url(#445c6142d8)"><path fill="#8c52ff" d="M 0.523438 0.179688 L 6.011719 0.179688 L 6.011719 5.382812 L 0.523438 5.382812 Z M 0.523438 0.179688 " fill-opacity="1" fill-rule="nonzero"/></g></g></g></g></g></g></g><g mask="url(#9ae97b4106)"><g transform="matrix(1, 0, 0, 1, 8, 59)"><g clip-path="url(#6eb75aa367)"><g clip-path="url(#524c025611)"><g transform="matrix(1, 0, 0, 1, -0.000000000000001776, 1)"><g clip-path="url(#77717a5787)"><g clip-path="url(#15507578ee)"><path fill="#8c52ff" d="M 0.988281 0.105469 L 6.476562 0.105469 L 6.476562 5.3125 L 0.988281 5.3125 Z M 0.988281 0.105469 " fill-opacity="1" fill-rule="nonzero"/></g></g></g></g></g></g></g><g clip-path="url(#c433f8b9aa)"><g transform="matrix(1, 0, 0, 1, 16, 60)"><g clip-path="url(#cc5859c8de)"><g clip-path="url(#6bb6f62fa6)"><path fill="#8c52ff" d="M 0.0898438 0.105469 L 5.578125 0.105469 L 5.578125 5.3125 L 0.0898438 5.3125 Z M 0.0898438 0.105469 " fill-opacity="1" fill-rule="nonzero"/></g></g></g></g><g mask="url(#ea5fca6c5e)"><g transform="matrix(1, 0, 0, 1, 23, 59)"><g clip-path="url(#32135f2671)"><g clip-path="url(#24f8a0e77a)"><g transform="matrix(1, 0, 0, 1, -0.000000000000003553, 1)"><g clip-path="url(#c1c92d3fea)"><g clip-path="url(#53b41ca86c)"><path fill="#8c52ff" d="M 0.304688 0.105469 L 5.796875 0.105469 L 5.796875 5.3125 L 0.304688 5.3125 Z M 0.304688 0.105469 " fill-opacity="1" fill-rule="nonzero"/></g></g></g></g></g></g></g><g mask="url(#5c2a5fa790)"><g transform="matrix(1, 0, 0, 1, 30, 59)"><g clip-path="url(#583ac0435e)"><g clip-path="url(#2fb8688902)"><g transform="matrix(1, 0, 0, 1, -0.000000000000007105, 1)"><g clip-path="url(#e5783cafb3)"><g clip-path="url(#bc0759c35a)"><path fill="#8c52ff" d="M 0.523438 0.105469 L 6.011719 0.105469 L 6.011719 5.3125 L 0.523438 5.3125 Z M 0.523438 0.105469 " fill-opacity="1" fill-rule="nonzero"/></g></g></g></g></g></g></g><g mask="url(#d709d4a646)"><g transform="matrix(1, 0, 0, 1, 8, 66)"><g clip-path="url(#bb8051a813)"><g clip-path="url(#0523254651)"><g transform="matrix(1, 0, 0, 1, -0.000000000000001776, -0.000000000000014211)"><g clip-path="url(#074b154436)"><g clip-path="url(#27f0b71345)"><path fill="#8c52ff" d="M 0.988281 0.871094 L 6.476562 0.871094 L 6.476562 6.074219 L 0.988281 6.074219 Z M 0.988281 0.871094 " fill-opacity="1" fill-rule="nonzero"/></g></g></g></g></g></g></g><g clip-path="url(#877be8b42f)"><g transform="matrix(1, 0, 0, 1, 16, 66)"><g clip-path="url(#71de006e1b)"><g clip-path="url(#3d4c74ced1)"><path fill="#8c52ff" d="M 0.0898438 0.871094 L 5.578125 0.871094 L 5.578125 6.074219 L 0.0898438 6.074219 Z M 0.0898438 0.871094 " fill-opacity="1" fill-rule="nonzero"/></g></g></g></g><g mask="url(#473ba15ba5)"><g transform="matrix(1, 0, 0, 1, 23, 66)"><g clip-path="url(#c7dfaf0161)"><g clip-path="url(#65a9eba7c9)"><g transform="matrix(1, 0, 0, 1, -0.000000000000003553, -0.000000000000014211)"><g clip-path="url(#c1b084469f)"><g clip-path="url(#1b6ada8bef)"><path fill="#8c52ff" d="M 0.304688 0.871094 L 5.796875 0.871094 L 5.796875 6.074219 L 0.304688 6.074219 Z M 0.304688 0.871094 " fill-opacity="1" fill-rule="nonzero"/></g></g></g></g></g></g></g><g mask="url(#5ebb23b86a)"><g transform="matrix(1, 0, 0, 1, 30, 66)"><g clip-path="url(#7d134278b1)"><g clip-path="url(#6a90dfb9d5)"><g transform="matrix(1, 0, 0, 1, -0.000000000000007105, -0.000000000000014211)"><g clip-path="url(#80ccedee07)"><g clip-path="url(#13e37eec13)"><path fill="#8c52ff" d="M 0.523438 0.871094 L 6.011719 0.871094 L 6.011719 6.074219 L 0.523438 6.074219 Z M 0.523438 0.871094 " fill-opacity="1" fill-rule="nonzero"/></g></g></g></g></g></g></g><g mask="url(#3a0ec50449)"><g transform="matrix(1, 0, 0, 1, 8, 73)"><g clip-path="url(#f88782ca4c)"><g clip-path="url(#db83f8ef30)"><g transform="matrix(1, 0, 0, 1, -0.000000000000001776, -0.000000000000014211)"><g clip-path="url(#4180a3c07e)"><g clip-path="url(#f1b78b5832)"><path fill="#8c52ff" d="M 0.988281 0.796875 L 6.476562 0.796875 L 6.476562 6.003906 L 0.988281 6.003906 Z M 0.988281 0.796875 " fill-opacity="1" fill-rule="nonzero"/></g></g></g></g></g></g></g><g clip-path="url(#6b945df475)"><g transform="matrix(1, 0, 0, 1, 16, 73)"><g clip-path="url(#6d17a708d9)"><g clip-path="url(#149eccdc35)"><path fill="#8c52ff" d="M 0.0898438 0.796875 L 5.578125 0.796875 L 5.578125 6.003906 L 0.0898438 6.003906 Z M 0.0898438 0.796875 " fill-opacity="1" fill-rule="nonzero"/></g></g></g></g><g clip-path="url(#4d2e3fa653)"><g transform="matrix(1, 0, 0, 1, 23, 73)"><g clip-path="url(#e2039dcf9f)"><g clip-path="url(#5328bcd7aa)"><path fill="#8c52ff" d="M 0.304688 0.796875 L 5.796875 0.796875 L 5.796875 6.003906 L 0.304688 6.003906 Z M 0.304688 0.796875 " fill-opacity="1" fill-rule="nonzero"/></g></g></g></g><g mask="url(#9ee4749840)"><g transform="matrix(1, 0, 0, 1, 30, 73)"><g clip-path="url(#8ae0aa0a7c)"><g clip-path="url(#fa525c9b66)"><g transform="matrix(1, 0, 0, 1, -0.000000000000007105, -0.000000000000014211)"><g clip-path="url(#6c01092af7)"><g clip-path="url(#c8dc256925)"><path fill="#8c52ff" d="M 0.523438 0.796875 L 6.011719 0.796875 L 6.011719 6.003906 L 0.523438 6.003906 Z M 0.523438 0.796875 " fill-opacity="1" fill-rule="nonzero"/></g></g></g></g></g></g></g><g clip-path="url(#987c74a687)"><g transform="matrix(1, 0, 0, 1, 37, 80)"><g clip-path="url(#91a74302ac)"><g clip-path="url(#fef5286eb3)"><path fill="#8c52ff" d="M 0.738281 0.722656 L 6.226562 0.722656 L 6.226562 5.929688 L 0.738281 5.929688 Z M 0.738281 0.722656 " fill-opacity="1" fill-rule="nonzero"/></g></g></g></g><g clip-path="url(#02b8da9137)"><g transform="matrix(1, 0, 0, 1, 44, 80)"><g clip-path="url(#fbefe580ad)"><g clip-path="url(#fa0cc4b8bb)"><path fill="#8c52ff" d="M 0.839844 0.722656 L 6.328125 0.722656 L 6.328125 5.929688 L 0.839844 5.929688 Z M 0.839844 0.722656 " fill-opacity="1" fill-rule="nonzero"/></g></g></g></g><g mask="url(#7d4de7e4b4)"><g transform="matrix(1, 0, 0, 1, 51, 80)"><g clip-path="url(#0acb99a369)"><g clip-path="url(#59fa9076ab)"><g transform="matrix(1, 0, 0, 1, 1, -0.000000000000028422)"><g clip-path="url(#24628955a3)"><g clip-path="url(#b79a4eaee0)"><path fill="#8c52ff" d="M 0.0585938 0.722656 L 5.546875 0.722656 L 5.546875 5.929688 L 0.0585938 5.929688 Z M 0.0585938 0.722656 " fill-opacity="1" fill-rule="nonzero"/></g></g></g></g></g></g></g><g mask="url(#41f28c55d7)"><g transform="matrix(1, 0, 0, 1, 59, 80)"><g clip-path="url(#f968397d9a)"><g clip-path="url(#552d81a5e9)"><g transform="matrix(1, 0, 0, 1, -0.000000000000014211, -0.000000000000028422)"><g clip-path="url(#30d8226260)"><g clip-path="url(#75b4506648)"><path fill="#8c52ff" d="M 0.273438 0.722656 L 5.761719 0.722656 L 5.761719 5.929688 L 0.273438 5.929688 Z M 0.273438 0.722656 " fill-opacity="1" fill-rule="nonzero"/></g></g></g></g></g></g></g><g mask="url(#f7e1df7778)"><g transform="matrix(1, 0, 0, 1, 37, 87)"><g clip-path="url(#b097f5e720)"><g clip-path="url(#693a8a1367)"><g transform="matrix(1, 0, 0, 1, 0, -0.000000000000028422)"><g clip-path="url(#2e7f0d68aa)"><g clip-path="url(#84501a614e)"><path fill="#8c52ff" d="M 0.738281 0.652344 L 6.226562 0.652344 L 6.226562 5.855469 L 0.738281 5.855469 Z M 0.738281 0.652344 " fill-opacity="1" fill-rule="nonzero"/></g></g></g></g></g></g></g><g mask="url(#0170abb39f)"><g transform="matrix(1, 0, 0, 1, 44, 87)"><g clip-path="url(#8b51e8eb1b)"><g clip-path="url(#bd05cb4009)"><g transform="matrix(1, 0, 0, 1, -0.000000000000007105, -0.000000000000028422)"><g clip-path="url(#18f5685a11)"><g clip-path="url(#e42c7a85d4)"><path fill="#8c52ff" d="M 0.839844 0.652344 L 6.328125 0.652344 L 6.328125 5.855469 L 0.839844 5.855469 Z M 0.839844 0.652344 " fill-opacity="1" fill-rule="nonzero"/></g></g></g></g></g></g></g><g mask="url(#14198e7447)"><g transform="matrix(1, 0, 0, 1, 51, 87)"><g clip-path="url(#f31209b94f)"><g clip-path="url(#0ac2754edf)"><g transform="matrix(1, 0, 0, 1, 1, -0.000000000000028422)"><g clip-path="url(#808da3ec1b)"><g clip-path="url(#f6eaca67ab)"><path fill="#8c52ff" d="M 0.0585938 0.652344 L 5.546875 0.652344 L 5.546875 5.855469 L 0.0585938 5.855469 Z M 0.0585938 0.652344 " fill-opacity="1" fill-rule="nonzero"/></g></g></g></g></g></g></g><g mask="url(#80e65519ca)"><g transform="matrix(1, 0, 0, 1, 59, 87)"><g clip-path="url(#4f6cb44c7a)"><g clip-path="url(#3131bca1ab)"><g transform="matrix(1, 0, 0, 1, -0.000000000000014211, -0.000000000000028422)"><g clip-path="url(#21325a959e)"><g clip-path="url(#cee0d4f9b2)"><path fill="#8c52ff" d="M 0.273438 0.652344 L 5.761719 0.652344 L 5.761719 5.855469 L 0.273438 5.855469 Z M 0.273438 0.652344 " fill-opacity="1" fill-rule="nonzero"/></g></g></g></g></g></g></g><g mask="url(#8f8a5370a7)"><g transform="matrix(1, 0, 0, 1, 8, 80)"><g clip-path="url(#213875d05e)"><g clip-path="url(#d274266d4b)"><g transform="matrix(1, 0, 0, 1, -0.000000000000001776, -0.000000000000028422)"><g clip-path="url(#eccd8d9837)"><g clip-path="url(#63611dd231)"><path fill="#8c52ff" d="M 0.988281 0.722656 L 6.476562 0.722656 L 6.476562 5.929688 L 0.988281 5.929688 Z M 0.988281 0.722656 " fill-opacity="1" fill-rule="nonzero"/></g></g></g></g></g></g></g><g mask="url(#1104868f6d)"><g transform="matrix(1, 0, 0, 1, 16, 80)"><g clip-path="url(#2bed0cbc2f)"><g clip-path="url(#13571c6b64)"><g transform="matrix(1, 0, 0, 1, -0.000000000000003553, -0.000000000000028422)"><g clip-path="url(#1846a13b08)"><g clip-path="url(#abbeac84d7)"><path fill="#8c52ff" d="M 0.0898438 0.722656 L 5.578125 0.722656 L 5.578125 5.929688 L 0.0898438 5.929688 Z M 0.0898438 0.722656 " fill-opacity="1" fill-rule="nonzero"/></g></g></g></g></g></g></g><g clip-path="url(#27fcbd0f47)"><g transform="matrix(1, 0, 0, 1, 23, 80)"><g clip-path="url(#1026ad6f53)"><g clip-path="url(#a98eceec85)"><path fill="#8c52ff" d="M 0.304688 0.722656 L 5.796875 0.722656 L 5.796875 5.929688 L 0.304688 5.929688 Z M 0.304688 0.722656 " fill-opacity="1" fill-rule="nonzero"/></g></g></g></g><g clip-path="url(#84cdb7ff05)"><g transform="matrix(1, 0, 0, 1, 30, 80)"><g clip-path="url(#84d80afae7)"><g clip-path="url(#d096fdacd4)"><path fill="#8c52ff" d="M 0.523438 0.722656 L 6.011719 0.722656 L 6.011719 5.929688 L 0.523438 5.929688 Z M 0.523438 0.722656 " fill-opacity="1" fill-rule="nonzero"/></g></g></g></g><g mask="url(#84331cdb70)"><g transform="matrix(1, 0, 0, 1, 8, 87)"><g clip-path="url(#b173375084)"><g clip-path="url(#c7eac50462)"><g transform="matrix(1, 0, 0, 1, -0.000000000000001776, -0.000000000000028422)"><g clip-path="url(#3d1cb46184)"><g clip-path="url(#414c2ac989)"><path fill="#8c52ff" d="M 0.988281 0.652344 L 6.476562 0.652344 L 6.476562 5.855469 L 0.988281 5.855469 Z M 0.988281 0.652344 " fill-opacity="1" fill-rule="nonzero"/></g></g></g></g></g></g></g><g mask="url(#30b59635a3)"><g transform="matrix(1, 0, 0, 1, 16, 87)"><g clip-path="url(#bb502f8e8c)"><g clip-path="url(#dd5e28316e)"><g transform="matrix(1, 0, 0, 1, -0.000000000000003553, -0.000000000000028422)"><g clip-path="url(#bf3526a586)"><g clip-path="url(#6784f21dfb)"><path fill="#8c52ff" d="M 0.0898438 0.652344 L 5.578125 0.652344 L 5.578125 5.855469 L 0.0898438 5.855469 Z M 0.0898438 0.652344 " fill-opacity="1" fill-rule="nonzero"/></g></g></g></g></g></g></g><g mask="url(#93ff8cb902)"><g transform="matrix(1, 0, 0, 1, 23, 87)"><g clip-path="url(#26af6c85c7)"><g clip-path="url(#f50e5057fe)"><g transform="matrix(1, 0, 0, 1, -0.000000000000003553, -0.000000000000028422)"><g clip-path="url(#bfa52adf26)"><g clip-path="url(#10281fe479)"><path fill="#8c52ff" d="M 0.304688 0.652344 L 5.796875 0.652344 L 5.796875 5.855469 L 0.304688 5.855469 Z M 0.304688 0.652344 " fill-opacity="1" fill-rule="nonzero"/></g></g></g></g></g></g></g><g mask="url(#fa740a9015)"><g transform="matrix(1, 0, 0, 1, 30, 87)"><g clip-path="url(#82fbcec325)"><g clip-path="url(#84f03e95f9)"><g transform="matrix(1, 0, 0, 1, -0.000000000000007105, -0.000000000000028422)"><g clip-path="url(#51d685e689)"><g clip-path="url(#9b26362b81)"><path fill="#8c52ff" d="M 0.523438 0.652344 L 6.011719 0.652344 L 6.011719 5.855469 L 0.523438 5.855469 Z M 0.523438 0.652344 " fill-opacity="1" fill-rule="nonzero"/></g></g></g></g></g></g></g></svg>