<svg xmlns="http://www.w3.org/2000/svg" xmlns:xlink="http://www.w3.org/1999/xlink" width="406" zoomAndPan="magnify" viewBox="0 0 304.5 52.499999" height="70" preserveAspectRatio="xMidYMid meet" version="1.0"><defs><filter x="0%" y="0%" width="100%" height="100%" id="793ca50d56"><feColorMatrix values="0 0 0 0 1 0 0 0 0 1 0 0 0 0 1 0 0 0 1 0" color-interpolation-filters="sRGB"/></filter><g/><clipPath id="a5bbaf4ab7"><path d="M 1.191406 37.070312 L 8.59375 37.070312 L 8.59375 39.441406 L 1.191406 39.441406 Z M 1.191406 37.070312 " clip-rule="nonzero"/></clipPath><clipPath id="f69db71113"><path d="M 0.191406 0.0703125 L 7.59375 0.0703125 L 7.59375 2.441406 L 0.191406 2.441406 Z M 0.191406 0.0703125 " clip-rule="nonzero"/></clipPath><clipPath id="b4319606b6"><rect x="0" width="8" y="0" height="3"/></clipPath><clipPath id="3f99d009e2"><path d="M 22.308594 37.074219 L 29.597656 37.074219 L 29.597656 39.449219 L 22.308594 39.449219 Z M 22.308594 37.074219 " clip-rule="nonzero"/></clipPath><clipPath id="4555081bf9"><path d="M 0.308594 0.0742188 L 7.597656 0.0742188 L 7.597656 2.449219 L 0.308594 2.449219 Z M 0.308594 0.0742188 " clip-rule="nonzero"/></clipPath><clipPath id="2571056029"><rect x="0" width="8" y="0" height="3"/></clipPath><clipPath id="b299b79ee0"><path d="M 1.1875 12.058594 L 3.699219 12.058594 L 3.699219 39.449219 L 1.1875 39.449219 Z M 1.1875 12.058594 " clip-rule="nonzero"/></clipPath><clipPath id="168715910c"><path d="M 0.1875 0.0585938 L 2.699219 0.0585938 L 2.699219 27.449219 L 0.1875 27.449219 Z M 0.1875 0.0585938 " clip-rule="nonzero"/></clipPath><clipPath id="0c979f95e9"><rect x="0" width="3" y="0" height="28"/></clipPath><clipPath id="d34b357485"><path d="M 1.191406 12.050781 L 8.59375 12.050781 L 8.59375 14.425781 L 1.191406 14.425781 Z M 1.191406 12.050781 " clip-rule="nonzero"/></clipPath><clipPath id="07fcb3fdfb"><path d="M 0.191406 0.0507812 L 7.59375 0.0507812 L 7.59375 2.425781 L 0.191406 2.425781 Z M 0.191406 0.0507812 " clip-rule="nonzero"/></clipPath><clipPath id="656c5c7809"><rect x="0" width="8" y="0" height="3"/></clipPath><clipPath id="479fdace5e"><path d="M 27.207031 12.054688 L 29.601562 12.054688 L 29.601562 39.445312 L 27.207031 39.445312 Z M 27.207031 12.054688 " clip-rule="nonzero"/></clipPath><clipPath id="367480dd24"><path d="M 0.207031 0.0546875 L 2.601562 0.0546875 L 2.601562 27.445312 L 0.207031 27.445312 Z M 0.207031 0.0546875 " clip-rule="nonzero"/></clipPath><clipPath id="5e35ad99b6"><rect x="0" width="3" y="0" height="28"/></clipPath><clipPath id="e0b6ab9ee9"><path d="M 22.308594 12.058594 L 29.597656 12.058594 L 29.597656 14.433594 L 22.308594 14.433594 Z M 22.308594 12.058594 " clip-rule="nonzero"/></clipPath><clipPath id="1b32587482"><path d="M 0.308594 0.0585938 L 7.597656 0.0585938 L 7.597656 2.433594 L 0.308594 2.433594 Z M 0.308594 0.0585938 " clip-rule="nonzero"/></clipPath><clipPath id="04d360b41b"><rect x="0" width="8" y="0" height="3"/></clipPath><clipPath id="db28779b69"><path d="M 33 8 L 56.535156 8 L 56.535156 30 L 33 30 Z M 33 8 " clip-rule="nonzero"/></clipPath><clipPath id="bacd1a7c42"><rect x="0" width="57" y="0" height="37"/></clipPath><mask id="a5deae43fa"><g filter="url(#793ca50d56)"><rect x="-30.45" width="365.4" fill="#000000" y="-5.25" height="62.999998" fill-opacity="0.29"/></g></mask><clipPath id="288314e37d"><path d="M 0.789062 0.371094 L 2.929688 0.371094 L 2.929688 2.394531 L 0.789062 2.394531 Z M 0.789062 0.371094 " clip-rule="nonzero"/></clipPath><clipPath id="c3494a55df"><path d="M 0.789062 0.371094 L 2.929688 0.371094 L 2.929688 2.394531 L 0.789062 2.394531 Z M 0.789062 0.371094 " clip-rule="nonzero"/></clipPath><clipPath id="c0035a4898"><rect x="0" width="3" y="0" height="3"/></clipPath><clipPath id="8c9635cdc1"><rect x="0" width="4" y="0" height="3"/></clipPath><mask id="274b84aab1"><g filter="url(#793ca50d56)"><rect x="-30.45" width="365.4" fill="#000000" y="-5.25" height="62.999998" fill-opacity="0.29"/></g></mask><clipPath id="53ef573159"><path d="M 0.554688 0.371094 L 2.691406 0.371094 L 2.691406 2.394531 L 0.554688 2.394531 Z M 0.554688 0.371094 " clip-rule="nonzero"/></clipPath><clipPath id="ef1f8865dd"><path d="M 0.554688 0.371094 L 2.691406 0.371094 L 2.691406 2.394531 L 0.554688 2.394531 Z M 0.554688 0.371094 " clip-rule="nonzero"/></clipPath><clipPath id="34dce00b6d"><rect x="0" width="3" y="0" height="3"/></clipPath><clipPath id="ac73558525"><rect x="0" width="3" y="0" height="3"/></clipPath><mask id="a2baee87cd"><g filter="url(#793ca50d56)"><rect x="-30.45" width="365.4" fill="#000000" y="-5.25" height="62.999998" fill-opacity="0.29"/></g></mask><clipPath id="ae1e3dc2cc"><path d="M 0.363281 0.371094 L 2.5 0.371094 L 2.5 2.394531 L 0.363281 2.394531 Z M 0.363281 0.371094 " clip-rule="nonzero"/></clipPath><clipPath id="aca8fa1de1"><path d="M 0.363281 0.371094 L 2.5 0.371094 L 2.5 2.394531 L 0.363281 2.394531 Z M 0.363281 0.371094 " clip-rule="nonzero"/></clipPath><clipPath id="1afa605775"><rect x="0" width="3" y="0" height="3"/></clipPath><clipPath id="5c21913366"><rect x="0" width="3" y="0" height="3"/></clipPath><mask id="9ba60a9071"><g filter="url(#793ca50d56)"><rect x="-30.45" width="365.4" fill="#000000" y="-5.25" height="62.999998" fill-opacity="0.29"/></g></mask><clipPath id="62b3ae1bdb"><path d="M 0.171875 0.371094 L 2.308594 0.371094 L 2.308594 2.394531 L 0.171875 2.394531 Z M 0.171875 0.371094 " clip-rule="nonzero"/></clipPath><clipPath id="48501d3b0f"><path d="M 0.171875 0.371094 L 2.308594 0.371094 L 2.308594 2.394531 L 0.171875 2.394531 Z M 0.171875 0.371094 " clip-rule="nonzero"/></clipPath><clipPath id="e48fd148aa"><rect x="0" width="3" y="0" height="3"/></clipPath><clipPath id="28e60b039d"><rect x="0" width="3" y="0" height="3"/></clipPath><clipPath id="38358d5370"><path d="M 15.789062 18.003906 L 17.929688 18.003906 L 17.929688 20.027344 L 15.789062 20.027344 Z M 15.789062 18.003906 " clip-rule="nonzero"/></clipPath><clipPath id="78bc4445b2"><path d="M 0.789062 0.00390625 L 2.929688 0.00390625 L 2.929688 2.027344 L 0.789062 2.027344 Z M 0.789062 0.00390625 " clip-rule="nonzero"/></clipPath><clipPath id="68753344c3"><rect x="0" width="3" y="0" height="3"/></clipPath><clipPath id="91dfc887e6"><path d="M 18.554688 18.003906 L 20.691406 18.003906 L 20.691406 20.027344 L 18.554688 20.027344 Z M 18.554688 18.003906 " clip-rule="nonzero"/></clipPath><clipPath id="1a02f3a15e"><path d="M 0.554688 0.00390625 L 2.691406 0.00390625 L 2.691406 2.027344 L 0.554688 2.027344 Z M 0.554688 0.00390625 " clip-rule="nonzero"/></clipPath><clipPath id="a19d53ac93"><rect x="0" width="3" y="0" height="3"/></clipPath><mask id="ecf0e44b1e"><g filter="url(#793ca50d56)"><rect x="-30.45" width="365.4" fill="#000000" y="-5.25" height="62.999998" fill-opacity="0.29"/></g></mask><clipPath id="05aebd4955"><path d="M 0.363281 1.003906 L 2.5 1.003906 L 2.5 3.027344 L 0.363281 3.027344 Z M 0.363281 1.003906 " clip-rule="nonzero"/></clipPath><clipPath id="434c3ea3b2"><path d="M 0.363281 0.00390625 L 2.5 0.00390625 L 2.5 2.027344 L 0.363281 2.027344 Z M 0.363281 0.00390625 " clip-rule="nonzero"/></clipPath><clipPath id="94484c5d7c"><rect x="0" width="3" y="0" height="3"/></clipPath><clipPath id="41d7681558"><rect x="0" width="3" y="0" height="4"/></clipPath><mask id="a1a51de2a5"><g filter="url(#793ca50d56)"><rect x="-30.45" width="365.4" fill="#000000" y="-5.25" height="62.999998" fill-opacity="0.29"/></g></mask><clipPath id="2a85548b87"><path d="M 0.171875 1.003906 L 2.308594 1.003906 L 2.308594 3.027344 L 0.171875 3.027344 Z M 0.171875 1.003906 " clip-rule="nonzero"/></clipPath><clipPath id="c8a7d19082"><path d="M 0.171875 0.00390625 L 2.308594 0.00390625 L 2.308594 2.027344 L 0.171875 2.027344 Z M 0.171875 0.00390625 " clip-rule="nonzero"/></clipPath><clipPath id="55118e4c03"><rect x="0" width="3" y="0" height="3"/></clipPath><clipPath id="18df88dbdd"><rect x="0" width="3" y="0" height="4"/></clipPath><mask id="9f55dc415f"><g filter="url(#793ca50d56)"><rect x="-30.45" width="365.4" fill="#000000" y="-5.25" height="62.999998" fill-opacity="0.29"/></g></mask><clipPath id="58695d1699"><path d="M 0.789062 0.699219 L 2.929688 0.699219 L 2.929688 2.722656 L 0.789062 2.722656 Z M 0.789062 0.699219 " clip-rule="nonzero"/></clipPath><clipPath id="86bda19957"><path d="M 0.789062 0.699219 L 2.929688 0.699219 L 2.929688 2.722656 L 0.789062 2.722656 Z M 0.789062 0.699219 " clip-rule="nonzero"/></clipPath><clipPath id="c6069e5bbb"><rect x="0" width="3" y="0" height="3"/></clipPath><clipPath id="6c5c46b7bc"><rect x="0" width="4" y="0" height="3"/></clipPath><clipPath id="9858be6448"><path d="M 18.554688 20.699219 L 20.691406 20.699219 L 20.691406 22.722656 L 18.554688 22.722656 Z M 18.554688 20.699219 " clip-rule="nonzero"/></clipPath><clipPath id="b692d53fcd"><path d="M 0.554688 0.699219 L 2.691406 0.699219 L 2.691406 2.722656 L 0.554688 2.722656 Z M 0.554688 0.699219 " clip-rule="nonzero"/></clipPath><clipPath id="03f688261c"><rect x="0" width="3" y="0" height="3"/></clipPath><clipPath id="f148eaf4d4"><path d="M 21.363281 20.699219 L 23.5 20.699219 L 23.5 22.722656 L 21.363281 22.722656 Z M 21.363281 20.699219 " clip-rule="nonzero"/></clipPath><clipPath id="40fec3554f"><path d="M 0.363281 0.699219 L 2.5 0.699219 L 2.5 2.722656 L 0.363281 2.722656 Z M 0.363281 0.699219 " clip-rule="nonzero"/></clipPath><clipPath id="0d0a6d61da"><rect x="0" width="3" y="0" height="3"/></clipPath><mask id="bf087cc9bd"><g filter="url(#793ca50d56)"><rect x="-30.45" width="365.4" fill="#000000" y="-5.25" height="62.999998" fill-opacity="0.29"/></g></mask><clipPath id="622ed763be"><path d="M 0.171875 0.699219 L 2.308594 0.699219 L 2.308594 2.722656 L 0.171875 2.722656 Z M 0.171875 0.699219 " clip-rule="nonzero"/></clipPath><clipPath id="68722a0441"><path d="M 0.171875 0.699219 L 2.308594 0.699219 L 2.308594 2.722656 L 0.171875 2.722656 Z M 0.171875 0.699219 " clip-rule="nonzero"/></clipPath><clipPath id="965f5569d2"><rect x="0" width="3" y="0" height="3"/></clipPath><clipPath id="fe7107c583"><rect x="0" width="3" y="0" height="3"/></clipPath><mask id="15e6b4f767"><g filter="url(#793ca50d56)"><rect x="-30.45" width="365.4" fill="#000000" y="-5.25" height="62.999998" fill-opacity="0.29"/></g></mask><clipPath id="5d4b21c68f"><path d="M 0.789062 0.394531 L 2.929688 0.394531 L 2.929688 2.421875 L 0.789062 2.421875 Z M 0.789062 0.394531 " clip-rule="nonzero"/></clipPath><clipPath id="9e5267bb7a"><path d="M 0.789062 0.394531 L 2.929688 0.394531 L 2.929688 2.421875 L 0.789062 2.421875 Z M 0.789062 0.394531 " clip-rule="nonzero"/></clipPath><clipPath id="439277b414"><rect x="0" width="3" y="0" height="3"/></clipPath><clipPath id="f3aadf989d"><rect x="0" width="4" y="0" height="3"/></clipPath><mask id="b21dc3ebe5"><g filter="url(#793ca50d56)"><rect x="-30.45" width="365.4" fill="#000000" y="-5.25" height="62.999998" fill-opacity="0.29"/></g></mask><clipPath id="e9bfaa34be"><path d="M 0.554688 0.394531 L 2.691406 0.394531 L 2.691406 2.421875 L 0.554688 2.421875 Z M 0.554688 0.394531 " clip-rule="nonzero"/></clipPath><clipPath id="f2e84d2abf"><path d="M 0.554688 0.394531 L 2.691406 0.394531 L 2.691406 2.421875 L 0.554688 2.421875 Z M 0.554688 0.394531 " clip-rule="nonzero"/></clipPath><clipPath id="f048e72aab"><rect x="0" width="3" y="0" height="3"/></clipPath><clipPath id="604cfbe2ef"><rect x="0" width="3" y="0" height="3"/></clipPath><clipPath id="4471ad69eb"><path d="M 21.363281 23.394531 L 23.5 23.394531 L 23.5 25.421875 L 21.363281 25.421875 Z M 21.363281 23.394531 " clip-rule="nonzero"/></clipPath><clipPath id="5ecbe290a8"><path d="M 0.363281 0.394531 L 2.5 0.394531 L 2.5 2.421875 L 0.363281 2.421875 Z M 0.363281 0.394531 " clip-rule="nonzero"/></clipPath><clipPath id="9ddd37ca3f"><rect x="0" width="3" y="0" height="3"/></clipPath><mask id="1c18b3cabd"><g filter="url(#793ca50d56)"><rect x="-30.45" width="365.4" fill="#000000" y="-5.25" height="62.999998" fill-opacity="0.29"/></g></mask><clipPath id="30914772a9"><path d="M 0.171875 0.394531 L 2.308594 0.394531 L 2.308594 2.421875 L 0.171875 2.421875 Z M 0.171875 0.394531 " clip-rule="nonzero"/></clipPath><clipPath id="43a1657212"><path d="M 0.171875 0.394531 L 2.308594 0.394531 L 2.308594 2.421875 L 0.171875 2.421875 Z M 0.171875 0.394531 " clip-rule="nonzero"/></clipPath><clipPath id="b59cdd3ab0"><rect x="0" width="3" y="0" height="3"/></clipPath><clipPath id="2888fe48aa"><rect x="0" width="3" y="0" height="3"/></clipPath><mask id="418e73f04c"><g filter="url(#793ca50d56)"><rect x="-30.45" width="365.4" fill="#000000" y="-5.25" height="62.999998" fill-opacity="0.29"/></g></mask><clipPath id="efd31a715d"><path d="M 0.789062 1.027344 L 2.929688 1.027344 L 2.929688 3.054688 L 0.789062 3.054688 Z M 0.789062 1.027344 " clip-rule="nonzero"/></clipPath><clipPath id="7f303b8be6"><path d="M 0.789062 0.0273438 L 2.929688 0.0273438 L 2.929688 2.054688 L 0.789062 2.054688 Z M 0.789062 0.0273438 " clip-rule="nonzero"/></clipPath><clipPath id="6f678205a0"><rect x="0" width="3" y="0" height="3"/></clipPath><clipPath id="1efd4b6ba6"><rect x="0" width="4" y="0" height="4"/></clipPath><mask id="f62383f011"><g filter="url(#793ca50d56)"><rect x="-30.45" width="365.4" fill="#000000" y="-5.25" height="62.999998" fill-opacity="0.29"/></g></mask><clipPath id="6b1beefb45"><path d="M 0.554688 1.027344 L 2.691406 1.027344 L 2.691406 3.054688 L 0.554688 3.054688 Z M 0.554688 1.027344 " clip-rule="nonzero"/></clipPath><clipPath id="48a1ca3c86"><path d="M 0.554688 0.0273438 L 2.691406 0.0273438 L 2.691406 2.054688 L 0.554688 2.054688 Z M 0.554688 0.0273438 " clip-rule="nonzero"/></clipPath><clipPath id="8225276911"><rect x="0" width="3" y="0" height="3"/></clipPath><clipPath id="e2853efdff"><rect x="0" width="3" y="0" height="4"/></clipPath><mask id="070d23f767"><g filter="url(#793ca50d56)"><rect x="-30.45" width="365.4" fill="#000000" y="-5.25" height="62.999998" fill-opacity="0.84"/></g></mask><clipPath id="531af66c82"><path d="M 0.363281 1.027344 L 2.5 1.027344 L 2.5 3.054688 L 0.363281 3.054688 Z M 0.363281 1.027344 " clip-rule="nonzero"/></clipPath><clipPath id="3bbf06e931"><path d="M 0.363281 0.0273438 L 2.5 0.0273438 L 2.5 2.054688 L 0.363281 2.054688 Z M 0.363281 0.0273438 " clip-rule="nonzero"/></clipPath><clipPath id="902bb9ddff"><rect x="0" width="3" y="0" height="3"/></clipPath><clipPath id="51744f02c1"><rect x="0" width="3" y="0" height="4"/></clipPath><mask id="853a34dd70"><g filter="url(#793ca50d56)"><rect x="-30.45" width="365.4" fill="#000000" y="-5.25" height="62.999998" fill-opacity="0.29"/></g></mask><clipPath id="e0856ff9ef"><path d="M 0.171875 1.027344 L 2.308594 1.027344 L 2.308594 3.054688 L 0.171875 3.054688 Z M 0.171875 1.027344 " clip-rule="nonzero"/></clipPath><clipPath id="418255707a"><path d="M 0.171875 0.0273438 L 2.308594 0.0273438 L 2.308594 2.054688 L 0.171875 2.054688 Z M 0.171875 0.0273438 " clip-rule="nonzero"/></clipPath><clipPath id="e60a40c482"><rect x="0" width="3" y="0" height="3"/></clipPath><clipPath id="88b54f05c1"><rect x="0" width="3" y="0" height="4"/></clipPath><mask id="f618879b76"><g filter="url(#793ca50d56)"><rect x="-30.45" width="365.4" fill="#000000" y="-5.25" height="62.999998" fill-opacity="0.29"/></g></mask><clipPath id="9c492094c0"><path d="M 0.789062 0.722656 L 2.929688 0.722656 L 2.929688 2.75 L 0.789062 2.75 Z M 0.789062 0.722656 " clip-rule="nonzero"/></clipPath><clipPath id="60576321c6"><path d="M 0.789062 0.722656 L 2.929688 0.722656 L 2.929688 2.75 L 0.789062 2.75 Z M 0.789062 0.722656 " clip-rule="nonzero"/></clipPath><clipPath id="73688e54bf"><rect x="0" width="3" y="0" height="3"/></clipPath><clipPath id="428d128e09"><rect x="0" width="4" y="0" height="3"/></clipPath><clipPath id="f6657cbf47"><path d="M 18.554688 28.722656 L 20.691406 28.722656 L 20.691406 30.75 L 18.554688 30.75 Z M 18.554688 28.722656 " clip-rule="nonzero"/></clipPath><clipPath id="e2842c015d"><path d="M 0.554688 0.722656 L 2.691406 0.722656 L 2.691406 2.75 L 0.554688 2.75 Z M 0.554688 0.722656 " clip-rule="nonzero"/></clipPath><clipPath id="c92a1ac6d7"><rect x="0" width="3" y="0" height="3"/></clipPath><clipPath id="53016e9d86"><path d="M 21.363281 28.722656 L 23.5 28.722656 L 23.5 30.75 L 21.363281 30.75 Z M 21.363281 28.722656 " clip-rule="nonzero"/></clipPath><clipPath id="db28aff6f2"><path d="M 0.363281 0.722656 L 2.5 0.722656 L 2.5 2.75 L 0.363281 2.75 Z M 0.363281 0.722656 " clip-rule="nonzero"/></clipPath><clipPath id="b2ffa16e82"><rect x="0" width="3" y="0" height="3"/></clipPath><mask id="78924ff395"><g filter="url(#793ca50d56)"><rect x="-30.45" width="365.4" fill="#000000" y="-5.25" height="62.999998" fill-opacity="0.29"/></g></mask><clipPath id="b255da819c"><path d="M 0.171875 0.722656 L 2.308594 0.722656 L 2.308594 2.75 L 0.171875 2.75 Z M 0.171875 0.722656 " clip-rule="nonzero"/></clipPath><clipPath id="415d72d7b0"><path d="M 0.171875 0.722656 L 2.308594 0.722656 L 2.308594 2.75 L 0.171875 2.75 Z M 0.171875 0.722656 " clip-rule="nonzero"/></clipPath><clipPath id="3827a38887"><rect x="0" width="3" y="0" height="3"/></clipPath><clipPath id="a9363da522"><rect x="0" width="3" y="0" height="3"/></clipPath><mask id="a8008bd7fb"><g filter="url(#793ca50d56)"><rect x="-30.45" width="365.4" fill="#000000" y="-5.25" height="62.999998" fill-opacity="0.29"/></g></mask><clipPath id="70fccb9657"><path d="M 0.597656 0.371094 L 2.738281 0.371094 L 2.738281 2.394531 L 0.597656 2.394531 Z M 0.597656 0.371094 " clip-rule="nonzero"/></clipPath><clipPath id="33aac8793d"><path d="M 0.597656 0.371094 L 2.738281 0.371094 L 2.738281 2.394531 L 0.597656 2.394531 Z M 0.597656 0.371094 " clip-rule="nonzero"/></clipPath><clipPath id="857011717d"><rect x="0" width="3" y="0" height="3"/></clipPath><clipPath id="59362ed17e"><rect x="0" width="3" y="0" height="3"/></clipPath><mask id="d58d871c49"><g filter="url(#793ca50d56)"><rect x="-30.45" width="365.4" fill="#000000" y="-5.25" height="62.999998" fill-opacity="0.29"/></g></mask><clipPath id="3332d034cc"><path d="M 0.363281 0.371094 L 2.503906 0.371094 L 2.503906 2.394531 L 0.363281 2.394531 Z M 0.363281 0.371094 " clip-rule="nonzero"/></clipPath><clipPath id="f051f60a3c"><path d="M 0.363281 0.371094 L 2.503906 0.371094 L 2.503906 2.394531 L 0.363281 2.394531 Z M 0.363281 0.371094 " clip-rule="nonzero"/></clipPath><clipPath id="3066096a1c"><rect x="0" width="3" y="0" height="3"/></clipPath><clipPath id="66973c94b2"><rect x="0" width="3" y="0" height="3"/></clipPath><mask id="d9aaafde8b"><g filter="url(#793ca50d56)"><rect x="-30.45" width="365.4" fill="#000000" y="-5.25" height="62.999998" fill-opacity="0.29"/></g></mask><clipPath id="5527bebced"><path d="M 1.171875 0.371094 L 3.3125 0.371094 L 3.3125 2.394531 L 1.171875 2.394531 Z M 1.171875 0.371094 " clip-rule="nonzero"/></clipPath><clipPath id="1e6491f31c"><path d="M 0.171875 0.371094 L 2.3125 0.371094 L 2.3125 2.394531 L 0.171875 2.394531 Z M 0.171875 0.371094 " clip-rule="nonzero"/></clipPath><clipPath id="b3b0e8fd4e"><rect x="0" width="3" y="0" height="3"/></clipPath><clipPath id="f82e431de4"><rect x="0" width="4" y="0" height="3"/></clipPath><mask id="3c3bb22c82"><g filter="url(#793ca50d56)"><rect x="-30.45" width="365.4" fill="#000000" y="-5.25" height="62.999998" fill-opacity="0.29"/></g></mask><clipPath id="f316ab9089"><path d="M 0.980469 0.371094 L 3.121094 0.371094 L 3.121094 2.394531 L 0.980469 2.394531 Z M 0.980469 0.371094 " clip-rule="nonzero"/></clipPath><clipPath id="af333c51b7"><path d="M 0.980469 0.371094 L 3.121094 0.371094 L 3.121094 2.394531 L 0.980469 2.394531 Z M 0.980469 0.371094 " clip-rule="nonzero"/></clipPath><clipPath id="7dd33860b2"><rect x="0" width="4" y="0" height="3"/></clipPath><clipPath id="dbafd7a02c"><rect x="0" width="4" y="0" height="3"/></clipPath><mask id="82534958f8"><g filter="url(#793ca50d56)"><rect x="-30.45" width="365.4" fill="#000000" y="-5.25" height="62.999998" fill-opacity="0.29"/></g></mask><clipPath id="464a58fad2"><path d="M 0.597656 1.003906 L 2.738281 1.003906 L 2.738281 3.027344 L 0.597656 3.027344 Z M 0.597656 1.003906 " clip-rule="nonzero"/></clipPath><clipPath id="53053597d9"><path d="M 0.597656 0.00390625 L 2.738281 0.00390625 L 2.738281 2.027344 L 0.597656 2.027344 Z M 0.597656 0.00390625 " clip-rule="nonzero"/></clipPath><clipPath id="9d3018cfc4"><rect x="0" width="3" y="0" height="3"/></clipPath><clipPath id="9d6f587010"><rect x="0" width="3" y="0" height="4"/></clipPath><mask id="0077e644f4"><g filter="url(#793ca50d56)"><rect x="-30.45" width="365.4" fill="#000000" y="-5.25" height="62.999998" fill-opacity="0.29"/></g></mask><clipPath id="440df35011"><path d="M 0.363281 1.003906 L 2.503906 1.003906 L 2.503906 3.027344 L 0.363281 3.027344 Z M 0.363281 1.003906 " clip-rule="nonzero"/></clipPath><clipPath id="56a842d5fd"><path d="M 0.363281 0.00390625 L 2.503906 0.00390625 L 2.503906 2.027344 L 0.363281 2.027344 Z M 0.363281 0.00390625 " clip-rule="nonzero"/></clipPath><clipPath id="8a5604eb12"><rect x="0" width="3" y="0" height="3"/></clipPath><clipPath id="aee11d94da"><rect x="0" width="3" y="0" height="4"/></clipPath><clipPath id="6b41fad36a"><path d="M 10.171875 18.003906 L 12.3125 18.003906 L 12.3125 20.027344 L 10.171875 20.027344 Z M 10.171875 18.003906 " clip-rule="nonzero"/></clipPath><clipPath id="d24528d4af"><path d="M 0.171875 0.00390625 L 2.3125 0.00390625 L 2.3125 2.027344 L 0.171875 2.027344 Z M 0.171875 0.00390625 " clip-rule="nonzero"/></clipPath><clipPath id="f953475d13"><rect x="0" width="3" y="0" height="3"/></clipPath><clipPath id="7c740bdd0f"><path d="M 12.980469 18.003906 L 15.121094 18.003906 L 15.121094 20.027344 L 12.980469 20.027344 Z M 12.980469 18.003906 " clip-rule="nonzero"/></clipPath><clipPath id="8858385c1c"><path d="M 0.980469 0.00390625 L 3.121094 0.00390625 L 3.121094 2.027344 L 0.980469 2.027344 Z M 0.980469 0.00390625 " clip-rule="nonzero"/></clipPath><clipPath id="257c2981bd"><rect x="0" width="4" y="0" height="3"/></clipPath><mask id="24014b1996"><g filter="url(#793ca50d56)"><rect x="-30.45" width="365.4" fill="#000000" y="-5.25" height="62.999998" fill-opacity="0.29"/></g></mask><clipPath id="b21b3ffd7a"><path d="M 0.597656 0.699219 L 2.738281 0.699219 L 2.738281 2.722656 L 0.597656 2.722656 Z M 0.597656 0.699219 " clip-rule="nonzero"/></clipPath><clipPath id="80135f69a0"><path d="M 0.597656 0.699219 L 2.738281 0.699219 L 2.738281 2.722656 L 0.597656 2.722656 Z M 0.597656 0.699219 " clip-rule="nonzero"/></clipPath><clipPath id="8087967f7a"><rect x="0" width="3" y="0" height="3"/></clipPath><clipPath id="9a16a5c9fc"><rect x="0" width="3" y="0" height="3"/></clipPath><clipPath id="63a718eb81"><path d="M 7.363281 20.699219 L 9.503906 20.699219 L 9.503906 22.722656 L 7.363281 22.722656 Z M 7.363281 20.699219 " clip-rule="nonzero"/></clipPath><clipPath id="f752294e5c"><path d="M 0.363281 0.699219 L 2.503906 0.699219 L 2.503906 2.722656 L 0.363281 2.722656 Z M 0.363281 0.699219 " clip-rule="nonzero"/></clipPath><clipPath id="631cf02436"><rect x="0" width="3" y="0" height="3"/></clipPath><clipPath id="5c548a2b5b"><path d="M 10.171875 20.699219 L 12.3125 20.699219 L 12.3125 22.722656 L 10.171875 22.722656 Z M 10.171875 20.699219 " clip-rule="nonzero"/></clipPath><clipPath id="10575796e5"><path d="M 0.171875 0.699219 L 2.3125 0.699219 L 2.3125 2.722656 L 0.171875 2.722656 Z M 0.171875 0.699219 " clip-rule="nonzero"/></clipPath><clipPath id="1a9259a3be"><rect x="0" width="3" y="0" height="3"/></clipPath><mask id="051a448ec1"><g filter="url(#793ca50d56)"><rect x="-30.45" width="365.4" fill="#000000" y="-5.25" height="62.999998" fill-opacity="0.29"/></g></mask><clipPath id="39230b5a9f"><path d="M 0.980469 0.699219 L 3.121094 0.699219 L 3.121094 2.722656 L 0.980469 2.722656 Z M 0.980469 0.699219 " clip-rule="nonzero"/></clipPath><clipPath id="0d7a9d5ca2"><path d="M 0.980469 0.699219 L 3.121094 0.699219 L 3.121094 2.722656 L 0.980469 2.722656 Z M 0.980469 0.699219 " clip-rule="nonzero"/></clipPath><clipPath id="26fa8cdffb"><rect x="0" width="4" y="0" height="3"/></clipPath><clipPath id="fddc9f32a6"><rect x="0" width="4" y="0" height="3"/></clipPath><mask id="7a54e80eed"><g filter="url(#793ca50d56)"><rect x="-30.45" width="365.4" fill="#000000" y="-5.25" height="62.999998" fill-opacity="0.29"/></g></mask><clipPath id="da8aadb0b3"><path d="M 0.597656 0.394531 L 2.738281 0.394531 L 2.738281 2.421875 L 0.597656 2.421875 Z M 0.597656 0.394531 " clip-rule="nonzero"/></clipPath><clipPath id="e2a0fb3b23"><path d="M 0.597656 0.394531 L 2.738281 0.394531 L 2.738281 2.421875 L 0.597656 2.421875 Z M 0.597656 0.394531 " clip-rule="nonzero"/></clipPath><clipPath id="d7508abeb2"><rect x="0" width="3" y="0" height="3"/></clipPath><clipPath id="2259be9103"><rect x="0" width="3" y="0" height="3"/></clipPath><clipPath id="033a6f6782"><path d="M 7.363281 23.394531 L 9.503906 23.394531 L 9.503906 25.421875 L 7.363281 25.421875 Z M 7.363281 23.394531 " clip-rule="nonzero"/></clipPath><clipPath id="eca5aa14a0"><path d="M 0.363281 0.394531 L 2.503906 0.394531 L 2.503906 2.421875 L 0.363281 2.421875 Z M 0.363281 0.394531 " clip-rule="nonzero"/></clipPath><clipPath id="64e17d29c9"><rect x="0" width="3" y="0" height="3"/></clipPath><mask id="7d6bca9fe4"><g filter="url(#793ca50d56)"><rect x="-30.45" width="365.4" fill="#000000" y="-5.25" height="62.999998" fill-opacity="0.29"/></g></mask><clipPath id="a79f900bc4"><path d="M 1.171875 0.394531 L 3.3125 0.394531 L 3.3125 2.421875 L 1.171875 2.421875 Z M 1.171875 0.394531 " clip-rule="nonzero"/></clipPath><clipPath id="2b5308cd45"><path d="M 0.171875 0.394531 L 2.3125 0.394531 L 2.3125 2.421875 L 0.171875 2.421875 Z M 0.171875 0.394531 " clip-rule="nonzero"/></clipPath><clipPath id="67dc9a577d"><rect x="0" width="3" y="0" height="3"/></clipPath><clipPath id="70a7e51f60"><rect x="0" width="4" y="0" height="3"/></clipPath><mask id="1b05d47b9f"><g filter="url(#793ca50d56)"><rect x="-30.45" width="365.4" fill="#000000" y="-5.25" height="62.999998" fill-opacity="0.29"/></g></mask><clipPath id="69876a33c6"><path d="M 0.980469 0.394531 L 3.121094 0.394531 L 3.121094 2.421875 L 0.980469 2.421875 Z M 0.980469 0.394531 " clip-rule="nonzero"/></clipPath><clipPath id="beedc0b665"><path d="M 0.980469 0.394531 L 3.121094 0.394531 L 3.121094 2.421875 L 0.980469 2.421875 Z M 0.980469 0.394531 " clip-rule="nonzero"/></clipPath><clipPath id="82a67be82e"><rect x="0" width="4" y="0" height="3"/></clipPath><clipPath id="8018414336"><rect x="0" width="4" y="0" height="3"/></clipPath><mask id="0f91a9e958"><g filter="url(#793ca50d56)"><rect x="-30.45" width="365.4" fill="#000000" y="-5.25" height="62.999998" fill-opacity="0.29"/></g></mask><clipPath id="70f24790a1"><path d="M 0.597656 1.027344 L 2.738281 1.027344 L 2.738281 3.054688 L 0.597656 3.054688 Z M 0.597656 1.027344 " clip-rule="nonzero"/></clipPath><clipPath id="36cc1beb1f"><path d="M 0.597656 0.0273438 L 2.738281 0.0273438 L 2.738281 2.054688 L 0.597656 2.054688 Z M 0.597656 0.0273438 " clip-rule="nonzero"/></clipPath><clipPath id="4093575fc2"><rect x="0" width="3" y="0" height="3"/></clipPath><clipPath id="c5ff732ef4"><rect x="0" width="3" y="0" height="4"/></clipPath><clipPath id="59a347f259"><path d="M 7.363281 26.027344 L 9.503906 26.027344 L 9.503906 28.054688 L 7.363281 28.054688 Z M 7.363281 26.027344 " clip-rule="nonzero"/></clipPath><clipPath id="55dfa48e11"><path d="M 0.363281 0.0273438 L 2.503906 0.0273438 L 2.503906 2.054688 L 0.363281 2.054688 Z M 0.363281 0.0273438 " clip-rule="nonzero"/></clipPath><clipPath id="5574cd7626"><rect x="0" width="3" y="0" height="3"/></clipPath><mask id="4d75b458ad"><g filter="url(#793ca50d56)"><rect x="-30.45" width="365.4" fill="#000000" y="-5.25" height="62.999998" fill-opacity="0.29"/></g></mask><clipPath id="d1619a0433"><path d="M 1.171875 1.027344 L 3.3125 1.027344 L 3.3125 3.054688 L 1.171875 3.054688 Z M 1.171875 1.027344 " clip-rule="nonzero"/></clipPath><clipPath id="bc106946fe"><path d="M 0.171875 0.0273438 L 2.3125 0.0273438 L 2.3125 2.054688 L 0.171875 2.054688 Z M 0.171875 0.0273438 " clip-rule="nonzero"/></clipPath><clipPath id="c2f3b6089a"><rect x="0" width="3" y="0" height="3"/></clipPath><clipPath id="6e9fb2402d"><rect x="0" width="4" y="0" height="4"/></clipPath><mask id="b033297a77"><g filter="url(#793ca50d56)"><rect x="-30.45" width="365.4" fill="#000000" y="-5.25" height="62.999998" fill-opacity="0.29"/></g></mask><clipPath id="f5a38e5d68"><path d="M 0.980469 1.027344 L 3.121094 1.027344 L 3.121094 3.054688 L 0.980469 3.054688 Z M 0.980469 1.027344 " clip-rule="nonzero"/></clipPath><clipPath id="e848b39599"><path d="M 0.980469 0.0273438 L 3.121094 0.0273438 L 3.121094 2.054688 L 0.980469 2.054688 Z M 0.980469 0.0273438 " clip-rule="nonzero"/></clipPath><clipPath id="339222ce6a"><rect x="0" width="4" y="0" height="3"/></clipPath><clipPath id="77d7f247b3"><rect x="0" width="4" y="0" height="4"/></clipPath><mask id="6ebd0032c2"><g filter="url(#793ca50d56)"><rect x="-30.45" width="365.4" fill="#000000" y="-5.25" height="62.999998" fill-opacity="0.29"/></g></mask><clipPath id="d81dcaa79a"><path d="M 0.597656 0.722656 L 2.738281 0.722656 L 2.738281 2.75 L 0.597656 2.75 Z M 0.597656 0.722656 " clip-rule="nonzero"/></clipPath><clipPath id="4e45a66432"><path d="M 0.597656 0.722656 L 2.738281 0.722656 L 2.738281 2.75 L 0.597656 2.75 Z M 0.597656 0.722656 " clip-rule="nonzero"/></clipPath><clipPath id="698593f503"><rect x="0" width="3" y="0" height="3"/></clipPath><clipPath id="05ad0bef50"><rect x="0" width="3" y="0" height="3"/></clipPath><clipPath id="265ff86a58"><path d="M 7.363281 28.722656 L 9.503906 28.722656 L 9.503906 30.75 L 7.363281 30.75 Z M 7.363281 28.722656 " clip-rule="nonzero"/></clipPath><clipPath id="bda54ca041"><path d="M 0.363281 0.722656 L 2.503906 0.722656 L 2.503906 2.75 L 0.363281 2.75 Z M 0.363281 0.722656 " clip-rule="nonzero"/></clipPath><clipPath id="bd006464ea"><rect x="0" width="3" y="0" height="3"/></clipPath><clipPath id="f352095abf"><path d="M 10.171875 28.722656 L 12.3125 28.722656 L 12.3125 30.75 L 10.171875 30.75 Z M 10.171875 28.722656 " clip-rule="nonzero"/></clipPath><clipPath id="4707dc638e"><path d="M 0.171875 0.722656 L 2.3125 0.722656 L 2.3125 2.75 L 0.171875 2.75 Z M 0.171875 0.722656 " clip-rule="nonzero"/></clipPath><clipPath id="8fb2a0d1f2"><rect x="0" width="3" y="0" height="3"/></clipPath><mask id="9b2fa6b0ce"><g filter="url(#793ca50d56)"><rect x="-30.45" width="365.4" fill="#000000" y="-5.25" height="62.999998" fill-opacity="0.29"/></g></mask><clipPath id="5b1ef31ae7"><path d="M 0.980469 0.722656 L 3.121094 0.722656 L 3.121094 2.75 L 0.980469 2.75 Z M 0.980469 0.722656 " clip-rule="nonzero"/></clipPath><clipPath id="805b6340fb"><path d="M 0.980469 0.722656 L 3.121094 0.722656 L 3.121094 2.75 L 0.980469 2.75 Z M 0.980469 0.722656 " clip-rule="nonzero"/></clipPath><clipPath id="6f5923c866"><rect x="0" width="4" y="0" height="3"/></clipPath><clipPath id="c87621476e"><rect x="0" width="4" y="0" height="3"/></clipPath><clipPath id="21d51aa3f6"><path d="M 15.789062 31.417969 L 17.929688 31.417969 L 17.929688 33.445312 L 15.789062 33.445312 Z M 15.789062 31.417969 " clip-rule="nonzero"/></clipPath><clipPath id="ac2a918548"><path d="M 0.789062 0.417969 L 2.929688 0.417969 L 2.929688 2.445312 L 0.789062 2.445312 Z M 0.789062 0.417969 " clip-rule="nonzero"/></clipPath><clipPath id="b7d1b82137"><rect x="0" width="3" y="0" height="3"/></clipPath><clipPath id="203a38ef67"><path d="M 18.554688 31.417969 L 20.691406 31.417969 L 20.691406 33.445312 L 18.554688 33.445312 Z M 18.554688 31.417969 " clip-rule="nonzero"/></clipPath><clipPath id="9d4eeaa777"><path d="M 0.554688 0.417969 L 2.691406 0.417969 L 2.691406 2.445312 L 0.554688 2.445312 Z M 0.554688 0.417969 " clip-rule="nonzero"/></clipPath><clipPath id="b3ea05b0a2"><rect x="0" width="3" y="0" height="3"/></clipPath><mask id="3048e01134"><g filter="url(#793ca50d56)"><rect x="-30.45" width="365.4" fill="#000000" y="-5.25" height="62.999998" fill-opacity="0.29"/></g></mask><clipPath id="857b88ed42"><path d="M 0.363281 0.417969 L 2.5 0.417969 L 2.5 2.445312 L 0.363281 2.445312 Z M 0.363281 0.417969 " clip-rule="nonzero"/></clipPath><clipPath id="fba4167687"><path d="M 0.363281 0.417969 L 2.5 0.417969 L 2.5 2.445312 L 0.363281 2.445312 Z M 0.363281 0.417969 " clip-rule="nonzero"/></clipPath><clipPath id="00fcf5a374"><rect x="0" width="3" y="0" height="3"/></clipPath><clipPath id="5b243790e9"><rect x="0" width="3" y="0" height="3"/></clipPath><mask id="77a86effe1"><g filter="url(#793ca50d56)"><rect x="-30.45" width="365.4" fill="#000000" y="-5.25" height="62.999998" fill-opacity="0.29"/></g></mask><clipPath id="fe71236dfb"><path d="M 0.171875 0.417969 L 2.308594 0.417969 L 2.308594 2.445312 L 0.171875 2.445312 Z M 0.171875 0.417969 " clip-rule="nonzero"/></clipPath><clipPath id="ece2e6ae15"><path d="M 0.171875 0.417969 L 2.308594 0.417969 L 2.308594 2.445312 L 0.171875 2.445312 Z M 0.171875 0.417969 " clip-rule="nonzero"/></clipPath><clipPath id="28daa4857e"><rect x="0" width="3" y="0" height="3"/></clipPath><clipPath id="f546535b44"><rect x="0" width="3" y="0" height="3"/></clipPath><mask id="47c08c4f68"><g filter="url(#793ca50d56)"><rect x="-30.45" width="365.4" fill="#000000" y="-5.25" height="62.999998" fill-opacity="0.29"/></g></mask><clipPath id="6b1b4fb790"><path d="M 0.789062 1.117188 L 2.929688 1.117188 L 2.929688 3.140625 L 0.789062 3.140625 Z M 0.789062 1.117188 " clip-rule="nonzero"/></clipPath><clipPath id="141c44fead"><path d="M 0.789062 0.117188 L 2.929688 0.117188 L 2.929688 2.140625 L 0.789062 2.140625 Z M 0.789062 0.117188 " clip-rule="nonzero"/></clipPath><clipPath id="0fd4041719"><rect x="0" width="3" y="0" height="3"/></clipPath><clipPath id="05503aa800"><rect x="0" width="4" y="0" height="4"/></clipPath><mask id="917765fa81"><g filter="url(#793ca50d56)"><rect x="-30.45" width="365.4" fill="#000000" y="-5.25" height="62.999998" fill-opacity="0.29"/></g></mask><clipPath id="7ee7e2bfbb"><path d="M 0.554688 1.117188 L 2.691406 1.117188 L 2.691406 3.140625 L 0.554688 3.140625 Z M 0.554688 1.117188 " clip-rule="nonzero"/></clipPath><clipPath id="b68fd9d81b"><path d="M 0.554688 0.117188 L 2.691406 0.117188 L 2.691406 2.140625 L 0.554688 2.140625 Z M 0.554688 0.117188 " clip-rule="nonzero"/></clipPath><clipPath id="8527f2aeed"><rect x="0" width="3" y="0" height="3"/></clipPath><clipPath id="2b3bde7c73"><rect x="0" width="3" y="0" height="4"/></clipPath><mask id="329457d061"><g filter="url(#793ca50d56)"><rect x="-30.45" width="365.4" fill="#000000" y="-5.25" height="62.999998" fill-opacity="0.29"/></g></mask><clipPath id="12f554573d"><path d="M 0.363281 1.117188 L 2.5 1.117188 L 2.5 3.140625 L 0.363281 3.140625 Z M 0.363281 1.117188 " clip-rule="nonzero"/></clipPath><clipPath id="8619e59bd9"><path d="M 0.363281 0.117188 L 2.5 0.117188 L 2.5 2.140625 L 0.363281 2.140625 Z M 0.363281 0.117188 " clip-rule="nonzero"/></clipPath><clipPath id="8afd814644"><rect x="0" width="3" y="0" height="3"/></clipPath><clipPath id="f3a468472b"><rect x="0" width="3" y="0" height="4"/></clipPath><mask id="dbfb2e058f"><g filter="url(#793ca50d56)"><rect x="-30.45" width="365.4" fill="#000000" y="-5.25" height="62.999998" fill-opacity="0.29"/></g></mask><clipPath id="013b2a0dcc"><path d="M 0.171875 1.117188 L 2.308594 1.117188 L 2.308594 3.140625 L 0.171875 3.140625 Z M 0.171875 1.117188 " clip-rule="nonzero"/></clipPath><clipPath id="8d17d92d37"><path d="M 0.171875 0.117188 L 2.308594 0.117188 L 2.308594 2.140625 L 0.171875 2.140625 Z M 0.171875 0.117188 " clip-rule="nonzero"/></clipPath><clipPath id="edf3b24563"><rect x="0" width="3" y="0" height="3"/></clipPath><clipPath id="20f00f6d77"><rect x="0" width="3" y="0" height="4"/></clipPath><mask id="23d07cd435"><g filter="url(#793ca50d56)"><rect x="-30.45" width="365.4" fill="#000000" y="-5.25" height="62.999998" fill-opacity="0.29"/></g></mask><clipPath id="f0dc42b9cf"><path d="M 0.597656 0.417969 L 2.738281 0.417969 L 2.738281 2.445312 L 0.597656 2.445312 Z M 0.597656 0.417969 " clip-rule="nonzero"/></clipPath><clipPath id="178357f038"><path d="M 0.597656 0.417969 L 2.738281 0.417969 L 2.738281 2.445312 L 0.597656 2.445312 Z M 0.597656 0.417969 " clip-rule="nonzero"/></clipPath><clipPath id="28e38ad33c"><rect x="0" width="3" y="0" height="3"/></clipPath><clipPath id="82505050fc"><rect x="0" width="3" y="0" height="3"/></clipPath><mask id="0084109ed1"><g filter="url(#793ca50d56)"><rect x="-30.45" width="365.4" fill="#000000" y="-5.25" height="62.999998" fill-opacity="0.29"/></g></mask><clipPath id="e383f3f880"><path d="M 0.363281 0.417969 L 2.503906 0.417969 L 2.503906 2.445312 L 0.363281 2.445312 Z M 0.363281 0.417969 " clip-rule="nonzero"/></clipPath><clipPath id="d5575fbb3d"><path d="M 0.363281 0.417969 L 2.503906 0.417969 L 2.503906 2.445312 L 0.363281 2.445312 Z M 0.363281 0.417969 " clip-rule="nonzero"/></clipPath><clipPath id="459bbe2638"><rect x="0" width="3" y="0" height="3"/></clipPath><clipPath id="b719bf8754"><rect x="0" width="3" y="0" height="3"/></clipPath><clipPath id="9dfea436d3"><path d="M 10.171875 31.417969 L 12.3125 31.417969 L 12.3125 33.445312 L 10.171875 33.445312 Z M 10.171875 31.417969 " clip-rule="nonzero"/></clipPath><clipPath id="a8a6b6dcc2"><path d="M 0.171875 0.417969 L 2.3125 0.417969 L 2.3125 2.445312 L 0.171875 2.445312 Z M 0.171875 0.417969 " clip-rule="nonzero"/></clipPath><clipPath id="f60835bb6c"><rect x="0" width="3" y="0" height="3"/></clipPath><clipPath id="7979a1cc0d"><path d="M 12.980469 31.417969 L 15.121094 31.417969 L 15.121094 33.445312 L 12.980469 33.445312 Z M 12.980469 31.417969 " clip-rule="nonzero"/></clipPath><clipPath id="3cb1c3f1b1"><path d="M 0.980469 0.417969 L 3.121094 0.417969 L 3.121094 2.445312 L 0.980469 2.445312 Z M 0.980469 0.417969 " clip-rule="nonzero"/></clipPath><clipPath id="cc6e24fc4e"><rect x="0" width="4" y="0" height="3"/></clipPath><mask id="3e60240212"><g filter="url(#793ca50d56)"><rect x="-30.45" width="365.4" fill="#000000" y="-5.25" height="62.999998" fill-opacity="0.29"/></g></mask><clipPath id="99923f3e6c"><path d="M 0.597656 1.117188 L 2.738281 1.117188 L 2.738281 3.140625 L 0.597656 3.140625 Z M 0.597656 1.117188 " clip-rule="nonzero"/></clipPath><clipPath id="85353bd306"><path d="M 0.597656 0.117188 L 2.738281 0.117188 L 2.738281 2.140625 L 0.597656 2.140625 Z M 0.597656 0.117188 " clip-rule="nonzero"/></clipPath><clipPath id="2b51866240"><rect x="0" width="3" y="0" height="3"/></clipPath><clipPath id="1c4410a625"><rect x="0" width="3" y="0" height="4"/></clipPath><mask id="12f463883a"><g filter="url(#793ca50d56)"><rect x="-30.45" width="365.4" fill="#000000" y="-5.25" height="62.999998" fill-opacity="0.29"/></g></mask><clipPath id="ccaf116ac6"><path d="M 0.363281 1.117188 L 2.503906 1.117188 L 2.503906 3.140625 L 0.363281 3.140625 Z M 0.363281 1.117188 " clip-rule="nonzero"/></clipPath><clipPath id="3cd711f338"><path d="M 0.363281 0.117188 L 2.503906 0.117188 L 2.503906 2.140625 L 0.363281 2.140625 Z M 0.363281 0.117188 " clip-rule="nonzero"/></clipPath><clipPath id="65e97b11f3"><rect x="0" width="3" y="0" height="3"/></clipPath><clipPath id="8ac3d383a4"><rect x="0" width="3" y="0" height="4"/></clipPath><mask id="4cea0bde9d"><g filter="url(#793ca50d56)"><rect x="-30.45" width="365.4" fill="#000000" y="-5.25" height="62.999998" fill-opacity="0.29"/></g></mask><clipPath id="81933090ff"><path d="M 1.171875 1.117188 L 3.3125 1.117188 L 3.3125 3.140625 L 1.171875 3.140625 Z M 1.171875 1.117188 " clip-rule="nonzero"/></clipPath><clipPath id="c9f7005e21"><path d="M 0.171875 0.117188 L 2.3125 0.117188 L 2.3125 2.140625 L 0.171875 2.140625 Z M 0.171875 0.117188 " clip-rule="nonzero"/></clipPath><clipPath id="bceb008afd"><rect x="0" width="3" y="0" height="3"/></clipPath><clipPath id="33b0b1a0fa"><rect x="0" width="4" y="0" height="4"/></clipPath><mask id="8ed13d8a16"><g filter="url(#793ca50d56)"><rect x="-30.45" width="365.4" fill="#000000" y="-5.25" height="62.999998" fill-opacity="0.29"/></g></mask><clipPath id="0f142c664e"><path d="M 0.980469 1.117188 L 3.121094 1.117188 L 3.121094 3.140625 L 0.980469 3.140625 Z M 0.980469 1.117188 " clip-rule="nonzero"/></clipPath><clipPath id="32ecd4bd1c"><path d="M 0.980469 0.117188 L 3.121094 0.117188 L 3.121094 2.140625 L 0.980469 2.140625 Z M 0.980469 0.117188 " clip-rule="nonzero"/></clipPath><clipPath id="a0307a50ac"><rect x="0" width="4" y="0" height="3"/></clipPath><clipPath id="c5e34b11db"><rect x="0" width="4" y="0" height="4"/></clipPath><clipPath id="6ae64a98af"><path d="M 91.832031 8.402344 L 95.496094 8.402344 L 95.496094 43.109375 L 91.832031 43.109375 Z M 91.832031 8.402344 " clip-rule="nonzero"/></clipPath><clipPath id="24056c3067"><path d="M 0.832031 0.402344 L 4.496094 0.402344 L 4.496094 35.109375 L 0.832031 35.109375 Z M 0.832031 0.402344 " clip-rule="nonzero"/></clipPath><clipPath id="d7d61d0f89"><rect x="0" width="5" y="0" height="36"/></clipPath><clipPath id="2f542206c8"><path d="M 75 23 L 85 23 L 85 37.503906 L 75 37.503906 Z M 75 23 " clip-rule="nonzero"/></clipPath><clipPath id="47f33a33fc"><rect x="0" width="194" y="0" height="38"/></clipPath></defs><g clip-path="url(#a5bbaf4ab7)"><g transform="matrix(1, 0, 0, 1, 1, 37)"><g clip-path="url(#b4319606b6)"><g clip-path="url(#f69db71113)"><path fill="#000000" d="M 0.191406 2.441406 L 0.191406 0.0703125 L 7.589844 0.0703125 L 7.589844 2.441406 Z M 0.191406 2.441406 " fill-opacity="1" fill-rule="nonzero"/></g></g></g></g><g clip-path="url(#3f99d009e2)"><g transform="matrix(1, 0, 0, 1, 22, 37)"><g clip-path="url(#2571056029)"><g clip-path="url(#4555081bf9)"><path fill="#000000" d="M 7.597656 0.0742188 L 7.597656 2.449219 L 0.308594 2.449219 L 0.308594 0.0742188 Z M 7.597656 0.0742188 " fill-opacity="1" fill-rule="nonzero"/></g></g></g></g><g clip-path="url(#b299b79ee0)"><g transform="matrix(1, 0, 0, 1, 1, 12)"><g clip-path="url(#0c979f95e9)"><g clip-path="url(#168715910c)"><path fill="#000000" d="M 0.1875 0.0585938 L 2.699219 0.0585938 L 2.699219 27.453125 L 0.1875 27.453125 Z M 0.1875 0.0585938 " fill-opacity="1" fill-rule="nonzero"/></g></g></g></g><g clip-path="url(#d34b357485)"><g transform="matrix(1, 0, 0, 1, 1, 12)"><g clip-path="url(#656c5c7809)"><g clip-path="url(#07fcb3fdfb)"><path fill="#000000" d="M 0.191406 2.425781 L 0.191406 0.0507812 L 7.589844 0.0507812 L 7.589844 2.425781 Z M 0.191406 2.425781 " fill-opacity="1" fill-rule="nonzero"/></g></g></g></g><g clip-path="url(#479fdace5e)"><g transform="matrix(1, 0, 0, 1, 27, 12)"><g clip-path="url(#5e35ad99b6)"><g clip-path="url(#367480dd24)"><path fill="#000000" d="M 2.601562 27.445312 L 0.207031 27.445312 L 0.207031 0.0546875 L 2.601562 0.0546875 Z M 2.601562 27.445312 " fill-opacity="1" fill-rule="nonzero"/></g></g></g></g><g clip-path="url(#e0b6ab9ee9)"><g transform="matrix(1, 0, 0, 1, 22, 12)"><g clip-path="url(#04d360b41b)"><g clip-path="url(#1b32587482)"><path fill="#000000" d="M 7.597656 0.0585938 L 7.597656 2.433594 L 0.308594 2.433594 L 0.308594 0.0585938 Z M 7.597656 0.0585938 " fill-opacity="1" fill-rule="nonzero"/></g></g></g></g><g transform="matrix(1, 0, 0, 1, 30, 7)"><g clip-path="url(#bacd1a7c42)"><g fill="#000000" fill-opacity="1"><g transform="translate(0.665478, 29.151033)"><g><path d="M 21.046875 -20.328125 L 21.046875 0 L 17.1875 0 L 7.046875 -12.34375 L 7.046875 0 L 2.40625 0 L 2.40625 -20.328125 L 6.296875 -20.328125 L 16.40625 -7.984375 L 16.40625 -20.328125 Z M 21.046875 -20.328125 "/></g></g></g><g fill="#000000" fill-opacity="1"><g transform="translate(24.116069, 29.151033)"><g><path d="M 2.40625 -20.328125 L 7.109375 -20.328125 L 7.109375 0 L 2.40625 0 Z M 2.40625 -20.328125 "/></g></g></g><g clip-path="url(#db28779b69)"><g fill="#000000" fill-opacity="1"><g transform="translate(33.635617, 29.151033)"><g><path d="M 15.796875 -4.359375 L 6.359375 -4.359375 L 4.5625 0 L -0.265625 0 L 8.796875 -20.328125 L 13.4375 -20.328125 L 22.53125 0 L 17.59375 0 Z M 14.3125 -7.921875 L 11.09375 -15.703125 L 7.875 -7.921875 Z M 14.3125 -7.921875 "/></g></g></g></g></g></g><g mask="url(#a5deae43fa)"><g transform="matrix(1, 0, 0, 1, 15, 15)"><g clip-path="url(#8c9635cdc1)"><g clip-path="url(#288314e37d)"><g transform="matrix(1, 0, 0, 1, 0.000000000000001776, 0)"><g clip-path="url(#c0035a4898)"><g clip-path="url(#c3494a55df)"><path fill="#8c52ff" d="M 0.789062 0.371094 L 2.925781 0.371094 L 2.925781 2.394531 L 0.789062 2.394531 Z M 0.789062 0.371094 " fill-opacity="1" fill-rule="nonzero"/></g></g></g></g></g></g></g><g mask="url(#274b84aab1)"><g transform="matrix(1, 0, 0, 1, 18, 15)"><g clip-path="url(#ac73558525)"><g clip-path="url(#53ef573159)"><g><g clip-path="url(#34dce00b6d)"><g clip-path="url(#ef1f8865dd)"><path fill="#8c52ff" d="M 0.554688 0.371094 L 2.691406 0.371094 L 2.691406 2.394531 L 0.554688 2.394531 Z M 0.554688 0.371094 " fill-opacity="1" fill-rule="nonzero"/></g></g></g></g></g></g></g><g mask="url(#a2baee87cd)"><g transform="matrix(1, 0, 0, 1, 21, 15)"><g clip-path="url(#5c21913366)"><g clip-path="url(#ae1e3dc2cc)"><g><g clip-path="url(#1afa605775)"><g clip-path="url(#aca8fa1de1)"><path fill="#8c52ff" d="M 0.363281 0.371094 L 2.5 0.371094 L 2.5 2.394531 L 0.363281 2.394531 Z M 0.363281 0.371094 " fill-opacity="1" fill-rule="nonzero"/></g></g></g></g></g></g></g><g mask="url(#9ba60a9071)"><g transform="matrix(1, 0, 0, 1, 24, 15)"><g clip-path="url(#28e60b039d)"><g clip-path="url(#62b3ae1bdb)"><g><g clip-path="url(#e48fd148aa)"><g clip-path="url(#48501d3b0f)"><path fill="#8c52ff" d="M 0.171875 0.371094 L 2.308594 0.371094 L 2.308594 2.394531 L 0.171875 2.394531 Z M 0.171875 0.371094 " fill-opacity="1" fill-rule="nonzero"/></g></g></g></g></g></g></g><g clip-path="url(#38358d5370)"><g transform="matrix(1, 0, 0, 1, 15, 18)"><g clip-path="url(#68753344c3)"><g clip-path="url(#78bc4445b2)"><path fill="#8c52ff" d="M 0.789062 0.00390625 L 2.925781 0.00390625 L 2.925781 2.027344 L 0.789062 2.027344 Z M 0.789062 0.00390625 " fill-opacity="1" fill-rule="nonzero"/></g></g></g></g><g clip-path="url(#91dfc887e6)"><g transform="matrix(1, 0, 0, 1, 18, 18)"><g clip-path="url(#a19d53ac93)"><g clip-path="url(#1a02f3a15e)"><path fill="#8c52ff" d="M 0.554688 0.00390625 L 2.691406 0.00390625 L 2.691406 2.027344 L 0.554688 2.027344 Z M 0.554688 0.00390625 " fill-opacity="1" fill-rule="nonzero"/></g></g></g></g><g mask="url(#ecf0e44b1e)"><g transform="matrix(1, 0, 0, 1, 21, 17)"><g clip-path="url(#41d7681558)"><g clip-path="url(#05aebd4955)"><g transform="matrix(1, 0, 0, 1, 0, 1)"><g clip-path="url(#94484c5d7c)"><g clip-path="url(#434c3ea3b2)"><path fill="#8c52ff" d="M 0.363281 0.00390625 L 2.5 0.00390625 L 2.5 2.027344 L 0.363281 2.027344 Z M 0.363281 0.00390625 " fill-opacity="1" fill-rule="nonzero"/></g></g></g></g></g></g></g><g mask="url(#a1a51de2a5)"><g transform="matrix(1, 0, 0, 1, 24, 17)"><g clip-path="url(#18df88dbdd)"><g clip-path="url(#2a85548b87)"><g transform="matrix(1, 0, 0, 1, 0, 1)"><g clip-path="url(#55118e4c03)"><g clip-path="url(#c8a7d19082)"><path fill="#8c52ff" d="M 0.171875 0.00390625 L 2.308594 0.00390625 L 2.308594 2.027344 L 0.171875 2.027344 Z M 0.171875 0.00390625 " fill-opacity="1" fill-rule="nonzero"/></g></g></g></g></g></g></g><g mask="url(#9f55dc415f)"><g transform="matrix(1, 0, 0, 1, 15, 20)"><g clip-path="url(#6c5c46b7bc)"><g clip-path="url(#58695d1699)"><g transform="matrix(1, 0, 0, 1, 0.000000000000001776, 0)"><g clip-path="url(#c6069e5bbb)"><g clip-path="url(#86bda19957)"><path fill="#8c52ff" d="M 0.789062 0.699219 L 2.925781 0.699219 L 2.925781 2.722656 L 0.789062 2.722656 Z M 0.789062 0.699219 " fill-opacity="1" fill-rule="nonzero"/></g></g></g></g></g></g></g><g clip-path="url(#9858be6448)"><g transform="matrix(1, 0, 0, 1, 18, 20)"><g clip-path="url(#03f688261c)"><g clip-path="url(#b692d53fcd)"><path fill="#8c52ff" d="M 0.554688 0.699219 L 2.691406 0.699219 L 2.691406 2.722656 L 0.554688 2.722656 Z M 0.554688 0.699219 " fill-opacity="1" fill-rule="nonzero"/></g></g></g></g><g clip-path="url(#f148eaf4d4)"><g transform="matrix(1, 0, 0, 1, 21, 20)"><g clip-path="url(#0d0a6d61da)"><g clip-path="url(#40fec3554f)"><path fill="#8c52ff" d="M 0.363281 0.699219 L 2.5 0.699219 L 2.5 2.722656 L 0.363281 2.722656 Z M 0.363281 0.699219 " fill-opacity="1" fill-rule="nonzero"/></g></g></g></g><g mask="url(#bf087cc9bd)"><g transform="matrix(1, 0, 0, 1, 24, 20)"><g clip-path="url(#fe7107c583)"><g clip-path="url(#622ed763be)"><g><g clip-path="url(#965f5569d2)"><g clip-path="url(#68722a0441)"><path fill="#8c52ff" d="M 0.171875 0.699219 L 2.308594 0.699219 L 2.308594 2.722656 L 0.171875 2.722656 Z M 0.171875 0.699219 " fill-opacity="1" fill-rule="nonzero"/></g></g></g></g></g></g></g><g mask="url(#15e6b4f767)"><g transform="matrix(1, 0, 0, 1, 15, 23)"><g clip-path="url(#f3aadf989d)"><g clip-path="url(#5d4b21c68f)"><g transform="matrix(1, 0, 0, 1, 0.000000000000001776, 0)"><g clip-path="url(#439277b414)"><g clip-path="url(#9e5267bb7a)"><path fill="#8c52ff" d="M 0.789062 0.394531 L 2.925781 0.394531 L 2.925781 2.421875 L 0.789062 2.421875 Z M 0.789062 0.394531 " fill-opacity="1" fill-rule="nonzero"/></g></g></g></g></g></g></g><g mask="url(#b21dc3ebe5)"><g transform="matrix(1, 0, 0, 1, 18, 23)"><g clip-path="url(#604cfbe2ef)"><g clip-path="url(#e9bfaa34be)"><g><g clip-path="url(#f048e72aab)"><g clip-path="url(#f2e84d2abf)"><path fill="#8c52ff" d="M 0.554688 0.394531 L 2.691406 0.394531 L 2.691406 2.421875 L 0.554688 2.421875 Z M 0.554688 0.394531 " fill-opacity="1" fill-rule="nonzero"/></g></g></g></g></g></g></g><g clip-path="url(#4471ad69eb)"><g transform="matrix(1, 0, 0, 1, 21, 23)"><g clip-path="url(#9ddd37ca3f)"><g clip-path="url(#5ecbe290a8)"><path fill="#8c52ff" d="M 0.363281 0.394531 L 2.5 0.394531 L 2.5 2.421875 L 0.363281 2.421875 Z M 0.363281 0.394531 " fill-opacity="1" fill-rule="nonzero"/></g></g></g></g><g mask="url(#1c18b3cabd)"><g transform="matrix(1, 0, 0, 1, 24, 23)"><g clip-path="url(#2888fe48aa)"><g clip-path="url(#30914772a9)"><g><g clip-path="url(#b59cdd3ab0)"><g clip-path="url(#43a1657212)"><path fill="#8c52ff" d="M 0.171875 0.394531 L 2.308594 0.394531 L 2.308594 2.421875 L 0.171875 2.421875 Z M 0.171875 0.394531 " fill-opacity="1" fill-rule="nonzero"/></g></g></g></g></g></g></g><g mask="url(#418e73f04c)"><g transform="matrix(1, 0, 0, 1, 15, 25)"><g clip-path="url(#1efd4b6ba6)"><g clip-path="url(#efd31a715d)"><g transform="matrix(1, 0, 0, 1, 0.000000000000001776, 1)"><g clip-path="url(#6f678205a0)"><g clip-path="url(#7f303b8be6)"><path fill="#8c52ff" d="M 0.789062 0.0273438 L 2.925781 0.0273438 L 2.925781 2.054688 L 0.789062 2.054688 Z M 0.789062 0.0273438 " fill-opacity="1" fill-rule="nonzero"/></g></g></g></g></g></g></g><g mask="url(#f62383f011)"><g transform="matrix(1, 0, 0, 1, 18, 25)"><g clip-path="url(#e2853efdff)"><g clip-path="url(#6b1beefb45)"><g transform="matrix(1, 0, 0, 1, 0, 1)"><g clip-path="url(#8225276911)"><g clip-path="url(#48a1ca3c86)"><path fill="#8c52ff" d="M 0.554688 0.0273438 L 2.691406 0.0273438 L 2.691406 2.054688 L 0.554688 2.054688 Z M 0.554688 0.0273438 " fill-opacity="1" fill-rule="nonzero"/></g></g></g></g></g></g></g><g mask="url(#070d23f767)"><g transform="matrix(1, 0, 0, 1, 21, 25)"><g clip-path="url(#51744f02c1)"><g clip-path="url(#531af66c82)"><g transform="matrix(1, 0, 0, 1, 0, 1)"><g clip-path="url(#902bb9ddff)"><g clip-path="url(#3bbf06e931)"><path fill="#8c52ff" d="M 0.363281 0.0273438 L 2.5 0.0273438 L 2.5 2.054688 L 0.363281 2.054688 Z M 0.363281 0.0273438 " fill-opacity="1" fill-rule="nonzero"/></g></g></g></g></g></g></g><g mask="url(#853a34dd70)"><g transform="matrix(1, 0, 0, 1, 24, 25)"><g clip-path="url(#88b54f05c1)"><g clip-path="url(#e0856ff9ef)"><g transform="matrix(1, 0, 0, 1, 0, 1)"><g clip-path="url(#e60a40c482)"><g clip-path="url(#418255707a)"><path fill="#8c52ff" d="M 0.171875 0.0273438 L 2.308594 0.0273438 L 2.308594 2.054688 L 0.171875 2.054688 Z M 0.171875 0.0273438 " fill-opacity="1" fill-rule="nonzero"/></g></g></g></g></g></g></g><g mask="url(#f618879b76)"><g transform="matrix(1, 0, 0, 1, 15, 28)"><g clip-path="url(#428d128e09)"><g clip-path="url(#9c492094c0)"><g transform="matrix(1, 0, 0, 1, 0.000000000000001776, 0)"><g clip-path="url(#73688e54bf)"><g clip-path="url(#60576321c6)"><path fill="#8c52ff" d="M 0.789062 0.722656 L 2.925781 0.722656 L 2.925781 2.75 L 0.789062 2.75 Z M 0.789062 0.722656 " fill-opacity="1" fill-rule="nonzero"/></g></g></g></g></g></g></g><g clip-path="url(#f6657cbf47)"><g transform="matrix(1, 0, 0, 1, 18, 28)"><g clip-path="url(#c92a1ac6d7)"><g clip-path="url(#e2842c015d)"><path fill="#8c52ff" d="M 0.554688 0.722656 L 2.691406 0.722656 L 2.691406 2.75 L 0.554688 2.75 Z M 0.554688 0.722656 " fill-opacity="1" fill-rule="nonzero"/></g></g></g></g><g clip-path="url(#53016e9d86)"><g transform="matrix(1, 0, 0, 1, 21, 28)"><g clip-path="url(#b2ffa16e82)"><g clip-path="url(#db28aff6f2)"><path fill="#8c52ff" d="M 0.363281 0.722656 L 2.5 0.722656 L 2.5 2.75 L 0.363281 2.75 Z M 0.363281 0.722656 " fill-opacity="1" fill-rule="nonzero"/></g></g></g></g><g mask="url(#78924ff395)"><g transform="matrix(1, 0, 0, 1, 24, 28)"><g clip-path="url(#a9363da522)"><g clip-path="url(#b255da819c)"><g><g clip-path="url(#3827a38887)"><g clip-path="url(#415d72d7b0)"><path fill="#8c52ff" d="M 0.171875 0.722656 L 2.308594 0.722656 L 2.308594 2.75 L 0.171875 2.75 Z M 0.171875 0.722656 " fill-opacity="1" fill-rule="nonzero"/></g></g></g></g></g></g></g><g mask="url(#a8008bd7fb)"><g transform="matrix(1, 0, 0, 1, 4, 15)"><g clip-path="url(#59362ed17e)"><g clip-path="url(#70fccb9657)"><g><g clip-path="url(#857011717d)"><g clip-path="url(#33aac8793d)"><path fill="#8c52ff" d="M 0.597656 0.371094 L 2.734375 0.371094 L 2.734375 2.394531 L 0.597656 2.394531 Z M 0.597656 0.371094 " fill-opacity="1" fill-rule="nonzero"/></g></g></g></g></g></g></g><g mask="url(#d58d871c49)"><g transform="matrix(1, 0, 0, 1, 7, 15)"><g clip-path="url(#66973c94b2)"><g clip-path="url(#3332d034cc)"><g><g clip-path="url(#3066096a1c)"><g clip-path="url(#f051f60a3c)"><path fill="#8c52ff" d="M 0.363281 0.371094 L 2.5 0.371094 L 2.5 2.394531 L 0.363281 2.394531 Z M 0.363281 0.371094 " fill-opacity="1" fill-rule="nonzero"/></g></g></g></g></g></g></g><g mask="url(#d9aaafde8b)"><g transform="matrix(1, 0, 0, 1, 9, 15)"><g clip-path="url(#f82e431de4)"><g clip-path="url(#5527bebced)"><g transform="matrix(1, 0, 0, 1, 1, 0)"><g clip-path="url(#b3b0e8fd4e)"><g clip-path="url(#1e6491f31c)"><path fill="#8c52ff" d="M 0.171875 0.371094 L 2.308594 0.371094 L 2.308594 2.394531 L 0.171875 2.394531 Z M 0.171875 0.371094 " fill-opacity="1" fill-rule="nonzero"/></g></g></g></g></g></g></g><g mask="url(#3c3bb22c82)"><g transform="matrix(1, 0, 0, 1, 12, 15)"><g clip-path="url(#dbafd7a02c)"><g clip-path="url(#f316ab9089)"><g><g clip-path="url(#7dd33860b2)"><g clip-path="url(#af333c51b7)"><path fill="#8c52ff" d="M 0.980469 0.371094 L 3.117188 0.371094 L 3.117188 2.394531 L 0.980469 2.394531 Z M 0.980469 0.371094 " fill-opacity="1" fill-rule="nonzero"/></g></g></g></g></g></g></g><g mask="url(#82534958f8)"><g transform="matrix(1, 0, 0, 1, 4, 17)"><g clip-path="url(#9d6f587010)"><g clip-path="url(#464a58fad2)"><g transform="matrix(1, 0, 0, 1, 0, 1)"><g clip-path="url(#9d3018cfc4)"><g clip-path="url(#53053597d9)"><path fill="#8c52ff" d="M 0.597656 0.00390625 L 2.734375 0.00390625 L 2.734375 2.027344 L 0.597656 2.027344 Z M 0.597656 0.00390625 " fill-opacity="1" fill-rule="nonzero"/></g></g></g></g></g></g></g><g mask="url(#0077e644f4)"><g transform="matrix(1, 0, 0, 1, 7, 17)"><g clip-path="url(#aee11d94da)"><g clip-path="url(#440df35011)"><g transform="matrix(1, 0, 0, 1, 0, 1)"><g clip-path="url(#8a5604eb12)"><g clip-path="url(#56a842d5fd)"><path fill="#8c52ff" d="M 0.363281 0.00390625 L 2.5 0.00390625 L 2.5 2.027344 L 0.363281 2.027344 Z M 0.363281 0.00390625 " fill-opacity="1" fill-rule="nonzero"/></g></g></g></g></g></g></g><g clip-path="url(#6b41fad36a)"><g transform="matrix(1, 0, 0, 1, 10, 18)"><g clip-path="url(#f953475d13)"><g clip-path="url(#d24528d4af)"><path fill="#8c52ff" d="M 0.171875 0.00390625 L 2.308594 0.00390625 L 2.308594 2.027344 L 0.171875 2.027344 Z M 0.171875 0.00390625 " fill-opacity="1" fill-rule="nonzero"/></g></g></g></g><g clip-path="url(#7c740bdd0f)"><g transform="matrix(1, 0, 0, 1, 12, 18)"><g clip-path="url(#257c2981bd)"><g clip-path="url(#8858385c1c)"><path fill="#8c52ff" d="M 0.980469 0.00390625 L 3.117188 0.00390625 L 3.117188 2.027344 L 0.980469 2.027344 Z M 0.980469 0.00390625 " fill-opacity="1" fill-rule="nonzero"/></g></g></g></g><g mask="url(#24014b1996)"><g transform="matrix(1, 0, 0, 1, 4, 20)"><g clip-path="url(#9a16a5c9fc)"><g clip-path="url(#b21b3ffd7a)"><g><g clip-path="url(#8087967f7a)"><g clip-path="url(#80135f69a0)"><path fill="#8c52ff" d="M 0.597656 0.699219 L 2.734375 0.699219 L 2.734375 2.722656 L 0.597656 2.722656 Z M 0.597656 0.699219 " fill-opacity="1" fill-rule="nonzero"/></g></g></g></g></g></g></g><g clip-path="url(#63a718eb81)"><g transform="matrix(1, 0, 0, 1, 7, 20)"><g clip-path="url(#631cf02436)"><g clip-path="url(#f752294e5c)"><path fill="#8c52ff" d="M 0.363281 0.699219 L 2.5 0.699219 L 2.5 2.722656 L 0.363281 2.722656 Z M 0.363281 0.699219 " fill-opacity="1" fill-rule="nonzero"/></g></g></g></g><g clip-path="url(#5c548a2b5b)"><g transform="matrix(1, 0, 0, 1, 10, 20)"><g clip-path="url(#1a9259a3be)"><g clip-path="url(#10575796e5)"><path fill="#8c52ff" d="M 0.171875 0.699219 L 2.308594 0.699219 L 2.308594 2.722656 L 0.171875 2.722656 Z M 0.171875 0.699219 " fill-opacity="1" fill-rule="nonzero"/></g></g></g></g><g mask="url(#051a448ec1)"><g transform="matrix(1, 0, 0, 1, 12, 20)"><g clip-path="url(#fddc9f32a6)"><g clip-path="url(#39230b5a9f)"><g><g clip-path="url(#26fa8cdffb)"><g clip-path="url(#0d7a9d5ca2)"><path fill="#8c52ff" d="M 0.980469 0.699219 L 3.117188 0.699219 L 3.117188 2.722656 L 0.980469 2.722656 Z M 0.980469 0.699219 " fill-opacity="1" fill-rule="nonzero"/></g></g></g></g></g></g></g><g mask="url(#7a54e80eed)"><g transform="matrix(1, 0, 0, 1, 4, 23)"><g clip-path="url(#2259be9103)"><g clip-path="url(#da8aadb0b3)"><g><g clip-path="url(#d7508abeb2)"><g clip-path="url(#e2a0fb3b23)"><path fill="#8c52ff" d="M 0.597656 0.394531 L 2.734375 0.394531 L 2.734375 2.421875 L 0.597656 2.421875 Z M 0.597656 0.394531 " fill-opacity="1" fill-rule="nonzero"/></g></g></g></g></g></g></g><g clip-path="url(#033a6f6782)"><g transform="matrix(1, 0, 0, 1, 7, 23)"><g clip-path="url(#64e17d29c9)"><g clip-path="url(#eca5aa14a0)"><path fill="#8c52ff" d="M 0.363281 0.394531 L 2.5 0.394531 L 2.5 2.421875 L 0.363281 2.421875 Z M 0.363281 0.394531 " fill-opacity="1" fill-rule="nonzero"/></g></g></g></g><g mask="url(#7d6bca9fe4)"><g transform="matrix(1, 0, 0, 1, 9, 23)"><g clip-path="url(#70a7e51f60)"><g clip-path="url(#a79f900bc4)"><g transform="matrix(1, 0, 0, 1, 1, 0)"><g clip-path="url(#67dc9a577d)"><g clip-path="url(#2b5308cd45)"><path fill="#8c52ff" d="M 0.171875 0.394531 L 2.308594 0.394531 L 2.308594 2.421875 L 0.171875 2.421875 Z M 0.171875 0.394531 " fill-opacity="1" fill-rule="nonzero"/></g></g></g></g></g></g></g><g mask="url(#1b05d47b9f)"><g transform="matrix(1, 0, 0, 1, 12, 23)"><g clip-path="url(#8018414336)"><g clip-path="url(#69876a33c6)"><g><g clip-path="url(#82a67be82e)"><g clip-path="url(#beedc0b665)"><path fill="#8c52ff" d="M 0.980469 0.394531 L 3.117188 0.394531 L 3.117188 2.421875 L 0.980469 2.421875 Z M 0.980469 0.394531 " fill-opacity="1" fill-rule="nonzero"/></g></g></g></g></g></g></g><g mask="url(#0f91a9e958)"><g transform="matrix(1, 0, 0, 1, 4, 25)"><g clip-path="url(#c5ff732ef4)"><g clip-path="url(#70f24790a1)"><g transform="matrix(1, 0, 0, 1, 0, 1)"><g clip-path="url(#4093575fc2)"><g clip-path="url(#36cc1beb1f)"><path fill="#8c52ff" d="M 0.597656 0.0273438 L 2.734375 0.0273438 L 2.734375 2.054688 L 0.597656 2.054688 Z M 0.597656 0.0273438 " fill-opacity="1" fill-rule="nonzero"/></g></g></g></g></g></g></g><g clip-path="url(#59a347f259)"><g transform="matrix(1, 0, 0, 1, 7, 26)"><g clip-path="url(#5574cd7626)"><g clip-path="url(#55dfa48e11)"><path fill="#8c52ff" d="M 0.363281 0.0273438 L 2.5 0.0273438 L 2.5 2.054688 L 0.363281 2.054688 Z M 0.363281 0.0273438 " fill-opacity="1" fill-rule="nonzero"/></g></g></g></g><g mask="url(#4d75b458ad)"><g transform="matrix(1, 0, 0, 1, 9, 25)"><g clip-path="url(#6e9fb2402d)"><g clip-path="url(#d1619a0433)"><g transform="matrix(1, 0, 0, 1, 1, 1)"><g clip-path="url(#c2f3b6089a)"><g clip-path="url(#bc106946fe)"><path fill="#8c52ff" d="M 0.171875 0.0273438 L 2.308594 0.0273438 L 2.308594 2.054688 L 0.171875 2.054688 Z M 0.171875 0.0273438 " fill-opacity="1" fill-rule="nonzero"/></g></g></g></g></g></g></g><g mask="url(#b033297a77)"><g transform="matrix(1, 0, 0, 1, 12, 25)"><g clip-path="url(#77d7f247b3)"><g clip-path="url(#f5a38e5d68)"><g transform="matrix(1, 0, 0, 1, 0, 1)"><g clip-path="url(#339222ce6a)"><g clip-path="url(#e848b39599)"><path fill="#8c52ff" d="M 0.980469 0.0273438 L 3.117188 0.0273438 L 3.117188 2.054688 L 0.980469 2.054688 Z M 0.980469 0.0273438 " fill-opacity="1" fill-rule="nonzero"/></g></g></g></g></g></g></g><g mask="url(#6ebd0032c2)"><g transform="matrix(1, 0, 0, 1, 4, 28)"><g clip-path="url(#05ad0bef50)"><g clip-path="url(#d81dcaa79a)"><g><g clip-path="url(#698593f503)"><g clip-path="url(#4e45a66432)"><path fill="#8c52ff" d="M 0.597656 0.722656 L 2.734375 0.722656 L 2.734375 2.75 L 0.597656 2.75 Z M 0.597656 0.722656 " fill-opacity="1" fill-rule="nonzero"/></g></g></g></g></g></g></g><g clip-path="url(#265ff86a58)"><g transform="matrix(1, 0, 0, 1, 7, 28)"><g clip-path="url(#bd006464ea)"><g clip-path="url(#bda54ca041)"><path fill="#8c52ff" d="M 0.363281 0.722656 L 2.5 0.722656 L 2.5 2.75 L 0.363281 2.75 Z M 0.363281 0.722656 " fill-opacity="1" fill-rule="nonzero"/></g></g></g></g><g clip-path="url(#f352095abf)"><g transform="matrix(1, 0, 0, 1, 10, 28)"><g clip-path="url(#8fb2a0d1f2)"><g clip-path="url(#4707dc638e)"><path fill="#8c52ff" d="M 0.171875 0.722656 L 2.308594 0.722656 L 2.308594 2.75 L 0.171875 2.75 Z M 0.171875 0.722656 " fill-opacity="1" fill-rule="nonzero"/></g></g></g></g><g mask="url(#9b2fa6b0ce)"><g transform="matrix(1, 0, 0, 1, 12, 28)"><g clip-path="url(#c87621476e)"><g clip-path="url(#5b1ef31ae7)"><g><g clip-path="url(#6f5923c866)"><g clip-path="url(#805b6340fb)"><path fill="#8c52ff" d="M 0.980469 0.722656 L 3.117188 0.722656 L 3.117188 2.75 L 0.980469 2.75 Z M 0.980469 0.722656 " fill-opacity="1" fill-rule="nonzero"/></g></g></g></g></g></g></g><g clip-path="url(#21d51aa3f6)"><g transform="matrix(1, 0, 0, 1, 15, 31)"><g clip-path="url(#b7d1b82137)"><g clip-path="url(#ac2a918548)"><path fill="#8c52ff" d="M 0.789062 0.417969 L 2.925781 0.417969 L 2.925781 2.445312 L 0.789062 2.445312 Z M 0.789062 0.417969 " fill-opacity="1" fill-rule="nonzero"/></g></g></g></g><g clip-path="url(#203a38ef67)"><g transform="matrix(1, 0, 0, 1, 18, 31)"><g clip-path="url(#b3ea05b0a2)"><g clip-path="url(#9d4eeaa777)"><path fill="#8c52ff" d="M 0.554688 0.417969 L 2.691406 0.417969 L 2.691406 2.445312 L 0.554688 2.445312 Z M 0.554688 0.417969 " fill-opacity="1" fill-rule="nonzero"/></g></g></g></g><g mask="url(#3048e01134)"><g transform="matrix(1, 0, 0, 1, 21, 31)"><g clip-path="url(#5b243790e9)"><g clip-path="url(#857b88ed42)"><g><g clip-path="url(#00fcf5a374)"><g clip-path="url(#fba4167687)"><path fill="#8c52ff" d="M 0.363281 0.417969 L 2.5 0.417969 L 2.5 2.445312 L 0.363281 2.445312 Z M 0.363281 0.417969 " fill-opacity="1" fill-rule="nonzero"/></g></g></g></g></g></g></g><g mask="url(#77a86effe1)"><g transform="matrix(1, 0, 0, 1, 24, 31)"><g clip-path="url(#f546535b44)"><g clip-path="url(#fe71236dfb)"><g><g clip-path="url(#28daa4857e)"><g clip-path="url(#ece2e6ae15)"><path fill="#8c52ff" d="M 0.171875 0.417969 L 2.308594 0.417969 L 2.308594 2.445312 L 0.171875 2.445312 Z M 0.171875 0.417969 " fill-opacity="1" fill-rule="nonzero"/></g></g></g></g></g></g></g><g mask="url(#47c08c4f68)"><g transform="matrix(1, 0, 0, 1, 15, 33)"><g clip-path="url(#05503aa800)"><g clip-path="url(#6b1b4fb790)"><g transform="matrix(1, 0, 0, 1, 0.000000000000001776, 1)"><g clip-path="url(#0fd4041719)"><g clip-path="url(#141c44fead)"><path fill="#8c52ff" d="M 0.789062 0.117188 L 2.925781 0.117188 L 2.925781 2.140625 L 0.789062 2.140625 Z M 0.789062 0.117188 " fill-opacity="1" fill-rule="nonzero"/></g></g></g></g></g></g></g><g mask="url(#917765fa81)"><g transform="matrix(1, 0, 0, 1, 18, 33)"><g clip-path="url(#2b3bde7c73)"><g clip-path="url(#7ee7e2bfbb)"><g transform="matrix(1, 0, 0, 1, 0, 1)"><g clip-path="url(#8527f2aeed)"><g clip-path="url(#b68fd9d81b)"><path fill="#8c52ff" d="M 0.554688 0.117188 L 2.691406 0.117188 L 2.691406 2.140625 L 0.554688 2.140625 Z M 0.554688 0.117188 " fill-opacity="1" fill-rule="nonzero"/></g></g></g></g></g></g></g><g mask="url(#329457d061)"><g transform="matrix(1, 0, 0, 1, 21, 33)"><g clip-path="url(#f3a468472b)"><g clip-path="url(#12f554573d)"><g transform="matrix(1, 0, 0, 1, 0, 1)"><g clip-path="url(#8afd814644)"><g clip-path="url(#8619e59bd9)"><path fill="#8c52ff" d="M 0.363281 0.117188 L 2.5 0.117188 L 2.5 2.140625 L 0.363281 2.140625 Z M 0.363281 0.117188 " fill-opacity="1" fill-rule="nonzero"/></g></g></g></g></g></g></g><g mask="url(#dbfb2e058f)"><g transform="matrix(1, 0, 0, 1, 24, 33)"><g clip-path="url(#20f00f6d77)"><g clip-path="url(#013b2a0dcc)"><g transform="matrix(1, 0, 0, 1, 0, 1)"><g clip-path="url(#edf3b24563)"><g clip-path="url(#8d17d92d37)"><path fill="#8c52ff" d="M 0.171875 0.117188 L 2.308594 0.117188 L 2.308594 2.140625 L 0.171875 2.140625 Z M 0.171875 0.117188 " fill-opacity="1" fill-rule="nonzero"/></g></g></g></g></g></g></g><g mask="url(#23d07cd435)"><g transform="matrix(1, 0, 0, 1, 4, 31)"><g clip-path="url(#82505050fc)"><g clip-path="url(#f0dc42b9cf)"><g><g clip-path="url(#28e38ad33c)"><g clip-path="url(#178357f038)"><path fill="#8c52ff" d="M 0.597656 0.417969 L 2.734375 0.417969 L 2.734375 2.445312 L 0.597656 2.445312 Z M 0.597656 0.417969 " fill-opacity="1" fill-rule="nonzero"/></g></g></g></g></g></g></g><g mask="url(#0084109ed1)"><g transform="matrix(1, 0, 0, 1, 7, 31)"><g clip-path="url(#b719bf8754)"><g clip-path="url(#e383f3f880)"><g><g clip-path="url(#459bbe2638)"><g clip-path="url(#d5575fbb3d)"><path fill="#8c52ff" d="M 0.363281 0.417969 L 2.5 0.417969 L 2.5 2.445312 L 0.363281 2.445312 Z M 0.363281 0.417969 " fill-opacity="1" fill-rule="nonzero"/></g></g></g></g></g></g></g><g clip-path="url(#9dfea436d3)"><g transform="matrix(1, 0, 0, 1, 10, 31)"><g clip-path="url(#f60835bb6c)"><g clip-path="url(#a8a6b6dcc2)"><path fill="#8c52ff" d="M 0.171875 0.417969 L 2.308594 0.417969 L 2.308594 2.445312 L 0.171875 2.445312 Z M 0.171875 0.417969 " fill-opacity="1" fill-rule="nonzero"/></g></g></g></g><g clip-path="url(#7979a1cc0d)"><g transform="matrix(1, 0, 0, 1, 12, 31)"><g clip-path="url(#cc6e24fc4e)"><g clip-path="url(#3cb1c3f1b1)"><path fill="#8c52ff" d="M 0.980469 0.417969 L 3.117188 0.417969 L 3.117188 2.445312 L 0.980469 2.445312 Z M 0.980469 0.417969 " fill-opacity="1" fill-rule="nonzero"/></g></g></g></g><g mask="url(#3e60240212)"><g transform="matrix(1, 0, 0, 1, 4, 33)"><g clip-path="url(#1c4410a625)"><g clip-path="url(#99923f3e6c)"><g transform="matrix(1, 0, 0, 1, 0, 1)"><g clip-path="url(#2b51866240)"><g clip-path="url(#85353bd306)"><path fill="#8c52ff" d="M 0.597656 0.117188 L 2.734375 0.117188 L 2.734375 2.140625 L 0.597656 2.140625 Z M 0.597656 0.117188 " fill-opacity="1" fill-rule="nonzero"/></g></g></g></g></g></g></g><g mask="url(#12f463883a)"><g transform="matrix(1, 0, 0, 1, 7, 33)"><g clip-path="url(#8ac3d383a4)"><g clip-path="url(#ccaf116ac6)"><g transform="matrix(1, 0, 0, 1, 0, 1)"><g clip-path="url(#65e97b11f3)"><g clip-path="url(#3cd711f338)"><path fill="#8c52ff" d="M 0.363281 0.117188 L 2.5 0.117188 L 2.5 2.140625 L 0.363281 2.140625 Z M 0.363281 0.117188 " fill-opacity="1" fill-rule="nonzero"/></g></g></g></g></g></g></g><g mask="url(#4cea0bde9d)"><g transform="matrix(1, 0, 0, 1, 9, 33)"><g clip-path="url(#33b0b1a0fa)"><g clip-path="url(#81933090ff)"><g transform="matrix(1, 0, 0, 1, 1, 1)"><g clip-path="url(#bceb008afd)"><g clip-path="url(#c9f7005e21)"><path fill="#8c52ff" d="M 0.171875 0.117188 L 2.308594 0.117188 L 2.308594 2.140625 L 0.171875 2.140625 Z M 0.171875 0.117188 " fill-opacity="1" fill-rule="nonzero"/></g></g></g></g></g></g></g><g mask="url(#8ed13d8a16)"><g transform="matrix(1, 0, 0, 1, 12, 33)"><g clip-path="url(#c5e34b11db)"><g clip-path="url(#0f142c664e)"><g transform="matrix(1, 0, 0, 1, 0, 1)"><g clip-path="url(#a0307a50ac)"><g clip-path="url(#32ecd4bd1c)"><path fill="#8c52ff" d="M 0.980469 0.117188 L 3.117188 0.117188 L 3.117188 2.140625 L 0.980469 2.140625 Z M 0.980469 0.117188 " fill-opacity="1" fill-rule="nonzero"/></g></g></g></g></g></g></g><g clip-path="url(#6ae64a98af)"><g transform="matrix(1, 0, 0, 1, 91, 8)"><g clip-path="url(#d7d61d0f89)"><g clip-path="url(#24056c3067)"><path fill="#8c52ff" d="M 0.832031 0.402344 L 4.496094 0.402344 L 4.496094 35.105469 L 0.832031 35.105469 Z M 0.832031 0.402344 " fill-opacity="1" fill-rule="nonzero"/></g></g></g></g><g transform="matrix(1, 0, 0, 1, 100, 6)"><g clip-path="url(#47f33a33fc)"><g fill="#000000" fill-opacity="1"><g transform="translate(0.723086, 15.065645)"><g><path d="M 10.5625 -5.109375 C 10.5625 -3.972656 10.335938 -3.015625 9.890625 -2.234375 C 9.453125 -1.453125 8.859375 -0.859375 8.109375 -0.453125 C 7.359375 -0.0546875 6.519531 0.140625 5.59375 0.140625 C 4.65625 0.140625 3.8125 -0.0625 3.0625 -0.46875 C 2.3125 -0.875 1.71875 -1.46875 1.28125 -2.25 C 0.84375 -3.03125 0.625 -3.984375 0.625 -5.109375 C 0.625 -6.253906 0.84375 -7.210938 1.28125 -7.984375 C 1.71875 -8.765625 2.3125 -9.351562 3.0625 -9.75 C 3.8125 -10.15625 4.65625 -10.359375 5.59375 -10.359375 C 6.519531 -10.359375 7.359375 -10.15625 8.109375 -9.75 C 8.859375 -9.351562 9.453125 -8.765625 9.890625 -7.984375 C 10.335938 -7.210938 10.5625 -6.253906 10.5625 -5.109375 Z M 7.703125 -5.109375 C 7.703125 -5.722656 7.617188 -6.238281 7.453125 -6.65625 C 7.296875 -7.082031 7.0625 -7.40625 6.75 -7.625 C 6.4375 -7.84375 6.050781 -7.953125 5.59375 -7.953125 C 5.132812 -7.953125 4.742188 -7.84375 4.421875 -7.625 C 4.109375 -7.40625 3.867188 -7.082031 3.703125 -6.65625 C 3.546875 -6.238281 3.46875 -5.722656 3.46875 -5.109375 C 3.46875 -4.492188 3.546875 -3.976562 3.703125 -3.5625 C 3.867188 -3.144531 4.109375 -2.828125 4.421875 -2.609375 C 4.742188 -2.390625 5.132812 -2.28125 5.59375 -2.28125 C 6.050781 -2.28125 6.4375 -2.390625 6.75 -2.609375 C 7.0625 -2.828125 7.296875 -3.144531 7.453125 -3.5625 C 7.617188 -3.976562 7.703125 -4.492188 7.703125 -5.109375 Z M 7.703125 -5.109375 "/></g></g></g><g fill="#000000" fill-opacity="1"><g transform="translate(11.914575, 15.065645)"><g><path d="M 0.65625 0 L 0.65625 -10.234375 L 3.4375 -10.234375 L 3.4375 -2.234375 L 7.578125 -2.234375 L 7.578125 0 Z M 0.65625 0 "/></g></g></g><g fill="#000000" fill-opacity="1"><g transform="translate(19.948464, 15.065645)"><g><path d="M 3.4375 -10.234375 L 3.4375 0 L 0.65625 0 L 0.65625 -10.234375 Z M 3.4375 -10.234375 "/></g></g></g><g fill="#000000" fill-opacity="1"><g transform="translate(24.045352, 15.065645)"><g><path d="M 0.65625 -10.234375 L 4.109375 -10.234375 L 6.484375 -4.4375 L 6.609375 -4.4375 L 8.984375 -10.234375 L 12.4375 -10.234375 L 12.4375 0 L 9.734375 0 L 9.734375 -5.90625 L 9.640625 -5.90625 L 7.375 -0.078125 L 5.734375 -0.078125 L 3.453125 -5.953125 L 3.375 -5.953125 L 3.375 0 L 0.65625 0 Z M 0.65625 -10.234375 "/></g></g></g><g fill="#000000" fill-opacity="1"><g transform="translate(37.155382, 15.065645)"><g><path d="M 0.65625 0 L 0.65625 -10.234375 L 5.078125 -10.234375 C 5.835938 -10.234375 6.5 -10.082031 7.0625 -9.78125 C 7.632812 -9.476562 8.078125 -9.054688 8.390625 -8.515625 C 8.710938 -7.972656 8.875 -7.335938 8.875 -6.609375 C 8.875 -5.878906 8.707031 -5.242188 8.375 -4.703125 C 8.050781 -4.171875 7.597656 -3.757812 7.015625 -3.46875 C 6.429688 -3.175781 5.75 -3.03125 4.96875 -3.03125 L 2.34375 -3.03125 L 2.34375 -5.1875 L 4.421875 -5.1875 C 4.742188 -5.1875 5.019531 -5.242188 5.25 -5.359375 C 5.476562 -5.472656 5.65625 -5.632812 5.78125 -5.84375 C 5.90625 -6.0625 5.96875 -6.316406 5.96875 -6.609375 C 5.96875 -6.898438 5.90625 -7.148438 5.78125 -7.359375 C 5.65625 -7.566406 5.476562 -7.726562 5.25 -7.84375 C 5.019531 -7.957031 4.742188 -8.015625 4.421875 -8.015625 L 3.4375 -8.015625 L 3.4375 0 Z M 0.65625 0 "/></g></g></g><g fill="#000000" fill-opacity="1"><g transform="translate(46.388363, 15.065645)"><g><path d="M 3.4375 -10.234375 L 3.4375 0 L 0.65625 0 L 0.65625 -10.234375 Z M 3.4375 -10.234375 "/></g></g></g><g fill="#000000" fill-opacity="1"><g transform="translate(50.485251, 15.065645)"><g><path d="M 3.3125 0 L 0.3125 0 L 3.703125 -10.234375 L 7.484375 -10.234375 L 10.859375 0 L 7.875 0 L 5.640625 -7.40625 L 5.546875 -7.40625 Z M 2.75 -4.03125 L 8.390625 -4.03125 L 8.390625 -1.953125 L 2.75 -1.953125 Z M 2.75 -4.03125 "/></g></g></g><g fill="#000000" fill-opacity="1"><g transform="translate(61.67674, 15.065645)"><g><path d="M 4.59375 0 L 0.65625 0 L 0.65625 -10.234375 L 4.546875 -10.234375 C 5.597656 -10.234375 6.507812 -10.023438 7.28125 -9.609375 C 8.050781 -9.203125 8.644531 -8.617188 9.0625 -7.859375 C 9.476562 -7.097656 9.6875 -6.179688 9.6875 -5.109375 C 9.6875 -4.046875 9.476562 -3.128906 9.0625 -2.359375 C 8.644531 -1.597656 8.054688 -1.015625 7.296875 -0.609375 C 6.535156 -0.203125 5.632812 0 4.59375 0 Z M 3.4375 -2.359375 L 4.5 -2.359375 C 5 -2.359375 5.425781 -2.4375 5.78125 -2.59375 C 6.144531 -2.757812 6.421875 -3.039062 6.609375 -3.4375 C 6.796875 -3.84375 6.890625 -4.398438 6.890625 -5.109375 C 6.890625 -5.828125 6.789062 -6.382812 6.59375 -6.78125 C 6.40625 -7.175781 6.128906 -7.457031 5.765625 -7.625 C 5.398438 -7.789062 4.953125 -7.875 4.421875 -7.875 L 3.4375 -7.875 Z M 3.4375 -2.359375 "/></g></g></g><g fill="#000000" fill-opacity="1"><g transform="translate(71.349363, 15.065645)"><g><path d="M 3.3125 0 L 0.3125 0 L 3.703125 -10.234375 L 7.484375 -10.234375 L 10.859375 0 L 7.875 0 L 5.640625 -7.40625 L 5.546875 -7.40625 Z M 2.75 -4.03125 L 8.390625 -4.03125 L 8.390625 -1.953125 L 2.75 -1.953125 Z M 2.75 -4.03125 "/></g></g></g><g fill="#000000" fill-opacity="1"><g transform="translate(82.540852, 15.065645)"><g/></g></g><g fill="#000000" fill-opacity="1"><g transform="translate(85.338729, 15.065645)"><g><path d="M 9.515625 -10.234375 L 9.515625 0 L 7.1875 0 L 3.5 -5.375 L 3.4375 -5.375 L 3.4375 0 L 0.65625 0 L 0.65625 -10.234375 L 3.015625 -10.234375 L 6.65625 -4.875 L 6.734375 -4.875 L 6.734375 -10.234375 Z M 9.515625 -10.234375 "/></g></g></g><g fill="#000000" fill-opacity="1"><g transform="translate(95.510997, 15.065645)"><g><path d="M 3.3125 0 L 0.3125 0 L 3.703125 -10.234375 L 7.484375 -10.234375 L 10.859375 0 L 7.875 0 L 5.640625 -7.40625 L 5.546875 -7.40625 Z M 2.75 -4.03125 L 8.390625 -4.03125 L 8.390625 -1.953125 L 2.75 -1.953125 Z M 2.75 -4.03125 "/></g></g></g><g fill="#000000" fill-opacity="1"><g transform="translate(105.403439, 15.065645)"><g><path d="M 0.375 -7.984375 L 0.375 -10.234375 L 9.265625 -10.234375 L 9.265625 -7.984375 L 6.1875 -7.984375 L 6.1875 0 L 3.453125 0 L 3.453125 -7.984375 Z M 2.9375 3.203125 L 3.59375 0.8125 L 6.078125 0.8125 L 4.8125 3.203125 Z M 2.9375 3.203125 "/></g></g></g><g fill="#000000" fill-opacity="1"><g transform="translate(115.056096, 15.065645)"><g><path d="M 3.4375 -10.234375 L 3.4375 0 L 0.65625 0 L 0.65625 -10.234375 Z M 3.4375 -10.234375 "/></g></g></g><g fill="#000000" fill-opacity="1"><g transform="translate(119.152984, 15.065645)"><g><path d="M 10.5625 -5.109375 C 10.5625 -3.972656 10.335938 -3.015625 9.890625 -2.234375 C 9.453125 -1.453125 8.859375 -0.859375 8.109375 -0.453125 C 7.359375 -0.0546875 6.519531 0.140625 5.59375 0.140625 C 4.65625 0.140625 3.8125 -0.0625 3.0625 -0.46875 C 2.3125 -0.875 1.71875 -1.46875 1.28125 -2.25 C 0.84375 -3.03125 0.625 -3.984375 0.625 -5.109375 C 0.625 -6.253906 0.84375 -7.210938 1.28125 -7.984375 C 1.71875 -8.765625 2.3125 -9.351562 3.0625 -9.75 C 3.8125 -10.15625 4.65625 -10.359375 5.59375 -10.359375 C 6.519531 -10.359375 7.359375 -10.15625 8.109375 -9.75 C 8.859375 -9.351562 9.453125 -8.765625 9.890625 -7.984375 C 10.335938 -7.210938 10.5625 -6.253906 10.5625 -5.109375 Z M 7.703125 -5.109375 C 7.703125 -5.722656 7.617188 -6.238281 7.453125 -6.65625 C 7.296875 -7.082031 7.0625 -7.40625 6.75 -7.625 C 6.4375 -7.84375 6.050781 -7.953125 5.59375 -7.953125 C 5.132812 -7.953125 4.742188 -7.84375 4.421875 -7.625 C 4.109375 -7.40625 3.867188 -7.082031 3.703125 -6.65625 C 3.546875 -6.238281 3.46875 -5.722656 3.46875 -5.109375 C 3.46875 -4.492188 3.546875 -3.976562 3.703125 -3.5625 C 3.867188 -3.144531 4.109375 -2.828125 4.421875 -2.609375 C 4.742188 -2.390625 5.132812 -2.28125 5.59375 -2.28125 C 6.050781 -2.28125 6.4375 -2.390625 6.75 -2.609375 C 7.0625 -2.828125 7.296875 -3.144531 7.453125 -3.5625 C 7.617188 -3.976562 7.703125 -4.492188 7.703125 -5.109375 Z M 7.703125 -5.109375 "/></g></g></g><g fill="#000000" fill-opacity="1"><g transform="translate(130.344473, 15.065645)"><g><path d="M 9.515625 -10.234375 L 9.515625 0 L 7.1875 0 L 3.5 -5.375 L 3.4375 -5.375 L 3.4375 0 L 0.65625 0 L 0.65625 -10.234375 L 3.015625 -10.234375 L 6.65625 -4.875 L 6.734375 -4.875 L 6.734375 -10.234375 Z M 9.515625 -10.234375 "/></g></g></g><g fill="#000000" fill-opacity="1"><g transform="translate(140.516741, 15.065645)"><g><path d="M 3.3125 0 L 0.3125 0 L 3.703125 -10.234375 L 7.484375 -10.234375 L 10.859375 0 L 7.875 0 L 5.640625 -7.40625 L 5.546875 -7.40625 Z M 2.75 -4.03125 L 8.390625 -4.03125 L 8.390625 -1.953125 L 2.75 -1.953125 Z M 2.75 -4.03125 "/></g></g></g><g fill="#000000" fill-opacity="1"><g transform="translate(151.708231, 15.065645)"><g><path d="M 0.65625 0 L 0.65625 -10.234375 L 3.4375 -10.234375 L 3.4375 -2.234375 L 7.578125 -2.234375 L 7.578125 0 Z M 0.65625 0 "/></g></g></g><g fill="#000000" fill-opacity="1"><g transform="translate(159.742119, 15.065645)"><g><path d="M 3.3125 0 L 0.3125 0 L 3.703125 -10.234375 L 7.484375 -10.234375 L 10.859375 0 L 7.875 0 L 5.640625 -7.40625 L 5.546875 -7.40625 Z M 2.75 -4.03125 L 8.390625 -4.03125 L 8.390625 -1.953125 L 2.75 -1.953125 Z M 6.59375 -12.984375 L 8.328125 -12.984375 C 8.328125 -12.335938 8.078125 -11.820312 7.578125 -11.4375 C 7.085938 -11.050781 6.425781 -10.859375 5.59375 -10.859375 C 4.75 -10.859375 4.078125 -11.050781 3.578125 -11.4375 C 3.085938 -11.820312 2.847656 -12.335938 2.859375 -12.984375 L 4.578125 -12.984375 C 4.566406 -12.773438 4.640625 -12.582031 4.796875 -12.40625 C 4.953125 -12.238281 5.21875 -12.15625 5.59375 -12.15625 C 5.945312 -12.15625 6.203125 -12.238281 6.359375 -12.40625 C 6.515625 -12.570312 6.59375 -12.765625 6.59375 -12.984375 Z M 6.59375 -12.984375 "/></g></g></g><g fill="#000000" fill-opacity="1"><g transform="translate(170.933609, 15.065645)"><g/></g></g><g fill="#000000" fill-opacity="1"><g transform="translate(173.731485, 15.065645)"><g><path d="M 4.59375 0 L 0.65625 0 L 0.65625 -10.234375 L 4.546875 -10.234375 C 5.597656 -10.234375 6.507812 -10.023438 7.28125 -9.609375 C 8.050781 -9.203125 8.644531 -8.617188 9.0625 -7.859375 C 9.476562 -7.097656 9.6875 -6.179688 9.6875 -5.109375 C 9.6875 -4.046875 9.476562 -3.128906 9.0625 -2.359375 C 8.644531 -1.597656 8.054688 -1.015625 7.296875 -0.609375 C 6.535156 -0.203125 5.632812 0 4.59375 0 Z M 3.4375 -2.359375 L 4.5 -2.359375 C 5 -2.359375 5.425781 -2.4375 5.78125 -2.59375 C 6.144531 -2.757812 6.421875 -3.039062 6.609375 -3.4375 C 6.796875 -3.84375 6.890625 -4.398438 6.890625 -5.109375 C 6.890625 -5.828125 6.789062 -6.382812 6.59375 -6.78125 C 6.40625 -7.175781 6.128906 -7.457031 5.765625 -7.625 C 5.398438 -7.789062 4.953125 -7.875 4.421875 -7.875 L 3.4375 -7.875 Z M 3.4375 -2.359375 "/></g></g></g><g fill="#000000" fill-opacity="1"><g transform="translate(184.043639, 15.065645)"><g><path d="M 0.65625 0 L 0.65625 -10.234375 L 8.03125 -10.234375 L 8.03125 -7.984375 L 3.4375 -7.984375 L 3.4375 -6.234375 L 7.65625 -6.234375 L 7.65625 -4 L 3.4375 -4 L 3.4375 -2.234375 L 8.015625 -2.234375 L 8.015625 0 Z M 0.65625 0 "/></g></g></g><g fill="#000000" fill-opacity="1"><g transform="translate(0.723086, 33.82519)"><g><path d="M 3.4375 -10.234375 L 3.4375 0 L 0.65625 0 L 0.65625 -10.234375 Z M 3.4375 -10.234375 "/></g></g></g><g fill="#000000" fill-opacity="1"><g transform="translate(4.819974, 33.82519)"><g><path d="M 9.515625 -10.234375 L 9.515625 0 L 7.1875 0 L 3.5 -5.375 L 3.4375 -5.375 L 3.4375 0 L 0.65625 0 L 0.65625 -10.234375 L 3.015625 -10.234375 L 6.65625 -4.875 L 6.734375 -4.875 L 6.734375 -10.234375 Z M 9.515625 -10.234375 "/></g></g></g><g fill="#000000" fill-opacity="1"><g transform="translate(14.992242, 33.82519)"><g><path d="M 0.375 -7.984375 L 0.375 -10.234375 L 9.265625 -10.234375 L 9.265625 -7.984375 L 6.1875 -7.984375 L 6.1875 0 L 3.453125 0 L 3.453125 -7.984375 Z M 0.375 -7.984375 "/></g></g></g><g fill="#000000" fill-opacity="1"><g transform="translate(24.644898, 33.82519)"><g><path d="M 0.65625 0 L 0.65625 -10.234375 L 8.03125 -10.234375 L 8.03125 -7.984375 L 3.4375 -7.984375 L 3.4375 -6.234375 L 7.65625 -6.234375 L 7.65625 -4 L 3.4375 -4 L 3.4375 -2.234375 L 8.015625 -2.234375 L 8.015625 0 Z M 0.65625 0 "/></g></g></g><g fill="#000000" fill-opacity="1"><g transform="translate(33.398235, 33.82519)"><g><path d="M 0.65625 0 L 0.65625 -10.234375 L 3.4375 -10.234375 L 3.4375 -2.234375 L 7.578125 -2.234375 L 7.578125 0 Z M 0.65625 0 "/></g></g></g><g fill="#000000" fill-opacity="1"><g transform="translate(41.432123, 33.82519)"><g><path d="M 3.4375 -10.234375 L 3.4375 0 L 0.65625 0 L 0.65625 -10.234375 Z M 3.4375 -10.234375 "/></g></g></g><g fill="#000000" fill-opacity="1"><g transform="translate(45.529011, 33.82519)"><g><path d="M 7.296875 -6.84375 C 7.253906 -7.019531 7.1875 -7.175781 7.09375 -7.3125 C 7 -7.445312 6.882812 -7.5625 6.75 -7.65625 C 6.613281 -7.757812 6.453125 -7.832031 6.265625 -7.875 C 6.085938 -7.925781 5.890625 -7.953125 5.671875 -7.953125 C 5.203125 -7.953125 4.800781 -7.835938 4.46875 -7.609375 C 4.144531 -7.390625 3.894531 -7.066406 3.71875 -6.640625 C 3.550781 -6.222656 3.46875 -5.722656 3.46875 -5.140625 C 3.46875 -4.535156 3.550781 -4.019531 3.71875 -3.59375 C 3.882812 -3.164062 4.128906 -2.835938 4.453125 -2.609375 C 4.773438 -2.390625 5.175781 -2.28125 5.65625 -2.28125 C 6.070312 -2.28125 6.421875 -2.335938 6.703125 -2.453125 C 6.984375 -2.578125 7.191406 -2.753906 7.328125 -2.984375 C 7.472656 -3.210938 7.546875 -3.476562 7.546875 -3.78125 L 8.03125 -3.734375 L 5.6875 -3.734375 L 5.6875 -5.71875 L 10.234375 -5.71875 L 10.234375 -4.296875 C 10.234375 -3.359375 10.035156 -2.554688 9.640625 -1.890625 C 9.242188 -1.234375 8.695312 -0.726562 8 -0.375 C 7.3125 -0.03125 6.523438 0.140625 5.640625 0.140625 C 4.640625 0.140625 3.757812 -0.0664062 3 -0.484375 C 2.25 -0.910156 1.664062 -1.515625 1.25 -2.296875 C 0.832031 -3.078125 0.625 -4.007812 0.625 -5.09375 C 0.625 -5.9375 0.75 -6.679688 1 -7.328125 C 1.257812 -7.984375 1.617188 -8.535156 2.078125 -8.984375 C 2.535156 -9.441406 3.066406 -9.785156 3.671875 -10.015625 C 4.273438 -10.242188 4.921875 -10.359375 5.609375 -10.359375 C 6.210938 -10.359375 6.773438 -10.273438 7.296875 -10.109375 C 7.816406 -9.941406 8.273438 -9.695312 8.671875 -9.375 C 9.078125 -9.0625 9.40625 -8.691406 9.65625 -8.265625 C 9.90625 -7.835938 10.054688 -7.363281 10.109375 -6.84375 Z M 7.296875 -6.84375 "/></g></g></g><g fill="#000000" fill-opacity="1"><g transform="translate(56.400744, 33.82519)"><g><path d="M 0.65625 0 L 0.65625 -10.234375 L 8.03125 -10.234375 L 8.03125 -7.984375 L 3.4375 -7.984375 L 3.4375 -6.234375 L 7.65625 -6.234375 L 7.65625 -4 L 3.4375 -4 L 3.4375 -2.234375 L 8.015625 -2.234375 L 8.015625 0 Z M 0.65625 0 "/></g></g></g><g fill="#000000" fill-opacity="1"><g transform="translate(65.154081, 33.82519)"><g><path d="M 9.515625 -10.234375 L 9.515625 0 L 7.1875 0 L 3.5 -5.375 L 3.4375 -5.375 L 3.4375 0 L 0.65625 0 L 0.65625 -10.234375 L 3.015625 -10.234375 L 6.65625 -4.875 L 6.734375 -4.875 L 6.734375 -10.234375 Z M 9.515625 -10.234375 "/></g></g></g><g clip-path="url(#2f542206c8)"><g fill="#000000" fill-opacity="1"><g transform="translate(75.326348, 33.82519)"><g><path d="M 0.375 -7.984375 L 0.375 -10.234375 L 9.265625 -10.234375 L 9.265625 -7.984375 L 6.1875 -7.984375 L 6.1875 0 L 3.453125 0 L 3.453125 -7.984375 Z M 2.9375 3.203125 L 3.59375 0.8125 L 6.078125 0.8125 L 4.8125 3.203125 Z M 2.9375 3.203125 "/></g></g></g></g><g fill="#000000" fill-opacity="1"><g transform="translate(83.679958, 33.82519)"><g><path d="M 3.3125 0 L 0.3125 0 L 3.703125 -10.234375 L 7.484375 -10.234375 L 10.859375 0 L 7.875 0 L 5.640625 -7.40625 L 5.546875 -7.40625 Z M 2.75 -4.03125 L 8.390625 -4.03125 L 8.390625 -1.953125 L 2.75 -1.953125 Z M 6.59375 -12.984375 L 8.328125 -12.984375 C 8.328125 -12.335938 8.078125 -11.820312 7.578125 -11.4375 C 7.085938 -11.050781 6.425781 -10.859375 5.59375 -10.859375 C 4.75 -10.859375 4.078125 -11.050781 3.578125 -11.4375 C 3.085938 -11.820312 2.847656 -12.335938 2.859375 -12.984375 L 4.578125 -12.984375 C 4.566406 -12.773438 4.640625 -12.582031 4.796875 -12.40625 C 4.953125 -12.238281 5.21875 -12.15625 5.59375 -12.15625 C 5.945312 -12.15625 6.203125 -12.238281 6.359375 -12.40625 C 6.515625 -12.570312 6.59375 -12.765625 6.59375 -12.984375 Z M 6.59375 -12.984375 "/></g></g></g><g fill="#000000" fill-opacity="1"><g transform="translate(94.871447, 33.82519)"><g/></g></g><g fill="#000000" fill-opacity="1"><g transform="translate(97.669324, 33.82519)"><g><path d="M 3.3125 0 L 0.3125 0 L 3.703125 -10.234375 L 7.484375 -10.234375 L 10.859375 0 L 7.875 0 L 5.640625 -7.40625 L 5.546875 -7.40625 Z M 2.75 -4.03125 L 8.390625 -4.03125 L 8.390625 -1.953125 L 2.75 -1.953125 Z M 2.75 -4.03125 "/></g></g></g><g fill="#000000" fill-opacity="1"><g transform="translate(108.860814, 33.82519)"><g><path d="M 0.65625 0 L 0.65625 -10.234375 L 5.078125 -10.234375 C 5.835938 -10.234375 6.5 -10.09375 7.0625 -9.8125 C 7.632812 -9.53125 8.078125 -9.128906 8.390625 -8.609375 C 8.710938 -8.097656 8.875 -7.476562 8.875 -6.75 C 8.875 -6.019531 8.707031 -5.398438 8.375 -4.890625 C 8.050781 -4.390625 7.597656 -4.007812 7.015625 -3.75 C 6.429688 -3.5 5.75 -3.375 4.96875 -3.375 L 2.34375 -3.375 L 2.34375 -5.53125 L 4.421875 -5.53125 C 4.742188 -5.53125 5.019531 -5.570312 5.25 -5.65625 C 5.476562 -5.738281 5.65625 -5.867188 5.78125 -6.046875 C 5.90625 -6.222656 5.96875 -6.457031 5.96875 -6.75 C 5.96875 -7.039062 5.90625 -7.28125 5.78125 -7.46875 C 5.65625 -7.65625 5.476562 -7.789062 5.25 -7.875 C 5.019531 -7.96875 4.742188 -8.015625 4.421875 -8.015625 L 3.4375 -8.015625 L 3.4375 0 Z M 6.65625 -4.6875 L 9.203125 0 L 6.1875 0 L 3.703125 -4.6875 Z M 6.65625 -4.6875 "/></g></g></g><g fill="#000000" fill-opacity="1"><g transform="translate(118.253664, 33.82519)"><g><path d="M 0.375 -7.984375 L 0.375 -10.234375 L 9.265625 -10.234375 L 9.265625 -7.984375 L 6.1875 -7.984375 L 6.1875 0 L 3.453125 0 L 3.453125 -7.984375 Z M 0.375 -7.984375 "/></g></g></g><g fill="#000000" fill-opacity="1"><g transform="translate(127.906321, 33.82519)"><g><path d="M 3.4375 -10.234375 L 3.4375 0 L 0.65625 0 L 0.65625 -10.234375 Z M 3.4375 -10.234375 "/></g></g></g><g fill="#000000" fill-opacity="1"><g transform="translate(132.003209, 33.82519)"><g><path d="M 0.65625 0 L 0.65625 -10.234375 L 7.84375 -10.234375 L 7.84375 -7.984375 L 3.4375 -7.984375 L 3.4375 -6.234375 L 7.40625 -6.234375 L 7.40625 -4 L 3.4375 -4 L 3.4375 0 Z M 0.65625 0 "/></g></g></g><g fill="#000000" fill-opacity="1"><g transform="translate(140.216968, 33.82519)"><g><path d="M 3.4375 -10.234375 L 3.4375 0 L 0.65625 0 L 0.65625 -10.234375 Z M 3.4375 -10.234375 "/></g></g></g><g fill="#000000" fill-opacity="1"><g transform="translate(144.313856, 33.82519)"><g><path d="M 10.203125 -6.390625 L 7.390625 -6.390625 C 7.367188 -6.617188 7.316406 -6.828125 7.234375 -7.015625 C 7.148438 -7.210938 7.03125 -7.378906 6.875 -7.515625 C 6.726562 -7.648438 6.550781 -7.753906 6.34375 -7.828125 C 6.132812 -7.910156 5.898438 -7.953125 5.640625 -7.953125 C 5.171875 -7.953125 4.773438 -7.835938 4.453125 -7.609375 C 4.128906 -7.378906 3.882812 -7.050781 3.71875 -6.625 C 3.550781 -6.207031 3.46875 -5.703125 3.46875 -5.109375 C 3.46875 -4.484375 3.550781 -3.957031 3.71875 -3.53125 C 3.894531 -3.113281 4.140625 -2.800781 4.453125 -2.59375 C 4.773438 -2.382812 5.160156 -2.28125 5.609375 -2.28125 C 5.867188 -2.28125 6.097656 -2.3125 6.296875 -2.375 C 6.503906 -2.4375 6.679688 -2.53125 6.828125 -2.65625 C 6.984375 -2.78125 7.109375 -2.925781 7.203125 -3.09375 C 7.296875 -3.269531 7.359375 -3.472656 7.390625 -3.703125 L 10.203125 -3.671875 C 10.171875 -3.242188 10.050781 -2.804688 9.84375 -2.359375 C 9.632812 -1.910156 9.335938 -1.492188 8.953125 -1.109375 C 8.566406 -0.734375 8.085938 -0.429688 7.515625 -0.203125 C 6.953125 0.0234375 6.296875 0.140625 5.546875 0.140625 C 4.609375 0.140625 3.765625 -0.0546875 3.015625 -0.453125 C 2.273438 -0.859375 1.691406 -1.453125 1.265625 -2.234375 C 0.835938 -3.023438 0.625 -3.984375 0.625 -5.109375 C 0.625 -6.253906 0.84375 -7.210938 1.28125 -7.984375 C 1.71875 -8.765625 2.304688 -9.351562 3.046875 -9.75 C 3.796875 -10.15625 4.628906 -10.359375 5.546875 -10.359375 C 6.191406 -10.359375 6.785156 -10.269531 7.328125 -10.09375 C 7.878906 -9.925781 8.359375 -9.671875 8.765625 -9.328125 C 9.171875 -8.992188 9.5 -8.578125 9.75 -8.078125 C 10 -7.585938 10.148438 -7.023438 10.203125 -6.390625 Z M 10.203125 -6.390625 "/></g></g></g><g fill="#000000" fill-opacity="1"><g transform="translate(155.125638, 33.82519)"><g><path d="M 3.4375 -10.234375 L 3.4375 0 L 0.65625 0 L 0.65625 -10.234375 Z M 3.4375 -10.234375 "/></g></g></g><g fill="#000000" fill-opacity="1"><g transform="translate(159.222525, 33.82519)"><g><path d="M 3.3125 0 L 0.3125 0 L 3.703125 -10.234375 L 7.484375 -10.234375 L 10.859375 0 L 7.875 0 L 5.640625 -7.40625 L 5.546875 -7.40625 Z M 2.75 -4.03125 L 8.390625 -4.03125 L 8.390625 -1.953125 L 2.75 -1.953125 Z M 2.75 -4.03125 "/></g></g></g><g fill="#000000" fill-opacity="1"><g transform="translate(170.414015, 33.82519)"><g><path d="M 0.65625 0 L 0.65625 -10.234375 L 3.4375 -10.234375 L 3.4375 -2.234375 L 7.578125 -2.234375 L 7.578125 0 Z M 0.65625 0 "/></g></g></g><g fill="#000000" fill-opacity="1"><g transform="translate(178.447903, 33.82519)"><g><path d="M 3.3125 0 L 0.3125 0 L 3.703125 -10.234375 L 7.484375 -10.234375 L 10.859375 0 L 7.875 0 L 5.640625 -7.40625 L 5.546875 -7.40625 Z M 2.75 -4.03125 L 8.390625 -4.03125 L 8.390625 -1.953125 L 2.75 -1.953125 Z M 6.59375 -12.984375 L 8.328125 -12.984375 C 8.328125 -12.335938 8.078125 -11.820312 7.578125 -11.4375 C 7.085938 -11.050781 6.425781 -10.859375 5.59375 -10.859375 C 4.75 -10.859375 4.078125 -11.050781 3.578125 -11.4375 C 3.085938 -11.820312 2.847656 -12.335938 2.859375 -12.984375 L 4.578125 -12.984375 C 4.566406 -12.773438 4.640625 -12.582031 4.796875 -12.40625 C 4.953125 -12.238281 5.21875 -12.15625 5.59375 -12.15625 C 5.945312 -12.15625 6.203125 -12.238281 6.359375 -12.40625 C 6.515625 -12.570312 6.59375 -12.765625 6.59375 -12.984375 Z M 6.59375 -12.984375 "/></g></g></g></g></g></svg>