<svg xmlns="http://www.w3.org/2000/svg" xmlns:xlink="http://www.w3.org/1999/xlink" width="127" zoomAndPan="magnify" viewBox="0 0 95.25 53.25" height="71" preserveAspectRatio="xMidYMid meet" version="1.0"><defs><filter x="0%" y="0%" width="100%" height="100%" id="3bba232048"><feColorMatrix values="0 0 0 0 1 0 0 0 0 1 0 0 0 0 1 0 0 0 1 0" color-interpolation-filters="sRGB"/></filter><g/><clipPath id="41cbcd7b57"><path d="M 0.292969 37.40625 L 7.761719 37.40625 L 7.761719 39.800781 L 0.292969 39.800781 Z M 0.292969 37.40625 " clip-rule="nonzero"/></clipPath><clipPath id="a2f6244a67"><path d="M 0.292969 0.40625 L 7.761719 0.40625 L 7.761719 2.800781 L 0.292969 2.800781 Z M 0.292969 0.40625 " clip-rule="nonzero"/></clipPath><clipPath id="39c761fb08"><rect x="0" width="8" y="0" height="3"/></clipPath><clipPath id="92bdf5af35"><path d="M 21.605469 37.410156 L 28.960938 37.410156 L 28.960938 39.804688 L 21.605469 39.804688 Z M 21.605469 37.410156 " clip-rule="nonzero"/></clipPath><clipPath id="2c3de9d730"><path d="M 0.605469 0.410156 L 7.960938 0.410156 L 7.960938 2.804688 L 0.605469 2.804688 Z M 0.605469 0.410156 " clip-rule="nonzero"/></clipPath><clipPath id="470da2f5c7"><rect x="0" width="8" y="0" height="3"/></clipPath><clipPath id="e021a0d2b7"><path d="M 0.292969 12.167969 L 2.824219 12.167969 L 2.824219 39.804688 L 0.292969 39.804688 Z M 0.292969 12.167969 " clip-rule="nonzero"/></clipPath><clipPath id="779b92a93d"><path d="M 0.292969 0.167969 L 2.824219 0.167969 L 2.824219 27.804688 L 0.292969 27.804688 Z M 0.292969 0.167969 " clip-rule="nonzero"/></clipPath><clipPath id="f0ac70cca7"><rect x="0" width="3" y="0" height="28"/></clipPath><clipPath id="1608a3c2d9"><path d="M 0.292969 12.164062 L 7.761719 12.164062 L 7.761719 14.558594 L 0.292969 14.558594 Z M 0.292969 12.164062 " clip-rule="nonzero"/></clipPath><clipPath id="1182ffc1c0"><path d="M 0.292969 0.164062 L 7.761719 0.164062 L 7.761719 2.558594 L 0.292969 2.558594 Z M 0.292969 0.164062 " clip-rule="nonzero"/></clipPath><clipPath id="1f6dd75b71"><rect x="0" width="8" y="0" height="3"/></clipPath><clipPath id="c1a79b19e5"><path d="M 26.535156 12.160156 L 28.953125 12.160156 L 28.953125 39.800781 L 26.535156 39.800781 Z M 26.535156 12.160156 " clip-rule="nonzero"/></clipPath><clipPath id="01c5f9d705"><path d="M 0.535156 0.160156 L 2.953125 0.160156 L 2.953125 27.800781 L 0.535156 27.800781 Z M 0.535156 0.160156 " clip-rule="nonzero"/></clipPath><clipPath id="51c50effe6"><rect x="0" width="3" y="0" height="28"/></clipPath><clipPath id="f23424cc35"><path d="M 21.605469 12.167969 L 28.960938 12.167969 L 28.960938 14.5625 L 21.605469 14.5625 Z M 21.605469 12.167969 " clip-rule="nonzero"/></clipPath><clipPath id="6f78fed7a4"><path d="M 0.605469 0.167969 L 7.960938 0.167969 L 7.960938 2.5625 L 0.605469 2.5625 Z M 0.605469 0.167969 " clip-rule="nonzero"/></clipPath><clipPath id="45b9d3c6ff"><rect x="0" width="8" y="0" height="3"/></clipPath><clipPath id="c56d7eb542"><path d="M 34 7 L 57.4375 7 L 57.4375 29 L 34 29 Z M 34 7 " clip-rule="nonzero"/></clipPath><clipPath id="d7a687d76e"><rect x="0" width="58" y="0" height="37"/></clipPath><clipPath id="40b7870b6f"><path d="M 15.046875 18.195312 L 17.203125 18.195312 L 17.203125 20.238281 L 15.046875 20.238281 Z M 15.046875 18.195312 " clip-rule="nonzero"/></clipPath><clipPath id="f67d40fc74"><path d="M 0.046875 0.195312 L 2.203125 0.195312 L 2.203125 2.238281 L 0.046875 2.238281 Z M 0.046875 0.195312 " clip-rule="nonzero"/></clipPath><clipPath id="844a633453"><rect x="0" width="3" y="0" height="3"/></clipPath><clipPath id="1853a2841f"><path d="M 17.835938 18.195312 L 19.992188 18.195312 L 19.992188 20.238281 L 17.835938 20.238281 Z M 17.835938 18.195312 " clip-rule="nonzero"/></clipPath><clipPath id="e576a39206"><path d="M 0.835938 0.195312 L 2.992188 0.195312 L 2.992188 2.238281 L 0.835938 2.238281 Z M 0.835938 0.195312 " clip-rule="nonzero"/></clipPath><clipPath id="d5b8e2fb79"><rect x="0" width="3" y="0" height="3"/></clipPath><clipPath id="df5a32013c"><path d="M 17.835938 20.917969 L 19.992188 20.917969 L 19.992188 22.960938 L 17.835938 22.960938 Z M 17.835938 20.917969 " clip-rule="nonzero"/></clipPath><clipPath id="f0c3252c43"><path d="M 0.835938 0.917969 L 2.992188 0.917969 L 2.992188 2.960938 L 0.835938 2.960938 Z M 0.835938 0.917969 " clip-rule="nonzero"/></clipPath><clipPath id="2172bd1ecf"><rect x="0" width="3" y="0" height="3"/></clipPath><clipPath id="1479d71295"><path d="M 20.667969 20.917969 L 22.828125 20.917969 L 22.828125 22.960938 L 20.667969 22.960938 Z M 20.667969 20.917969 " clip-rule="nonzero"/></clipPath><clipPath id="d6a0ea28b6"><path d="M 0.667969 0.917969 L 2.828125 0.917969 L 2.828125 2.960938 L 0.667969 2.960938 Z M 0.667969 0.917969 " clip-rule="nonzero"/></clipPath><clipPath id="f278d7964a"><rect x="0" width="3" y="0" height="3"/></clipPath><clipPath id="bcd1c0bf4e"><path d="M 20.667969 23.636719 L 22.828125 23.636719 L 22.828125 25.679688 L 20.667969 25.679688 Z M 20.667969 23.636719 " clip-rule="nonzero"/></clipPath><clipPath id="afa4ec1b50"><path d="M 0.667969 0.636719 L 2.828125 0.636719 L 2.828125 2.679688 L 0.667969 2.679688 Z M 0.667969 0.636719 " clip-rule="nonzero"/></clipPath><clipPath id="6fcaed5af7"><rect x="0" width="3" y="0" height="3"/></clipPath><mask id="b7dc70d094"><g filter="url(#3bba232048)"><rect x="-9.525" width="114.3" fill="#000000" y="-5.325" height="63.899999" fill-opacity="0.84"/></g></mask><clipPath id="e68783a56e"><path d="M 0.667969 0.292969 L 2.828125 0.292969 L 2.828125 2.335938 L 0.667969 2.335938 Z M 0.667969 0.292969 " clip-rule="nonzero"/></clipPath><clipPath id="0f2f18486b"><path d="M 0.667969 0.292969 L 2.828125 0.292969 L 2.828125 2.335938 L 0.667969 2.335938 Z M 0.667969 0.292969 " clip-rule="nonzero"/></clipPath><clipPath id="3b81f05427"><rect x="0" width="3" y="0" height="3"/></clipPath><clipPath id="ce3f3b5102"><rect x="0" width="4" y="0" height="3"/></clipPath><clipPath id="489b2a7c49"><path d="M 17.835938 29.015625 L 19.992188 29.015625 L 19.992188 31.058594 L 17.835938 31.058594 Z M 17.835938 29.015625 " clip-rule="nonzero"/></clipPath><clipPath id="62ff80e12a"><path d="M 0.835938 0.015625 L 2.992188 0.015625 L 2.992188 2.058594 L 0.835938 2.058594 Z M 0.835938 0.015625 " clip-rule="nonzero"/></clipPath><clipPath id="220c3d0c2b"><rect x="0" width="3" y="0" height="3"/></clipPath><clipPath id="d09f61346a"><path d="M 20.667969 29.015625 L 22.828125 29.015625 L 22.828125 31.058594 L 20.667969 31.058594 Z M 20.667969 29.015625 " clip-rule="nonzero"/></clipPath><clipPath id="4d43121149"><path d="M 0.667969 0.015625 L 2.828125 0.015625 L 2.828125 2.058594 L 0.667969 2.058594 Z M 0.667969 0.015625 " clip-rule="nonzero"/></clipPath><clipPath id="652094a3c1"><rect x="0" width="3" y="0" height="3"/></clipPath><clipPath id="f1527ea86f"><path d="M 9.378906 18.195312 L 11.535156 18.195312 L 11.535156 20.238281 L 9.378906 20.238281 Z M 9.378906 18.195312 " clip-rule="nonzero"/></clipPath><clipPath id="0a09683c9b"><path d="M 0.378906 0.195312 L 2.535156 0.195312 L 2.535156 2.238281 L 0.378906 2.238281 Z M 0.378906 0.195312 " clip-rule="nonzero"/></clipPath><clipPath id="63d0f417f9"><rect x="0" width="3" y="0" height="3"/></clipPath><clipPath id="ea2d6988a9"><path d="M 12.210938 18.195312 L 14.371094 18.195312 L 14.371094 20.238281 L 12.210938 20.238281 Z M 12.210938 18.195312 " clip-rule="nonzero"/></clipPath><clipPath id="9e184daa1d"><path d="M 0.210938 0.195312 L 2.371094 0.195312 L 2.371094 2.238281 L 0.210938 2.238281 Z M 0.210938 0.195312 " clip-rule="nonzero"/></clipPath><clipPath id="8fe582e200"><rect x="0" width="3" y="0" height="3"/></clipPath><clipPath id="0ba80fd3dd"><path d="M 6.542969 20.917969 L 8.703125 20.917969 L 8.703125 22.960938 L 6.542969 22.960938 Z M 6.542969 20.917969 " clip-rule="nonzero"/></clipPath><clipPath id="f93d2a5692"><path d="M 0.542969 0.917969 L 2.703125 0.917969 L 2.703125 2.960938 L 0.542969 2.960938 Z M 0.542969 0.917969 " clip-rule="nonzero"/></clipPath><clipPath id="bfd0ab0bab"><rect x="0" width="3" y="0" height="3"/></clipPath><clipPath id="7f3071cfb0"><path d="M 9.378906 20.917969 L 11.535156 20.917969 L 11.535156 22.960938 L 9.378906 22.960938 Z M 9.378906 20.917969 " clip-rule="nonzero"/></clipPath><clipPath id="a4a6d28b0b"><path d="M 0.378906 0.917969 L 2.535156 0.917969 L 2.535156 2.960938 L 0.378906 2.960938 Z M 0.378906 0.917969 " clip-rule="nonzero"/></clipPath><clipPath id="01fe6e8065"><rect x="0" width="3" y="0" height="3"/></clipPath><clipPath id="550002c62e"><path d="M 6.542969 23.636719 L 8.703125 23.636719 L 8.703125 25.679688 L 6.542969 25.679688 Z M 6.542969 23.636719 " clip-rule="nonzero"/></clipPath><clipPath id="2e1aa447bd"><path d="M 0.542969 0.636719 L 2.703125 0.636719 L 2.703125 2.679688 L 0.542969 2.679688 Z M 0.542969 0.636719 " clip-rule="nonzero"/></clipPath><clipPath id="f734fc10d3"><rect x="0" width="3" y="0" height="3"/></clipPath><clipPath id="7c41a488d9"><path d="M 6.542969 26.292969 L 8.703125 26.292969 L 8.703125 28.335938 L 6.542969 28.335938 Z M 6.542969 26.292969 " clip-rule="nonzero"/></clipPath><clipPath id="196abcb276"><path d="M 0.542969 0.292969 L 2.703125 0.292969 L 2.703125 2.335938 L 0.542969 2.335938 Z M 0.542969 0.292969 " clip-rule="nonzero"/></clipPath><clipPath id="47d41c055d"><rect x="0" width="3" y="0" height="3"/></clipPath><clipPath id="a6d8566757"><path d="M 6.542969 29.015625 L 8.703125 29.015625 L 8.703125 31.058594 L 6.542969 31.058594 Z M 6.542969 29.015625 " clip-rule="nonzero"/></clipPath><clipPath id="db6079e9c1"><path d="M 0.542969 0.015625 L 2.703125 0.015625 L 2.703125 2.058594 L 0.542969 2.058594 Z M 0.542969 0.015625 " clip-rule="nonzero"/></clipPath><clipPath id="85f11f444d"><rect x="0" width="3" y="0" height="3"/></clipPath><clipPath id="1cf3ecda31"><path d="M 9.378906 29.015625 L 11.535156 29.015625 L 11.535156 31.058594 L 9.378906 31.058594 Z M 9.378906 29.015625 " clip-rule="nonzero"/></clipPath><clipPath id="c75187dccf"><path d="M 0.378906 0.015625 L 2.535156 0.015625 L 2.535156 2.058594 L 0.378906 2.058594 Z M 0.378906 0.015625 " clip-rule="nonzero"/></clipPath><clipPath id="6b8de08ce8"><rect x="0" width="3" y="0" height="3"/></clipPath><clipPath id="7add2984af"><path d="M 15.046875 31.734375 L 17.203125 31.734375 L 17.203125 33.777344 L 15.046875 33.777344 Z M 15.046875 31.734375 " clip-rule="nonzero"/></clipPath><clipPath id="1362ba707d"><path d="M 0.046875 0.734375 L 2.203125 0.734375 L 2.203125 2.777344 L 0.046875 2.777344 Z M 0.046875 0.734375 " clip-rule="nonzero"/></clipPath><clipPath id="f551c1e674"><rect x="0" width="3" y="0" height="3"/></clipPath><clipPath id="1174f67793"><path d="M 17.835938 31.734375 L 19.992188 31.734375 L 19.992188 33.777344 L 17.835938 33.777344 Z M 17.835938 31.734375 " clip-rule="nonzero"/></clipPath><clipPath id="656706e5bd"><path d="M 0.835938 0.734375 L 2.992188 0.734375 L 2.992188 2.777344 L 0.835938 2.777344 Z M 0.835938 0.734375 " clip-rule="nonzero"/></clipPath><clipPath id="c1307023c7"><rect x="0" width="3" y="0" height="3"/></clipPath><clipPath id="3875ec1554"><path d="M 9.378906 31.734375 L 11.535156 31.734375 L 11.535156 33.777344 L 9.378906 33.777344 Z M 9.378906 31.734375 " clip-rule="nonzero"/></clipPath><clipPath id="df394c990e"><path d="M 0.378906 0.734375 L 2.535156 0.734375 L 2.535156 2.777344 L 0.378906 2.777344 Z M 0.378906 0.734375 " clip-rule="nonzero"/></clipPath><clipPath id="ea62638a4b"><rect x="0" width="3" y="0" height="3"/></clipPath><clipPath id="8b807ef32c"><path d="M 12.210938 31.734375 L 14.371094 31.734375 L 14.371094 33.777344 L 12.210938 33.777344 Z M 12.210938 31.734375 " clip-rule="nonzero"/></clipPath><clipPath id="2f99c511e6"><path d="M 0.210938 0.734375 L 2.371094 0.734375 L 2.371094 2.777344 L 0.210938 2.777344 Z M 0.210938 0.734375 " clip-rule="nonzero"/></clipPath><clipPath id="b812f9079a"><rect x="0" width="3" y="0" height="3"/></clipPath></defs><g clip-path="url(#41cbcd7b57)"><g transform="matrix(1, 0, 0, 1, 0.000000000000000056, 37)"><g clip-path="url(#39c761fb08)"><g clip-path="url(#a2f6244a67)"><path fill="#ffffff" d="M 0.292969 2.800781 L 0.292969 0.40625 L 7.757812 0.40625 L 7.757812 2.800781 Z M 0.292969 2.800781 " fill-opacity="1" fill-rule="nonzero"/></g></g></g></g><g clip-path="url(#92bdf5af35)"><g transform="matrix(1, 0, 0, 1, 21, 37)"><g clip-path="url(#470da2f5c7)"><g clip-path="url(#2c3de9d730)"><path fill="#ffffff" d="M 7.960938 0.410156 L 7.960938 2.804688 L 0.605469 2.804688 L 0.605469 0.410156 Z M 7.960938 0.410156 " fill-opacity="1" fill-rule="nonzero"/></g></g></g></g><g clip-path="url(#e021a0d2b7)"><g transform="matrix(1, 0, 0, 1, 0.000000000000000056, 12)"><g clip-path="url(#f0ac70cca7)"><g clip-path="url(#779b92a93d)"><path fill="#ffffff" d="M 0.292969 0.167969 L 2.824219 0.167969 L 2.824219 27.804688 L 0.292969 27.804688 Z M 0.292969 0.167969 " fill-opacity="1" fill-rule="nonzero"/></g></g></g></g><g clip-path="url(#1608a3c2d9)"><g transform="matrix(1, 0, 0, 1, 0.000000000000000056, 12)"><g clip-path="url(#1f6dd75b71)"><g clip-path="url(#1182ffc1c0)"><path fill="#ffffff" d="M 0.292969 2.558594 L 0.292969 0.164062 L 7.757812 0.164062 L 7.757812 2.558594 Z M 0.292969 2.558594 " fill-opacity="1" fill-rule="nonzero"/></g></g></g></g><g clip-path="url(#c1a79b19e5)"><g transform="matrix(1, 0, 0, 1, 26, 12)"><g clip-path="url(#51c50effe6)"><g clip-path="url(#01c5f9d705)"><path fill="#ffffff" d="M 2.953125 27.800781 L 0.535156 27.800781 L 0.535156 0.160156 L 2.953125 0.160156 Z M 2.953125 27.800781 " fill-opacity="1" fill-rule="nonzero"/></g></g></g></g><g clip-path="url(#f23424cc35)"><g transform="matrix(1, 0, 0, 1, 21, 12)"><g clip-path="url(#45b9d3c6ff)"><g clip-path="url(#6f78fed7a4)"><path fill="#ffffff" d="M 7.960938 0.167969 L 7.960938 2.5625 L 0.605469 2.5625 L 0.605469 0.167969 Z M 7.960938 0.167969 " fill-opacity="1" fill-rule="nonzero"/></g></g></g></g><g transform="matrix(1, 0, 0, 1, 29, 8)"><g clip-path="url(#d7a687d76e)"><g fill="#ffffff" fill-opacity="1"><g transform="translate(1.033504, 28.476089)"><g><path d="M 21.234375 -20.5 L 21.234375 0 L 17.328125 0 L 7.109375 -12.4375 L 7.109375 0 L 2.4375 0 L 2.4375 -20.5 L 6.359375 -20.5 L 16.546875 -8.046875 L 16.546875 -20.5 Z M 21.234375 -20.5 "/></g></g></g><g fill="#ffffff" fill-opacity="1"><g transform="translate(24.694952, 28.476089)"><g><path d="M 2.4375 -20.5 L 7.171875 -20.5 L 7.171875 0 L 2.4375 0 Z M 2.4375 -20.5 "/></g></g></g><g clip-path="url(#c56d7eb542)"><g fill="#ffffff" fill-opacity="1"><g transform="translate(34.300095, 28.476089)"><g><path d="M 15.921875 -4.390625 L 6.40625 -4.390625 L 4.59375 0 L -0.265625 0 L 8.875 -20.5 L 13.5625 -20.5 L 22.71875 0 L 17.75 0 Z M 14.4375 -8 L 11.1875 -15.84375 L 7.9375 -8 Z M 14.4375 -8 "/></g></g></g></g></g></g><g fill="#ffffff" fill-opacity="1"><g transform="translate(46.603341, 33.235016)"><g><path d="M 0.9375 0.046875 C 0.8125 0.046875 0.703125 0 0.609375 -0.09375 C 0.515625 -0.1875 0.46875 -0.300781 0.46875 -0.4375 C 0.46875 -0.570312 0.515625 -0.6875 0.609375 -0.78125 C 0.703125 -0.875 0.8125 -0.921875 0.9375 -0.921875 C 1.070312 -0.921875 1.1875 -0.875 1.28125 -0.78125 C 1.375 -0.6875 1.421875 -0.570312 1.421875 -0.4375 C 1.421875 -0.300781 1.375 -0.1875 1.28125 -0.09375 C 1.1875 0 1.070312 0.046875 0.9375 0.046875 Z M 0.9375 0.046875 "/></g></g></g><g fill="#ffffff" fill-opacity="1"><g transform="translate(47.28063, 29.905555)"><g><path d="M 0.9375 0.046875 C 0.8125 0.046875 0.703125 0 0.609375 -0.09375 C 0.515625 -0.1875 0.46875 -0.300781 0.46875 -0.4375 C 0.46875 -0.570312 0.515625 -0.6875 0.609375 -0.78125 C 0.703125 -0.875 0.8125 -0.921875 0.9375 -0.921875 C 1.070312 -0.921875 1.1875 -0.875 1.28125 -0.78125 C 1.375 -0.6875 1.421875 -0.570312 1.421875 -0.4375 C 1.421875 -0.300781 1.375 -0.1875 1.28125 -0.09375 C 1.1875 0 1.070312 0.046875 0.9375 0.046875 Z M 0.9375 0.046875 "/></g></g></g><g clip-path="url(#40b7870b6f)"><g transform="matrix(1, 0, 0, 1, 15, 18)"><g clip-path="url(#844a633453)"><g clip-path="url(#f67d40fc74)"><path fill="#ffffff" d="M 0.046875 0.195312 L 2.203125 0.195312 L 2.203125 2.238281 L 0.046875 2.238281 Z M 0.046875 0.195312 " fill-opacity="1" fill-rule="nonzero"/></g></g></g></g><g clip-path="url(#1853a2841f)"><g transform="matrix(1, 0, 0, 1, 17, 18)"><g clip-path="url(#d5b8e2fb79)"><g clip-path="url(#e576a39206)"><path fill="#ffffff" d="M 0.835938 0.195312 L 2.992188 0.195312 L 2.992188 2.238281 L 0.835938 2.238281 Z M 0.835938 0.195312 " fill-opacity="1" fill-rule="nonzero"/></g></g></g></g><g clip-path="url(#df5a32013c)"><g transform="matrix(1, 0, 0, 1, 17, 20)"><g clip-path="url(#2172bd1ecf)"><g clip-path="url(#f0c3252c43)"><path fill="#ffffff" d="M 0.835938 0.917969 L 2.992188 0.917969 L 2.992188 2.960938 L 0.835938 2.960938 Z M 0.835938 0.917969 " fill-opacity="1" fill-rule="nonzero"/></g></g></g></g><g clip-path="url(#1479d71295)"><g transform="matrix(1, 0, 0, 1, 20, 20)"><g clip-path="url(#f278d7964a)"><g clip-path="url(#d6a0ea28b6)"><path fill="#ffffff" d="M 0.667969 0.917969 L 2.824219 0.917969 L 2.824219 2.960938 L 0.667969 2.960938 Z M 0.667969 0.917969 " fill-opacity="1" fill-rule="nonzero"/></g></g></g></g><g clip-path="url(#bcd1c0bf4e)"><g transform="matrix(1, 0, 0, 1, 20, 23)"><g clip-path="url(#6fcaed5af7)"><g clip-path="url(#afa4ec1b50)"><path fill="#ffffff" d="M 0.667969 0.636719 L 2.824219 0.636719 L 2.824219 2.679688 L 0.667969 2.679688 Z M 0.667969 0.636719 " fill-opacity="1" fill-rule="nonzero"/></g></g></g></g><g mask="url(#b7dc70d094)"><g transform="matrix(1, 0, 0, 1, 20, 26)"><g clip-path="url(#ce3f3b5102)"><g clip-path="url(#e68783a56e)"><g transform="matrix(1, 0, 0, 1, -0.000000000000003553, -0.000000000000014211)"><g clip-path="url(#3b81f05427)"><g clip-path="url(#0f2f18486b)"><path fill="#ffffff" d="M 0.667969 0.292969 L 2.824219 0.292969 L 2.824219 2.335938 L 0.667969 2.335938 Z M 0.667969 0.292969 " fill-opacity="1" fill-rule="nonzero"/></g></g></g></g></g></g></g><g clip-path="url(#489b2a7c49)"><g transform="matrix(1, 0, 0, 1, 17, 29)"><g clip-path="url(#220c3d0c2b)"><g clip-path="url(#62ff80e12a)"><path fill="#ffffff" d="M 0.835938 0.015625 L 2.992188 0.015625 L 2.992188 2.058594 L 0.835938 2.058594 Z M 0.835938 0.015625 " fill-opacity="1" fill-rule="nonzero"/></g></g></g></g><g clip-path="url(#d09f61346a)"><g transform="matrix(1, 0, 0, 1, 20, 29)"><g clip-path="url(#652094a3c1)"><g clip-path="url(#4d43121149)"><path fill="#ffffff" d="M 0.667969 0.015625 L 2.824219 0.015625 L 2.824219 2.058594 L 0.667969 2.058594 Z M 0.667969 0.015625 " fill-opacity="1" fill-rule="nonzero"/></g></g></g></g><g clip-path="url(#f1527ea86f)"><g transform="matrix(1, 0, 0, 1, 9, 18)"><g clip-path="url(#63d0f417f9)"><g clip-path="url(#0a09683c9b)"><path fill="#ffffff" d="M 0.378906 0.195312 L 2.535156 0.195312 L 2.535156 2.238281 L 0.378906 2.238281 Z M 0.378906 0.195312 " fill-opacity="1" fill-rule="nonzero"/></g></g></g></g><g clip-path="url(#ea2d6988a9)"><g transform="matrix(1, 0, 0, 1, 12, 18)"><g clip-path="url(#8fe582e200)"><g clip-path="url(#9e184daa1d)"><path fill="#ffffff" d="M 0.210938 0.195312 L 2.367188 0.195312 L 2.367188 2.238281 L 0.210938 2.238281 Z M 0.210938 0.195312 " fill-opacity="1" fill-rule="nonzero"/></g></g></g></g><g clip-path="url(#0ba80fd3dd)"><g transform="matrix(1, 0, 0, 1, 6, 20)"><g clip-path="url(#bfd0ab0bab)"><g clip-path="url(#f93d2a5692)"><path fill="#ffffff" d="M 0.542969 0.917969 L 2.699219 0.917969 L 2.699219 2.960938 L 0.542969 2.960938 Z M 0.542969 0.917969 " fill-opacity="1" fill-rule="nonzero"/></g></g></g></g><g clip-path="url(#7f3071cfb0)"><g transform="matrix(1, 0, 0, 1, 9, 20)"><g clip-path="url(#01fe6e8065)"><g clip-path="url(#a4a6d28b0b)"><path fill="#ffffff" d="M 0.378906 0.917969 L 2.535156 0.917969 L 2.535156 2.960938 L 0.378906 2.960938 Z M 0.378906 0.917969 " fill-opacity="1" fill-rule="nonzero"/></g></g></g></g><g clip-path="url(#550002c62e)"><g transform="matrix(1, 0, 0, 1, 6, 23)"><g clip-path="url(#f734fc10d3)"><g clip-path="url(#2e1aa447bd)"><path fill="#ffffff" d="M 0.542969 0.636719 L 2.699219 0.636719 L 2.699219 2.679688 L 0.542969 2.679688 Z M 0.542969 0.636719 " fill-opacity="1" fill-rule="nonzero"/></g></g></g></g><g clip-path="url(#7c41a488d9)"><g transform="matrix(1, 0, 0, 1, 6, 26)"><g clip-path="url(#47d41c055d)"><g clip-path="url(#196abcb276)"><path fill="#ffffff" d="M 0.542969 0.292969 L 2.699219 0.292969 L 2.699219 2.335938 L 0.542969 2.335938 Z M 0.542969 0.292969 " fill-opacity="1" fill-rule="nonzero"/></g></g></g></g><g clip-path="url(#a6d8566757)"><g transform="matrix(1, 0, 0, 1, 6, 29)"><g clip-path="url(#85f11f444d)"><g clip-path="url(#db6079e9c1)"><path fill="#ffffff" d="M 0.542969 0.015625 L 2.699219 0.015625 L 2.699219 2.058594 L 0.542969 2.058594 Z M 0.542969 0.015625 " fill-opacity="1" fill-rule="nonzero"/></g></g></g></g><g clip-path="url(#1cf3ecda31)"><g transform="matrix(1, 0, 0, 1, 9, 29)"><g clip-path="url(#6b8de08ce8)"><g clip-path="url(#c75187dccf)"><path fill="#ffffff" d="M 0.378906 0.015625 L 2.535156 0.015625 L 2.535156 2.058594 L 0.378906 2.058594 Z M 0.378906 0.015625 " fill-opacity="1" fill-rule="nonzero"/></g></g></g></g><g clip-path="url(#7add2984af)"><g transform="matrix(1, 0, 0, 1, 15, 31)"><g clip-path="url(#f551c1e674)"><g clip-path="url(#1362ba707d)"><path fill="#ffffff" d="M 0.046875 0.734375 L 2.203125 0.734375 L 2.203125 2.777344 L 0.046875 2.777344 Z M 0.046875 0.734375 " fill-opacity="1" fill-rule="nonzero"/></g></g></g></g><g clip-path="url(#1174f67793)"><g transform="matrix(1, 0, 0, 1, 17, 31)"><g clip-path="url(#c1307023c7)"><g clip-path="url(#656706e5bd)"><path fill="#ffffff" d="M 0.835938 0.734375 L 2.992188 0.734375 L 2.992188 2.777344 L 0.835938 2.777344 Z M 0.835938 0.734375 " fill-opacity="1" fill-rule="nonzero"/></g></g></g></g><g clip-path="url(#3875ec1554)"><g transform="matrix(1, 0, 0, 1, 9, 31)"><g clip-path="url(#ea62638a4b)"><g clip-path="url(#df394c990e)"><path fill="#ffffff" d="M 0.378906 0.734375 L 2.535156 0.734375 L 2.535156 2.777344 L 0.378906 2.777344 Z M 0.378906 0.734375 " fill-opacity="1" fill-rule="nonzero"/></g></g></g></g><g clip-path="url(#8b807ef32c)"><g transform="matrix(1, 0, 0, 1, 12, 31)"><g clip-path="url(#b812f9079a)"><g clip-path="url(#2f99c511e6)"><path fill="#ffffff" d="M 0.210938 0.734375 L 2.367188 0.734375 L 2.367188 2.777344 L 0.210938 2.777344 Z M 0.210938 0.734375 " fill-opacity="1" fill-rule="nonzero"/></g></g></g></g></svg>