<svg xmlns="http://www.w3.org/2000/svg" xmlns:xlink="http://www.w3.org/1999/xlink" width="412" zoomAndPan="magnify" viewBox="0 0 309 53.25" height="71" preserveAspectRatio="xMidYMid meet" version="1.0"><defs><filter x="0%" y="0%" width="100%" height="100%" id="5e9b5dd424"><feColorMatrix values="0 0 0 0 1 0 0 0 0 1 0 0 0 0 1 0 0 0 1 0" color-interpolation-filters="sRGB"/></filter><g/><clipPath id="210d190ec1"><path d="M 2.148438 37.40625 L 9.617188 37.40625 L 9.617188 39.800781 L 2.148438 39.800781 Z M 2.148438 37.40625 " clip-rule="nonzero"/></clipPath><clipPath id="76bac26f55"><path d="M 0.148438 0.40625 L 7.617188 0.40625 L 7.617188 2.800781 L 0.148438 2.800781 Z M 0.148438 0.40625 " clip-rule="nonzero"/></clipPath><clipPath id="0526a9af34"><rect x="0" width="8" y="0" height="3"/></clipPath><clipPath id="730c4a4fa0"><path d="M 23.460938 37.410156 L 30.8125 37.410156 L 30.8125 39.804688 L 23.460938 39.804688 Z M 23.460938 37.410156 " clip-rule="nonzero"/></clipPath><clipPath id="48707ea2f8"><path d="M 0.460938 0.410156 L 7.8125 0.410156 L 7.8125 2.804688 L 0.460938 2.804688 Z M 0.460938 0.410156 " clip-rule="nonzero"/></clipPath><clipPath id="afb78db51f"><rect x="0" width="8" y="0" height="3"/></clipPath><clipPath id="f637cecb05"><path d="M 2.144531 12.167969 L 4.679688 12.167969 L 4.679688 39.804688 L 2.144531 39.804688 Z M 2.144531 12.167969 " clip-rule="nonzero"/></clipPath><clipPath id="0912d79a4e"><path d="M 0.144531 0.167969 L 2.679688 0.167969 L 2.679688 27.804688 L 0.144531 27.804688 Z M 0.144531 0.167969 " clip-rule="nonzero"/></clipPath><clipPath id="fb05da1578"><rect x="0" width="3" y="0" height="28"/></clipPath><clipPath id="54e8df33aa"><path d="M 2.148438 12.164062 L 9.617188 12.164062 L 9.617188 14.558594 L 2.148438 14.558594 Z M 2.148438 12.164062 " clip-rule="nonzero"/></clipPath><clipPath id="57dca16767"><path d="M 0.148438 0.164062 L 7.617188 0.164062 L 7.617188 2.558594 L 0.148438 2.558594 Z M 0.148438 0.164062 " clip-rule="nonzero"/></clipPath><clipPath id="e8d37624b9"><rect x="0" width="8" y="0" height="3"/></clipPath><clipPath id="c99672be6b"><path d="M 28.390625 12.160156 L 30.804688 12.160156 L 30.804688 39.800781 L 28.390625 39.800781 Z M 28.390625 12.160156 " clip-rule="nonzero"/></clipPath><clipPath id="b0f80dc96e"><path d="M 0.390625 0.160156 L 2.804688 0.160156 L 2.804688 27.800781 L 0.390625 27.800781 Z M 0.390625 0.160156 " clip-rule="nonzero"/></clipPath><clipPath id="366f9abc3b"><rect x="0" width="3" y="0" height="28"/></clipPath><clipPath id="3a51aeb49b"><path d="M 23.460938 12.167969 L 30.8125 12.167969 L 30.8125 14.5625 L 23.460938 14.5625 Z M 23.460938 12.167969 " clip-rule="nonzero"/></clipPath><clipPath id="37b566d9bd"><path d="M 0.460938 0.167969 L 7.8125 0.167969 L 7.8125 2.5625 L 0.460938 2.5625 Z M 0.460938 0.167969 " clip-rule="nonzero"/></clipPath><clipPath id="8b60b3d2fb"><rect x="0" width="8" y="0" height="3"/></clipPath><clipPath id="5c813c4818"><rect x="0" width="58" y="0" height="37"/></clipPath><mask id="efc1be42ed"><g filter="url(#5e9b5dd424)"><rect x="-30.9" width="370.8" fill="#000000" y="-5.325" height="63.899999" fill-opacity="0.29"/></g></mask><clipPath id="127c48a65d"><path d="M 0.878906 0.507812 L 3.035156 0.507812 L 3.035156 2.550781 L 0.878906 2.550781 Z M 0.878906 0.507812 " clip-rule="nonzero"/></clipPath><clipPath id="2f5b7c843b"><path d="M 0.878906 0.507812 L 3.035156 0.507812 L 3.035156 2.550781 L 0.878906 2.550781 Z M 0.878906 0.507812 " clip-rule="nonzero"/></clipPath><clipPath id="b7911cb3f9"><rect x="0" width="4" y="0" height="3"/></clipPath><clipPath id="607d63ab43"><rect x="0" width="4" y="0" height="3"/></clipPath><mask id="9a10180ac9"><g filter="url(#5e9b5dd424)"><rect x="-30.9" width="370.8" fill="#000000" y="-5.325" height="63.899999" fill-opacity="0.29"/></g></mask><clipPath id="7d133c150e"><path d="M 0.667969 0.507812 L 2.824219 0.507812 L 2.824219 2.550781 L 0.667969 2.550781 Z M 0.667969 0.507812 " clip-rule="nonzero"/></clipPath><clipPath id="0f486be0e9"><path d="M 0.667969 0.507812 L 2.824219 0.507812 L 2.824219 2.550781 L 0.667969 2.550781 Z M 0.667969 0.507812 " clip-rule="nonzero"/></clipPath><clipPath id="ae2dfae276"><rect x="0" width="3" y="0" height="3"/></clipPath><clipPath id="045449db30"><rect x="0" width="4" y="0" height="3"/></clipPath><mask id="377a3631cd"><g filter="url(#5e9b5dd424)"><rect x="-30.9" width="370.8" fill="#000000" y="-5.325" height="63.899999" fill-opacity="0.29"/></g></mask><clipPath id="cce61e1e84"><path d="M 0.5 0.507812 L 2.660156 0.507812 L 2.660156 2.550781 L 0.5 2.550781 Z M 0.5 0.507812 " clip-rule="nonzero"/></clipPath><clipPath id="99c213b9fe"><path d="M 0.5 0.507812 L 2.660156 0.507812 L 2.660156 2.550781 L 0.5 2.550781 Z M 0.5 0.507812 " clip-rule="nonzero"/></clipPath><clipPath id="b628cfa874"><rect x="0" width="3" y="0" height="3"/></clipPath><clipPath id="9d49b82648"><rect x="0" width="3" y="0" height="3"/></clipPath><mask id="6c35319640"><g filter="url(#5e9b5dd424)"><rect x="-30.9" width="370.8" fill="#000000" y="-5.325" height="63.899999" fill-opacity="0.29"/></g></mask><clipPath id="1667f30e12"><path d="M 0.335938 0.507812 L 2.492188 0.507812 L 2.492188 2.550781 L 0.335938 2.550781 Z M 0.335938 0.507812 " clip-rule="nonzero"/></clipPath><clipPath id="f45989c073"><path d="M 0.335938 0.507812 L 2.492188 0.507812 L 2.492188 2.550781 L 0.335938 2.550781 Z M 0.335938 0.507812 " clip-rule="nonzero"/></clipPath><clipPath id="45fa31b83c"><rect x="0" width="3" y="0" height="3"/></clipPath><clipPath id="95a73b08fb"><rect x="0" width="3" y="0" height="3"/></clipPath><clipPath id="467a32522e"><path d="M 16.878906 18.164062 L 19.035156 18.164062 L 19.035156 20.207031 L 16.878906 20.207031 Z M 16.878906 18.164062 " clip-rule="nonzero"/></clipPath><clipPath id="9c191112d3"><path d="M 0.878906 0.164062 L 3.035156 0.164062 L 3.035156 2.207031 L 0.878906 2.207031 Z M 0.878906 0.164062 " clip-rule="nonzero"/></clipPath><clipPath id="ffaaa80986"><rect x="0" width="4" y="0" height="3"/></clipPath><clipPath id="14926a10df"><path d="M 19.667969 18.164062 L 21.824219 18.164062 L 21.824219 20.207031 L 19.667969 20.207031 Z M 19.667969 18.164062 " clip-rule="nonzero"/></clipPath><clipPath id="ccf9e0e228"><path d="M 0.667969 0.164062 L 2.824219 0.164062 L 2.824219 2.207031 L 0.667969 2.207031 Z M 0.667969 0.164062 " clip-rule="nonzero"/></clipPath><clipPath id="e0d1c00c51"><rect x="0" width="3" y="0" height="3"/></clipPath><mask id="cd14125fdc"><g filter="url(#5e9b5dd424)"><rect x="-30.9" width="370.8" fill="#000000" y="-5.325" height="63.899999" fill-opacity="0.29"/></g></mask><clipPath id="024b57d73a"><path d="M 0.5 1.164062 L 2.660156 1.164062 L 2.660156 3.207031 L 0.5 3.207031 Z M 0.5 1.164062 " clip-rule="nonzero"/></clipPath><clipPath id="c58bfd6377"><path d="M 0.5 0.164062 L 2.660156 0.164062 L 2.660156 2.207031 L 0.5 2.207031 Z M 0.5 0.164062 " clip-rule="nonzero"/></clipPath><clipPath id="bcda23e5ef"><rect x="0" width="3" y="0" height="3"/></clipPath><clipPath id="9818a3897b"><rect x="0" width="3" y="0" height="4"/></clipPath><mask id="e3fdc8e393"><g filter="url(#5e9b5dd424)"><rect x="-30.9" width="370.8" fill="#000000" y="-5.325" height="63.899999" fill-opacity="0.29"/></g></mask><clipPath id="a5026f06de"><path d="M 0.335938 1.164062 L 2.492188 1.164062 L 2.492188 3.207031 L 0.335938 3.207031 Z M 0.335938 1.164062 " clip-rule="nonzero"/></clipPath><clipPath id="7b98174f24"><path d="M 0.335938 0.164062 L 2.492188 0.164062 L 2.492188 2.207031 L 0.335938 2.207031 Z M 0.335938 0.164062 " clip-rule="nonzero"/></clipPath><clipPath id="24e05f0263"><rect x="0" width="3" y="0" height="3"/></clipPath><clipPath id="239b180284"><rect x="0" width="3" y="0" height="4"/></clipPath><mask id="91a5ef8b85"><g filter="url(#5e9b5dd424)"><rect x="-30.9" width="370.8" fill="#000000" y="-5.325" height="63.899999" fill-opacity="0.29"/></g></mask><clipPath id="2b16570798"><path d="M 0.878906 0.882812 L 3.035156 0.882812 L 3.035156 2.929688 L 0.878906 2.929688 Z M 0.878906 0.882812 " clip-rule="nonzero"/></clipPath><clipPath id="e69951a6d4"><path d="M 0.878906 0.882812 L 3.035156 0.882812 L 3.035156 2.929688 L 0.878906 2.929688 Z M 0.878906 0.882812 " clip-rule="nonzero"/></clipPath><clipPath id="df57010c65"><rect x="0" width="4" y="0" height="3"/></clipPath><clipPath id="f636aa2088"><rect x="0" width="4" y="0" height="3"/></clipPath><clipPath id="381b180c5e"><path d="M 19.667969 20.882812 L 21.824219 20.882812 L 21.824219 22.929688 L 19.667969 22.929688 Z M 19.667969 20.882812 " clip-rule="nonzero"/></clipPath><clipPath id="e4a2c98ce4"><path d="M 0.667969 0.882812 L 2.824219 0.882812 L 2.824219 2.929688 L 0.667969 2.929688 Z M 0.667969 0.882812 " clip-rule="nonzero"/></clipPath><clipPath id="42efc3402e"><rect x="0" width="3" y="0" height="3"/></clipPath><clipPath id="965ed1c867"><path d="M 22.5 20.882812 L 24.660156 20.882812 L 24.660156 22.929688 L 22.5 22.929688 Z M 22.5 20.882812 " clip-rule="nonzero"/></clipPath><clipPath id="a1f1c71f2b"><path d="M 0.5 0.882812 L 2.660156 0.882812 L 2.660156 2.929688 L 0.5 2.929688 Z M 0.5 0.882812 " clip-rule="nonzero"/></clipPath><clipPath id="6b44b87d69"><rect x="0" width="3" y="0" height="3"/></clipPath><mask id="4ed47b3365"><g filter="url(#5e9b5dd424)"><rect x="-30.9" width="370.8" fill="#000000" y="-5.325" height="63.899999" fill-opacity="0.29"/></g></mask><clipPath id="430bee458b"><path d="M 0.335938 0.882812 L 2.492188 0.882812 L 2.492188 2.929688 L 0.335938 2.929688 Z M 0.335938 0.882812 " clip-rule="nonzero"/></clipPath><clipPath id="772836d9e2"><path d="M 0.335938 0.882812 L 2.492188 0.882812 L 2.492188 2.929688 L 0.335938 2.929688 Z M 0.335938 0.882812 " clip-rule="nonzero"/></clipPath><clipPath id="2c5f4391a7"><rect x="0" width="3" y="0" height="3"/></clipPath><clipPath id="57efa1bb14"><rect x="0" width="3" y="0" height="3"/></clipPath><mask id="2435187101"><g filter="url(#5e9b5dd424)"><rect x="-30.9" width="370.8" fill="#000000" y="-5.325" height="63.899999" fill-opacity="0.29"/></g></mask><clipPath id="83d4a6701e"><path d="M 0.878906 0.605469 L 3.035156 0.605469 L 3.035156 2.648438 L 0.878906 2.648438 Z M 0.878906 0.605469 " clip-rule="nonzero"/></clipPath><clipPath id="718a243be7"><path d="M 0.878906 0.605469 L 3.035156 0.605469 L 3.035156 2.648438 L 0.878906 2.648438 Z M 0.878906 0.605469 " clip-rule="nonzero"/></clipPath><clipPath id="2ef6b3ca73"><rect x="0" width="4" y="0" height="3"/></clipPath><clipPath id="96404c3600"><rect x="0" width="4" y="0" height="3"/></clipPath><mask id="e55f25831c"><g filter="url(#5e9b5dd424)"><rect x="-30.9" width="370.8" fill="#000000" y="-5.325" height="63.899999" fill-opacity="0.29"/></g></mask><clipPath id="5553057fde"><path d="M 0.667969 0.605469 L 2.824219 0.605469 L 2.824219 2.648438 L 0.667969 2.648438 Z M 0.667969 0.605469 " clip-rule="nonzero"/></clipPath><clipPath id="a2c79d9f36"><path d="M 0.667969 0.605469 L 2.824219 0.605469 L 2.824219 2.648438 L 0.667969 2.648438 Z M 0.667969 0.605469 " clip-rule="nonzero"/></clipPath><clipPath id="4b2569c205"><rect x="0" width="3" y="0" height="3"/></clipPath><clipPath id="7cf1859aef"><rect x="0" width="4" y="0" height="3"/></clipPath><clipPath id="6ebc950a0e"><path d="M 22.5 23.605469 L 24.660156 23.605469 L 24.660156 25.648438 L 22.5 25.648438 Z M 22.5 23.605469 " clip-rule="nonzero"/></clipPath><clipPath id="5502507e49"><path d="M 0.5 0.605469 L 2.660156 0.605469 L 2.660156 2.648438 L 0.5 2.648438 Z M 0.5 0.605469 " clip-rule="nonzero"/></clipPath><clipPath id="0cfddab6c6"><rect x="0" width="3" y="0" height="3"/></clipPath><mask id="1495376b58"><g filter="url(#5e9b5dd424)"><rect x="-30.9" width="370.8" fill="#000000" y="-5.325" height="63.899999" fill-opacity="0.29"/></g></mask><clipPath id="8a1333e30c"><path d="M 0.335938 0.605469 L 2.492188 0.605469 L 2.492188 2.648438 L 0.335938 2.648438 Z M 0.335938 0.605469 " clip-rule="nonzero"/></clipPath><clipPath id="127fe97888"><path d="M 0.335938 0.605469 L 2.492188 0.605469 L 2.492188 2.648438 L 0.335938 2.648438 Z M 0.335938 0.605469 " clip-rule="nonzero"/></clipPath><clipPath id="39ed4931e1"><rect x="0" width="3" y="0" height="3"/></clipPath><clipPath id="e19d8347d9"><rect x="0" width="3" y="0" height="3"/></clipPath><mask id="6e4dfb8486"><g filter="url(#5e9b5dd424)"><rect x="-30.9" width="370.8" fill="#000000" y="-5.325" height="63.899999" fill-opacity="0.29"/></g></mask><clipPath id="92627fb300"><path d="M 0.878906 0.261719 L 3.035156 0.261719 L 3.035156 2.304688 L 0.878906 2.304688 Z M 0.878906 0.261719 " clip-rule="nonzero"/></clipPath><clipPath id="35da6c4e1c"><path d="M 0.878906 0.261719 L 3.035156 0.261719 L 3.035156 2.304688 L 0.878906 2.304688 Z M 0.878906 0.261719 " clip-rule="nonzero"/></clipPath><clipPath id="63b9117014"><rect x="0" width="4" y="0" height="3"/></clipPath><clipPath id="9c45f80018"><rect x="0" width="4" y="0" height="3"/></clipPath><mask id="19f4b48f6a"><g filter="url(#5e9b5dd424)"><rect x="-30.9" width="370.8" fill="#000000" y="-5.325" height="63.899999" fill-opacity="0.29"/></g></mask><clipPath id="1649bee2ab"><path d="M 0.667969 0.261719 L 2.824219 0.261719 L 2.824219 2.304688 L 0.667969 2.304688 Z M 0.667969 0.261719 " clip-rule="nonzero"/></clipPath><clipPath id="3d59a92f46"><path d="M 0.667969 0.261719 L 2.824219 0.261719 L 2.824219 2.304688 L 0.667969 2.304688 Z M 0.667969 0.261719 " clip-rule="nonzero"/></clipPath><clipPath id="6014299a50"><rect x="0" width="3" y="0" height="3"/></clipPath><clipPath id="f5f68f5436"><rect x="0" width="4" y="0" height="3"/></clipPath><mask id="19730e3345"><g filter="url(#5e9b5dd424)"><rect x="-30.9" width="370.8" fill="#000000" y="-5.325" height="63.899999" fill-opacity="0.84"/></g></mask><clipPath id="6d10226a68"><path d="M 0.5 0.261719 L 2.660156 0.261719 L 2.660156 2.304688 L 0.5 2.304688 Z M 0.5 0.261719 " clip-rule="nonzero"/></clipPath><clipPath id="8b7c3acaae"><path d="M 0.5 0.261719 L 2.660156 0.261719 L 2.660156 2.304688 L 0.5 2.304688 Z M 0.5 0.261719 " clip-rule="nonzero"/></clipPath><clipPath id="f4c4564a44"><rect x="0" width="3" y="0" height="3"/></clipPath><clipPath id="7a5fe562a9"><rect x="0" width="3" y="0" height="3"/></clipPath><mask id="9132f15ebf"><g filter="url(#5e9b5dd424)"><rect x="-30.9" width="370.8" fill="#000000" y="-5.325" height="63.899999" fill-opacity="0.29"/></g></mask><clipPath id="212ef85d32"><path d="M 0.335938 0.261719 L 2.492188 0.261719 L 2.492188 2.304688 L 0.335938 2.304688 Z M 0.335938 0.261719 " clip-rule="nonzero"/></clipPath><clipPath id="ebc90b4c10"><path d="M 0.335938 0.261719 L 2.492188 0.261719 L 2.492188 2.304688 L 0.335938 2.304688 Z M 0.335938 0.261719 " clip-rule="nonzero"/></clipPath><clipPath id="5d8ff5b0d4"><rect x="0" width="3" y="0" height="3"/></clipPath><clipPath id="9a03b9b9ba"><rect x="0" width="3" y="0" height="3"/></clipPath><mask id="1b20a3a092"><g filter="url(#5e9b5dd424)"><rect x="-30.9" width="370.8" fill="#000000" y="-5.325" height="63.899999" fill-opacity="0.29"/></g></mask><clipPath id="f78edf3134"><path d="M 0.878906 0.980469 L 3.035156 0.980469 L 3.035156 3.027344 L 0.878906 3.027344 Z M 0.878906 0.980469 " clip-rule="nonzero"/></clipPath><clipPath id="12e207f438"><path d="M 0.878906 0.980469 L 3.035156 0.980469 L 3.035156 3.027344 L 0.878906 3.027344 Z M 0.878906 0.980469 " clip-rule="nonzero"/></clipPath><clipPath id="9d12ea9b36"><rect x="0" width="4" y="0" height="4"/></clipPath><clipPath id="fb268c64fe"><rect x="0" width="4" y="0" height="4"/></clipPath><clipPath id="ef1050c558"><path d="M 19.667969 28.980469 L 21.824219 28.980469 L 21.824219 31.027344 L 19.667969 31.027344 Z M 19.667969 28.980469 " clip-rule="nonzero"/></clipPath><clipPath id="82fc9c9d03"><path d="M 0.667969 0.980469 L 2.824219 0.980469 L 2.824219 3.027344 L 0.667969 3.027344 Z M 0.667969 0.980469 " clip-rule="nonzero"/></clipPath><clipPath id="cb2d8d2a0f"><rect x="0" width="3" y="0" height="4"/></clipPath><clipPath id="4810cb15e9"><path d="M 22.5 28.980469 L 24.660156 28.980469 L 24.660156 31.027344 L 22.5 31.027344 Z M 22.5 28.980469 " clip-rule="nonzero"/></clipPath><clipPath id="d74d1e5a2e"><path d="M 0.5 0.980469 L 2.660156 0.980469 L 2.660156 3.027344 L 0.5 3.027344 Z M 0.5 0.980469 " clip-rule="nonzero"/></clipPath><clipPath id="3e7a5b326e"><rect x="0" width="3" y="0" height="4"/></clipPath><mask id="744cca70b8"><g filter="url(#5e9b5dd424)"><rect x="-30.9" width="370.8" fill="#000000" y="-5.325" height="63.899999" fill-opacity="0.29"/></g></mask><clipPath id="e0ed929a25"><path d="M 0.335938 0.980469 L 2.492188 0.980469 L 2.492188 3.027344 L 0.335938 3.027344 Z M 0.335938 0.980469 " clip-rule="nonzero"/></clipPath><clipPath id="9713d8c910"><path d="M 0.335938 0.980469 L 2.492188 0.980469 L 2.492188 3.027344 L 0.335938 3.027344 Z M 0.335938 0.980469 " clip-rule="nonzero"/></clipPath><clipPath id="964b74cb4a"><rect x="0" width="3" y="0" height="4"/></clipPath><clipPath id="dd5c7179b0"><rect x="0" width="3" y="0" height="4"/></clipPath><mask id="abdaa2ebbf"><g filter="url(#5e9b5dd424)"><rect x="-30.9" width="370.8" fill="#000000" y="-5.325" height="63.899999" fill-opacity="0.29"/></g></mask><clipPath id="892d36ecdb"><path d="M 0.585938 0.507812 L 2.746094 0.507812 L 2.746094 2.550781 L 0.585938 2.550781 Z M 0.585938 0.507812 " clip-rule="nonzero"/></clipPath><clipPath id="0398db0ddb"><path d="M 0.585938 0.507812 L 2.746094 0.507812 L 2.746094 2.550781 L 0.585938 2.550781 Z M 0.585938 0.507812 " clip-rule="nonzero"/></clipPath><clipPath id="5022fe5123"><rect x="0" width="3" y="0" height="3"/></clipPath><clipPath id="03fe3a54ae"><rect x="0" width="3" y="0" height="3"/></clipPath><mask id="604ae6129c"><g filter="url(#5e9b5dd424)"><rect x="-30.9" width="370.8" fill="#000000" y="-5.325" height="63.899999" fill-opacity="0.29"/></g></mask><clipPath id="3e0d9e8874"><path d="M 0.375 0.507812 L 2.535156 0.507812 L 2.535156 2.550781 L 0.375 2.550781 Z M 0.375 0.507812 " clip-rule="nonzero"/></clipPath><clipPath id="8c4ce03a10"><path d="M 0.375 0.507812 L 2.535156 0.507812 L 2.535156 2.550781 L 0.375 2.550781 Z M 0.375 0.507812 " clip-rule="nonzero"/></clipPath><clipPath id="f23f7279c8"><rect x="0" width="3" y="0" height="3"/></clipPath><clipPath id="072d63cabb"><rect x="0" width="3" y="0" height="3"/></clipPath><mask id="9e39849960"><g filter="url(#5e9b5dd424)"><rect x="-30.9" width="370.8" fill="#000000" y="-5.325" height="63.899999" fill-opacity="0.29"/></g></mask><clipPath id="232f0b4e1a"><path d="M 0.210938 0.507812 L 2.367188 0.507812 L 2.367188 2.550781 L 0.210938 2.550781 Z M 0.210938 0.507812 " clip-rule="nonzero"/></clipPath><clipPath id="51c4278ad3"><path d="M 0.210938 0.507812 L 2.367188 0.507812 L 2.367188 2.550781 L 0.210938 2.550781 Z M 0.210938 0.507812 " clip-rule="nonzero"/></clipPath><clipPath id="1f5f8e82c2"><rect x="0" width="3" y="0" height="3"/></clipPath><clipPath id="edccf7fbf5"><rect x="0" width="3" y="0" height="3"/></clipPath><mask id="0e87131049"><g filter="url(#5e9b5dd424)"><rect x="-30.9" width="370.8" fill="#000000" y="-5.325" height="63.899999" fill-opacity="0.29"/></g></mask><clipPath id="2f30aba692"><path d="M 1.042969 0.507812 L 3.203125 0.507812 L 3.203125 2.550781 L 1.042969 2.550781 Z M 1.042969 0.507812 " clip-rule="nonzero"/></clipPath><clipPath id="784f50c9d9"><path d="M 0.0429688 0.507812 L 2.203125 0.507812 L 2.203125 2.550781 L 0.0429688 2.550781 Z M 0.0429688 0.507812 " clip-rule="nonzero"/></clipPath><clipPath id="9467fbb769"><rect x="0" width="3" y="0" height="3"/></clipPath><clipPath id="756e50b9ac"><rect x="0" width="4" y="0" height="3"/></clipPath><mask id="6fd746fc53"><g filter="url(#5e9b5dd424)"><rect x="-30.9" width="370.8" fill="#000000" y="-5.325" height="63.899999" fill-opacity="0.29"/></g></mask><clipPath id="5fa2ee8182"><path d="M 0.585938 1.164062 L 2.746094 1.164062 L 2.746094 3.207031 L 0.585938 3.207031 Z M 0.585938 1.164062 " clip-rule="nonzero"/></clipPath><clipPath id="4d33ca9f42"><path d="M 0.585938 0.164062 L 2.746094 0.164062 L 2.746094 2.207031 L 0.585938 2.207031 Z M 0.585938 0.164062 " clip-rule="nonzero"/></clipPath><clipPath id="3f72702e08"><rect x="0" width="3" y="0" height="3"/></clipPath><clipPath id="3727b8472f"><rect x="0" width="3" y="0" height="4"/></clipPath><mask id="2748faccdf"><g filter="url(#5e9b5dd424)"><rect x="-30.9" width="370.8" fill="#000000" y="-5.325" height="63.899999" fill-opacity="0.29"/></g></mask><clipPath id="c6b0d549eb"><path d="M 0.375 1.164062 L 2.535156 1.164062 L 2.535156 3.207031 L 0.375 3.207031 Z M 0.375 1.164062 " clip-rule="nonzero"/></clipPath><clipPath id="4ae4ba06f5"><path d="M 0.375 0.164062 L 2.535156 0.164062 L 2.535156 2.207031 L 0.375 2.207031 Z M 0.375 0.164062 " clip-rule="nonzero"/></clipPath><clipPath id="41a637e5bf"><rect x="0" width="3" y="0" height="3"/></clipPath><clipPath id="615dfef08f"><rect x="0" width="3" y="0" height="4"/></clipPath><clipPath id="f1a4161dc8"><path d="M 11.210938 18.164062 L 13.367188 18.164062 L 13.367188 20.207031 L 11.210938 20.207031 Z M 11.210938 18.164062 " clip-rule="nonzero"/></clipPath><clipPath id="698b6278a3"><path d="M 0.210938 0.164062 L 2.367188 0.164062 L 2.367188 2.207031 L 0.210938 2.207031 Z M 0.210938 0.164062 " clip-rule="nonzero"/></clipPath><clipPath id="fa6f3db8be"><rect x="0" width="3" y="0" height="3"/></clipPath><clipPath id="bc4f65a9d2"><path d="M 14.042969 18.164062 L 16.203125 18.164062 L 16.203125 20.207031 L 14.042969 20.207031 Z M 14.042969 18.164062 " clip-rule="nonzero"/></clipPath><clipPath id="73d6ab027b"><path d="M 0.0429688 0.164062 L 2.203125 0.164062 L 2.203125 2.207031 L 0.0429688 2.207031 Z M 0.0429688 0.164062 " clip-rule="nonzero"/></clipPath><clipPath id="2e010ae3c3"><rect x="0" width="3" y="0" height="3"/></clipPath><mask id="174ebfaceb"><g filter="url(#5e9b5dd424)"><rect x="-30.9" width="370.8" fill="#000000" y="-5.325" height="63.899999" fill-opacity="0.29"/></g></mask><clipPath id="666cbc3f5d"><path d="M 0.585938 0.882812 L 2.746094 0.882812 L 2.746094 2.929688 L 0.585938 2.929688 Z M 0.585938 0.882812 " clip-rule="nonzero"/></clipPath><clipPath id="8a764bddc5"><path d="M 0.585938 0.882812 L 2.746094 0.882812 L 2.746094 2.929688 L 0.585938 2.929688 Z M 0.585938 0.882812 " clip-rule="nonzero"/></clipPath><clipPath id="2e65009081"><rect x="0" width="3" y="0" height="3"/></clipPath><clipPath id="28bcde899b"><rect x="0" width="3" y="0" height="3"/></clipPath><clipPath id="97ff415da8"><path d="M 8.375 20.882812 L 10.535156 20.882812 L 10.535156 22.929688 L 8.375 22.929688 Z M 8.375 20.882812 " clip-rule="nonzero"/></clipPath><clipPath id="e790c95ea9"><path d="M 0.375 0.882812 L 2.535156 0.882812 L 2.535156 2.929688 L 0.375 2.929688 Z M 0.375 0.882812 " clip-rule="nonzero"/></clipPath><clipPath id="2cd0d69247"><rect x="0" width="3" y="0" height="3"/></clipPath><clipPath id="3cafe57ec5"><path d="M 11.210938 20.882812 L 13.367188 20.882812 L 13.367188 22.929688 L 11.210938 22.929688 Z M 11.210938 20.882812 " clip-rule="nonzero"/></clipPath><clipPath id="08bf3bc33e"><path d="M 0.210938 0.882812 L 2.367188 0.882812 L 2.367188 2.929688 L 0.210938 2.929688 Z M 0.210938 0.882812 " clip-rule="nonzero"/></clipPath><clipPath id="cf7c387b5b"><rect x="0" width="3" y="0" height="3"/></clipPath><mask id="2ebf1cd612"><g filter="url(#5e9b5dd424)"><rect x="-30.9" width="370.8" fill="#000000" y="-5.325" height="63.899999" fill-opacity="0.29"/></g></mask><clipPath id="99c73e87cb"><path d="M 1.042969 0.882812 L 3.203125 0.882812 L 3.203125 2.929688 L 1.042969 2.929688 Z M 1.042969 0.882812 " clip-rule="nonzero"/></clipPath><clipPath id="bcabac0a42"><path d="M 0.0429688 0.882812 L 2.203125 0.882812 L 2.203125 2.929688 L 0.0429688 2.929688 Z M 0.0429688 0.882812 " clip-rule="nonzero"/></clipPath><clipPath id="720b0263ba"><rect x="0" width="3" y="0" height="3"/></clipPath><clipPath id="83c05b5203"><rect x="0" width="4" y="0" height="3"/></clipPath><mask id="b3048580b1"><g filter="url(#5e9b5dd424)"><rect x="-30.9" width="370.8" fill="#000000" y="-5.325" height="63.899999" fill-opacity="0.29"/></g></mask><clipPath id="1a1de3cdd1"><path d="M 0.585938 0.605469 L 2.746094 0.605469 L 2.746094 2.648438 L 0.585938 2.648438 Z M 0.585938 0.605469 " clip-rule="nonzero"/></clipPath><clipPath id="6e04e9a8a7"><path d="M 0.585938 0.605469 L 2.746094 0.605469 L 2.746094 2.648438 L 0.585938 2.648438 Z M 0.585938 0.605469 " clip-rule="nonzero"/></clipPath><clipPath id="b2a7ee2c7a"><rect x="0" width="3" y="0" height="3"/></clipPath><clipPath id="6d5ea20ae1"><rect x="0" width="3" y="0" height="3"/></clipPath><clipPath id="3ad5ff7ae0"><path d="M 8.375 23.605469 L 10.535156 23.605469 L 10.535156 25.648438 L 8.375 25.648438 Z M 8.375 23.605469 " clip-rule="nonzero"/></clipPath><clipPath id="8e8be59f47"><path d="M 0.375 0.605469 L 2.535156 0.605469 L 2.535156 2.648438 L 0.375 2.648438 Z M 0.375 0.605469 " clip-rule="nonzero"/></clipPath><clipPath id="7368d5b128"><rect x="0" width="3" y="0" height="3"/></clipPath><mask id="3509b7d59e"><g filter="url(#5e9b5dd424)"><rect x="-30.9" width="370.8" fill="#000000" y="-5.325" height="63.899999" fill-opacity="0.29"/></g></mask><clipPath id="ce40c4c47e"><path d="M 0.210938 0.605469 L 2.367188 0.605469 L 2.367188 2.648438 L 0.210938 2.648438 Z M 0.210938 0.605469 " clip-rule="nonzero"/></clipPath><clipPath id="d382c8cbe1"><path d="M 0.210938 0.605469 L 2.367188 0.605469 L 2.367188 2.648438 L 0.210938 2.648438 Z M 0.210938 0.605469 " clip-rule="nonzero"/></clipPath><clipPath id="182a675b27"><rect x="0" width="3" y="0" height="3"/></clipPath><clipPath id="afe6294656"><rect x="0" width="3" y="0" height="3"/></clipPath><mask id="f3fd59afcb"><g filter="url(#5e9b5dd424)"><rect x="-30.9" width="370.8" fill="#000000" y="-5.325" height="63.899999" fill-opacity="0.29"/></g></mask><clipPath id="2c2fc60584"><path d="M 1.042969 0.605469 L 3.203125 0.605469 L 3.203125 2.648438 L 1.042969 2.648438 Z M 1.042969 0.605469 " clip-rule="nonzero"/></clipPath><clipPath id="6f6a82a665"><path d="M 0.0429688 0.605469 L 2.203125 0.605469 L 2.203125 2.648438 L 0.0429688 2.648438 Z M 0.0429688 0.605469 " clip-rule="nonzero"/></clipPath><clipPath id="99eae73d0a"><rect x="0" width="3" y="0" height="3"/></clipPath><clipPath id="13324114a9"><rect x="0" width="4" y="0" height="3"/></clipPath><mask id="988d0350b0"><g filter="url(#5e9b5dd424)"><rect x="-30.9" width="370.8" fill="#000000" y="-5.325" height="63.899999" fill-opacity="0.29"/></g></mask><clipPath id="c7d1c7db9b"><path d="M 0.585938 0.261719 L 2.746094 0.261719 L 2.746094 2.304688 L 0.585938 2.304688 Z M 0.585938 0.261719 " clip-rule="nonzero"/></clipPath><clipPath id="23eb1ecf72"><path d="M 0.585938 0.261719 L 2.746094 0.261719 L 2.746094 2.304688 L 0.585938 2.304688 Z M 0.585938 0.261719 " clip-rule="nonzero"/></clipPath><clipPath id="86d7076f46"><rect x="0" width="3" y="0" height="3"/></clipPath><clipPath id="ed6d8b5111"><rect x="0" width="3" y="0" height="3"/></clipPath><clipPath id="e3ee65beda"><path d="M 8.375 26.261719 L 10.535156 26.261719 L 10.535156 28.304688 L 8.375 28.304688 Z M 8.375 26.261719 " clip-rule="nonzero"/></clipPath><clipPath id="1c25052302"><path d="M 0.375 0.261719 L 2.535156 0.261719 L 2.535156 2.304688 L 0.375 2.304688 Z M 0.375 0.261719 " clip-rule="nonzero"/></clipPath><clipPath id="dbbf2d032d"><rect x="0" width="3" y="0" height="3"/></clipPath><mask id="4b845e4059"><g filter="url(#5e9b5dd424)"><rect x="-30.9" width="370.8" fill="#000000" y="-5.325" height="63.899999" fill-opacity="0.29"/></g></mask><clipPath id="47a3a3f2cd"><path d="M 0.210938 0.261719 L 2.367188 0.261719 L 2.367188 2.304688 L 0.210938 2.304688 Z M 0.210938 0.261719 " clip-rule="nonzero"/></clipPath><clipPath id="d6d967bf5a"><path d="M 0.210938 0.261719 L 2.367188 0.261719 L 2.367188 2.304688 L 0.210938 2.304688 Z M 0.210938 0.261719 " clip-rule="nonzero"/></clipPath><clipPath id="8cf07c2e5a"><rect x="0" width="3" y="0" height="3"/></clipPath><clipPath id="4fc1ddcb85"><rect x="0" width="3" y="0" height="3"/></clipPath><mask id="4722af831b"><g filter="url(#5e9b5dd424)"><rect x="-30.9" width="370.8" fill="#000000" y="-5.325" height="63.899999" fill-opacity="0.29"/></g></mask><clipPath id="3db99a40fe"><path d="M 1.042969 0.261719 L 3.203125 0.261719 L 3.203125 2.304688 L 1.042969 2.304688 Z M 1.042969 0.261719 " clip-rule="nonzero"/></clipPath><clipPath id="c0fc933f8a"><path d="M 0.0429688 0.261719 L 2.203125 0.261719 L 2.203125 2.304688 L 0.0429688 2.304688 Z M 0.0429688 0.261719 " clip-rule="nonzero"/></clipPath><clipPath id="a3b3046d95"><rect x="0" width="3" y="0" height="3"/></clipPath><clipPath id="4ee849f1a7"><rect x="0" width="4" y="0" height="3"/></clipPath><mask id="cd9529cc7c"><g filter="url(#5e9b5dd424)"><rect x="-30.9" width="370.8" fill="#000000" y="-5.325" height="63.899999" fill-opacity="0.29"/></g></mask><clipPath id="1ae6a45dfa"><path d="M 0.585938 0.980469 L 2.746094 0.980469 L 2.746094 3.027344 L 0.585938 3.027344 Z M 0.585938 0.980469 " clip-rule="nonzero"/></clipPath><clipPath id="ee90477f00"><path d="M 0.585938 0.980469 L 2.746094 0.980469 L 2.746094 3.027344 L 0.585938 3.027344 Z M 0.585938 0.980469 " clip-rule="nonzero"/></clipPath><clipPath id="e799d80654"><rect x="0" width="3" y="0" height="4"/></clipPath><clipPath id="51852b97f1"><rect x="0" width="3" y="0" height="4"/></clipPath><clipPath id="e3a6254ef2"><path d="M 8.375 28.980469 L 10.535156 28.980469 L 10.535156 31.027344 L 8.375 31.027344 Z M 8.375 28.980469 " clip-rule="nonzero"/></clipPath><clipPath id="c2287b3f2d"><path d="M 0.375 0.980469 L 2.535156 0.980469 L 2.535156 3.027344 L 0.375 3.027344 Z M 0.375 0.980469 " clip-rule="nonzero"/></clipPath><clipPath id="8f9264cf56"><rect x="0" width="3" y="0" height="4"/></clipPath><clipPath id="d53ab8ba64"><path d="M 11.210938 28.980469 L 13.367188 28.980469 L 13.367188 31.027344 L 11.210938 31.027344 Z M 11.210938 28.980469 " clip-rule="nonzero"/></clipPath><clipPath id="45869e5336"><path d="M 0.210938 0.980469 L 2.367188 0.980469 L 2.367188 3.027344 L 0.210938 3.027344 Z M 0.210938 0.980469 " clip-rule="nonzero"/></clipPath><clipPath id="d106ba3a47"><rect x="0" width="3" y="0" height="4"/></clipPath><mask id="3acf620536"><g filter="url(#5e9b5dd424)"><rect x="-30.9" width="370.8" fill="#000000" y="-5.325" height="63.899999" fill-opacity="0.29"/></g></mask><clipPath id="c89dae3948"><path d="M 1.042969 0.980469 L 3.203125 0.980469 L 3.203125 3.027344 L 1.042969 3.027344 Z M 1.042969 0.980469 " clip-rule="nonzero"/></clipPath><clipPath id="359d054d4d"><path d="M 0.0429688 0.980469 L 2.203125 0.980469 L 2.203125 3.027344 L 0.0429688 3.027344 Z M 0.0429688 0.980469 " clip-rule="nonzero"/></clipPath><clipPath id="db21987bd5"><rect x="0" width="3" y="0" height="4"/></clipPath><clipPath id="be15289dc7"><rect x="0" width="4" y="0" height="4"/></clipPath><clipPath id="6a24c99672"><path d="M 16.878906 31.703125 L 19.035156 31.703125 L 19.035156 33.746094 L 16.878906 33.746094 Z M 16.878906 31.703125 " clip-rule="nonzero"/></clipPath><clipPath id="86b1f6f321"><path d="M 0.878906 0.703125 L 3.035156 0.703125 L 3.035156 2.746094 L 0.878906 2.746094 Z M 0.878906 0.703125 " clip-rule="nonzero"/></clipPath><clipPath id="0cdd14bafb"><rect x="0" width="4" y="0" height="3"/></clipPath><clipPath id="18d8be3d9a"><path d="M 19.667969 31.703125 L 21.824219 31.703125 L 21.824219 33.746094 L 19.667969 33.746094 Z M 19.667969 31.703125 " clip-rule="nonzero"/></clipPath><clipPath id="38d7abfb08"><path d="M 0.667969 0.703125 L 2.824219 0.703125 L 2.824219 2.746094 L 0.667969 2.746094 Z M 0.667969 0.703125 " clip-rule="nonzero"/></clipPath><clipPath id="ef60217002"><rect x="0" width="3" y="0" height="3"/></clipPath><mask id="f29d739245"><g filter="url(#5e9b5dd424)"><rect x="-30.9" width="370.8" fill="#000000" y="-5.325" height="63.899999" fill-opacity="0.29"/></g></mask><clipPath id="5f82a2e0b7"><path d="M 0.5 0.703125 L 2.660156 0.703125 L 2.660156 2.746094 L 0.5 2.746094 Z M 0.5 0.703125 " clip-rule="nonzero"/></clipPath><clipPath id="8b245cae1b"><path d="M 0.5 0.703125 L 2.660156 0.703125 L 2.660156 2.746094 L 0.5 2.746094 Z M 0.5 0.703125 " clip-rule="nonzero"/></clipPath><clipPath id="5c2a66f11c"><rect x="0" width="3" y="0" height="3"/></clipPath><clipPath id="2e5ff771fc"><rect x="0" width="3" y="0" height="3"/></clipPath><mask id="40cbba422e"><g filter="url(#5e9b5dd424)"><rect x="-30.9" width="370.8" fill="#000000" y="-5.325" height="63.899999" fill-opacity="0.29"/></g></mask><clipPath id="49f2c76567"><path d="M 0.335938 0.703125 L 2.492188 0.703125 L 2.492188 2.746094 L 0.335938 2.746094 Z M 0.335938 0.703125 " clip-rule="nonzero"/></clipPath><clipPath id="cdb5cdc5de"><path d="M 0.335938 0.703125 L 2.492188 0.703125 L 2.492188 2.746094 L 0.335938 2.746094 Z M 0.335938 0.703125 " clip-rule="nonzero"/></clipPath><clipPath id="a547005edb"><rect x="0" width="3" y="0" height="3"/></clipPath><clipPath id="3fb19becf3"><rect x="0" width="3" y="0" height="3"/></clipPath><mask id="47182c0444"><g filter="url(#5e9b5dd424)"><rect x="-30.9" width="370.8" fill="#000000" y="-5.325" height="63.899999" fill-opacity="0.29"/></g></mask><clipPath id="3536fe53c4"><path d="M 0.878906 0.421875 L 3.035156 0.421875 L 3.035156 2.464844 L 0.878906 2.464844 Z M 0.878906 0.421875 " clip-rule="nonzero"/></clipPath><clipPath id="b8733cb2e0"><path d="M 0.878906 0.421875 L 3.035156 0.421875 L 3.035156 2.464844 L 0.878906 2.464844 Z M 0.878906 0.421875 " clip-rule="nonzero"/></clipPath><clipPath id="06f5765c8c"><rect x="0" width="4" y="0" height="3"/></clipPath><clipPath id="1943f74d74"><rect x="0" width="4" y="0" height="3"/></clipPath><mask id="24a5bf0182"><g filter="url(#5e9b5dd424)"><rect x="-30.9" width="370.8" fill="#000000" y="-5.325" height="63.899999" fill-opacity="0.29"/></g></mask><clipPath id="bd5320e2d6"><path d="M 0.667969 0.421875 L 2.824219 0.421875 L 2.824219 2.464844 L 0.667969 2.464844 Z M 0.667969 0.421875 " clip-rule="nonzero"/></clipPath><clipPath id="cab83f48e0"><path d="M 0.667969 0.421875 L 2.824219 0.421875 L 2.824219 2.464844 L 0.667969 2.464844 Z M 0.667969 0.421875 " clip-rule="nonzero"/></clipPath><clipPath id="949940d8f4"><rect x="0" width="3" y="0" height="3"/></clipPath><clipPath id="791b61b591"><rect x="0" width="4" y="0" height="3"/></clipPath><mask id="b04ac8a896"><g filter="url(#5e9b5dd424)"><rect x="-30.9" width="370.8" fill="#000000" y="-5.325" height="63.899999" fill-opacity="0.29"/></g></mask><clipPath id="6c44a573a3"><path d="M 0.5 0.421875 L 2.660156 0.421875 L 2.660156 2.464844 L 0.5 2.464844 Z M 0.5 0.421875 " clip-rule="nonzero"/></clipPath><clipPath id="7b0d979e4f"><path d="M 0.5 0.421875 L 2.660156 0.421875 L 2.660156 2.464844 L 0.5 2.464844 Z M 0.5 0.421875 " clip-rule="nonzero"/></clipPath><clipPath id="e78eec2af7"><rect x="0" width="3" y="0" height="3"/></clipPath><clipPath id="4d19451cb9"><rect x="0" width="3" y="0" height="3"/></clipPath><mask id="c47c566dc6"><g filter="url(#5e9b5dd424)"><rect x="-30.9" width="370.8" fill="#000000" y="-5.325" height="63.899999" fill-opacity="0.29"/></g></mask><clipPath id="776a8b3c4c"><path d="M 0.335938 0.421875 L 2.492188 0.421875 L 2.492188 2.464844 L 0.335938 2.464844 Z M 0.335938 0.421875 " clip-rule="nonzero"/></clipPath><clipPath id="0238b7a3ec"><path d="M 0.335938 0.421875 L 2.492188 0.421875 L 2.492188 2.464844 L 0.335938 2.464844 Z M 0.335938 0.421875 " clip-rule="nonzero"/></clipPath><clipPath id="d3ff5feb69"><rect x="0" width="3" y="0" height="3"/></clipPath><clipPath id="38b4613bc8"><rect x="0" width="3" y="0" height="3"/></clipPath><mask id="763bc071ef"><g filter="url(#5e9b5dd424)"><rect x="-30.9" width="370.8" fill="#000000" y="-5.325" height="63.899999" fill-opacity="0.29"/></g></mask><clipPath id="84372eda54"><path d="M 0.585938 0.703125 L 2.746094 0.703125 L 2.746094 2.746094 L 0.585938 2.746094 Z M 0.585938 0.703125 " clip-rule="nonzero"/></clipPath><clipPath id="654cf9ccee"><path d="M 0.585938 0.703125 L 2.746094 0.703125 L 2.746094 2.746094 L 0.585938 2.746094 Z M 0.585938 0.703125 " clip-rule="nonzero"/></clipPath><clipPath id="19de40919d"><rect x="0" width="3" y="0" height="3"/></clipPath><clipPath id="f9958ed667"><rect x="0" width="3" y="0" height="3"/></clipPath><mask id="3b1fdebf7a"><g filter="url(#5e9b5dd424)"><rect x="-30.9" width="370.8" fill="#000000" y="-5.325" height="63.899999" fill-opacity="0.29"/></g></mask><clipPath id="6f8d9fad61"><path d="M 0.375 0.703125 L 2.535156 0.703125 L 2.535156 2.746094 L 0.375 2.746094 Z M 0.375 0.703125 " clip-rule="nonzero"/></clipPath><clipPath id="7e0c945080"><path d="M 0.375 0.703125 L 2.535156 0.703125 L 2.535156 2.746094 L 0.375 2.746094 Z M 0.375 0.703125 " clip-rule="nonzero"/></clipPath><clipPath id="6527c7db04"><rect x="0" width="3" y="0" height="3"/></clipPath><clipPath id="8e652a0a7d"><rect x="0" width="3" y="0" height="3"/></clipPath><clipPath id="35bd27e76f"><path d="M 11.210938 31.703125 L 13.367188 31.703125 L 13.367188 33.746094 L 11.210938 33.746094 Z M 11.210938 31.703125 " clip-rule="nonzero"/></clipPath><clipPath id="17ea4ce25b"><path d="M 0.210938 0.703125 L 2.367188 0.703125 L 2.367188 2.746094 L 0.210938 2.746094 Z M 0.210938 0.703125 " clip-rule="nonzero"/></clipPath><clipPath id="d4be1fe5bd"><rect x="0" width="3" y="0" height="3"/></clipPath><clipPath id="245ce5d2cd"><path d="M 14.042969 31.703125 L 16.203125 31.703125 L 16.203125 33.746094 L 14.042969 33.746094 Z M 14.042969 31.703125 " clip-rule="nonzero"/></clipPath><clipPath id="07149533f6"><path d="M 0.0429688 0.703125 L 2.203125 0.703125 L 2.203125 2.746094 L 0.0429688 2.746094 Z M 0.0429688 0.703125 " clip-rule="nonzero"/></clipPath><clipPath id="0076fb3af8"><rect x="0" width="3" y="0" height="3"/></clipPath><mask id="f9a4648942"><g filter="url(#5e9b5dd424)"><rect x="-30.9" width="370.8" fill="#000000" y="-5.325" height="63.899999" fill-opacity="0.29"/></g></mask><clipPath id="f3030e552f"><path d="M 0.585938 0.421875 L 2.746094 0.421875 L 2.746094 2.464844 L 0.585938 2.464844 Z M 0.585938 0.421875 " clip-rule="nonzero"/></clipPath><clipPath id="b32bd61e2f"><path d="M 0.585938 0.421875 L 2.746094 0.421875 L 2.746094 2.464844 L 0.585938 2.464844 Z M 0.585938 0.421875 " clip-rule="nonzero"/></clipPath><clipPath id="8206e00469"><rect x="0" width="3" y="0" height="3"/></clipPath><clipPath id="fc603566c2"><rect x="0" width="3" y="0" height="3"/></clipPath><mask id="3362549a89"><g filter="url(#5e9b5dd424)"><rect x="-30.9" width="370.8" fill="#000000" y="-5.325" height="63.899999" fill-opacity="0.29"/></g></mask><clipPath id="d394b61fde"><path d="M 0.375 0.421875 L 2.535156 0.421875 L 2.535156 2.464844 L 0.375 2.464844 Z M 0.375 0.421875 " clip-rule="nonzero"/></clipPath><clipPath id="708a6b1fce"><path d="M 0.375 0.421875 L 2.535156 0.421875 L 2.535156 2.464844 L 0.375 2.464844 Z M 0.375 0.421875 " clip-rule="nonzero"/></clipPath><clipPath id="fb87aef523"><rect x="0" width="3" y="0" height="3"/></clipPath><clipPath id="b5d743fcc7"><rect x="0" width="3" y="0" height="3"/></clipPath><mask id="49f4d725b2"><g filter="url(#5e9b5dd424)"><rect x="-30.9" width="370.8" fill="#000000" y="-5.325" height="63.899999" fill-opacity="0.29"/></g></mask><clipPath id="cf1491e6cd"><path d="M 0.210938 0.421875 L 2.367188 0.421875 L 2.367188 2.464844 L 0.210938 2.464844 Z M 0.210938 0.421875 " clip-rule="nonzero"/></clipPath><clipPath id="48be6884ad"><path d="M 0.210938 0.421875 L 2.367188 0.421875 L 2.367188 2.464844 L 0.210938 2.464844 Z M 0.210938 0.421875 " clip-rule="nonzero"/></clipPath><clipPath id="c224bd9a8e"><rect x="0" width="3" y="0" height="3"/></clipPath><clipPath id="4aaeb976c4"><rect x="0" width="3" y="0" height="3"/></clipPath><mask id="3f2cafb177"><g filter="url(#5e9b5dd424)"><rect x="-30.9" width="370.8" fill="#000000" y="-5.325" height="63.899999" fill-opacity="0.29"/></g></mask><clipPath id="af08632464"><path d="M 1.042969 0.421875 L 3.203125 0.421875 L 3.203125 2.464844 L 1.042969 2.464844 Z M 1.042969 0.421875 " clip-rule="nonzero"/></clipPath><clipPath id="3031bb19ac"><path d="M 0.0429688 0.421875 L 2.203125 0.421875 L 2.203125 2.464844 L 0.0429688 2.464844 Z M 0.0429688 0.421875 " clip-rule="nonzero"/></clipPath><clipPath id="02e5d8a245"><rect x="0" width="3" y="0" height="3"/></clipPath><clipPath id="1471b81d6b"><rect x="0" width="4" y="0" height="3"/></clipPath><clipPath id="609a68b4e8"><path d="M 93.605469 8.476562 L 97.300781 8.476562 L 97.300781 43.496094 L 93.605469 43.496094 Z M 93.605469 8.476562 " clip-rule="nonzero"/></clipPath><clipPath id="4f07104f49"><path d="M 0.605469 0.476562 L 4.300781 0.476562 L 4.300781 35.496094 L 0.605469 35.496094 Z M 0.605469 0.476562 " clip-rule="nonzero"/></clipPath><clipPath id="4a2f93e048"><rect x="0" width="5" y="0" height="36"/></clipPath><clipPath id="0b3dc65fe2"><path d="M 76 23 L 86 23 L 86 37.785156 L 76 37.785156 Z M 76 23 " clip-rule="nonzero"/></clipPath><clipPath id="0242ab3869"><rect x="0" width="195" y="0" height="38"/></clipPath></defs><g clip-path="url(#210d190ec1)"><g transform="matrix(1, 0, 0, 1, 2, 37)"><g clip-path="url(#0526a9af34)"><g clip-path="url(#76bac26f55)"><path fill="#ffffff" d="M 0.148438 2.800781 L 0.148438 0.40625 L 7.613281 0.40625 L 7.613281 2.800781 Z M 0.148438 2.800781 " fill-opacity="1" fill-rule="nonzero"/></g></g></g></g><g clip-path="url(#730c4a4fa0)"><g transform="matrix(1, 0, 0, 1, 23, 37)"><g clip-path="url(#afb78db51f)"><g clip-path="url(#48707ea2f8)"><path fill="#ffffff" d="M 7.8125 0.410156 L 7.8125 2.804688 L 0.457031 2.804688 L 0.457031 0.410156 Z M 7.8125 0.410156 " fill-opacity="1" fill-rule="nonzero"/></g></g></g></g><g clip-path="url(#f637cecb05)"><g transform="matrix(1, 0, 0, 1, 2, 12)"><g clip-path="url(#fb05da1578)"><g clip-path="url(#0912d79a4e)"><path fill="#ffffff" d="M 0.144531 0.167969 L 2.679688 0.167969 L 2.679688 27.804688 L 0.144531 27.804688 Z M 0.144531 0.167969 " fill-opacity="1" fill-rule="nonzero"/></g></g></g></g><g clip-path="url(#54e8df33aa)"><g transform="matrix(1, 0, 0, 1, 2, 12)"><g clip-path="url(#e8d37624b9)"><g clip-path="url(#57dca16767)"><path fill="#ffffff" d="M 0.148438 2.558594 L 0.148438 0.164062 L 7.613281 0.164062 L 7.613281 2.558594 Z M 0.148438 2.558594 " fill-opacity="1" fill-rule="nonzero"/></g></g></g></g><g clip-path="url(#c99672be6b)"><g transform="matrix(1, 0, 0, 1, 28, 12)"><g clip-path="url(#366f9abc3b)"><g clip-path="url(#b0f80dc96e)"><path fill="#ffffff" d="M 2.804688 27.800781 L 0.390625 27.800781 L 0.390625 0.160156 L 2.804688 0.160156 Z M 2.804688 27.800781 " fill-opacity="1" fill-rule="nonzero"/></g></g></g></g><g clip-path="url(#3a51aeb49b)"><g transform="matrix(1, 0, 0, 1, 23, 12)"><g clip-path="url(#8b60b3d2fb)"><g clip-path="url(#37b566d9bd)"><path fill="#ffffff" d="M 7.8125 0.167969 L 7.8125 2.5625 L 0.457031 2.5625 L 0.457031 0.167969 Z M 7.8125 0.167969 " fill-opacity="1" fill-rule="nonzero"/></g></g></g></g><g transform="matrix(1, 0, 0, 1, 31, 8)"><g clip-path="url(#5c813c4818)"><g fill="#ffffff" fill-opacity="1"><g transform="translate(0.887671, 28.476089)"><g><path d="M 21.234375 -20.5 L 21.234375 0 L 17.328125 0 L 7.109375 -12.4375 L 7.109375 0 L 2.4375 0 L 2.4375 -20.5 L 6.359375 -20.5 L 16.546875 -8.046875 L 16.546875 -20.5 Z M 21.234375 -20.5 "/></g></g></g><g fill="#ffffff" fill-opacity="1"><g transform="translate(24.54912, 28.476089)"><g><path d="M 2.4375 -20.5 L 7.171875 -20.5 L 7.171875 0 L 2.4375 0 Z M 2.4375 -20.5 "/></g></g></g><g fill="#ffffff" fill-opacity="1"><g transform="translate(34.154263, 28.476089)"><g><path d="M 15.921875 -4.390625 L 6.40625 -4.390625 L 4.59375 0 L -0.265625 0 L 8.875 -20.5 L 13.5625 -20.5 L 22.71875 0 L 17.75 0 Z M 14.4375 -8 L 11.1875 -15.84375 L 7.9375 -8 Z M 14.4375 -8 "/></g></g></g></g></g><g mask="url(#efc1be42ed)"><g transform="matrix(1, 0, 0, 1, 16, 15)"><g clip-path="url(#607d63ab43)"><g clip-path="url(#127c48a65d)"><g transform="matrix(1, 0, 0, 1, -0.000000000000003553, -0.000000000000008882)"><g clip-path="url(#b7911cb3f9)"><g clip-path="url(#2f5b7c843b)"><path fill="#8c52ff" d="M 0.878906 0.507812 L 3.035156 0.507812 L 3.035156 2.550781 L 0.878906 2.550781 Z M 0.878906 0.507812 " fill-opacity="1" fill-rule="nonzero"/></g></g></g></g></g></g></g><g mask="url(#9a10180ac9)"><g transform="matrix(1, 0, 0, 1, 19, 15)"><g clip-path="url(#045449db30)"><g clip-path="url(#7d133c150e)"><g transform="matrix(1, 0, 0, 1, -0.000000000000003553, -0.000000000000008882)"><g clip-path="url(#ae2dfae276)"><g clip-path="url(#0f486be0e9)"><path fill="#8c52ff" d="M 0.667969 0.507812 L 2.824219 0.507812 L 2.824219 2.550781 L 0.667969 2.550781 Z M 0.667969 0.507812 " fill-opacity="1" fill-rule="nonzero"/></g></g></g></g></g></g></g><g mask="url(#377a3631cd)"><g transform="matrix(1, 0, 0, 1, 22, 15)"><g clip-path="url(#9d49b82648)"><g clip-path="url(#cce61e1e84)"><g transform="matrix(1, 0, 0, 1, -0.000000000000003553, -0.000000000000008882)"><g clip-path="url(#b628cfa874)"><g clip-path="url(#99c213b9fe)"><path fill="#8c52ff" d="M 0.5 0.507812 L 2.65625 0.507812 L 2.65625 2.550781 L 0.5 2.550781 Z M 0.5 0.507812 " fill-opacity="1" fill-rule="nonzero"/></g></g></g></g></g></g></g><g mask="url(#6c35319640)"><g transform="matrix(1, 0, 0, 1, 25, 15)"><g clip-path="url(#95a73b08fb)"><g clip-path="url(#1667f30e12)"><g transform="matrix(1, 0, 0, 1, -0.000000000000003553, -0.000000000000008882)"><g clip-path="url(#45fa31b83c)"><g clip-path="url(#f45989c073)"><path fill="#8c52ff" d="M 0.335938 0.507812 L 2.492188 0.507812 L 2.492188 2.550781 L 0.335938 2.550781 Z M 0.335938 0.507812 " fill-opacity="1" fill-rule="nonzero"/></g></g></g></g></g></g></g><g clip-path="url(#467a32522e)"><g transform="matrix(1, 0, 0, 1, 16, 18)"><g clip-path="url(#ffaaa80986)"><g clip-path="url(#9c191112d3)"><path fill="#8c52ff" d="M 0.878906 0.164062 L 3.035156 0.164062 L 3.035156 2.207031 L 0.878906 2.207031 Z M 0.878906 0.164062 " fill-opacity="1" fill-rule="nonzero"/></g></g></g></g><g clip-path="url(#14926a10df)"><g transform="matrix(1, 0, 0, 1, 19, 18)"><g clip-path="url(#e0d1c00c51)"><g clip-path="url(#ccf9e0e228)"><path fill="#8c52ff" d="M 0.667969 0.164062 L 2.824219 0.164062 L 2.824219 2.207031 L 0.667969 2.207031 Z M 0.667969 0.164062 " fill-opacity="1" fill-rule="nonzero"/></g></g></g></g><g mask="url(#cd14125fdc)"><g transform="matrix(1, 0, 0, 1, 22, 17)"><g clip-path="url(#9818a3897b)"><g clip-path="url(#024b57d73a)"><g transform="matrix(1, 0, 0, 1, -0.000000000000003553, 1)"><g clip-path="url(#bcda23e5ef)"><g clip-path="url(#c58bfd6377)"><path fill="#8c52ff" d="M 0.5 0.164062 L 2.65625 0.164062 L 2.65625 2.207031 L 0.5 2.207031 Z M 0.5 0.164062 " fill-opacity="1" fill-rule="nonzero"/></g></g></g></g></g></g></g><g mask="url(#e3fdc8e393)"><g transform="matrix(1, 0, 0, 1, 25, 17)"><g clip-path="url(#239b180284)"><g clip-path="url(#a5026f06de)"><g transform="matrix(1, 0, 0, 1, -0.000000000000003553, 1)"><g clip-path="url(#24e05f0263)"><g clip-path="url(#7b98174f24)"><path fill="#8c52ff" d="M 0.335938 0.164062 L 2.492188 0.164062 L 2.492188 2.207031 L 0.335938 2.207031 Z M 0.335938 0.164062 " fill-opacity="1" fill-rule="nonzero"/></g></g></g></g></g></g></g><g mask="url(#91a5ef8b85)"><g transform="matrix(1, 0, 0, 1, 16, 20)"><g clip-path="url(#f636aa2088)"><g clip-path="url(#2b16570798)"><g transform="matrix(1, 0, 0, 1, -0.000000000000003553, -0.000000000000007105)"><g clip-path="url(#df57010c65)"><g clip-path="url(#e69951a6d4)"><path fill="#8c52ff" d="M 0.878906 0.882812 L 3.035156 0.882812 L 3.035156 2.929688 L 0.878906 2.929688 Z M 0.878906 0.882812 " fill-opacity="1" fill-rule="nonzero"/></g></g></g></g></g></g></g><g clip-path="url(#381b180c5e)"><g transform="matrix(1, 0, 0, 1, 19, 20)"><g clip-path="url(#42efc3402e)"><g clip-path="url(#e4a2c98ce4)"><path fill="#8c52ff" d="M 0.667969 0.882812 L 2.824219 0.882812 L 2.824219 2.929688 L 0.667969 2.929688 Z M 0.667969 0.882812 " fill-opacity="1" fill-rule="nonzero"/></g></g></g></g><g clip-path="url(#965ed1c867)"><g transform="matrix(1, 0, 0, 1, 22, 20)"><g clip-path="url(#6b44b87d69)"><g clip-path="url(#a1f1c71f2b)"><path fill="#8c52ff" d="M 0.5 0.882812 L 2.65625 0.882812 L 2.65625 2.929688 L 0.5 2.929688 Z M 0.5 0.882812 " fill-opacity="1" fill-rule="nonzero"/></g></g></g></g><g mask="url(#4ed47b3365)"><g transform="matrix(1, 0, 0, 1, 25, 20)"><g clip-path="url(#57efa1bb14)"><g clip-path="url(#430bee458b)"><g transform="matrix(1, 0, 0, 1, -0.000000000000003553, -0.000000000000007105)"><g clip-path="url(#2c5f4391a7)"><g clip-path="url(#772836d9e2)"><path fill="#8c52ff" d="M 0.335938 0.882812 L 2.492188 0.882812 L 2.492188 2.929688 L 0.335938 2.929688 Z M 0.335938 0.882812 " fill-opacity="1" fill-rule="nonzero"/></g></g></g></g></g></g></g><g mask="url(#2435187101)"><g transform="matrix(1, 0, 0, 1, 16, 23)"><g clip-path="url(#96404c3600)"><g clip-path="url(#83d4a6701e)"><g transform="matrix(1, 0, 0, 1, -0.000000000000003553, -0.000000000000010658)"><g clip-path="url(#2ef6b3ca73)"><g clip-path="url(#718a243be7)"><path fill="#8c52ff" d="M 0.878906 0.605469 L 3.035156 0.605469 L 3.035156 2.648438 L 0.878906 2.648438 Z M 0.878906 0.605469 " fill-opacity="1" fill-rule="nonzero"/></g></g></g></g></g></g></g><g mask="url(#e55f25831c)"><g transform="matrix(1, 0, 0, 1, 19, 23)"><g clip-path="url(#7cf1859aef)"><g clip-path="url(#5553057fde)"><g transform="matrix(1, 0, 0, 1, -0.000000000000003553, -0.000000000000010658)"><g clip-path="url(#4b2569c205)"><g clip-path="url(#a2c79d9f36)"><path fill="#8c52ff" d="M 0.667969 0.605469 L 2.824219 0.605469 L 2.824219 2.648438 L 0.667969 2.648438 Z M 0.667969 0.605469 " fill-opacity="1" fill-rule="nonzero"/></g></g></g></g></g></g></g><g clip-path="url(#6ebc950a0e)"><g transform="matrix(1, 0, 0, 1, 22, 23)"><g clip-path="url(#0cfddab6c6)"><g clip-path="url(#5502507e49)"><path fill="#8c52ff" d="M 0.5 0.605469 L 2.65625 0.605469 L 2.65625 2.648438 L 0.5 2.648438 Z M 0.5 0.605469 " fill-opacity="1" fill-rule="nonzero"/></g></g></g></g><g mask="url(#1495376b58)"><g transform="matrix(1, 0, 0, 1, 25, 23)"><g clip-path="url(#e19d8347d9)"><g clip-path="url(#8a1333e30c)"><g transform="matrix(1, 0, 0, 1, -0.000000000000003553, -0.000000000000010658)"><g clip-path="url(#39ed4931e1)"><g clip-path="url(#127fe97888)"><path fill="#8c52ff" d="M 0.335938 0.605469 L 2.492188 0.605469 L 2.492188 2.648438 L 0.335938 2.648438 Z M 0.335938 0.605469 " fill-opacity="1" fill-rule="nonzero"/></g></g></g></g></g></g></g><g mask="url(#6e4dfb8486)"><g transform="matrix(1, 0, 0, 1, 16, 26)"><g clip-path="url(#9c45f80018)"><g clip-path="url(#92627fb300)"><g transform="matrix(1, 0, 0, 1, -0.000000000000003553, -0.000000000000014211)"><g clip-path="url(#63b9117014)"><g clip-path="url(#35da6c4e1c)"><path fill="#8c52ff" d="M 0.878906 0.261719 L 3.035156 0.261719 L 3.035156 2.304688 L 0.878906 2.304688 Z M 0.878906 0.261719 " fill-opacity="1" fill-rule="nonzero"/></g></g></g></g></g></g></g><g mask="url(#19f4b48f6a)"><g transform="matrix(1, 0, 0, 1, 19, 26)"><g clip-path="url(#f5f68f5436)"><g clip-path="url(#1649bee2ab)"><g transform="matrix(1, 0, 0, 1, -0.000000000000003553, -0.000000000000014211)"><g clip-path="url(#6014299a50)"><g clip-path="url(#3d59a92f46)"><path fill="#8c52ff" d="M 0.667969 0.261719 L 2.824219 0.261719 L 2.824219 2.304688 L 0.667969 2.304688 Z M 0.667969 0.261719 " fill-opacity="1" fill-rule="nonzero"/></g></g></g></g></g></g></g><g mask="url(#19730e3345)"><g transform="matrix(1, 0, 0, 1, 22, 26)"><g clip-path="url(#7a5fe562a9)"><g clip-path="url(#6d10226a68)"><g transform="matrix(1, 0, 0, 1, -0.000000000000003553, -0.000000000000014211)"><g clip-path="url(#f4c4564a44)"><g clip-path="url(#8b7c3acaae)"><path fill="#8c52ff" d="M 0.5 0.261719 L 2.65625 0.261719 L 2.65625 2.304688 L 0.5 2.304688 Z M 0.5 0.261719 " fill-opacity="1" fill-rule="nonzero"/></g></g></g></g></g></g></g><g mask="url(#9132f15ebf)"><g transform="matrix(1, 0, 0, 1, 25, 26)"><g clip-path="url(#9a03b9b9ba)"><g clip-path="url(#212ef85d32)"><g transform="matrix(1, 0, 0, 1, -0.000000000000003553, -0.000000000000014211)"><g clip-path="url(#5d8ff5b0d4)"><g clip-path="url(#ebc90b4c10)"><path fill="#8c52ff" d="M 0.335938 0.261719 L 2.492188 0.261719 L 2.492188 2.304688 L 0.335938 2.304688 Z M 0.335938 0.261719 " fill-opacity="1" fill-rule="nonzero"/></g></g></g></g></g></g></g><g mask="url(#1b20a3a092)"><g transform="matrix(1, 0, 0, 1, 16, 28)"><g clip-path="url(#fb268c64fe)"><g clip-path="url(#f78edf3134)"><g transform="matrix(1, 0, 0, 1, -0.000000000000003553, -0.000000000000014211)"><g clip-path="url(#9d12ea9b36)"><g clip-path="url(#12e207f438)"><path fill="#8c52ff" d="M 0.878906 0.980469 L 3.035156 0.980469 L 3.035156 3.027344 L 0.878906 3.027344 Z M 0.878906 0.980469 " fill-opacity="1" fill-rule="nonzero"/></g></g></g></g></g></g></g><g clip-path="url(#ef1050c558)"><g transform="matrix(1, 0, 0, 1, 19, 28)"><g clip-path="url(#cb2d8d2a0f)"><g clip-path="url(#82fc9c9d03)"><path fill="#8c52ff" d="M 0.667969 0.980469 L 2.824219 0.980469 L 2.824219 3.027344 L 0.667969 3.027344 Z M 0.667969 0.980469 " fill-opacity="1" fill-rule="nonzero"/></g></g></g></g><g clip-path="url(#4810cb15e9)"><g transform="matrix(1, 0, 0, 1, 22, 28)"><g clip-path="url(#3e7a5b326e)"><g clip-path="url(#d74d1e5a2e)"><path fill="#8c52ff" d="M 0.5 0.980469 L 2.65625 0.980469 L 2.65625 3.027344 L 0.5 3.027344 Z M 0.5 0.980469 " fill-opacity="1" fill-rule="nonzero"/></g></g></g></g><g mask="url(#744cca70b8)"><g transform="matrix(1, 0, 0, 1, 25, 28)"><g clip-path="url(#dd5c7179b0)"><g clip-path="url(#e0ed929a25)"><g transform="matrix(1, 0, 0, 1, -0.000000000000003553, -0.000000000000014211)"><g clip-path="url(#964b74cb4a)"><g clip-path="url(#9713d8c910)"><path fill="#8c52ff" d="M 0.335938 0.980469 L 2.492188 0.980469 L 2.492188 3.027344 L 0.335938 3.027344 Z M 0.335938 0.980469 " fill-opacity="1" fill-rule="nonzero"/></g></g></g></g></g></g></g><g mask="url(#abdaa2ebbf)"><g transform="matrix(1, 0, 0, 1, 5, 15)"><g clip-path="url(#03fe3a54ae)"><g clip-path="url(#892d36ecdb)"><g transform="matrix(1, 0, 0, 1, 0, -0.000000000000008882)"><g clip-path="url(#5022fe5123)"><g clip-path="url(#0398db0ddb)"><path fill="#8c52ff" d="M 0.585938 0.507812 L 2.742188 0.507812 L 2.742188 2.550781 L 0.585938 2.550781 Z M 0.585938 0.507812 " fill-opacity="1" fill-rule="nonzero"/></g></g></g></g></g></g></g><g mask="url(#604ae6129c)"><g transform="matrix(1, 0, 0, 1, 8, 15)"><g clip-path="url(#072d63cabb)"><g clip-path="url(#3e0d9e8874)"><g transform="matrix(1, 0, 0, 1, 0, -0.000000000000008882)"><g clip-path="url(#f23f7279c8)"><g clip-path="url(#8c4ce03a10)"><path fill="#8c52ff" d="M 0.375 0.507812 L 2.53125 0.507812 L 2.53125 2.550781 L 0.375 2.550781 Z M 0.375 0.507812 " fill-opacity="1" fill-rule="nonzero"/></g></g></g></g></g></g></g><g mask="url(#9e39849960)"><g transform="matrix(1, 0, 0, 1, 11, 15)"><g clip-path="url(#edccf7fbf5)"><g clip-path="url(#232f0b4e1a)"><g transform="matrix(1, 0, 0, 1, 0, -0.000000000000008882)"><g clip-path="url(#1f5f8e82c2)"><g clip-path="url(#51c4278ad3)"><path fill="#8c52ff" d="M 0.210938 0.507812 L 2.367188 0.507812 L 2.367188 2.550781 L 0.210938 2.550781 Z M 0.210938 0.507812 " fill-opacity="1" fill-rule="nonzero"/></g></g></g></g></g></g></g><g mask="url(#0e87131049)"><g transform="matrix(1, 0, 0, 1, 13, 15)"><g clip-path="url(#756e50b9ac)"><g clip-path="url(#2f30aba692)"><g transform="matrix(1, 0, 0, 1, 1, -0.000000000000008882)"><g clip-path="url(#9467fbb769)"><g clip-path="url(#784f50c9d9)"><path fill="#8c52ff" d="M 0.0429688 0.507812 L 2.199219 0.507812 L 2.199219 2.550781 L 0.0429688 2.550781 Z M 0.0429688 0.507812 " fill-opacity="1" fill-rule="nonzero"/></g></g></g></g></g></g></g><g mask="url(#6fd746fc53)"><g transform="matrix(1, 0, 0, 1, 5, 17)"><g clip-path="url(#3727b8472f)"><g clip-path="url(#5fa2ee8182)"><g transform="matrix(1, 0, 0, 1, 0, 1)"><g clip-path="url(#3f72702e08)"><g clip-path="url(#4d33ca9f42)"><path fill="#8c52ff" d="M 0.585938 0.164062 L 2.742188 0.164062 L 2.742188 2.207031 L 0.585938 2.207031 Z M 0.585938 0.164062 " fill-opacity="1" fill-rule="nonzero"/></g></g></g></g></g></g></g><g mask="url(#2748faccdf)"><g transform="matrix(1, 0, 0, 1, 8, 17)"><g clip-path="url(#615dfef08f)"><g clip-path="url(#c6b0d549eb)"><g transform="matrix(1, 0, 0, 1, 0, 1)"><g clip-path="url(#41a637e5bf)"><g clip-path="url(#4ae4ba06f5)"><path fill="#8c52ff" d="M 0.375 0.164062 L 2.53125 0.164062 L 2.53125 2.207031 L 0.375 2.207031 Z M 0.375 0.164062 " fill-opacity="1" fill-rule="nonzero"/></g></g></g></g></g></g></g><g clip-path="url(#f1a4161dc8)"><g transform="matrix(1, 0, 0, 1, 11, 18)"><g clip-path="url(#fa6f3db8be)"><g clip-path="url(#698b6278a3)"><path fill="#8c52ff" d="M 0.210938 0.164062 L 2.367188 0.164062 L 2.367188 2.207031 L 0.210938 2.207031 Z M 0.210938 0.164062 " fill-opacity="1" fill-rule="nonzero"/></g></g></g></g><g clip-path="url(#bc4f65a9d2)"><g transform="matrix(1, 0, 0, 1, 14, 18)"><g clip-path="url(#2e010ae3c3)"><g clip-path="url(#73d6ab027b)"><path fill="#8c52ff" d="M 0.0429688 0.164062 L 2.199219 0.164062 L 2.199219 2.207031 L 0.0429688 2.207031 Z M 0.0429688 0.164062 " fill-opacity="1" fill-rule="nonzero"/></g></g></g></g><g mask="url(#174ebfaceb)"><g transform="matrix(1, 0, 0, 1, 5, 20)"><g clip-path="url(#28bcde899b)"><g clip-path="url(#666cbc3f5d)"><g transform="matrix(1, 0, 0, 1, 0, -0.000000000000007105)"><g clip-path="url(#2e65009081)"><g clip-path="url(#8a764bddc5)"><path fill="#8c52ff" d="M 0.585938 0.882812 L 2.742188 0.882812 L 2.742188 2.929688 L 0.585938 2.929688 Z M 0.585938 0.882812 " fill-opacity="1" fill-rule="nonzero"/></g></g></g></g></g></g></g><g clip-path="url(#97ff415da8)"><g transform="matrix(1, 0, 0, 1, 8, 20)"><g clip-path="url(#2cd0d69247)"><g clip-path="url(#e790c95ea9)"><path fill="#8c52ff" d="M 0.375 0.882812 L 2.53125 0.882812 L 2.53125 2.929688 L 0.375 2.929688 Z M 0.375 0.882812 " fill-opacity="1" fill-rule="nonzero"/></g></g></g></g><g clip-path="url(#3cafe57ec5)"><g transform="matrix(1, 0, 0, 1, 11, 20)"><g clip-path="url(#cf7c387b5b)"><g clip-path="url(#08bf3bc33e)"><path fill="#8c52ff" d="M 0.210938 0.882812 L 2.367188 0.882812 L 2.367188 2.929688 L 0.210938 2.929688 Z M 0.210938 0.882812 " fill-opacity="1" fill-rule="nonzero"/></g></g></g></g><g mask="url(#2ebf1cd612)"><g transform="matrix(1, 0, 0, 1, 13, 20)"><g clip-path="url(#83c05b5203)"><g clip-path="url(#99c73e87cb)"><g transform="matrix(1, 0, 0, 1, 1, -0.000000000000007105)"><g clip-path="url(#720b0263ba)"><g clip-path="url(#bcabac0a42)"><path fill="#8c52ff" d="M 0.0429688 0.882812 L 2.199219 0.882812 L 2.199219 2.929688 L 0.0429688 2.929688 Z M 0.0429688 0.882812 " fill-opacity="1" fill-rule="nonzero"/></g></g></g></g></g></g></g><g mask="url(#b3048580b1)"><g transform="matrix(1, 0, 0, 1, 5, 23)"><g clip-path="url(#6d5ea20ae1)"><g clip-path="url(#1a1de3cdd1)"><g transform="matrix(1, 0, 0, 1, 0, -0.000000000000010658)"><g clip-path="url(#b2a7ee2c7a)"><g clip-path="url(#6e04e9a8a7)"><path fill="#8c52ff" d="M 0.585938 0.605469 L 2.742188 0.605469 L 2.742188 2.648438 L 0.585938 2.648438 Z M 0.585938 0.605469 " fill-opacity="1" fill-rule="nonzero"/></g></g></g></g></g></g></g><g clip-path="url(#3ad5ff7ae0)"><g transform="matrix(1, 0, 0, 1, 8, 23)"><g clip-path="url(#7368d5b128)"><g clip-path="url(#8e8be59f47)"><path fill="#8c52ff" d="M 0.375 0.605469 L 2.53125 0.605469 L 2.53125 2.648438 L 0.375 2.648438 Z M 0.375 0.605469 " fill-opacity="1" fill-rule="nonzero"/></g></g></g></g><g mask="url(#3509b7d59e)"><g transform="matrix(1, 0, 0, 1, 11, 23)"><g clip-path="url(#afe6294656)"><g clip-path="url(#ce40c4c47e)"><g transform="matrix(1, 0, 0, 1, 0, -0.000000000000010658)"><g clip-path="url(#182a675b27)"><g clip-path="url(#d382c8cbe1)"><path fill="#8c52ff" d="M 0.210938 0.605469 L 2.367188 0.605469 L 2.367188 2.648438 L 0.210938 2.648438 Z M 0.210938 0.605469 " fill-opacity="1" fill-rule="nonzero"/></g></g></g></g></g></g></g><g mask="url(#f3fd59afcb)"><g transform="matrix(1, 0, 0, 1, 13, 23)"><g clip-path="url(#13324114a9)"><g clip-path="url(#2c2fc60584)"><g transform="matrix(1, 0, 0, 1, 1, -0.000000000000010658)"><g clip-path="url(#99eae73d0a)"><g clip-path="url(#6f6a82a665)"><path fill="#8c52ff" d="M 0.0429688 0.605469 L 2.199219 0.605469 L 2.199219 2.648438 L 0.0429688 2.648438 Z M 0.0429688 0.605469 " fill-opacity="1" fill-rule="nonzero"/></g></g></g></g></g></g></g><g mask="url(#988d0350b0)"><g transform="matrix(1, 0, 0, 1, 5, 26)"><g clip-path="url(#ed6d8b5111)"><g clip-path="url(#c7d1c7db9b)"><g transform="matrix(1, 0, 0, 1, 0, -0.000000000000014211)"><g clip-path="url(#86d7076f46)"><g clip-path="url(#23eb1ecf72)"><path fill="#8c52ff" d="M 0.585938 0.261719 L 2.742188 0.261719 L 2.742188 2.304688 L 0.585938 2.304688 Z M 0.585938 0.261719 " fill-opacity="1" fill-rule="nonzero"/></g></g></g></g></g></g></g><g clip-path="url(#e3ee65beda)"><g transform="matrix(1, 0, 0, 1, 8, 26)"><g clip-path="url(#dbbf2d032d)"><g clip-path="url(#1c25052302)"><path fill="#8c52ff" d="M 0.375 0.261719 L 2.53125 0.261719 L 2.53125 2.304688 L 0.375 2.304688 Z M 0.375 0.261719 " fill-opacity="1" fill-rule="nonzero"/></g></g></g></g><g mask="url(#4b845e4059)"><g transform="matrix(1, 0, 0, 1, 11, 26)"><g clip-path="url(#4fc1ddcb85)"><g clip-path="url(#47a3a3f2cd)"><g transform="matrix(1, 0, 0, 1, 0, -0.000000000000014211)"><g clip-path="url(#8cf07c2e5a)"><g clip-path="url(#d6d967bf5a)"><path fill="#8c52ff" d="M 0.210938 0.261719 L 2.367188 0.261719 L 2.367188 2.304688 L 0.210938 2.304688 Z M 0.210938 0.261719 " fill-opacity="1" fill-rule="nonzero"/></g></g></g></g></g></g></g><g mask="url(#4722af831b)"><g transform="matrix(1, 0, 0, 1, 13, 26)"><g clip-path="url(#4ee849f1a7)"><g clip-path="url(#3db99a40fe)"><g transform="matrix(1, 0, 0, 1, 1, -0.000000000000014211)"><g clip-path="url(#a3b3046d95)"><g clip-path="url(#c0fc933f8a)"><path fill="#8c52ff" d="M 0.0429688 0.261719 L 2.199219 0.261719 L 2.199219 2.304688 L 0.0429688 2.304688 Z M 0.0429688 0.261719 " fill-opacity="1" fill-rule="nonzero"/></g></g></g></g></g></g></g><g mask="url(#cd9529cc7c)"><g transform="matrix(1, 0, 0, 1, 5, 28)"><g clip-path="url(#51852b97f1)"><g clip-path="url(#1ae6a45dfa)"><g transform="matrix(1, 0, 0, 1, 0, -0.000000000000014211)"><g clip-path="url(#e799d80654)"><g clip-path="url(#ee90477f00)"><path fill="#8c52ff" d="M 0.585938 0.980469 L 2.742188 0.980469 L 2.742188 3.027344 L 0.585938 3.027344 Z M 0.585938 0.980469 " fill-opacity="1" fill-rule="nonzero"/></g></g></g></g></g></g></g><g clip-path="url(#e3a6254ef2)"><g transform="matrix(1, 0, 0, 1, 8, 28)"><g clip-path="url(#8f9264cf56)"><g clip-path="url(#c2287b3f2d)"><path fill="#8c52ff" d="M 0.375 0.980469 L 2.53125 0.980469 L 2.53125 3.027344 L 0.375 3.027344 Z M 0.375 0.980469 " fill-opacity="1" fill-rule="nonzero"/></g></g></g></g><g clip-path="url(#d53ab8ba64)"><g transform="matrix(1, 0, 0, 1, 11, 28)"><g clip-path="url(#d106ba3a47)"><g clip-path="url(#45869e5336)"><path fill="#8c52ff" d="M 0.210938 0.980469 L 2.367188 0.980469 L 2.367188 3.027344 L 0.210938 3.027344 Z M 0.210938 0.980469 " fill-opacity="1" fill-rule="nonzero"/></g></g></g></g><g mask="url(#3acf620536)"><g transform="matrix(1, 0, 0, 1, 13, 28)"><g clip-path="url(#be15289dc7)"><g clip-path="url(#c89dae3948)"><g transform="matrix(1, 0, 0, 1, 1, -0.000000000000014211)"><g clip-path="url(#db21987bd5)"><g clip-path="url(#359d054d4d)"><path fill="#8c52ff" d="M 0.0429688 0.980469 L 2.199219 0.980469 L 2.199219 3.027344 L 0.0429688 3.027344 Z M 0.0429688 0.980469 " fill-opacity="1" fill-rule="nonzero"/></g></g></g></g></g></g></g><g clip-path="url(#6a24c99672)"><g transform="matrix(1, 0, 0, 1, 16, 31)"><g clip-path="url(#0cdd14bafb)"><g clip-path="url(#86b1f6f321)"><path fill="#8c52ff" d="M 0.878906 0.703125 L 3.035156 0.703125 L 3.035156 2.746094 L 0.878906 2.746094 Z M 0.878906 0.703125 " fill-opacity="1" fill-rule="nonzero"/></g></g></g></g><g clip-path="url(#18d8be3d9a)"><g transform="matrix(1, 0, 0, 1, 19, 31)"><g clip-path="url(#ef60217002)"><g clip-path="url(#38d7abfb08)"><path fill="#8c52ff" d="M 0.667969 0.703125 L 2.824219 0.703125 L 2.824219 2.746094 L 0.667969 2.746094 Z M 0.667969 0.703125 " fill-opacity="1" fill-rule="nonzero"/></g></g></g></g><g mask="url(#f29d739245)"><g transform="matrix(1, 0, 0, 1, 22, 31)"><g clip-path="url(#2e5ff771fc)"><g clip-path="url(#5f82a2e0b7)"><g transform="matrix(1, 0, 0, 1, -0.000000000000003553, -0.000000000000010658)"><g clip-path="url(#5c2a66f11c)"><g clip-path="url(#8b245cae1b)"><path fill="#8c52ff" d="M 0.5 0.703125 L 2.65625 0.703125 L 2.65625 2.746094 L 0.5 2.746094 Z M 0.5 0.703125 " fill-opacity="1" fill-rule="nonzero"/></g></g></g></g></g></g></g><g mask="url(#40cbba422e)"><g transform="matrix(1, 0, 0, 1, 25, 31)"><g clip-path="url(#3fb19becf3)"><g clip-path="url(#49f2c76567)"><g transform="matrix(1, 0, 0, 1, -0.000000000000003553, -0.000000000000010658)"><g clip-path="url(#a547005edb)"><g clip-path="url(#cdb5cdc5de)"><path fill="#8c52ff" d="M 0.335938 0.703125 L 2.492188 0.703125 L 2.492188 2.746094 L 0.335938 2.746094 Z M 0.335938 0.703125 " fill-opacity="1" fill-rule="nonzero"/></g></g></g></g></g></g></g><g mask="url(#47182c0444)"><g transform="matrix(1, 0, 0, 1, 16, 34)"><g clip-path="url(#1943f74d74)"><g clip-path="url(#3536fe53c4)"><g transform="matrix(1, 0, 0, 1, -0.000000000000003553, -0.000000000000014211)"><g clip-path="url(#06f5765c8c)"><g clip-path="url(#b8733cb2e0)"><path fill="#8c52ff" d="M 0.878906 0.421875 L 3.035156 0.421875 L 3.035156 2.464844 L 0.878906 2.464844 Z M 0.878906 0.421875 " fill-opacity="1" fill-rule="nonzero"/></g></g></g></g></g></g></g><g mask="url(#24a5bf0182)"><g transform="matrix(1, 0, 0, 1, 19, 34)"><g clip-path="url(#791b61b591)"><g clip-path="url(#bd5320e2d6)"><g transform="matrix(1, 0, 0, 1, -0.000000000000003553, -0.000000000000014211)"><g clip-path="url(#949940d8f4)"><g clip-path="url(#cab83f48e0)"><path fill="#8c52ff" d="M 0.667969 0.421875 L 2.824219 0.421875 L 2.824219 2.464844 L 0.667969 2.464844 Z M 0.667969 0.421875 " fill-opacity="1" fill-rule="nonzero"/></g></g></g></g></g></g></g><g mask="url(#b04ac8a896)"><g transform="matrix(1, 0, 0, 1, 22, 34)"><g clip-path="url(#4d19451cb9)"><g clip-path="url(#6c44a573a3)"><g transform="matrix(1, 0, 0, 1, -0.000000000000003553, -0.000000000000014211)"><g clip-path="url(#e78eec2af7)"><g clip-path="url(#7b0d979e4f)"><path fill="#8c52ff" d="M 0.5 0.421875 L 2.65625 0.421875 L 2.65625 2.464844 L 0.5 2.464844 Z M 0.5 0.421875 " fill-opacity="1" fill-rule="nonzero"/></g></g></g></g></g></g></g><g mask="url(#c47c566dc6)"><g transform="matrix(1, 0, 0, 1, 25, 34)"><g clip-path="url(#38b4613bc8)"><g clip-path="url(#776a8b3c4c)"><g transform="matrix(1, 0, 0, 1, -0.000000000000003553, -0.000000000000014211)"><g clip-path="url(#d3ff5feb69)"><g clip-path="url(#0238b7a3ec)"><path fill="#8c52ff" d="M 0.335938 0.421875 L 2.492188 0.421875 L 2.492188 2.464844 L 0.335938 2.464844 Z M 0.335938 0.421875 " fill-opacity="1" fill-rule="nonzero"/></g></g></g></g></g></g></g><g mask="url(#763bc071ef)"><g transform="matrix(1, 0, 0, 1, 5, 31)"><g clip-path="url(#f9958ed667)"><g clip-path="url(#84372eda54)"><g transform="matrix(1, 0, 0, 1, 0, -0.000000000000010658)"><g clip-path="url(#19de40919d)"><g clip-path="url(#654cf9ccee)"><path fill="#8c52ff" d="M 0.585938 0.703125 L 2.742188 0.703125 L 2.742188 2.746094 L 0.585938 2.746094 Z M 0.585938 0.703125 " fill-opacity="1" fill-rule="nonzero"/></g></g></g></g></g></g></g><g mask="url(#3b1fdebf7a)"><g transform="matrix(1, 0, 0, 1, 8, 31)"><g clip-path="url(#8e652a0a7d)"><g clip-path="url(#6f8d9fad61)"><g transform="matrix(1, 0, 0, 1, 0, -0.000000000000010658)"><g clip-path="url(#6527c7db04)"><g clip-path="url(#7e0c945080)"><path fill="#8c52ff" d="M 0.375 0.703125 L 2.53125 0.703125 L 2.53125 2.746094 L 0.375 2.746094 Z M 0.375 0.703125 " fill-opacity="1" fill-rule="nonzero"/></g></g></g></g></g></g></g><g clip-path="url(#35bd27e76f)"><g transform="matrix(1, 0, 0, 1, 11, 31)"><g clip-path="url(#d4be1fe5bd)"><g clip-path="url(#17ea4ce25b)"><path fill="#8c52ff" d="M 0.210938 0.703125 L 2.367188 0.703125 L 2.367188 2.746094 L 0.210938 2.746094 Z M 0.210938 0.703125 " fill-opacity="1" fill-rule="nonzero"/></g></g></g></g><g clip-path="url(#245ce5d2cd)"><g transform="matrix(1, 0, 0, 1, 14, 31)"><g clip-path="url(#0076fb3af8)"><g clip-path="url(#07149533f6)"><path fill="#8c52ff" d="M 0.0429688 0.703125 L 2.199219 0.703125 L 2.199219 2.746094 L 0.0429688 2.746094 Z M 0.0429688 0.703125 " fill-opacity="1" fill-rule="nonzero"/></g></g></g></g><g mask="url(#f9a4648942)"><g transform="matrix(1, 0, 0, 1, 5, 34)"><g clip-path="url(#fc603566c2)"><g clip-path="url(#f3030e552f)"><g transform="matrix(1, 0, 0, 1, 0, -0.000000000000014211)"><g clip-path="url(#8206e00469)"><g clip-path="url(#b32bd61e2f)"><path fill="#8c52ff" d="M 0.585938 0.421875 L 2.742188 0.421875 L 2.742188 2.464844 L 0.585938 2.464844 Z M 0.585938 0.421875 " fill-opacity="1" fill-rule="nonzero"/></g></g></g></g></g></g></g><g mask="url(#3362549a89)"><g transform="matrix(1, 0, 0, 1, 8, 34)"><g clip-path="url(#b5d743fcc7)"><g clip-path="url(#d394b61fde)"><g transform="matrix(1, 0, 0, 1, 0, -0.000000000000014211)"><g clip-path="url(#fb87aef523)"><g clip-path="url(#708a6b1fce)"><path fill="#8c52ff" d="M 0.375 0.421875 L 2.53125 0.421875 L 2.53125 2.464844 L 0.375 2.464844 Z M 0.375 0.421875 " fill-opacity="1" fill-rule="nonzero"/></g></g></g></g></g></g></g><g mask="url(#49f4d725b2)"><g transform="matrix(1, 0, 0, 1, 11, 34)"><g clip-path="url(#4aaeb976c4)"><g clip-path="url(#cf1491e6cd)"><g transform="matrix(1, 0, 0, 1, 0, -0.000000000000014211)"><g clip-path="url(#c224bd9a8e)"><g clip-path="url(#48be6884ad)"><path fill="#8c52ff" d="M 0.210938 0.421875 L 2.367188 0.421875 L 2.367188 2.464844 L 0.210938 2.464844 Z M 0.210938 0.421875 " fill-opacity="1" fill-rule="nonzero"/></g></g></g></g></g></g></g><g mask="url(#3f2cafb177)"><g transform="matrix(1, 0, 0, 1, 13, 34)"><g clip-path="url(#1471b81d6b)"><g clip-path="url(#af08632464)"><g transform="matrix(1, 0, 0, 1, 1, -0.000000000000014211)"><g clip-path="url(#02e5d8a245)"><g clip-path="url(#3031bb19ac)"><path fill="#8c52ff" d="M 0.0429688 0.421875 L 2.199219 0.421875 L 2.199219 2.464844 L 0.0429688 2.464844 Z M 0.0429688 0.421875 " fill-opacity="1" fill-rule="nonzero"/></g></g></g></g></g></g></g><g clip-path="url(#609a68b4e8)"><g transform="matrix(1, 0, 0, 1, 93, 8)"><g clip-path="url(#4a2f93e048)"><g clip-path="url(#4f07104f49)"><path fill="#8c52ff" d="M 0.605469 0.476562 L 4.300781 0.476562 L 4.300781 35.492188 L 0.605469 35.492188 Z M 0.605469 0.476562 " fill-opacity="1" fill-rule="nonzero"/></g></g></g></g><g transform="matrix(1, 0, 0, 1, 102, 6)"><g clip-path="url(#0242ab3869)"><g fill="#ffffff" fill-opacity="1"><g transform="translate(0.575208, 15.255059)"><g><path d="M 10.671875 -5.171875 C 10.671875 -4.015625 10.445312 -3.039062 10 -2.25 C 9.550781 -1.46875 8.945312 -0.875 8.1875 -0.46875 C 7.425781 -0.0625 6.582031 0.140625 5.65625 0.140625 C 4.707031 0.140625 3.851562 -0.0625 3.09375 -0.46875 C 2.34375 -0.875 1.742188 -1.472656 1.296875 -2.265625 C 0.847656 -3.054688 0.625 -4.023438 0.625 -5.171875 C 0.625 -6.316406 0.847656 -7.28125 1.296875 -8.0625 C 1.742188 -8.851562 2.34375 -9.453125 3.09375 -9.859375 C 3.851562 -10.265625 4.707031 -10.46875 5.65625 -10.46875 C 6.582031 -10.46875 7.425781 -10.265625 8.1875 -9.859375 C 8.945312 -9.453125 9.550781 -8.851562 10 -8.0625 C 10.445312 -7.28125 10.671875 -6.316406 10.671875 -5.171875 Z M 7.78125 -5.171875 C 7.78125 -5.785156 7.695312 -6.304688 7.53125 -6.734375 C 7.375 -7.160156 7.132812 -7.484375 6.8125 -7.703125 C 6.5 -7.921875 6.113281 -8.03125 5.65625 -8.03125 C 5.1875 -8.03125 4.789062 -7.921875 4.46875 -7.703125 C 4.15625 -7.484375 3.914062 -7.160156 3.75 -6.734375 C 3.59375 -6.304688 3.515625 -5.785156 3.515625 -5.171875 C 3.515625 -4.546875 3.59375 -4.019531 3.75 -3.59375 C 3.914062 -3.164062 4.15625 -2.84375 4.46875 -2.625 C 4.789062 -2.40625 5.1875 -2.296875 5.65625 -2.296875 C 6.113281 -2.296875 6.5 -2.40625 6.8125 -2.625 C 7.132812 -2.84375 7.375 -3.164062 7.53125 -3.59375 C 7.695312 -4.019531 7.78125 -4.546875 7.78125 -5.171875 Z M 7.78125 -5.171875 "/></g></g></g><g fill="#ffffff" fill-opacity="1"><g transform="translate(11.867327, 15.255059)"><g><path d="M 0.671875 0 L 0.671875 -10.328125 L 3.46875 -10.328125 L 3.46875 -2.265625 L 7.640625 -2.265625 L 7.640625 0 Z M 0.671875 0 "/></g></g></g><g fill="#ffffff" fill-opacity="1"><g transform="translate(19.973452, 15.255059)"><g><path d="M 3.46875 -10.328125 L 3.46875 0 L 0.671875 0 L 0.671875 -10.328125 Z M 3.46875 -10.328125 "/></g></g></g><g fill="#ffffff" fill-opacity="1"><g transform="translate(24.107178, 15.255059)"><g><path d="M 0.671875 -10.328125 L 4.15625 -10.328125 L 6.5625 -4.484375 L 6.671875 -4.484375 L 9.078125 -10.328125 L 12.5625 -10.328125 L 12.5625 0 L 9.828125 0 L 9.828125 -5.96875 L 9.75 -5.96875 L 7.4375 -0.078125 L 5.796875 -0.078125 L 3.484375 -6.015625 L 3.40625 -6.015625 L 3.40625 0 L 0.671875 0 Z M 0.671875 -10.328125 "/></g></g></g><g fill="#ffffff" fill-opacity="1"><g transform="translate(37.335088, 15.255059)"><g><path d="M 0.671875 0 L 0.671875 -10.328125 L 5.125 -10.328125 C 5.894531 -10.328125 6.566406 -10.175781 7.140625 -9.875 C 7.710938 -9.570312 8.15625 -9.144531 8.46875 -8.59375 C 8.789062 -8.050781 8.953125 -7.410156 8.953125 -6.671875 C 8.953125 -5.929688 8.785156 -5.289062 8.453125 -4.75 C 8.128906 -4.207031 7.671875 -3.789062 7.078125 -3.5 C 6.492188 -3.207031 5.8125 -3.0625 5.03125 -3.0625 L 2.359375 -3.0625 L 2.359375 -5.25 L 4.453125 -5.25 C 4.785156 -5.25 5.066406 -5.304688 5.296875 -5.421875 C 5.535156 -5.535156 5.71875 -5.695312 5.84375 -5.90625 C 5.96875 -6.125 6.03125 -6.378906 6.03125 -6.671875 C 6.03125 -6.972656 5.96875 -7.226562 5.84375 -7.4375 C 5.71875 -7.644531 5.535156 -7.804688 5.296875 -7.921875 C 5.066406 -8.035156 4.785156 -8.09375 4.453125 -8.09375 L 3.46875 -8.09375 L 3.46875 0 Z M 0.671875 0 "/></g></g></g><g fill="#ffffff" fill-opacity="1"><g transform="translate(46.651088, 15.255059)"><g><path d="M 3.46875 -10.328125 L 3.46875 0 L 0.671875 0 L 0.671875 -10.328125 Z M 3.46875 -10.328125 "/></g></g></g><g fill="#ffffff" fill-opacity="1"><g transform="translate(50.784813, 15.255059)"><g><path d="M 3.34375 0 L 0.328125 0 L 3.734375 -10.328125 L 7.5625 -10.328125 L 10.96875 0 L 7.953125 0 L 5.6875 -7.484375 L 5.609375 -7.484375 Z M 2.78125 -4.078125 L 8.46875 -4.078125 L 8.46875 -1.984375 L 2.78125 -1.984375 Z M 2.78125 -4.078125 "/></g></g></g><g fill="#ffffff" fill-opacity="1"><g transform="translate(62.076931, 15.255059)"><g><path d="M 4.640625 0 L 0.671875 0 L 0.671875 -10.328125 L 4.59375 -10.328125 C 5.65625 -10.328125 6.570312 -10.117188 7.34375 -9.703125 C 8.125 -9.296875 8.722656 -8.707031 9.140625 -7.9375 C 9.566406 -7.164062 9.78125 -6.242188 9.78125 -5.171875 C 9.78125 -4.085938 9.570312 -3.160156 9.15625 -2.390625 C 8.738281 -1.617188 8.144531 -1.023438 7.375 -0.609375 C 6.601562 -0.203125 5.691406 0 4.640625 0 Z M 3.46875 -2.375 L 4.546875 -2.375 C 5.054688 -2.375 5.488281 -2.457031 5.84375 -2.625 C 6.207031 -2.789062 6.484375 -3.070312 6.671875 -3.46875 C 6.859375 -3.875 6.953125 -4.441406 6.953125 -5.171875 C 6.953125 -5.890625 6.851562 -6.445312 6.65625 -6.84375 C 6.46875 -7.25 6.1875 -7.535156 5.8125 -7.703125 C 5.445312 -7.867188 4.992188 -7.953125 4.453125 -7.953125 L 3.46875 -7.953125 Z M 3.46875 -2.375 "/></g></g></g><g fill="#ffffff" fill-opacity="1"><g transform="translate(71.836525, 15.255059)"><g><path d="M 3.34375 0 L 0.328125 0 L 3.734375 -10.328125 L 7.5625 -10.328125 L 10.96875 0 L 7.953125 0 L 5.6875 -7.484375 L 5.609375 -7.484375 Z M 2.78125 -4.078125 L 8.46875 -4.078125 L 8.46875 -1.984375 L 2.78125 -1.984375 Z M 2.78125 -4.078125 "/></g></g></g><g fill="#ffffff" fill-opacity="1"><g transform="translate(83.128644, 15.255059)"><g/></g></g><g fill="#ffffff" fill-opacity="1"><g transform="translate(85.951678, 15.255059)"><g><path d="M 9.609375 -10.328125 L 9.609375 0 L 7.265625 0 L 3.53125 -5.421875 L 3.46875 -5.421875 L 3.46875 0 L 0.671875 0 L 0.671875 -10.328125 L 3.046875 -10.328125 L 6.71875 -4.921875 L 6.796875 -4.921875 L 6.796875 -10.328125 Z M 9.609375 -10.328125 "/></g></g></g><g fill="#ffffff" fill-opacity="1"><g transform="translate(96.21541, 15.255059)"><g><path d="M 3.34375 0 L 0.328125 0 L 3.734375 -10.328125 L 7.5625 -10.328125 L 10.96875 0 L 7.953125 0 L 5.6875 -7.484375 L 5.609375 -7.484375 Z M 2.78125 -4.078125 L 8.46875 -4.078125 L 8.46875 -1.984375 L 2.78125 -1.984375 Z M 2.78125 -4.078125 "/></g></g></g><g fill="#ffffff" fill-opacity="1"><g transform="translate(106.196801, 15.255059)"><g><path d="M 0.390625 -8.0625 L 0.390625 -10.328125 L 9.359375 -10.328125 L 9.359375 -8.0625 L 6.25 -8.0625 L 6.25 0 L 3.484375 0 L 3.484375 -8.0625 Z M 2.96875 3.234375 L 3.640625 0.8125 L 6.140625 0.8125 L 4.875 3.234375 Z M 2.96875 3.234375 "/></g></g></g><g fill="#ffffff" fill-opacity="1"><g transform="translate(115.93625, 15.255059)"><g><path d="M 3.46875 -10.328125 L 3.46875 0 L 0.671875 0 L 0.671875 -10.328125 Z M 3.46875 -10.328125 "/></g></g></g><g fill="#ffffff" fill-opacity="1"><g transform="translate(120.069975, 15.255059)"><g><path d="M 10.671875 -5.171875 C 10.671875 -4.015625 10.445312 -3.039062 10 -2.25 C 9.550781 -1.46875 8.945312 -0.875 8.1875 -0.46875 C 7.425781 -0.0625 6.582031 0.140625 5.65625 0.140625 C 4.707031 0.140625 3.851562 -0.0625 3.09375 -0.46875 C 2.34375 -0.875 1.742188 -1.472656 1.296875 -2.265625 C 0.847656 -3.054688 0.625 -4.023438 0.625 -5.171875 C 0.625 -6.316406 0.847656 -7.28125 1.296875 -8.0625 C 1.742188 -8.851562 2.34375 -9.453125 3.09375 -9.859375 C 3.851562 -10.265625 4.707031 -10.46875 5.65625 -10.46875 C 6.582031 -10.46875 7.425781 -10.265625 8.1875 -9.859375 C 8.945312 -9.453125 9.550781 -8.851562 10 -8.0625 C 10.445312 -7.28125 10.671875 -6.316406 10.671875 -5.171875 Z M 7.78125 -5.171875 C 7.78125 -5.785156 7.695312 -6.304688 7.53125 -6.734375 C 7.375 -7.160156 7.132812 -7.484375 6.8125 -7.703125 C 6.5 -7.921875 6.113281 -8.03125 5.65625 -8.03125 C 5.1875 -8.03125 4.789062 -7.921875 4.46875 -7.703125 C 4.15625 -7.484375 3.914062 -7.160156 3.75 -6.734375 C 3.59375 -6.304688 3.515625 -5.785156 3.515625 -5.171875 C 3.515625 -4.546875 3.59375 -4.019531 3.75 -3.59375 C 3.914062 -3.164062 4.15625 -2.84375 4.46875 -2.625 C 4.789062 -2.40625 5.1875 -2.296875 5.65625 -2.296875 C 6.113281 -2.296875 6.5 -2.40625 6.8125 -2.625 C 7.132812 -2.84375 7.375 -3.164062 7.53125 -3.59375 C 7.695312 -4.019531 7.78125 -4.546875 7.78125 -5.171875 Z M 7.78125 -5.171875 "/></g></g></g><g fill="#ffffff" fill-opacity="1"><g transform="translate(131.362094, 15.255059)"><g><path d="M 9.609375 -10.328125 L 9.609375 0 L 7.265625 0 L 3.53125 -5.421875 L 3.46875 -5.421875 L 3.46875 0 L 0.671875 0 L 0.671875 -10.328125 L 3.046875 -10.328125 L 6.71875 -4.921875 L 6.796875 -4.921875 L 6.796875 -10.328125 Z M 9.609375 -10.328125 "/></g></g></g><g fill="#ffffff" fill-opacity="1"><g transform="translate(141.625826, 15.255059)"><g><path d="M 3.34375 0 L 0.328125 0 L 3.734375 -10.328125 L 7.5625 -10.328125 L 10.96875 0 L 7.953125 0 L 5.6875 -7.484375 L 5.609375 -7.484375 Z M 2.78125 -4.078125 L 8.46875 -4.078125 L 8.46875 -1.984375 L 2.78125 -1.984375 Z M 2.78125 -4.078125 "/></g></g></g><g fill="#ffffff" fill-opacity="1"><g transform="translate(152.917945, 15.255059)"><g><path d="M 0.671875 0 L 0.671875 -10.328125 L 3.46875 -10.328125 L 3.46875 -2.265625 L 7.640625 -2.265625 L 7.640625 0 Z M 0.671875 0 "/></g></g></g><g fill="#ffffff" fill-opacity="1"><g transform="translate(161.02407, 15.255059)"><g><path d="M 3.34375 0 L 0.328125 0 L 3.734375 -10.328125 L 7.5625 -10.328125 L 10.96875 0 L 7.953125 0 L 5.6875 -7.484375 L 5.609375 -7.484375 Z M 2.78125 -4.078125 L 8.46875 -4.078125 L 8.46875 -1.984375 L 2.78125 -1.984375 Z M 6.65625 -13.109375 L 8.40625 -13.109375 C 8.40625 -12.453125 8.15625 -11.925781 7.65625 -11.53125 C 7.15625 -11.144531 6.484375 -10.953125 5.640625 -10.953125 C 4.796875 -10.953125 4.125 -11.144531 3.625 -11.53125 C 3.125 -11.925781 2.875 -12.453125 2.875 -13.109375 L 4.609375 -13.109375 C 4.609375 -12.898438 4.6875 -12.707031 4.84375 -12.53125 C 5 -12.351562 5.265625 -12.265625 5.640625 -12.265625 C 6.003906 -12.265625 6.257812 -12.347656 6.40625 -12.515625 C 6.5625 -12.691406 6.644531 -12.890625 6.65625 -13.109375 Z M 6.65625 -13.109375 "/></g></g></g><g fill="#ffffff" fill-opacity="1"><g transform="translate(172.316189, 15.255059)"><g/></g></g><g fill="#ffffff" fill-opacity="1"><g transform="translate(175.139223, 15.255059)"><g><path d="M 4.640625 0 L 0.671875 0 L 0.671875 -10.328125 L 4.59375 -10.328125 C 5.65625 -10.328125 6.570312 -10.117188 7.34375 -9.703125 C 8.125 -9.296875 8.722656 -8.707031 9.140625 -7.9375 C 9.566406 -7.164062 9.78125 -6.242188 9.78125 -5.171875 C 9.78125 -4.085938 9.570312 -3.160156 9.15625 -2.390625 C 8.738281 -1.617188 8.144531 -1.023438 7.375 -0.609375 C 6.601562 -0.203125 5.691406 0 4.640625 0 Z M 3.46875 -2.375 L 4.546875 -2.375 C 5.054688 -2.375 5.488281 -2.457031 5.84375 -2.625 C 6.207031 -2.789062 6.484375 -3.070312 6.671875 -3.46875 C 6.859375 -3.875 6.953125 -4.441406 6.953125 -5.171875 C 6.953125 -5.890625 6.851562 -6.445312 6.65625 -6.84375 C 6.46875 -7.25 6.1875 -7.535156 5.8125 -7.703125 C 5.445312 -7.867188 4.992188 -7.953125 4.453125 -7.953125 L 3.46875 -7.953125 Z M 3.46875 -2.375 "/></g></g></g><g fill="#ffffff" fill-opacity="1"><g transform="translate(185.544099, 15.255059)"><g><path d="M 0.671875 0 L 0.671875 -10.328125 L 8.109375 -10.328125 L 8.109375 -8.0625 L 3.46875 -8.0625 L 3.46875 -6.296875 L 7.734375 -6.296875 L 7.734375 -4.03125 L 3.46875 -4.03125 L 3.46875 -2.265625 L 8.09375 -2.265625 L 8.09375 0 Z M 0.671875 0 "/></g></g></g><g fill="#ffffff" fill-opacity="1"><g transform="translate(0.575208, 34.183282)"><g><path d="M 3.46875 -10.328125 L 3.46875 0 L 0.671875 0 L 0.671875 -10.328125 Z M 3.46875 -10.328125 "/></g></g></g><g fill="#ffffff" fill-opacity="1"><g transform="translate(4.708934, 34.183282)"><g><path d="M 9.609375 -10.328125 L 9.609375 0 L 7.265625 0 L 3.53125 -5.421875 L 3.46875 -5.421875 L 3.46875 0 L 0.671875 0 L 0.671875 -10.328125 L 3.046875 -10.328125 L 6.71875 -4.921875 L 6.796875 -4.921875 L 6.796875 -10.328125 Z M 9.609375 -10.328125 "/></g></g></g><g fill="#ffffff" fill-opacity="1"><g transform="translate(14.972666, 34.183282)"><g><path d="M 0.390625 -8.0625 L 0.390625 -10.328125 L 9.359375 -10.328125 L 9.359375 -8.0625 L 6.25 -8.0625 L 6.25 0 L 3.484375 0 L 3.484375 -8.0625 Z M 0.390625 -8.0625 "/></g></g></g><g fill="#ffffff" fill-opacity="1"><g transform="translate(24.712115, 34.183282)"><g><path d="M 0.671875 0 L 0.671875 -10.328125 L 8.109375 -10.328125 L 8.109375 -8.0625 L 3.46875 -8.0625 L 3.46875 -6.296875 L 7.734375 -6.296875 L 7.734375 -4.03125 L 3.46875 -4.03125 L 3.46875 -2.265625 L 8.09375 -2.265625 L 8.09375 0 Z M 0.671875 0 "/></g></g></g><g fill="#ffffff" fill-opacity="1"><g transform="translate(33.544158, 34.183282)"><g><path d="M 0.671875 0 L 0.671875 -10.328125 L 3.46875 -10.328125 L 3.46875 -2.265625 L 7.640625 -2.265625 L 7.640625 0 Z M 0.671875 0 "/></g></g></g><g fill="#ffffff" fill-opacity="1"><g transform="translate(41.650283, 34.183282)"><g><path d="M 3.46875 -10.328125 L 3.46875 0 L 0.671875 0 L 0.671875 -10.328125 Z M 3.46875 -10.328125 "/></g></g></g><g fill="#ffffff" fill-opacity="1"><g transform="translate(45.784009, 34.183282)"><g><path d="M 7.375 -6.921875 C 7.332031 -7.097656 7.265625 -7.253906 7.171875 -7.390625 C 7.078125 -7.523438 6.957031 -7.640625 6.8125 -7.734375 C 6.675781 -7.835938 6.515625 -7.910156 6.328125 -7.953125 C 6.148438 -8.003906 5.953125 -8.03125 5.734375 -8.03125 C 5.265625 -8.03125 4.863281 -7.914062 4.53125 -7.6875 C 4.195312 -7.46875 3.941406 -7.144531 3.765625 -6.71875 C 3.597656 -6.289062 3.515625 -5.78125 3.515625 -5.1875 C 3.515625 -4.582031 3.59375 -4.0625 3.75 -3.625 C 3.914062 -3.195312 4.160156 -2.867188 4.484375 -2.640625 C 4.816406 -2.410156 5.222656 -2.296875 5.703125 -2.296875 C 6.128906 -2.296875 6.484375 -2.359375 6.765625 -2.484375 C 7.054688 -2.609375 7.269531 -2.785156 7.40625 -3.015625 C 7.550781 -3.242188 7.625 -3.515625 7.625 -3.828125 L 8.109375 -3.765625 L 5.75 -3.765625 L 5.75 -5.765625 L 10.328125 -5.765625 L 10.328125 -4.34375 C 10.328125 -3.394531 10.128906 -2.585938 9.734375 -1.921875 C 9.335938 -1.253906 8.789062 -0.742188 8.09375 -0.390625 C 7.394531 -0.0351562 6.59375 0.140625 5.6875 0.140625 C 4.6875 0.140625 3.804688 -0.0703125 3.046875 -0.5 C 2.285156 -0.925781 1.691406 -1.535156 1.265625 -2.328125 C 0.835938 -3.117188 0.625 -4.054688 0.625 -5.140625 C 0.625 -5.992188 0.753906 -6.75 1.015625 -7.40625 C 1.273438 -8.070312 1.632812 -8.628906 2.09375 -9.078125 C 2.5625 -9.535156 3.097656 -9.878906 3.703125 -10.109375 C 4.316406 -10.347656 4.972656 -10.46875 5.671875 -10.46875 C 6.285156 -10.46875 6.851562 -10.378906 7.375 -10.203125 C 7.90625 -10.035156 8.367188 -9.789062 8.765625 -9.46875 C 9.171875 -9.15625 9.5 -8.78125 9.75 -8.34375 C 10 -7.914062 10.148438 -7.441406 10.203125 -6.921875 Z M 7.375 -6.921875 "/></g></g></g><g fill="#ffffff" fill-opacity="1"><g transform="translate(56.753495, 34.183282)"><g><path d="M 0.671875 0 L 0.671875 -10.328125 L 8.109375 -10.328125 L 8.109375 -8.0625 L 3.46875 -8.0625 L 3.46875 -6.296875 L 7.734375 -6.296875 L 7.734375 -4.03125 L 3.46875 -4.03125 L 3.46875 -2.265625 L 8.09375 -2.265625 L 8.09375 0 Z M 0.671875 0 "/></g></g></g><g fill="#ffffff" fill-opacity="1"><g transform="translate(65.585538, 34.183282)"><g><path d="M 9.609375 -10.328125 L 9.609375 0 L 7.265625 0 L 3.53125 -5.421875 L 3.46875 -5.421875 L 3.46875 0 L 0.671875 0 L 0.671875 -10.328125 L 3.046875 -10.328125 L 6.71875 -4.921875 L 6.796875 -4.921875 L 6.796875 -10.328125 Z M 9.609375 -10.328125 "/></g></g></g><g clip-path="url(#0b3dc65fe2)"><g fill="#ffffff" fill-opacity="1"><g transform="translate(75.84927, 34.183282)"><g><path d="M 0.390625 -8.0625 L 0.390625 -10.328125 L 9.359375 -10.328125 L 9.359375 -8.0625 L 6.25 -8.0625 L 6.25 0 L 3.484375 0 L 3.484375 -8.0625 Z M 2.96875 3.234375 L 3.640625 0.8125 L 6.140625 0.8125 L 4.875 3.234375 Z M 2.96875 3.234375 "/></g></g></g></g><g fill="#ffffff" fill-opacity="1"><g transform="translate(84.277992, 34.183282)"><g><path d="M 3.34375 0 L 0.328125 0 L 3.734375 -10.328125 L 7.5625 -10.328125 L 10.96875 0 L 7.953125 0 L 5.6875 -7.484375 L 5.609375 -7.484375 Z M 2.78125 -4.078125 L 8.46875 -4.078125 L 8.46875 -1.984375 L 2.78125 -1.984375 Z M 6.65625 -13.109375 L 8.40625 -13.109375 C 8.40625 -12.453125 8.15625 -11.925781 7.65625 -11.53125 C 7.15625 -11.144531 6.484375 -10.953125 5.640625 -10.953125 C 4.796875 -10.953125 4.125 -11.144531 3.625 -11.53125 C 3.125 -11.925781 2.875 -12.453125 2.875 -13.109375 L 4.609375 -13.109375 C 4.609375 -12.898438 4.6875 -12.707031 4.84375 -12.53125 C 5 -12.351562 5.265625 -12.265625 5.640625 -12.265625 C 6.003906 -12.265625 6.257812 -12.347656 6.40625 -12.515625 C 6.5625 -12.691406 6.644531 -12.890625 6.65625 -13.109375 Z M 6.65625 -13.109375 "/></g></g></g><g fill="#ffffff" fill-opacity="1"><g transform="translate(95.57011, 34.183282)"><g/></g></g><g fill="#ffffff" fill-opacity="1"><g transform="translate(98.393144, 34.183282)"><g><path d="M 3.34375 0 L 0.328125 0 L 3.734375 -10.328125 L 7.5625 -10.328125 L 10.96875 0 L 7.953125 0 L 5.6875 -7.484375 L 5.609375 -7.484375 Z M 2.78125 -4.078125 L 8.46875 -4.078125 L 8.46875 -1.984375 L 2.78125 -1.984375 Z M 2.78125 -4.078125 "/></g></g></g><g fill="#ffffff" fill-opacity="1"><g transform="translate(109.685263, 34.183282)"><g><path d="M 0.671875 0 L 0.671875 -10.328125 L 5.125 -10.328125 C 5.894531 -10.328125 6.566406 -10.1875 7.140625 -9.90625 C 7.710938 -9.632812 8.15625 -9.234375 8.46875 -8.703125 C 8.789062 -8.179688 8.953125 -7.550781 8.953125 -6.8125 C 8.953125 -6.070312 8.785156 -5.445312 8.453125 -4.9375 C 8.128906 -4.4375 7.671875 -4.054688 7.078125 -3.796875 C 6.492188 -3.535156 5.8125 -3.40625 5.03125 -3.40625 L 2.359375 -3.40625 L 2.359375 -5.59375 L 4.453125 -5.59375 C 4.785156 -5.59375 5.066406 -5.628906 5.296875 -5.703125 C 5.535156 -5.785156 5.71875 -5.914062 5.84375 -6.09375 C 5.96875 -6.28125 6.03125 -6.519531 6.03125 -6.8125 C 6.03125 -7.113281 5.96875 -7.359375 5.84375 -7.546875 C 5.71875 -7.734375 5.535156 -7.867188 5.296875 -7.953125 C 5.066406 -8.046875 4.785156 -8.09375 4.453125 -8.09375 L 3.46875 -8.09375 L 3.46875 0 Z M 6.71875 -4.734375 L 9.296875 0 L 6.25 0 L 3.734375 -4.734375 Z M 6.71875 -4.734375 "/></g></g></g><g fill="#ffffff" fill-opacity="1"><g transform="translate(119.16257, 34.183282)"><g><path d="M 0.390625 -8.0625 L 0.390625 -10.328125 L 9.359375 -10.328125 L 9.359375 -8.0625 L 6.25 -8.0625 L 6.25 0 L 3.484375 0 L 3.484375 -8.0625 Z M 0.390625 -8.0625 "/></g></g></g><g fill="#ffffff" fill-opacity="1"><g transform="translate(128.902018, 34.183282)"><g><path d="M 3.46875 -10.328125 L 3.46875 0 L 0.671875 0 L 0.671875 -10.328125 Z M 3.46875 -10.328125 "/></g></g></g><g fill="#ffffff" fill-opacity="1"><g transform="translate(133.035744, 34.183282)"><g><path d="M 0.671875 0 L 0.671875 -10.328125 L 7.921875 -10.328125 L 7.921875 -8.0625 L 3.46875 -8.0625 L 3.46875 -6.296875 L 7.484375 -6.296875 L 7.484375 -4.03125 L 3.46875 -4.03125 L 3.46875 0 Z M 0.671875 0 "/></g></g></g><g fill="#ffffff" fill-opacity="1"><g transform="translate(141.323358, 34.183282)"><g><path d="M 3.46875 -10.328125 L 3.46875 0 L 0.671875 0 L 0.671875 -10.328125 Z M 3.46875 -10.328125 "/></g></g></g><g fill="#ffffff" fill-opacity="1"><g transform="translate(145.457083, 34.183282)"><g><path d="M 10.3125 -6.453125 L 7.46875 -6.453125 C 7.445312 -6.691406 7.390625 -6.90625 7.296875 -7.09375 C 7.210938 -7.289062 7.097656 -7.457031 6.953125 -7.59375 C 6.804688 -7.726562 6.625 -7.832031 6.40625 -7.90625 C 6.195312 -7.988281 5.957031 -8.03125 5.6875 -8.03125 C 5.21875 -8.03125 4.820312 -7.914062 4.5 -7.6875 C 4.175781 -7.457031 3.929688 -7.128906 3.765625 -6.703125 C 3.597656 -6.273438 3.515625 -5.765625 3.515625 -5.171875 C 3.515625 -4.535156 3.597656 -4.003906 3.765625 -3.578125 C 3.929688 -3.148438 4.175781 -2.828125 4.5 -2.609375 C 4.820312 -2.398438 5.210938 -2.296875 5.671875 -2.296875 C 5.929688 -2.296875 6.160156 -2.328125 6.359375 -2.390625 C 6.566406 -2.460938 6.742188 -2.5625 6.890625 -2.6875 C 7.046875 -2.8125 7.171875 -2.960938 7.265625 -3.140625 C 7.367188 -3.316406 7.4375 -3.515625 7.46875 -3.734375 L 10.3125 -3.71875 C 10.28125 -3.28125 10.15625 -2.832031 9.9375 -2.375 C 9.726562 -1.925781 9.425781 -1.507812 9.03125 -1.125 C 8.644531 -0.75 8.164062 -0.441406 7.59375 -0.203125 C 7.03125 0.0234375 6.367188 0.140625 5.609375 0.140625 C 4.660156 0.140625 3.8125 -0.0625 3.0625 -0.46875 C 2.3125 -0.875 1.71875 -1.472656 1.28125 -2.265625 C 0.84375 -3.054688 0.625 -4.023438 0.625 -5.171875 C 0.625 -6.316406 0.84375 -7.28125 1.28125 -8.0625 C 1.726562 -8.851562 2.328125 -9.453125 3.078125 -9.859375 C 3.835938 -10.265625 4.679688 -10.46875 5.609375 -10.46875 C 6.265625 -10.46875 6.863281 -10.378906 7.40625 -10.203125 C 7.957031 -10.023438 8.4375 -9.765625 8.84375 -9.421875 C 9.257812 -9.078125 9.59375 -8.65625 9.84375 -8.15625 C 10.101562 -7.664062 10.257812 -7.097656 10.3125 -6.453125 Z M 10.3125 -6.453125 "/></g></g></g><g fill="#ffffff" fill-opacity="1"><g transform="translate(156.366079, 34.183282)"><g><path d="M 3.46875 -10.328125 L 3.46875 0 L 0.671875 0 L 0.671875 -10.328125 Z M 3.46875 -10.328125 "/></g></g></g><g fill="#ffffff" fill-opacity="1"><g transform="translate(160.499805, 34.183282)"><g><path d="M 3.34375 0 L 0.328125 0 L 3.734375 -10.328125 L 7.5625 -10.328125 L 10.96875 0 L 7.953125 0 L 5.6875 -7.484375 L 5.609375 -7.484375 Z M 2.78125 -4.078125 L 8.46875 -4.078125 L 8.46875 -1.984375 L 2.78125 -1.984375 Z M 2.78125 -4.078125 "/></g></g></g><g fill="#ffffff" fill-opacity="1"><g transform="translate(171.791923, 34.183282)"><g><path d="M 0.671875 0 L 0.671875 -10.328125 L 3.46875 -10.328125 L 3.46875 -2.265625 L 7.640625 -2.265625 L 7.640625 0 Z M 0.671875 0 "/></g></g></g><g fill="#ffffff" fill-opacity="1"><g transform="translate(179.898049, 34.183282)"><g><path d="M 3.34375 0 L 0.328125 0 L 3.734375 -10.328125 L 7.5625 -10.328125 L 10.96875 0 L 7.953125 0 L 5.6875 -7.484375 L 5.609375 -7.484375 Z M 2.78125 -4.078125 L 8.46875 -4.078125 L 8.46875 -1.984375 L 2.78125 -1.984375 Z M 6.65625 -13.109375 L 8.40625 -13.109375 C 8.40625 -12.453125 8.15625 -11.925781 7.65625 -11.53125 C 7.15625 -11.144531 6.484375 -10.953125 5.640625 -10.953125 C 4.796875 -10.953125 4.125 -11.144531 3.625 -11.53125 C 3.125 -11.925781 2.875 -12.453125 2.875 -13.109375 L 4.609375 -13.109375 C 4.609375 -12.898438 4.6875 -12.707031 4.84375 -12.53125 C 5 -12.351562 5.265625 -12.265625 5.640625 -12.265625 C 6.003906 -12.265625 6.257812 -12.347656 6.40625 -12.515625 C 6.5625 -12.691406 6.644531 -12.890625 6.65625 -13.109375 Z M 6.65625 -13.109375 "/></g></g></g></g></g><g fill="#ffffff" fill-opacity="1"><g transform="translate(48.457509, 33.235016)"><g><path d="M 0.9375 0.046875 C 0.8125 0.046875 0.703125 0 0.609375 -0.09375 C 0.515625 -0.1875 0.46875 -0.300781 0.46875 -0.4375 C 0.46875 -0.570312 0.515625 -0.6875 0.609375 -0.78125 C 0.703125 -0.875 0.8125 -0.921875 0.9375 -0.921875 C 1.070312 -0.921875 1.1875 -0.875 1.28125 -0.78125 C 1.375 -0.6875 1.421875 -0.570312 1.421875 -0.4375 C 1.421875 -0.300781 1.375 -0.1875 1.28125 -0.09375 C 1.1875 0 1.070312 0.046875 0.9375 0.046875 Z M 0.9375 0.046875 "/></g></g></g><g fill="#ffffff" fill-opacity="1"><g transform="translate(49.134797, 29.905555)"><g><path d="M 0.9375 0.046875 C 0.8125 0.046875 0.703125 0 0.609375 -0.09375 C 0.515625 -0.1875 0.46875 -0.300781 0.46875 -0.4375 C 0.46875 -0.570312 0.515625 -0.6875 0.609375 -0.78125 C 0.703125 -0.875 0.8125 -0.921875 0.9375 -0.921875 C 1.070312 -0.921875 1.1875 -0.875 1.28125 -0.78125 C 1.375 -0.6875 1.421875 -0.570312 1.421875 -0.4375 C 1.421875 -0.300781 1.375 -0.1875 1.28125 -0.09375 C 1.1875 0 1.070312 0.046875 0.9375 0.046875 Z M 0.9375 0.046875 "/></g></g></g></svg>