<svg xmlns="http://www.w3.org/2000/svg" xmlns:xlink="http://www.w3.org/1999/xlink" width="320" zoomAndPan="magnify" viewBox="0 0 240 132.749998" height="177" preserveAspectRatio="xMidYMid meet" version="1.0"><defs><filter x="0%" y="0%" width="100%" height="100%" id="57a2817cc4"><feColorMatrix values="0 0 0 0 1 0 0 0 0 1 0 0 0 0 1 0 0 0 1 0" color-interpolation-filters="sRGB"/></filter><g/><clipPath id="639682189d"><path d="M 0.226562 95.253906 L 19.246094 95.253906 L 19.246094 101.355469 L 0.226562 101.355469 Z M 0.226562 95.253906 " clip-rule="nonzero"/></clipPath><clipPath id="8a6575aa4b"><path d="M 0.226562 0.253906 L 19.246094 0.253906 L 19.246094 6.355469 L 0.226562 6.355469 Z M 0.226562 0.253906 " clip-rule="nonzero"/></clipPath><clipPath id="f89f79d069"><rect x="0" width="20" y="0" height="7"/></clipPath><clipPath id="e0d53019c0"><path d="M 54.5 95.289062 L 73.222656 95.289062 L 73.222656 101.390625 L 54.5 101.390625 Z M 54.5 95.289062 " clip-rule="nonzero"/></clipPath><clipPath id="73b595939f"><path d="M 0.5 0.289062 L 19.222656 0.289062 L 19.222656 6.390625 L 0.5 6.390625 Z M 0.5 0.289062 " clip-rule="nonzero"/></clipPath><clipPath id="c4a0137d07"><rect x="0" width="20" y="0" height="7"/></clipPath><clipPath id="c26a2c63c8"><path d="M 0.226562 30.984375 L 6.671875 30.984375 L 6.671875 101.359375 L 0.226562 101.359375 Z M 0.226562 30.984375 " clip-rule="nonzero"/></clipPath><clipPath id="4dfdee2a47"><path d="M 0.226562 0.984375 L 6.671875 0.984375 L 6.671875 71.359375 L 0.226562 71.359375 Z M 0.226562 0.984375 " clip-rule="nonzero"/></clipPath><clipPath id="53cc9bcbe4"><rect x="0" width="7" y="0" height="72"/></clipPath><clipPath id="dff406ed79"><path d="M 0.226562 30.980469 L 19.246094 30.980469 L 19.246094 37.078125 L 0.226562 37.078125 Z M 0.226562 30.980469 " clip-rule="nonzero"/></clipPath><clipPath id="94e0c0b160"><path d="M 0.226562 0.980469 L 19.246094 0.980469 L 19.246094 7.078125 L 0.226562 7.078125 Z M 0.226562 0.980469 " clip-rule="nonzero"/></clipPath><clipPath id="daf195cea8"><rect x="0" width="20" y="0" height="8"/></clipPath><clipPath id="773b72a52c"><path d="M 67.074219 30.980469 L 73.222656 30.980469 L 73.222656 101.351562 L 67.074219 101.351562 Z M 67.074219 30.980469 " clip-rule="nonzero"/></clipPath><clipPath id="18b19e7b78"><path d="M 0.0742188 0.980469 L 6.222656 0.980469 L 6.222656 71.351562 L 0.0742188 71.351562 Z M 0.0742188 0.980469 " clip-rule="nonzero"/></clipPath><clipPath id="0cbd551f44"><rect x="0" width="7" y="0" height="72"/></clipPath><clipPath id="2f60e4bc81"><path d="M 54.5 30.984375 L 73.222656 30.984375 L 73.222656 37.082031 L 54.5 37.082031 Z M 54.5 30.984375 " clip-rule="nonzero"/></clipPath><clipPath id="dff4b9c0f6"><path d="M 0.5 0.984375 L 19.222656 0.984375 L 19.222656 7.082031 L 0.5 7.082031 Z M 0.5 0.984375 " clip-rule="nonzero"/></clipPath><clipPath id="52c2d05b00"><rect x="0" width="20" y="0" height="8"/></clipPath><clipPath id="73f3c1e335"><rect x="0" width="145" y="0" height="92"/></clipPath><mask id="c574093e96"><g filter="url(#57a2817cc4)"><rect x="-24" width="288" fill="#000000" y="-13.275" height="159.299998" fill-opacity="0.29"/></g></mask><clipPath id="15b743af0e"><path d="M 0.738281 0.488281 L 6.234375 0.488281 L 6.234375 5.691406 L 0.738281 5.691406 Z M 0.738281 0.488281 " clip-rule="nonzero"/></clipPath><clipPath id="a2bbe770a2"><path d="M 0.738281 0.488281 L 6.234375 0.488281 L 6.234375 5.691406 L 0.738281 5.691406 Z M 0.738281 0.488281 " clip-rule="nonzero"/></clipPath><clipPath id="f25c0a8246"><rect x="0" width="7" y="0" height="6"/></clipPath><clipPath id="f25dc1d9c8"><rect x="0" width="7" y="0" height="6"/></clipPath><mask id="4833987705"><g filter="url(#57a2817cc4)"><rect x="-24" width="288" fill="#000000" y="-13.275" height="159.299998" fill-opacity="0.29"/></g></mask><clipPath id="2455341e9e"><path d="M 0.839844 0.488281 L 6.335938 0.488281 L 6.335938 5.691406 L 0.839844 5.691406 Z M 0.839844 0.488281 " clip-rule="nonzero"/></clipPath><clipPath id="1b05242b7c"><path d="M 0.839844 0.488281 L 6.335938 0.488281 L 6.335938 5.691406 L 0.839844 5.691406 Z M 0.839844 0.488281 " clip-rule="nonzero"/></clipPath><clipPath id="49a4d21f24"><rect x="0" width="7" y="0" height="6"/></clipPath><clipPath id="78d43af1c3"><rect x="0" width="7" y="0" height="6"/></clipPath><mask id="4e80573c2a"><g filter="url(#57a2817cc4)"><rect x="-24" width="288" fill="#000000" y="-13.275" height="159.299998" fill-opacity="0.29"/></g></mask><clipPath id="80b5eedfb1"><path d="M 1.058594 0.488281 L 6.550781 0.488281 L 6.550781 5.691406 L 1.058594 5.691406 Z M 1.058594 0.488281 " clip-rule="nonzero"/></clipPath><clipPath id="85c2d10122"><path d="M 0.0585938 0.488281 L 5.550781 0.488281 L 5.550781 5.691406 L 0.0585938 5.691406 Z M 0.0585938 0.488281 " clip-rule="nonzero"/></clipPath><clipPath id="977a871b8a"><rect x="0" width="6" y="0" height="6"/></clipPath><clipPath id="5091d81216"><rect x="0" width="7" y="0" height="6"/></clipPath><mask id="ce138fa77d"><g filter="url(#57a2817cc4)"><rect x="-24" width="288" fill="#000000" y="-13.275" height="159.299998" fill-opacity="0.29"/></g></mask><clipPath id="5dcbb3674b"><path d="M 0.273438 0.488281 L 5.765625 0.488281 L 5.765625 5.691406 L 0.273438 5.691406 Z M 0.273438 0.488281 " clip-rule="nonzero"/></clipPath><clipPath id="1fd0769fd0"><path d="M 0.273438 0.488281 L 5.765625 0.488281 L 5.765625 5.691406 L 0.273438 5.691406 Z M 0.273438 0.488281 " clip-rule="nonzero"/></clipPath><clipPath id="694cd04f66"><rect x="0" width="6" y="0" height="6"/></clipPath><clipPath id="70ec63fdb0"><rect x="0" width="6" y="0" height="6"/></clipPath><clipPath id="5435dff5ed"><path d="M 37.738281 46.253906 L 43.234375 46.253906 L 43.234375 51.457031 L 37.738281 51.457031 Z M 37.738281 46.253906 " clip-rule="nonzero"/></clipPath><clipPath id="cb576c1f74"><path d="M 0.738281 0.253906 L 6.234375 0.253906 L 6.234375 5.457031 L 0.738281 5.457031 Z M 0.738281 0.253906 " clip-rule="nonzero"/></clipPath><clipPath id="56e6053cb3"><rect x="0" width="7" y="0" height="6"/></clipPath><clipPath id="5aa2aeaf94"><path d="M 44.839844 46.253906 L 50.335938 46.253906 L 50.335938 51.457031 L 44.839844 51.457031 Z M 44.839844 46.253906 " clip-rule="nonzero"/></clipPath><clipPath id="c159e53e05"><path d="M 0.839844 0.253906 L 6.335938 0.253906 L 6.335938 5.457031 L 0.839844 5.457031 Z M 0.839844 0.253906 " clip-rule="nonzero"/></clipPath><clipPath id="b4bb8593e4"><rect x="0" width="7" y="0" height="6"/></clipPath><mask id="f9a0e4e8b3"><g filter="url(#57a2817cc4)"><rect x="-24" width="288" fill="#000000" y="-13.275" height="159.299998" fill-opacity="0.29"/></g></mask><clipPath id="b91f88e362"><path d="M 1.058594 0.253906 L 6.550781 0.253906 L 6.550781 5.457031 L 1.058594 5.457031 Z M 1.058594 0.253906 " clip-rule="nonzero"/></clipPath><clipPath id="e316f1426e"><path d="M 0.0585938 0.253906 L 5.550781 0.253906 L 5.550781 5.457031 L 0.0585938 5.457031 Z M 0.0585938 0.253906 " clip-rule="nonzero"/></clipPath><clipPath id="67be64e5e9"><rect x="0" width="6" y="0" height="6"/></clipPath><clipPath id="b5aa2a38c1"><rect x="0" width="7" y="0" height="6"/></clipPath><mask id="2d67fff743"><g filter="url(#57a2817cc4)"><rect x="-24" width="288" fill="#000000" y="-13.275" height="159.299998" fill-opacity="0.29"/></g></mask><clipPath id="405a0db703"><path d="M 0.273438 0.253906 L 5.765625 0.253906 L 5.765625 5.457031 L 0.273438 5.457031 Z M 0.273438 0.253906 " clip-rule="nonzero"/></clipPath><clipPath id="97b0fa358a"><path d="M 0.273438 0.253906 L 5.765625 0.253906 L 5.765625 5.457031 L 0.273438 5.457031 Z M 0.273438 0.253906 " clip-rule="nonzero"/></clipPath><clipPath id="22000557fa"><rect x="0" width="6" y="0" height="6"/></clipPath><clipPath id="ced1bb8ba0"><rect x="0" width="6" y="0" height="6"/></clipPath><mask id="07be3c3129"><g filter="url(#57a2817cc4)"><rect x="-24" width="288" fill="#000000" y="-13.275" height="159.299998" fill-opacity="0.29"/></g></mask><clipPath id="1ec9012f8a"><path d="M 0.738281 1.179688 L 6.234375 1.179688 L 6.234375 6.382812 L 0.738281 6.382812 Z M 0.738281 1.179688 " clip-rule="nonzero"/></clipPath><clipPath id="4850474dc2"><path d="M 0.738281 0.179688 L 6.234375 0.179688 L 6.234375 5.382812 L 0.738281 5.382812 Z M 0.738281 0.179688 " clip-rule="nonzero"/></clipPath><clipPath id="71bba8f9a8"><rect x="0" width="7" y="0" height="6"/></clipPath><clipPath id="7f56070b5a"><rect x="0" width="7" y="0" height="7"/></clipPath><clipPath id="c06a31de30"><path d="M 44.839844 53.179688 L 50.335938 53.179688 L 50.335938 58.382812 L 44.839844 58.382812 Z M 44.839844 53.179688 " clip-rule="nonzero"/></clipPath><clipPath id="8a40dace4f"><path d="M 0.839844 0.179688 L 6.335938 0.179688 L 6.335938 5.382812 L 0.839844 5.382812 Z M 0.839844 0.179688 " clip-rule="nonzero"/></clipPath><clipPath id="da39375825"><rect x="0" width="7" y="0" height="6"/></clipPath><clipPath id="da35cf9a33"><path d="M 52.058594 53.179688 L 57.550781 53.179688 L 57.550781 58.382812 L 52.058594 58.382812 Z M 52.058594 53.179688 " clip-rule="nonzero"/></clipPath><clipPath id="e8445a79c4"><path d="M 0.0585938 0.179688 L 5.550781 0.179688 L 5.550781 5.382812 L 0.0585938 5.382812 Z M 0.0585938 0.179688 " clip-rule="nonzero"/></clipPath><clipPath id="63b0f89736"><rect x="0" width="6" y="0" height="6"/></clipPath><mask id="24bf36ac11"><g filter="url(#57a2817cc4)"><rect x="-24" width="288" fill="#000000" y="-13.275" height="159.299998" fill-opacity="0.29"/></g></mask><clipPath id="2e967b4502"><path d="M 0.273438 1.179688 L 5.765625 1.179688 L 5.765625 6.382812 L 0.273438 6.382812 Z M 0.273438 1.179688 " clip-rule="nonzero"/></clipPath><clipPath id="e2d621b7b2"><path d="M 0.273438 0.179688 L 5.765625 0.179688 L 5.765625 5.382812 L 0.273438 5.382812 Z M 0.273438 0.179688 " clip-rule="nonzero"/></clipPath><clipPath id="99903d69da"><rect x="0" width="6" y="0" height="6"/></clipPath><clipPath id="faf0588291"><rect x="0" width="6" y="0" height="7"/></clipPath><mask id="9bf479c923"><g filter="url(#57a2817cc4)"><rect x="-24" width="288" fill="#000000" y="-13.275" height="159.299998" fill-opacity="0.29"/></g></mask><clipPath id="41e3fb6aec"><path d="M 0.738281 1.105469 L 6.234375 1.105469 L 6.234375 6.3125 L 0.738281 6.3125 Z M 0.738281 1.105469 " clip-rule="nonzero"/></clipPath><clipPath id="ed384404d9"><path d="M 0.738281 0.105469 L 6.234375 0.105469 L 6.234375 5.3125 L 0.738281 5.3125 Z M 0.738281 0.105469 " clip-rule="nonzero"/></clipPath><clipPath id="7c2d5ca72d"><rect x="0" width="7" y="0" height="6"/></clipPath><clipPath id="897bc1705a"><rect x="0" width="7" y="0" height="7"/></clipPath><mask id="ec0706ae31"><g filter="url(#57a2817cc4)"><rect x="-24" width="288" fill="#000000" y="-13.275" height="159.299998" fill-opacity="0.29"/></g></mask><clipPath id="3091a67939"><path d="M 0.839844 1.105469 L 6.335938 1.105469 L 6.335938 6.3125 L 0.839844 6.3125 Z M 0.839844 1.105469 " clip-rule="nonzero"/></clipPath><clipPath id="9b440dade3"><path d="M 0.839844 0.105469 L 6.335938 0.105469 L 6.335938 5.3125 L 0.839844 5.3125 Z M 0.839844 0.105469 " clip-rule="nonzero"/></clipPath><clipPath id="f4e08a7aef"><rect x="0" width="7" y="0" height="6"/></clipPath><clipPath id="bc4ecb7587"><rect x="0" width="7" y="0" height="7"/></clipPath><clipPath id="23be81bab7"><path d="M 52.058594 60.105469 L 57.550781 60.105469 L 57.550781 65.3125 L 52.058594 65.3125 Z M 52.058594 60.105469 " clip-rule="nonzero"/></clipPath><clipPath id="7986de2b4c"><path d="M 0.0585938 0.105469 L 5.550781 0.105469 L 5.550781 5.3125 L 0.0585938 5.3125 Z M 0.0585938 0.105469 " clip-rule="nonzero"/></clipPath><clipPath id="5eea12ad78"><rect x="0" width="6" y="0" height="6"/></clipPath><mask id="80470a9108"><g filter="url(#57a2817cc4)"><rect x="-24" width="288" fill="#000000" y="-13.275" height="159.299998" fill-opacity="0.29"/></g></mask><clipPath id="d5825cf1e5"><path d="M 0.273438 1.105469 L 5.765625 1.105469 L 5.765625 6.3125 L 0.273438 6.3125 Z M 0.273438 1.105469 " clip-rule="nonzero"/></clipPath><clipPath id="d2565977ad"><path d="M 0.273438 0.105469 L 5.765625 0.105469 L 5.765625 5.3125 L 0.273438 5.3125 Z M 0.273438 0.105469 " clip-rule="nonzero"/></clipPath><clipPath id="866c316f2f"><rect x="0" width="6" y="0" height="6"/></clipPath><clipPath id="1aede6176c"><rect x="0" width="6" y="0" height="7"/></clipPath><mask id="a8e84fbdb1"><g filter="url(#57a2817cc4)"><rect x="-24" width="288" fill="#000000" y="-13.275" height="159.299998" fill-opacity="0.29"/></g></mask><clipPath id="dcd353554e"><path d="M 0.738281 0.871094 L 6.234375 0.871094 L 6.234375 6.074219 L 0.738281 6.074219 Z M 0.738281 0.871094 " clip-rule="nonzero"/></clipPath><clipPath id="7d277decaf"><path d="M 0.738281 0.871094 L 6.234375 0.871094 L 6.234375 6.074219 L 0.738281 6.074219 Z M 0.738281 0.871094 " clip-rule="nonzero"/></clipPath><clipPath id="039c5147dc"><rect x="0" width="7" y="0" height="7"/></clipPath><clipPath id="dc625a0f18"><rect x="0" width="7" y="0" height="7"/></clipPath><mask id="b1d429fd6e"><g filter="url(#57a2817cc4)"><rect x="-24" width="288" fill="#000000" y="-13.275" height="159.299998" fill-opacity="0.29"/></g></mask><clipPath id="9243602d11"><path d="M 0.839844 0.871094 L 6.335938 0.871094 L 6.335938 6.074219 L 0.839844 6.074219 Z M 0.839844 0.871094 " clip-rule="nonzero"/></clipPath><clipPath id="597fe772d5"><path d="M 0.839844 0.871094 L 6.335938 0.871094 L 6.335938 6.074219 L 0.839844 6.074219 Z M 0.839844 0.871094 " clip-rule="nonzero"/></clipPath><clipPath id="cee9446470"><rect x="0" width="7" y="0" height="7"/></clipPath><clipPath id="68f6a8d9d8"><rect x="0" width="7" y="0" height="7"/></clipPath><mask id="aab35a99a3"><g filter="url(#57a2817cc4)"><rect x="-24" width="288" fill="#000000" y="-13.275" height="159.299998" fill-opacity="0.84"/></g></mask><clipPath id="a6d0a430c5"><path d="M 1.058594 0.871094 L 6.550781 0.871094 L 6.550781 6.074219 L 1.058594 6.074219 Z M 1.058594 0.871094 " clip-rule="nonzero"/></clipPath><clipPath id="9928f8084a"><path d="M 0.0585938 0.871094 L 5.550781 0.871094 L 5.550781 6.074219 L 0.0585938 6.074219 Z M 0.0585938 0.871094 " clip-rule="nonzero"/></clipPath><clipPath id="a4591fbde9"><rect x="0" width="6" y="0" height="7"/></clipPath><clipPath id="fa407c0c1d"><rect x="0" width="7" y="0" height="7"/></clipPath><mask id="ff37b65651"><g filter="url(#57a2817cc4)"><rect x="-24" width="288" fill="#000000" y="-13.275" height="159.299998" fill-opacity="0.29"/></g></mask><clipPath id="f3b62f6d0a"><path d="M 0.273438 0.871094 L 5.765625 0.871094 L 5.765625 6.074219 L 0.273438 6.074219 Z M 0.273438 0.871094 " clip-rule="nonzero"/></clipPath><clipPath id="7bf44c87dc"><path d="M 0.273438 0.871094 L 5.765625 0.871094 L 5.765625 6.074219 L 0.273438 6.074219 Z M 0.273438 0.871094 " clip-rule="nonzero"/></clipPath><clipPath id="d011841cb6"><rect x="0" width="6" y="0" height="7"/></clipPath><clipPath id="3a872e03ed"><rect x="0" width="6" y="0" height="7"/></clipPath><mask id="1f70598976"><g filter="url(#57a2817cc4)"><rect x="-24" width="288" fill="#000000" y="-13.275" height="159.299998" fill-opacity="0.29"/></g></mask><clipPath id="2271a022b2"><path d="M 0.738281 0.796875 L 6.234375 0.796875 L 6.234375 6.003906 L 0.738281 6.003906 Z M 0.738281 0.796875 " clip-rule="nonzero"/></clipPath><clipPath id="06cb892680"><path d="M 0.738281 0.796875 L 6.234375 0.796875 L 6.234375 6.003906 L 0.738281 6.003906 Z M 0.738281 0.796875 " clip-rule="nonzero"/></clipPath><clipPath id="96928f06ee"><rect x="0" width="7" y="0" height="7"/></clipPath><clipPath id="131f6c7e4a"><rect x="0" width="7" y="0" height="7"/></clipPath><clipPath id="903f2f3c2a"><path d="M 44.839844 73.796875 L 50.335938 73.796875 L 50.335938 79.003906 L 44.839844 79.003906 Z M 44.839844 73.796875 " clip-rule="nonzero"/></clipPath><clipPath id="d9a9e83d7e"><path d="M 0.839844 0.796875 L 6.335938 0.796875 L 6.335938 6.003906 L 0.839844 6.003906 Z M 0.839844 0.796875 " clip-rule="nonzero"/></clipPath><clipPath id="5e4fdca256"><rect x="0" width="7" y="0" height="7"/></clipPath><clipPath id="5506593f62"><path d="M 52.058594 73.796875 L 57.550781 73.796875 L 57.550781 79.003906 L 52.058594 79.003906 Z M 52.058594 73.796875 " clip-rule="nonzero"/></clipPath><clipPath id="478708c5e3"><path d="M 0.0585938 0.796875 L 5.550781 0.796875 L 5.550781 6.003906 L 0.0585938 6.003906 Z M 0.0585938 0.796875 " clip-rule="nonzero"/></clipPath><clipPath id="fdb7445576"><rect x="0" width="6" y="0" height="7"/></clipPath><mask id="47a906bead"><g filter="url(#57a2817cc4)"><rect x="-24" width="288" fill="#000000" y="-13.275" height="159.299998" fill-opacity="0.29"/></g></mask><clipPath id="83280c7b3b"><path d="M 0.273438 0.796875 L 5.765625 0.796875 L 5.765625 6.003906 L 0.273438 6.003906 Z M 0.273438 0.796875 " clip-rule="nonzero"/></clipPath><clipPath id="3320a64b67"><path d="M 0.273438 0.796875 L 5.765625 0.796875 L 5.765625 6.003906 L 0.273438 6.003906 Z M 0.273438 0.796875 " clip-rule="nonzero"/></clipPath><clipPath id="e5b9f64294"><rect x="0" width="6" y="0" height="7"/></clipPath><clipPath id="fecd5b2c00"><rect x="0" width="6" y="0" height="7"/></clipPath><mask id="40f8f3e22c"><g filter="url(#57a2817cc4)"><rect x="-24" width="288" fill="#000000" y="-13.275" height="159.299998" fill-opacity="0.29"/></g></mask><clipPath id="52760b9111"><path d="M 0.988281 0.488281 L 6.484375 0.488281 L 6.484375 5.691406 L 0.988281 5.691406 Z M 0.988281 0.488281 " clip-rule="nonzero"/></clipPath><clipPath id="71b1228b98"><path d="M 0.988281 0.488281 L 6.484375 0.488281 L 6.484375 5.691406 L 0.988281 5.691406 Z M 0.988281 0.488281 " clip-rule="nonzero"/></clipPath><clipPath id="a2d8a6db7b"><rect x="0" width="7" y="0" height="6"/></clipPath><clipPath id="684c60aaf9"><rect x="0" width="7" y="0" height="6"/></clipPath><mask id="fa3b476ea5"><g filter="url(#57a2817cc4)"><rect x="-24" width="288" fill="#000000" y="-13.275" height="159.299998" fill-opacity="0.29"/></g></mask><clipPath id="952e29a73d"><path d="M 0.0898438 0.488281 L 5.585938 0.488281 L 5.585938 5.691406 L 0.0898438 5.691406 Z M 0.0898438 0.488281 " clip-rule="nonzero"/></clipPath><clipPath id="c7be852b43"><path d="M 0.0898438 0.488281 L 5.585938 0.488281 L 5.585938 5.691406 L 0.0898438 5.691406 Z M 0.0898438 0.488281 " clip-rule="nonzero"/></clipPath><clipPath id="534f59be66"><rect x="0" width="6" y="0" height="6"/></clipPath><clipPath id="0ddbd224a1"><rect x="0" width="6" y="0" height="6"/></clipPath><mask id="4c7c495864"><g filter="url(#57a2817cc4)"><rect x="-24" width="288" fill="#000000" y="-13.275" height="159.299998" fill-opacity="0.29"/></g></mask><clipPath id="483b429d09"><path d="M 0.304688 0.488281 L 5.800781 0.488281 L 5.800781 5.691406 L 0.304688 5.691406 Z M 0.304688 0.488281 " clip-rule="nonzero"/></clipPath><clipPath id="bf857818d3"><path d="M 0.304688 0.488281 L 5.800781 0.488281 L 5.800781 5.691406 L 0.304688 5.691406 Z M 0.304688 0.488281 " clip-rule="nonzero"/></clipPath><clipPath id="58ac48e7e0"><rect x="0" width="6" y="0" height="6"/></clipPath><clipPath id="77e6a80df2"><rect x="0" width="6" y="0" height="6"/></clipPath><mask id="45947e423d"><g filter="url(#57a2817cc4)"><rect x="-24" width="288" fill="#000000" y="-13.275" height="159.299998" fill-opacity="0.29"/></g></mask><clipPath id="c207882b10"><path d="M 0.523438 0.488281 L 6.015625 0.488281 L 6.015625 5.691406 L 0.523438 5.691406 Z M 0.523438 0.488281 " clip-rule="nonzero"/></clipPath><clipPath id="db3fc34d20"><path d="M 0.523438 0.488281 L 6.015625 0.488281 L 6.015625 5.691406 L 0.523438 5.691406 Z M 0.523438 0.488281 " clip-rule="nonzero"/></clipPath><clipPath id="bfaa2925e9"><rect x="0" width="7" y="0" height="6"/></clipPath><clipPath id="e0d2f0c409"><rect x="0" width="7" y="0" height="6"/></clipPath><mask id="3305bfe604"><g filter="url(#57a2817cc4)"><rect x="-24" width="288" fill="#000000" y="-13.275" height="159.299998" fill-opacity="0.29"/></g></mask><clipPath id="00b3050461"><path d="M 0.988281 0.253906 L 6.484375 0.253906 L 6.484375 5.457031 L 0.988281 5.457031 Z M 0.988281 0.253906 " clip-rule="nonzero"/></clipPath><clipPath id="89664f56e4"><path d="M 0.988281 0.253906 L 6.484375 0.253906 L 6.484375 5.457031 L 0.988281 5.457031 Z M 0.988281 0.253906 " clip-rule="nonzero"/></clipPath><clipPath id="2254f31a11"><rect x="0" width="7" y="0" height="6"/></clipPath><clipPath id="44e5444f39"><rect x="0" width="7" y="0" height="6"/></clipPath><mask id="cc23699113"><g filter="url(#57a2817cc4)"><rect x="-24" width="288" fill="#000000" y="-13.275" height="159.299998" fill-opacity="0.29"/></g></mask><clipPath id="30e3b2f214"><path d="M 0.0898438 0.253906 L 5.585938 0.253906 L 5.585938 5.457031 L 0.0898438 5.457031 Z M 0.0898438 0.253906 " clip-rule="nonzero"/></clipPath><clipPath id="dacbaa3c5c"><path d="M 0.0898438 0.253906 L 5.585938 0.253906 L 5.585938 5.457031 L 0.0898438 5.457031 Z M 0.0898438 0.253906 " clip-rule="nonzero"/></clipPath><clipPath id="f48a1a59df"><rect x="0" width="6" y="0" height="6"/></clipPath><clipPath id="6e0c8c3db2"><rect x="0" width="6" y="0" height="6"/></clipPath><clipPath id="721989a053"><path d="M 23.304688 46.253906 L 28.800781 46.253906 L 28.800781 51.457031 L 23.304688 51.457031 Z M 23.304688 46.253906 " clip-rule="nonzero"/></clipPath><clipPath id="1ff336b588"><path d="M 0.304688 0.253906 L 5.800781 0.253906 L 5.800781 5.457031 L 0.304688 5.457031 Z M 0.304688 0.253906 " clip-rule="nonzero"/></clipPath><clipPath id="6610d1fe73"><rect x="0" width="6" y="0" height="6"/></clipPath><clipPath id="1ce5796743"><path d="M 30.523438 46.253906 L 36.015625 46.253906 L 36.015625 51.457031 L 30.523438 51.457031 Z M 30.523438 46.253906 " clip-rule="nonzero"/></clipPath><clipPath id="e000b40b73"><path d="M 0.523438 0.253906 L 6.015625 0.253906 L 6.015625 5.457031 L 0.523438 5.457031 Z M 0.523438 0.253906 " clip-rule="nonzero"/></clipPath><clipPath id="34ed158ad8"><rect x="0" width="7" y="0" height="6"/></clipPath><mask id="7e8bd10a9f"><g filter="url(#57a2817cc4)"><rect x="-24" width="288" fill="#000000" y="-13.275" height="159.299998" fill-opacity="0.29"/></g></mask><clipPath id="de03e33c04"><path d="M 0.988281 1.179688 L 6.484375 1.179688 L 6.484375 6.382812 L 0.988281 6.382812 Z M 0.988281 1.179688 " clip-rule="nonzero"/></clipPath><clipPath id="4714a05c97"><path d="M 0.988281 0.179688 L 6.484375 0.179688 L 6.484375 5.382812 L 0.988281 5.382812 Z M 0.988281 0.179688 " clip-rule="nonzero"/></clipPath><clipPath id="8e4120fe5c"><rect x="0" width="7" y="0" height="6"/></clipPath><clipPath id="84fdf6c1d8"><rect x="0" width="7" y="0" height="7"/></clipPath><clipPath id="3462526df2"><path d="M 16.089844 53.179688 L 21.585938 53.179688 L 21.585938 58.382812 L 16.089844 58.382812 Z M 16.089844 53.179688 " clip-rule="nonzero"/></clipPath><clipPath id="c25d2002f9"><path d="M 0.0898438 0.179688 L 5.585938 0.179688 L 5.585938 5.382812 L 0.0898438 5.382812 Z M 0.0898438 0.179688 " clip-rule="nonzero"/></clipPath><clipPath id="6da7b9767c"><rect x="0" width="6" y="0" height="6"/></clipPath><clipPath id="9bb85ae728"><path d="M 23.304688 53.179688 L 28.800781 53.179688 L 28.800781 58.382812 L 23.304688 58.382812 Z M 23.304688 53.179688 " clip-rule="nonzero"/></clipPath><clipPath id="81e8619fd4"><path d="M 0.304688 0.179688 L 5.800781 0.179688 L 5.800781 5.382812 L 0.304688 5.382812 Z M 0.304688 0.179688 " clip-rule="nonzero"/></clipPath><clipPath id="d116945c08"><rect x="0" width="6" y="0" height="6"/></clipPath><mask id="44b465a6ca"><g filter="url(#57a2817cc4)"><rect x="-24" width="288" fill="#000000" y="-13.275" height="159.299998" fill-opacity="0.29"/></g></mask><clipPath id="ba91ef0780"><path d="M 0.523438 1.179688 L 6.015625 1.179688 L 6.015625 6.382812 L 0.523438 6.382812 Z M 0.523438 1.179688 " clip-rule="nonzero"/></clipPath><clipPath id="cd860b9446"><path d="M 0.523438 0.179688 L 6.015625 0.179688 L 6.015625 5.382812 L 0.523438 5.382812 Z M 0.523438 0.179688 " clip-rule="nonzero"/></clipPath><clipPath id="7e702b33dd"><rect x="0" width="7" y="0" height="6"/></clipPath><clipPath id="b917a2b678"><rect x="0" width="7" y="0" height="7"/></clipPath><mask id="399b9feba5"><g filter="url(#57a2817cc4)"><rect x="-24" width="288" fill="#000000" y="-13.275" height="159.299998" fill-opacity="0.29"/></g></mask><clipPath id="3e0240771a"><path d="M 0.988281 1.105469 L 6.484375 1.105469 L 6.484375 6.3125 L 0.988281 6.3125 Z M 0.988281 1.105469 " clip-rule="nonzero"/></clipPath><clipPath id="58ef8ecd16"><path d="M 0.988281 0.105469 L 6.484375 0.105469 L 6.484375 5.3125 L 0.988281 5.3125 Z M 0.988281 0.105469 " clip-rule="nonzero"/></clipPath><clipPath id="b6fa7d9f07"><rect x="0" width="7" y="0" height="6"/></clipPath><clipPath id="9e8dfd535f"><rect x="0" width="7" y="0" height="7"/></clipPath><clipPath id="d6535654d2"><path d="M 16.089844 60.105469 L 21.585938 60.105469 L 21.585938 65.3125 L 16.089844 65.3125 Z M 16.089844 60.105469 " clip-rule="nonzero"/></clipPath><clipPath id="11b40cf442"><path d="M 0.0898438 0.105469 L 5.585938 0.105469 L 5.585938 5.3125 L 0.0898438 5.3125 Z M 0.0898438 0.105469 " clip-rule="nonzero"/></clipPath><clipPath id="c6f7ec0564"><rect x="0" width="6" y="0" height="6"/></clipPath><mask id="0248f3944d"><g filter="url(#57a2817cc4)"><rect x="-24" width="288" fill="#000000" y="-13.275" height="159.299998" fill-opacity="0.29"/></g></mask><clipPath id="3290f7544b"><path d="M 0.304688 1.105469 L 5.800781 1.105469 L 5.800781 6.3125 L 0.304688 6.3125 Z M 0.304688 1.105469 " clip-rule="nonzero"/></clipPath><clipPath id="939871de2a"><path d="M 0.304688 0.105469 L 5.800781 0.105469 L 5.800781 5.3125 L 0.304688 5.3125 Z M 0.304688 0.105469 " clip-rule="nonzero"/></clipPath><clipPath id="28d611a336"><rect x="0" width="6" y="0" height="6"/></clipPath><clipPath id="4556ca8f68"><rect x="0" width="6" y="0" height="7"/></clipPath><mask id="aa94a2e3b3"><g filter="url(#57a2817cc4)"><rect x="-24" width="288" fill="#000000" y="-13.275" height="159.299998" fill-opacity="0.29"/></g></mask><clipPath id="b5da11935f"><path d="M 0.523438 1.105469 L 6.015625 1.105469 L 6.015625 6.3125 L 0.523438 6.3125 Z M 0.523438 1.105469 " clip-rule="nonzero"/></clipPath><clipPath id="1fade31ec1"><path d="M 0.523438 0.105469 L 6.015625 0.105469 L 6.015625 5.3125 L 0.523438 5.3125 Z M 0.523438 0.105469 " clip-rule="nonzero"/></clipPath><clipPath id="70a5ef20c1"><rect x="0" width="7" y="0" height="6"/></clipPath><clipPath id="9ca7fb8ddd"><rect x="0" width="7" y="0" height="7"/></clipPath><mask id="1f116e5b1c"><g filter="url(#57a2817cc4)"><rect x="-24" width="288" fill="#000000" y="-13.275" height="159.299998" fill-opacity="0.29"/></g></mask><clipPath id="e4315307a2"><path d="M 0.988281 0.871094 L 6.484375 0.871094 L 6.484375 6.074219 L 0.988281 6.074219 Z M 0.988281 0.871094 " clip-rule="nonzero"/></clipPath><clipPath id="f4510a75b1"><path d="M 0.988281 0.871094 L 6.484375 0.871094 L 6.484375 6.074219 L 0.988281 6.074219 Z M 0.988281 0.871094 " clip-rule="nonzero"/></clipPath><clipPath id="a6d6d39076"><rect x="0" width="7" y="0" height="7"/></clipPath><clipPath id="722bd3a39c"><rect x="0" width="7" y="0" height="7"/></clipPath><clipPath id="bd9846e837"><path d="M 16.089844 66.871094 L 21.585938 66.871094 L 21.585938 72.074219 L 16.089844 72.074219 Z M 16.089844 66.871094 " clip-rule="nonzero"/></clipPath><clipPath id="991c9ffa20"><path d="M 0.0898438 0.871094 L 5.585938 0.871094 L 5.585938 6.074219 L 0.0898438 6.074219 Z M 0.0898438 0.871094 " clip-rule="nonzero"/></clipPath><clipPath id="aaec8b04b1"><rect x="0" width="6" y="0" height="7"/></clipPath><mask id="08879427f7"><g filter="url(#57a2817cc4)"><rect x="-24" width="288" fill="#000000" y="-13.275" height="159.299998" fill-opacity="0.29"/></g></mask><clipPath id="bc2e5fdca1"><path d="M 0.304688 0.871094 L 5.800781 0.871094 L 5.800781 6.074219 L 0.304688 6.074219 Z M 0.304688 0.871094 " clip-rule="nonzero"/></clipPath><clipPath id="c3ec71c4a9"><path d="M 0.304688 0.871094 L 5.800781 0.871094 L 5.800781 6.074219 L 0.304688 6.074219 Z M 0.304688 0.871094 " clip-rule="nonzero"/></clipPath><clipPath id="4966d9f639"><rect x="0" width="6" y="0" height="7"/></clipPath><clipPath id="9130e0e70e"><rect x="0" width="6" y="0" height="7"/></clipPath><mask id="93e0a7fc9f"><g filter="url(#57a2817cc4)"><rect x="-24" width="288" fill="#000000" y="-13.275" height="159.299998" fill-opacity="0.29"/></g></mask><clipPath id="8856c7b72a"><path d="M 0.523438 0.871094 L 6.015625 0.871094 L 6.015625 6.074219 L 0.523438 6.074219 Z M 0.523438 0.871094 " clip-rule="nonzero"/></clipPath><clipPath id="d99c047d1f"><path d="M 0.523438 0.871094 L 6.015625 0.871094 L 6.015625 6.074219 L 0.523438 6.074219 Z M 0.523438 0.871094 " clip-rule="nonzero"/></clipPath><clipPath id="459c977543"><rect x="0" width="7" y="0" height="7"/></clipPath><clipPath id="4978cc7e59"><rect x="0" width="7" y="0" height="7"/></clipPath><mask id="157c099442"><g filter="url(#57a2817cc4)"><rect x="-24" width="288" fill="#000000" y="-13.275" height="159.299998" fill-opacity="0.29"/></g></mask><clipPath id="42140ee797"><path d="M 0.988281 0.796875 L 6.484375 0.796875 L 6.484375 6.003906 L 0.988281 6.003906 Z M 0.988281 0.796875 " clip-rule="nonzero"/></clipPath><clipPath id="6593309416"><path d="M 0.988281 0.796875 L 6.484375 0.796875 L 6.484375 6.003906 L 0.988281 6.003906 Z M 0.988281 0.796875 " clip-rule="nonzero"/></clipPath><clipPath id="7dc6ee5b6b"><rect x="0" width="7" y="0" height="7"/></clipPath><clipPath id="70f8115c37"><rect x="0" width="7" y="0" height="7"/></clipPath><clipPath id="230ac6b888"><path d="M 16.089844 73.796875 L 21.585938 73.796875 L 21.585938 79.003906 L 16.089844 79.003906 Z M 16.089844 73.796875 " clip-rule="nonzero"/></clipPath><clipPath id="ad7d573ff9"><path d="M 0.0898438 0.796875 L 5.585938 0.796875 L 5.585938 6.003906 L 0.0898438 6.003906 Z M 0.0898438 0.796875 " clip-rule="nonzero"/></clipPath><clipPath id="f81d7ee569"><rect x="0" width="6" y="0" height="7"/></clipPath><clipPath id="fb6a0c7761"><path d="M 23.304688 73.796875 L 28.800781 73.796875 L 28.800781 79.003906 L 23.304688 79.003906 Z M 23.304688 73.796875 " clip-rule="nonzero"/></clipPath><clipPath id="356397487b"><path d="M 0.304688 0.796875 L 5.800781 0.796875 L 5.800781 6.003906 L 0.304688 6.003906 Z M 0.304688 0.796875 " clip-rule="nonzero"/></clipPath><clipPath id="3f597ede84"><rect x="0" width="6" y="0" height="7"/></clipPath><mask id="47f13ba13b"><g filter="url(#57a2817cc4)"><rect x="-24" width="288" fill="#000000" y="-13.275" height="159.299998" fill-opacity="0.29"/></g></mask><clipPath id="e88660c76f"><path d="M 0.523438 0.796875 L 6.015625 0.796875 L 6.015625 6.003906 L 0.523438 6.003906 Z M 0.523438 0.796875 " clip-rule="nonzero"/></clipPath><clipPath id="d1290a8220"><path d="M 0.523438 0.796875 L 6.015625 0.796875 L 6.015625 6.003906 L 0.523438 6.003906 Z M 0.523438 0.796875 " clip-rule="nonzero"/></clipPath><clipPath id="10233c49cf"><rect x="0" width="7" y="0" height="7"/></clipPath><clipPath id="621eae2adb"><rect x="0" width="7" y="0" height="7"/></clipPath><clipPath id="4c88180dae"><path d="M 37.738281 80.722656 L 43.234375 80.722656 L 43.234375 85.929688 L 37.738281 85.929688 Z M 37.738281 80.722656 " clip-rule="nonzero"/></clipPath><clipPath id="9e8818b615"><path d="M 0.738281 0.722656 L 6.234375 0.722656 L 6.234375 5.929688 L 0.738281 5.929688 Z M 0.738281 0.722656 " clip-rule="nonzero"/></clipPath><clipPath id="025b73521f"><rect x="0" width="7" y="0" height="6"/></clipPath><clipPath id="a8cc34bf81"><path d="M 44.839844 80.722656 L 50.335938 80.722656 L 50.335938 85.929688 L 44.839844 85.929688 Z M 44.839844 80.722656 " clip-rule="nonzero"/></clipPath><clipPath id="013e7b46e9"><path d="M 0.839844 0.722656 L 6.335938 0.722656 L 6.335938 5.929688 L 0.839844 5.929688 Z M 0.839844 0.722656 " clip-rule="nonzero"/></clipPath><clipPath id="1277e7a112"><rect x="0" width="7" y="0" height="6"/></clipPath><mask id="2608014a53"><g filter="url(#57a2817cc4)"><rect x="-24" width="288" fill="#000000" y="-13.275" height="159.299998" fill-opacity="0.29"/></g></mask><clipPath id="1e808dcfaf"><path d="M 1.058594 0.722656 L 6.550781 0.722656 L 6.550781 5.929688 L 1.058594 5.929688 Z M 1.058594 0.722656 " clip-rule="nonzero"/></clipPath><clipPath id="6c3207d65c"><path d="M 0.0585938 0.722656 L 5.550781 0.722656 L 5.550781 5.929688 L 0.0585938 5.929688 Z M 0.0585938 0.722656 " clip-rule="nonzero"/></clipPath><clipPath id="87a31898a5"><rect x="0" width="6" y="0" height="6"/></clipPath><clipPath id="9a4ee36826"><rect x="0" width="7" y="0" height="6"/></clipPath><mask id="9d567e1358"><g filter="url(#57a2817cc4)"><rect x="-24" width="288" fill="#000000" y="-13.275" height="159.299998" fill-opacity="0.29"/></g></mask><clipPath id="f5c63a2bbc"><path d="M 0.273438 0.722656 L 5.765625 0.722656 L 5.765625 5.929688 L 0.273438 5.929688 Z M 0.273438 0.722656 " clip-rule="nonzero"/></clipPath><clipPath id="6b2996e90f"><path d="M 0.273438 0.722656 L 5.765625 0.722656 L 5.765625 5.929688 L 0.273438 5.929688 Z M 0.273438 0.722656 " clip-rule="nonzero"/></clipPath><clipPath id="6287abdc4b"><rect x="0" width="6" y="0" height="6"/></clipPath><clipPath id="0e263c2a39"><rect x="0" width="6" y="0" height="6"/></clipPath><mask id="374716f896"><g filter="url(#57a2817cc4)"><rect x="-24" width="288" fill="#000000" y="-13.275" height="159.299998" fill-opacity="0.29"/></g></mask><clipPath id="8795d5f125"><path d="M 0.738281 0.652344 L 6.234375 0.652344 L 6.234375 5.855469 L 0.738281 5.855469 Z M 0.738281 0.652344 " clip-rule="nonzero"/></clipPath><clipPath id="1ad7563096"><path d="M 0.738281 0.652344 L 6.234375 0.652344 L 6.234375 5.855469 L 0.738281 5.855469 Z M 0.738281 0.652344 " clip-rule="nonzero"/></clipPath><clipPath id="c25e6688d5"><rect x="0" width="7" y="0" height="6"/></clipPath><clipPath id="6327df57a9"><rect x="0" width="7" y="0" height="6"/></clipPath><mask id="df23effee5"><g filter="url(#57a2817cc4)"><rect x="-24" width="288" fill="#000000" y="-13.275" height="159.299998" fill-opacity="0.29"/></g></mask><clipPath id="2fcd3046d4"><path d="M 0.839844 0.652344 L 6.335938 0.652344 L 6.335938 5.855469 L 0.839844 5.855469 Z M 0.839844 0.652344 " clip-rule="nonzero"/></clipPath><clipPath id="b180155fa9"><path d="M 0.839844 0.652344 L 6.335938 0.652344 L 6.335938 5.855469 L 0.839844 5.855469 Z M 0.839844 0.652344 " clip-rule="nonzero"/></clipPath><clipPath id="db88a7d1b6"><rect x="0" width="7" y="0" height="6"/></clipPath><clipPath id="5a485dc5b2"><rect x="0" width="7" y="0" height="6"/></clipPath><mask id="7d9a4809dc"><g filter="url(#57a2817cc4)"><rect x="-24" width="288" fill="#000000" y="-13.275" height="159.299998" fill-opacity="0.29"/></g></mask><clipPath id="7f57d769c5"><path d="M 1.058594 0.652344 L 6.550781 0.652344 L 6.550781 5.855469 L 1.058594 5.855469 Z M 1.058594 0.652344 " clip-rule="nonzero"/></clipPath><clipPath id="480c10631d"><path d="M 0.0585938 0.652344 L 5.550781 0.652344 L 5.550781 5.855469 L 0.0585938 5.855469 Z M 0.0585938 0.652344 " clip-rule="nonzero"/></clipPath><clipPath id="019638037e"><rect x="0" width="6" y="0" height="6"/></clipPath><clipPath id="c0efaee05a"><rect x="0" width="7" y="0" height="6"/></clipPath><mask id="feba24deaa"><g filter="url(#57a2817cc4)"><rect x="-24" width="288" fill="#000000" y="-13.275" height="159.299998" fill-opacity="0.29"/></g></mask><clipPath id="f85a7bae79"><path d="M 0.273438 0.652344 L 5.765625 0.652344 L 5.765625 5.855469 L 0.273438 5.855469 Z M 0.273438 0.652344 " clip-rule="nonzero"/></clipPath><clipPath id="5e43794663"><path d="M 0.273438 0.652344 L 5.765625 0.652344 L 5.765625 5.855469 L 0.273438 5.855469 Z M 0.273438 0.652344 " clip-rule="nonzero"/></clipPath><clipPath id="ad92f98b53"><rect x="0" width="6" y="0" height="6"/></clipPath><clipPath id="7b656bafa5"><rect x="0" width="6" y="0" height="6"/></clipPath><mask id="d04ee39495"><g filter="url(#57a2817cc4)"><rect x="-24" width="288" fill="#000000" y="-13.275" height="159.299998" fill-opacity="0.29"/></g></mask><clipPath id="7b401e8758"><path d="M 0.988281 0.722656 L 6.484375 0.722656 L 6.484375 5.929688 L 0.988281 5.929688 Z M 0.988281 0.722656 " clip-rule="nonzero"/></clipPath><clipPath id="f9b602143c"><path d="M 0.988281 0.722656 L 6.484375 0.722656 L 6.484375 5.929688 L 0.988281 5.929688 Z M 0.988281 0.722656 " clip-rule="nonzero"/></clipPath><clipPath id="345d59c3ef"><rect x="0" width="7" y="0" height="6"/></clipPath><clipPath id="c1fff853dd"><rect x="0" width="7" y="0" height="6"/></clipPath><mask id="7776b5b321"><g filter="url(#57a2817cc4)"><rect x="-24" width="288" fill="#000000" y="-13.275" height="159.299998" fill-opacity="0.29"/></g></mask><clipPath id="c795e00283"><path d="M 0.0898438 0.722656 L 5.585938 0.722656 L 5.585938 5.929688 L 0.0898438 5.929688 Z M 0.0898438 0.722656 " clip-rule="nonzero"/></clipPath><clipPath id="d2fa9fdbc2"><path d="M 0.0898438 0.722656 L 5.585938 0.722656 L 5.585938 5.929688 L 0.0898438 5.929688 Z M 0.0898438 0.722656 " clip-rule="nonzero"/></clipPath><clipPath id="ab74a321c0"><rect x="0" width="6" y="0" height="6"/></clipPath><clipPath id="2b3ebf4840"><rect x="0" width="6" y="0" height="6"/></clipPath><clipPath id="980fd82195"><path d="M 23.304688 80.722656 L 28.800781 80.722656 L 28.800781 85.929688 L 23.304688 85.929688 Z M 23.304688 80.722656 " clip-rule="nonzero"/></clipPath><clipPath id="ed5cc07655"><path d="M 0.304688 0.722656 L 5.800781 0.722656 L 5.800781 5.929688 L 0.304688 5.929688 Z M 0.304688 0.722656 " clip-rule="nonzero"/></clipPath><clipPath id="ea13b7c620"><rect x="0" width="6" y="0" height="6"/></clipPath><clipPath id="be6e0c1759"><path d="M 30.523438 80.722656 L 36.015625 80.722656 L 36.015625 85.929688 L 30.523438 85.929688 Z M 30.523438 80.722656 " clip-rule="nonzero"/></clipPath><clipPath id="ca626dae7a"><path d="M 0.523438 0.722656 L 6.015625 0.722656 L 6.015625 5.929688 L 0.523438 5.929688 Z M 0.523438 0.722656 " clip-rule="nonzero"/></clipPath><clipPath id="3cd5baa40e"><rect x="0" width="7" y="0" height="6"/></clipPath><mask id="9f8c68092f"><g filter="url(#57a2817cc4)"><rect x="-24" width="288" fill="#000000" y="-13.275" height="159.299998" fill-opacity="0.29"/></g></mask><clipPath id="c148279a73"><path d="M 0.988281 0.652344 L 6.484375 0.652344 L 6.484375 5.855469 L 0.988281 5.855469 Z M 0.988281 0.652344 " clip-rule="nonzero"/></clipPath><clipPath id="aa0d47b22b"><path d="M 0.988281 0.652344 L 6.484375 0.652344 L 6.484375 5.855469 L 0.988281 5.855469 Z M 0.988281 0.652344 " clip-rule="nonzero"/></clipPath><clipPath id="b0c90b3646"><rect x="0" width="7" y="0" height="6"/></clipPath><clipPath id="a250961edc"><rect x="0" width="7" y="0" height="6"/></clipPath><mask id="92bb16e288"><g filter="url(#57a2817cc4)"><rect x="-24" width="288" fill="#000000" y="-13.275" height="159.299998" fill-opacity="0.29"/></g></mask><clipPath id="d5087da1d0"><path d="M 0.0898438 0.652344 L 5.585938 0.652344 L 5.585938 5.855469 L 0.0898438 5.855469 Z M 0.0898438 0.652344 " clip-rule="nonzero"/></clipPath><clipPath id="2dbd64f4fb"><path d="M 0.0898438 0.652344 L 5.585938 0.652344 L 5.585938 5.855469 L 0.0898438 5.855469 Z M 0.0898438 0.652344 " clip-rule="nonzero"/></clipPath><clipPath id="4b9eb59061"><rect x="0" width="6" y="0" height="6"/></clipPath><clipPath id="f96cde4f2c"><rect x="0" width="6" y="0" height="6"/></clipPath><mask id="7699635ed5"><g filter="url(#57a2817cc4)"><rect x="-24" width="288" fill="#000000" y="-13.275" height="159.299998" fill-opacity="0.29"/></g></mask><clipPath id="b7ee33d53e"><path d="M 0.304688 0.652344 L 5.800781 0.652344 L 5.800781 5.855469 L 0.304688 5.855469 Z M 0.304688 0.652344 " clip-rule="nonzero"/></clipPath><clipPath id="7ae892dbb5"><path d="M 0.304688 0.652344 L 5.800781 0.652344 L 5.800781 5.855469 L 0.304688 5.855469 Z M 0.304688 0.652344 " clip-rule="nonzero"/></clipPath><clipPath id="14a2ecf8c3"><rect x="0" width="6" y="0" height="6"/></clipPath><clipPath id="00a1bd975e"><rect x="0" width="6" y="0" height="6"/></clipPath><mask id="6b44d86e51"><g filter="url(#57a2817cc4)"><rect x="-24" width="288" fill="#000000" y="-13.275" height="159.299998" fill-opacity="0.29"/></g></mask><clipPath id="0c78de7e68"><path d="M 0.523438 0.652344 L 6.015625 0.652344 L 6.015625 5.855469 L 0.523438 5.855469 Z M 0.523438 0.652344 " clip-rule="nonzero"/></clipPath><clipPath id="4044ba0a28"><path d="M 0.523438 0.652344 L 6.015625 0.652344 L 6.015625 5.855469 L 0.523438 5.855469 Z M 0.523438 0.652344 " clip-rule="nonzero"/></clipPath><clipPath id="9ebec93995"><rect x="0" width="7" y="0" height="6"/></clipPath><clipPath id="e085c012fa"><rect x="0" width="7" y="0" height="6"/></clipPath></defs><g clip-path="url(#639682189d)"><g transform="matrix(1, 0, 0, 1, 0.000000000000000028, 95)"><g clip-path="url(#f89f79d069)"><g clip-path="url(#8a6575aa4b)"><path fill="#ffffff" d="M 0.226562 6.355469 L 0.226562 0.253906 L 19.238281 0.253906 L 19.238281 6.355469 Z M 0.226562 6.355469 " fill-opacity="1" fill-rule="nonzero"/></g></g></g></g><g clip-path="url(#e0d53019c0)"><g transform="matrix(1, 0, 0, 1, 54, 95)"><g clip-path="url(#c4a0137d07)"><g clip-path="url(#73b595939f)"><path fill="#ffffff" d="M 19.222656 0.289062 L 19.222656 6.390625 L 0.496094 6.390625 L 0.496094 0.289062 Z M 19.222656 0.289062 " fill-opacity="1" fill-rule="nonzero"/></g></g></g></g><g clip-path="url(#c26a2c63c8)"><g transform="matrix(1, 0, 0, 1, 0.000000000000000028, 30)"><g clip-path="url(#53cc9bcbe4)"><g clip-path="url(#4dfdee2a47)"><path fill="#ffffff" d="M 0.226562 0.984375 L 6.671875 0.984375 L 6.671875 71.359375 L 0.226562 71.359375 Z M 0.226562 0.984375 " fill-opacity="1" fill-rule="nonzero"/></g></g></g></g><g clip-path="url(#dff406ed79)"><g transform="matrix(1, 0, 0, 1, 0.000000000000000028, 30)"><g clip-path="url(#daf195cea8)"><g clip-path="url(#94e0c0b160)"><path fill="#ffffff" d="M 0.226562 7.078125 L 0.226562 0.980469 L 19.238281 0.980469 L 19.238281 7.078125 Z M 0.226562 7.078125 " fill-opacity="1" fill-rule="nonzero"/></g></g></g></g><g clip-path="url(#773b72a52c)"><g transform="matrix(1, 0, 0, 1, 67, 30)"><g clip-path="url(#0cbd551f44)"><g clip-path="url(#18b19e7b78)"><path fill="#ffffff" d="M 6.222656 71.351562 L 0.0742188 71.351562 L 0.0742188 0.980469 L 6.222656 0.980469 Z M 6.222656 71.351562 " fill-opacity="1" fill-rule="nonzero"/></g></g></g></g><g clip-path="url(#2f60e4bc81)"><g transform="matrix(1, 0, 0, 1, 54, 30)"><g clip-path="url(#52c2d05b00)"><g clip-path="url(#dff4b9c0f6)"><path fill="#ffffff" d="M 19.222656 0.984375 L 19.222656 7.082031 L 0.496094 7.082031 L 0.496094 0.984375 Z M 19.222656 0.984375 " fill-opacity="1" fill-rule="nonzero"/></g></g></g></g><g transform="matrix(1, 0, 0, 1, 75, 20)"><g clip-path="url(#73f3c1e335)"><g fill="#ffffff" fill-opacity="1"><g transform="translate(0.957832, 72.879826)"><g><path d="M 54.0625 -52.1875 L 54.0625 0 L 44.140625 0 L 18.125 -31.6875 L 18.125 0 L 6.1875 0 L 6.1875 -52.1875 L 16.1875 -52.1875 L 42.125 -20.5 L 42.125 -52.1875 Z M 54.0625 -52.1875 "/></g></g></g><g fill="#ffffff" fill-opacity="1"><g transform="translate(61.207474, 72.879826)"><g><path d="M 6.1875 -52.1875 L 18.265625 -52.1875 L 18.265625 0 L 6.1875 0 Z M 6.1875 -52.1875 "/></g></g></g><g fill="#ffffff" fill-opacity="1"><g transform="translate(85.665251, 72.879826)"><g><path d="M 40.5625 -11.1875 L 16.328125 -11.1875 L 11.703125 0 L -0.671875 0 L 22.59375 -52.1875 L 34.515625 -52.1875 L 57.859375 0 L 45.1875 0 Z M 36.765625 -20.359375 L 28.484375 -40.34375 L 20.203125 -20.359375 Z M 36.765625 -20.359375 "/></g></g></g></g></g><g mask="url(#c574093e96)"><g transform="matrix(1, 0, 0, 1, 37, 39)"><g clip-path="url(#f25dc1d9c8)"><g clip-path="url(#15b743af0e)"><g transform="matrix(1, 0, 0, 1, 0, -0.000000000000014211)"><g clip-path="url(#f25c0a8246)"><g clip-path="url(#a2bbe770a2)"><path fill="#8c52ff" d="M 0.738281 0.488281 L 6.226562 0.488281 L 6.226562 5.691406 L 0.738281 5.691406 Z M 0.738281 0.488281 " fill-opacity="1" fill-rule="nonzero"/></g></g></g></g></g></g></g><g mask="url(#4833987705)"><g transform="matrix(1, 0, 0, 1, 44, 39)"><g clip-path="url(#78d43af1c3)"><g clip-path="url(#2455341e9e)"><g transform="matrix(1, 0, 0, 1, -0.000000000000007105, -0.000000000000014211)"><g clip-path="url(#49a4d21f24)"><g clip-path="url(#1b05242b7c)"><path fill="#8c52ff" d="M 0.839844 0.488281 L 6.328125 0.488281 L 6.328125 5.691406 L 0.839844 5.691406 Z M 0.839844 0.488281 " fill-opacity="1" fill-rule="nonzero"/></g></g></g></g></g></g></g><g mask="url(#4e80573c2a)"><g transform="matrix(1, 0, 0, 1, 51, 39)"><g clip-path="url(#5091d81216)"><g clip-path="url(#80b5eedfb1)"><g transform="matrix(1, 0, 0, 1, 1, -0.000000000000014211)"><g clip-path="url(#977a871b8a)"><g clip-path="url(#85c2d10122)"><path fill="#8c52ff" d="M 0.0585938 0.488281 L 5.546875 0.488281 L 5.546875 5.691406 L 0.0585938 5.691406 Z M 0.0585938 0.488281 " fill-opacity="1" fill-rule="nonzero"/></g></g></g></g></g></g></g><g mask="url(#ce138fa77d)"><g transform="matrix(1, 0, 0, 1, 59, 39)"><g clip-path="url(#70ec63fdb0)"><g clip-path="url(#5dcbb3674b)"><g transform="matrix(1, 0, 0, 1, -0.000000000000014211, -0.000000000000014211)"><g clip-path="url(#694cd04f66)"><g clip-path="url(#1fd0769fd0)"><path fill="#8c52ff" d="M 0.273438 0.488281 L 5.761719 0.488281 L 5.761719 5.691406 L 0.273438 5.691406 Z M 0.273438 0.488281 " fill-opacity="1" fill-rule="nonzero"/></g></g></g></g></g></g></g><g clip-path="url(#5435dff5ed)"><g transform="matrix(1, 0, 0, 1, 37, 46)"><g clip-path="url(#56e6053cb3)"><g clip-path="url(#cb576c1f74)"><path fill="#8c52ff" d="M 0.738281 0.253906 L 6.226562 0.253906 L 6.226562 5.457031 L 0.738281 5.457031 Z M 0.738281 0.253906 " fill-opacity="1" fill-rule="nonzero"/></g></g></g></g><g clip-path="url(#5aa2aeaf94)"><g transform="matrix(1, 0, 0, 1, 44, 46)"><g clip-path="url(#b4bb8593e4)"><g clip-path="url(#c159e53e05)"><path fill="#8c52ff" d="M 0.839844 0.253906 L 6.328125 0.253906 L 6.328125 5.457031 L 0.839844 5.457031 Z M 0.839844 0.253906 " fill-opacity="1" fill-rule="nonzero"/></g></g></g></g><g mask="url(#f9a0e4e8b3)"><g transform="matrix(1, 0, 0, 1, 51, 46)"><g clip-path="url(#b5aa2a38c1)"><g clip-path="url(#b91f88e362)"><g transform="matrix(1, 0, 0, 1, 1, -0.000000000000014211)"><g clip-path="url(#67be64e5e9)"><g clip-path="url(#e316f1426e)"><path fill="#8c52ff" d="M 0.0585938 0.253906 L 5.546875 0.253906 L 5.546875 5.457031 L 0.0585938 5.457031 Z M 0.0585938 0.253906 " fill-opacity="1" fill-rule="nonzero"/></g></g></g></g></g></g></g><g mask="url(#2d67fff743)"><g transform="matrix(1, 0, 0, 1, 59, 46)"><g clip-path="url(#ced1bb8ba0)"><g clip-path="url(#405a0db703)"><g transform="matrix(1, 0, 0, 1, -0.000000000000014211, -0.000000000000014211)"><g clip-path="url(#22000557fa)"><g clip-path="url(#97b0fa358a)"><path fill="#8c52ff" d="M 0.273438 0.253906 L 5.761719 0.253906 L 5.761719 5.457031 L 0.273438 5.457031 Z M 0.273438 0.253906 " fill-opacity="1" fill-rule="nonzero"/></g></g></g></g></g></g></g><g mask="url(#07be3c3129)"><g transform="matrix(1, 0, 0, 1, 37, 52)"><g clip-path="url(#7f56070b5a)"><g clip-path="url(#1ec9012f8a)"><g transform="matrix(1, 0, 0, 1, 0, 1)"><g clip-path="url(#71bba8f9a8)"><g clip-path="url(#4850474dc2)"><path fill="#8c52ff" d="M 0.738281 0.179688 L 6.226562 0.179688 L 6.226562 5.382812 L 0.738281 5.382812 Z M 0.738281 0.179688 " fill-opacity="1" fill-rule="nonzero"/></g></g></g></g></g></g></g><g clip-path="url(#c06a31de30)"><g transform="matrix(1, 0, 0, 1, 44, 53)"><g clip-path="url(#da39375825)"><g clip-path="url(#8a40dace4f)"><path fill="#8c52ff" d="M 0.839844 0.179688 L 6.328125 0.179688 L 6.328125 5.382812 L 0.839844 5.382812 Z M 0.839844 0.179688 " fill-opacity="1" fill-rule="nonzero"/></g></g></g></g><g clip-path="url(#da35cf9a33)"><g transform="matrix(1, 0, 0, 1, 52, 53)"><g clip-path="url(#63b0f89736)"><g clip-path="url(#e8445a79c4)"><path fill="#8c52ff" d="M 0.0585938 0.179688 L 5.546875 0.179688 L 5.546875 5.382812 L 0.0585938 5.382812 Z M 0.0585938 0.179688 " fill-opacity="1" fill-rule="nonzero"/></g></g></g></g><g mask="url(#24bf36ac11)"><g transform="matrix(1, 0, 0, 1, 59, 52)"><g clip-path="url(#faf0588291)"><g clip-path="url(#2e967b4502)"><g transform="matrix(1, 0, 0, 1, -0.000000000000014211, 1)"><g clip-path="url(#99903d69da)"><g clip-path="url(#e2d621b7b2)"><path fill="#8c52ff" d="M 0.273438 0.179688 L 5.761719 0.179688 L 5.761719 5.382812 L 0.273438 5.382812 Z M 0.273438 0.179688 " fill-opacity="1" fill-rule="nonzero"/></g></g></g></g></g></g></g><g mask="url(#9bf479c923)"><g transform="matrix(1, 0, 0, 1, 37, 59)"><g clip-path="url(#897bc1705a)"><g clip-path="url(#41e3fb6aec)"><g transform="matrix(1, 0, 0, 1, 0, 1)"><g clip-path="url(#7c2d5ca72d)"><g clip-path="url(#ed384404d9)"><path fill="#8c52ff" d="M 0.738281 0.105469 L 6.226562 0.105469 L 6.226562 5.3125 L 0.738281 5.3125 Z M 0.738281 0.105469 " fill-opacity="1" fill-rule="nonzero"/></g></g></g></g></g></g></g><g mask="url(#ec0706ae31)"><g transform="matrix(1, 0, 0, 1, 44, 59)"><g clip-path="url(#bc4ecb7587)"><g clip-path="url(#3091a67939)"><g transform="matrix(1, 0, 0, 1, -0.000000000000007105, 1)"><g clip-path="url(#f4e08a7aef)"><g clip-path="url(#9b440dade3)"><path fill="#8c52ff" d="M 0.839844 0.105469 L 6.328125 0.105469 L 6.328125 5.3125 L 0.839844 5.3125 Z M 0.839844 0.105469 " fill-opacity="1" fill-rule="nonzero"/></g></g></g></g></g></g></g><g clip-path="url(#23be81bab7)"><g transform="matrix(1, 0, 0, 1, 52, 60)"><g clip-path="url(#5eea12ad78)"><g clip-path="url(#7986de2b4c)"><path fill="#8c52ff" d="M 0.0585938 0.105469 L 5.546875 0.105469 L 5.546875 5.3125 L 0.0585938 5.3125 Z M 0.0585938 0.105469 " fill-opacity="1" fill-rule="nonzero"/></g></g></g></g><g mask="url(#80470a9108)"><g transform="matrix(1, 0, 0, 1, 59, 59)"><g clip-path="url(#1aede6176c)"><g clip-path="url(#d5825cf1e5)"><g transform="matrix(1, 0, 0, 1, -0.000000000000014211, 1)"><g clip-path="url(#866c316f2f)"><g clip-path="url(#d2565977ad)"><path fill="#8c52ff" d="M 0.273438 0.105469 L 5.761719 0.105469 L 5.761719 5.3125 L 0.273438 5.3125 Z M 0.273438 0.105469 " fill-opacity="1" fill-rule="nonzero"/></g></g></g></g></g></g></g><g mask="url(#a8e84fbdb1)"><g transform="matrix(1, 0, 0, 1, 37, 66)"><g clip-path="url(#dc625a0f18)"><g clip-path="url(#dcd353554e)"><g transform="matrix(1, 0, 0, 1, 0, -0.000000000000014211)"><g clip-path="url(#039c5147dc)"><g clip-path="url(#7d277decaf)"><path fill="#8c52ff" d="M 0.738281 0.871094 L 6.226562 0.871094 L 6.226562 6.074219 L 0.738281 6.074219 Z M 0.738281 0.871094 " fill-opacity="1" fill-rule="nonzero"/></g></g></g></g></g></g></g><g mask="url(#b1d429fd6e)"><g transform="matrix(1, 0, 0, 1, 44, 66)"><g clip-path="url(#68f6a8d9d8)"><g clip-path="url(#9243602d11)"><g transform="matrix(1, 0, 0, 1, -0.000000000000007105, -0.000000000000014211)"><g clip-path="url(#cee9446470)"><g clip-path="url(#597fe772d5)"><path fill="#8c52ff" d="M 0.839844 0.871094 L 6.328125 0.871094 L 6.328125 6.074219 L 0.839844 6.074219 Z M 0.839844 0.871094 " fill-opacity="1" fill-rule="nonzero"/></g></g></g></g></g></g></g><g mask="url(#aab35a99a3)"><g transform="matrix(1, 0, 0, 1, 51, 66)"><g clip-path="url(#fa407c0c1d)"><g clip-path="url(#a6d0a430c5)"><g transform="matrix(1, 0, 0, 1, 1, -0.000000000000014211)"><g clip-path="url(#a4591fbde9)"><g clip-path="url(#9928f8084a)"><path fill="#8c52ff" d="M 0.0585938 0.871094 L 5.546875 0.871094 L 5.546875 6.074219 L 0.0585938 6.074219 Z M 0.0585938 0.871094 " fill-opacity="1" fill-rule="nonzero"/></g></g></g></g></g></g></g><g mask="url(#ff37b65651)"><g transform="matrix(1, 0, 0, 1, 59, 66)"><g clip-path="url(#3a872e03ed)"><g clip-path="url(#f3b62f6d0a)"><g transform="matrix(1, 0, 0, 1, -0.000000000000014211, -0.000000000000014211)"><g clip-path="url(#d011841cb6)"><g clip-path="url(#7bf44c87dc)"><path fill="#8c52ff" d="M 0.273438 0.871094 L 5.761719 0.871094 L 5.761719 6.074219 L 0.273438 6.074219 Z M 0.273438 0.871094 " fill-opacity="1" fill-rule="nonzero"/></g></g></g></g></g></g></g><g mask="url(#1f70598976)"><g transform="matrix(1, 0, 0, 1, 37, 73)"><g clip-path="url(#131f6c7e4a)"><g clip-path="url(#2271a022b2)"><g transform="matrix(1, 0, 0, 1, 0, -0.000000000000014211)"><g clip-path="url(#96928f06ee)"><g clip-path="url(#06cb892680)"><path fill="#8c52ff" d="M 0.738281 0.796875 L 6.226562 0.796875 L 6.226562 6.003906 L 0.738281 6.003906 Z M 0.738281 0.796875 " fill-opacity="1" fill-rule="nonzero"/></g></g></g></g></g></g></g><g clip-path="url(#903f2f3c2a)"><g transform="matrix(1, 0, 0, 1, 44, 73)"><g clip-path="url(#5e4fdca256)"><g clip-path="url(#d9a9e83d7e)"><path fill="#8c52ff" d="M 0.839844 0.796875 L 6.328125 0.796875 L 6.328125 6.003906 L 0.839844 6.003906 Z M 0.839844 0.796875 " fill-opacity="1" fill-rule="nonzero"/></g></g></g></g><g clip-path="url(#5506593f62)"><g transform="matrix(1, 0, 0, 1, 52, 73)"><g clip-path="url(#fdb7445576)"><g clip-path="url(#478708c5e3)"><path fill="#8c52ff" d="M 0.0585938 0.796875 L 5.546875 0.796875 L 5.546875 6.003906 L 0.0585938 6.003906 Z M 0.0585938 0.796875 " fill-opacity="1" fill-rule="nonzero"/></g></g></g></g><g mask="url(#47a906bead)"><g transform="matrix(1, 0, 0, 1, 59, 73)"><g clip-path="url(#fecd5b2c00)"><g clip-path="url(#83280c7b3b)"><g transform="matrix(1, 0, 0, 1, -0.000000000000014211, -0.000000000000014211)"><g clip-path="url(#e5b9f64294)"><g clip-path="url(#3320a64b67)"><path fill="#8c52ff" d="M 0.273438 0.796875 L 5.761719 0.796875 L 5.761719 6.003906 L 0.273438 6.003906 Z M 0.273438 0.796875 " fill-opacity="1" fill-rule="nonzero"/></g></g></g></g></g></g></g><g mask="url(#40f8f3e22c)"><g transform="matrix(1, 0, 0, 1, 8, 39)"><g clip-path="url(#684c60aaf9)"><g clip-path="url(#52760b9111)"><g transform="matrix(1, 0, 0, 1, -0.000000000000001776, -0.000000000000014211)"><g clip-path="url(#a2d8a6db7b)"><g clip-path="url(#71b1228b98)"><path fill="#8c52ff" d="M 0.988281 0.488281 L 6.476562 0.488281 L 6.476562 5.691406 L 0.988281 5.691406 Z M 0.988281 0.488281 " fill-opacity="1" fill-rule="nonzero"/></g></g></g></g></g></g></g><g mask="url(#fa3b476ea5)"><g transform="matrix(1, 0, 0, 1, 16, 39)"><g clip-path="url(#0ddbd224a1)"><g clip-path="url(#952e29a73d)"><g transform="matrix(1, 0, 0, 1, -0.000000000000003553, -0.000000000000014211)"><g clip-path="url(#534f59be66)"><g clip-path="url(#c7be852b43)"><path fill="#8c52ff" d="M 0.0898438 0.488281 L 5.578125 0.488281 L 5.578125 5.691406 L 0.0898438 5.691406 Z M 0.0898438 0.488281 " fill-opacity="1" fill-rule="nonzero"/></g></g></g></g></g></g></g><g mask="url(#4c7c495864)"><g transform="matrix(1, 0, 0, 1, 23, 39)"><g clip-path="url(#77e6a80df2)"><g clip-path="url(#483b429d09)"><g transform="matrix(1, 0, 0, 1, -0.000000000000003553, -0.000000000000014211)"><g clip-path="url(#58ac48e7e0)"><g clip-path="url(#bf857818d3)"><path fill="#8c52ff" d="M 0.304688 0.488281 L 5.796875 0.488281 L 5.796875 5.691406 L 0.304688 5.691406 Z M 0.304688 0.488281 " fill-opacity="1" fill-rule="nonzero"/></g></g></g></g></g></g></g><g mask="url(#45947e423d)"><g transform="matrix(1, 0, 0, 1, 30, 39)"><g clip-path="url(#e0d2f0c409)"><g clip-path="url(#c207882b10)"><g transform="matrix(1, 0, 0, 1, -0.000000000000007105, -0.000000000000014211)"><g clip-path="url(#bfaa2925e9)"><g clip-path="url(#db3fc34d20)"><path fill="#8c52ff" d="M 0.523438 0.488281 L 6.011719 0.488281 L 6.011719 5.691406 L 0.523438 5.691406 Z M 0.523438 0.488281 " fill-opacity="1" fill-rule="nonzero"/></g></g></g></g></g></g></g><g mask="url(#3305bfe604)"><g transform="matrix(1, 0, 0, 1, 8, 46)"><g clip-path="url(#44e5444f39)"><g clip-path="url(#00b3050461)"><g transform="matrix(1, 0, 0, 1, -0.000000000000001776, -0.000000000000014211)"><g clip-path="url(#2254f31a11)"><g clip-path="url(#89664f56e4)"><path fill="#8c52ff" d="M 0.988281 0.253906 L 6.476562 0.253906 L 6.476562 5.457031 L 0.988281 5.457031 Z M 0.988281 0.253906 " fill-opacity="1" fill-rule="nonzero"/></g></g></g></g></g></g></g><g mask="url(#cc23699113)"><g transform="matrix(1, 0, 0, 1, 16, 46)"><g clip-path="url(#6e0c8c3db2)"><g clip-path="url(#30e3b2f214)"><g transform="matrix(1, 0, 0, 1, -0.000000000000003553, -0.000000000000014211)"><g clip-path="url(#f48a1a59df)"><g clip-path="url(#dacbaa3c5c)"><path fill="#8c52ff" d="M 0.0898438 0.253906 L 5.578125 0.253906 L 5.578125 5.457031 L 0.0898438 5.457031 Z M 0.0898438 0.253906 " fill-opacity="1" fill-rule="nonzero"/></g></g></g></g></g></g></g><g clip-path="url(#721989a053)"><g transform="matrix(1, 0, 0, 1, 23, 46)"><g clip-path="url(#6610d1fe73)"><g clip-path="url(#1ff336b588)"><path fill="#8c52ff" d="M 0.304688 0.253906 L 5.796875 0.253906 L 5.796875 5.457031 L 0.304688 5.457031 Z M 0.304688 0.253906 " fill-opacity="1" fill-rule="nonzero"/></g></g></g></g><g clip-path="url(#1ce5796743)"><g transform="matrix(1, 0, 0, 1, 30, 46)"><g clip-path="url(#34ed158ad8)"><g clip-path="url(#e000b40b73)"><path fill="#8c52ff" d="M 0.523438 0.253906 L 6.011719 0.253906 L 6.011719 5.457031 L 0.523438 5.457031 Z M 0.523438 0.253906 " fill-opacity="1" fill-rule="nonzero"/></g></g></g></g><g mask="url(#7e8bd10a9f)"><g transform="matrix(1, 0, 0, 1, 8, 52)"><g clip-path="url(#84fdf6c1d8)"><g clip-path="url(#de03e33c04)"><g transform="matrix(1, 0, 0, 1, -0.000000000000001776, 1)"><g clip-path="url(#8e4120fe5c)"><g clip-path="url(#4714a05c97)"><path fill="#8c52ff" d="M 0.988281 0.179688 L 6.476562 0.179688 L 6.476562 5.382812 L 0.988281 5.382812 Z M 0.988281 0.179688 " fill-opacity="1" fill-rule="nonzero"/></g></g></g></g></g></g></g><g clip-path="url(#3462526df2)"><g transform="matrix(1, 0, 0, 1, 16, 53)"><g clip-path="url(#6da7b9767c)"><g clip-path="url(#c25d2002f9)"><path fill="#8c52ff" d="M 0.0898438 0.179688 L 5.578125 0.179688 L 5.578125 5.382812 L 0.0898438 5.382812 Z M 0.0898438 0.179688 " fill-opacity="1" fill-rule="nonzero"/></g></g></g></g><g clip-path="url(#9bb85ae728)"><g transform="matrix(1, 0, 0, 1, 23, 53)"><g clip-path="url(#d116945c08)"><g clip-path="url(#81e8619fd4)"><path fill="#8c52ff" d="M 0.304688 0.179688 L 5.796875 0.179688 L 5.796875 5.382812 L 0.304688 5.382812 Z M 0.304688 0.179688 " fill-opacity="1" fill-rule="nonzero"/></g></g></g></g><g mask="url(#44b465a6ca)"><g transform="matrix(1, 0, 0, 1, 30, 52)"><g clip-path="url(#b917a2b678)"><g clip-path="url(#ba91ef0780)"><g transform="matrix(1, 0, 0, 1, -0.000000000000007105, 1)"><g clip-path="url(#7e702b33dd)"><g clip-path="url(#cd860b9446)"><path fill="#8c52ff" d="M 0.523438 0.179688 L 6.011719 0.179688 L 6.011719 5.382812 L 0.523438 5.382812 Z M 0.523438 0.179688 " fill-opacity="1" fill-rule="nonzero"/></g></g></g></g></g></g></g><g mask="url(#399b9feba5)"><g transform="matrix(1, 0, 0, 1, 8, 59)"><g clip-path="url(#9e8dfd535f)"><g clip-path="url(#3e0240771a)"><g transform="matrix(1, 0, 0, 1, -0.000000000000001776, 1)"><g clip-path="url(#b6fa7d9f07)"><g clip-path="url(#58ef8ecd16)"><path fill="#8c52ff" d="M 0.988281 0.105469 L 6.476562 0.105469 L 6.476562 5.3125 L 0.988281 5.3125 Z M 0.988281 0.105469 " fill-opacity="1" fill-rule="nonzero"/></g></g></g></g></g></g></g><g clip-path="url(#d6535654d2)"><g transform="matrix(1, 0, 0, 1, 16, 60)"><g clip-path="url(#c6f7ec0564)"><g clip-path="url(#11b40cf442)"><path fill="#8c52ff" d="M 0.0898438 0.105469 L 5.578125 0.105469 L 5.578125 5.3125 L 0.0898438 5.3125 Z M 0.0898438 0.105469 " fill-opacity="1" fill-rule="nonzero"/></g></g></g></g><g mask="url(#0248f3944d)"><g transform="matrix(1, 0, 0, 1, 23, 59)"><g clip-path="url(#4556ca8f68)"><g clip-path="url(#3290f7544b)"><g transform="matrix(1, 0, 0, 1, -0.000000000000003553, 1)"><g clip-path="url(#28d611a336)"><g clip-path="url(#939871de2a)"><path fill="#8c52ff" d="M 0.304688 0.105469 L 5.796875 0.105469 L 5.796875 5.3125 L 0.304688 5.3125 Z M 0.304688 0.105469 " fill-opacity="1" fill-rule="nonzero"/></g></g></g></g></g></g></g><g mask="url(#aa94a2e3b3)"><g transform="matrix(1, 0, 0, 1, 30, 59)"><g clip-path="url(#9ca7fb8ddd)"><g clip-path="url(#b5da11935f)"><g transform="matrix(1, 0, 0, 1, -0.000000000000007105, 1)"><g clip-path="url(#70a5ef20c1)"><g clip-path="url(#1fade31ec1)"><path fill="#8c52ff" d="M 0.523438 0.105469 L 6.011719 0.105469 L 6.011719 5.3125 L 0.523438 5.3125 Z M 0.523438 0.105469 " fill-opacity="1" fill-rule="nonzero"/></g></g></g></g></g></g></g><g mask="url(#1f116e5b1c)"><g transform="matrix(1, 0, 0, 1, 8, 66)"><g clip-path="url(#722bd3a39c)"><g clip-path="url(#e4315307a2)"><g transform="matrix(1, 0, 0, 1, -0.000000000000001776, -0.000000000000014211)"><g clip-path="url(#a6d6d39076)"><g clip-path="url(#f4510a75b1)"><path fill="#8c52ff" d="M 0.988281 0.871094 L 6.476562 0.871094 L 6.476562 6.074219 L 0.988281 6.074219 Z M 0.988281 0.871094 " fill-opacity="1" fill-rule="nonzero"/></g></g></g></g></g></g></g><g clip-path="url(#bd9846e837)"><g transform="matrix(1, 0, 0, 1, 16, 66)"><g clip-path="url(#aaec8b04b1)"><g clip-path="url(#991c9ffa20)"><path fill="#8c52ff" d="M 0.0898438 0.871094 L 5.578125 0.871094 L 5.578125 6.074219 L 0.0898438 6.074219 Z M 0.0898438 0.871094 " fill-opacity="1" fill-rule="nonzero"/></g></g></g></g><g mask="url(#08879427f7)"><g transform="matrix(1, 0, 0, 1, 23, 66)"><g clip-path="url(#9130e0e70e)"><g clip-path="url(#bc2e5fdca1)"><g transform="matrix(1, 0, 0, 1, -0.000000000000003553, -0.000000000000014211)"><g clip-path="url(#4966d9f639)"><g clip-path="url(#c3ec71c4a9)"><path fill="#8c52ff" d="M 0.304688 0.871094 L 5.796875 0.871094 L 5.796875 6.074219 L 0.304688 6.074219 Z M 0.304688 0.871094 " fill-opacity="1" fill-rule="nonzero"/></g></g></g></g></g></g></g><g mask="url(#93e0a7fc9f)"><g transform="matrix(1, 0, 0, 1, 30, 66)"><g clip-path="url(#4978cc7e59)"><g clip-path="url(#8856c7b72a)"><g transform="matrix(1, 0, 0, 1, -0.000000000000007105, -0.000000000000014211)"><g clip-path="url(#459c977543)"><g clip-path="url(#d99c047d1f)"><path fill="#8c52ff" d="M 0.523438 0.871094 L 6.011719 0.871094 L 6.011719 6.074219 L 0.523438 6.074219 Z M 0.523438 0.871094 " fill-opacity="1" fill-rule="nonzero"/></g></g></g></g></g></g></g><g mask="url(#157c099442)"><g transform="matrix(1, 0, 0, 1, 8, 73)"><g clip-path="url(#70f8115c37)"><g clip-path="url(#42140ee797)"><g transform="matrix(1, 0, 0, 1, -0.000000000000001776, -0.000000000000014211)"><g clip-path="url(#7dc6ee5b6b)"><g clip-path="url(#6593309416)"><path fill="#8c52ff" d="M 0.988281 0.796875 L 6.476562 0.796875 L 6.476562 6.003906 L 0.988281 6.003906 Z M 0.988281 0.796875 " fill-opacity="1" fill-rule="nonzero"/></g></g></g></g></g></g></g><g clip-path="url(#230ac6b888)"><g transform="matrix(1, 0, 0, 1, 16, 73)"><g clip-path="url(#f81d7ee569)"><g clip-path="url(#ad7d573ff9)"><path fill="#8c52ff" d="M 0.0898438 0.796875 L 5.578125 0.796875 L 5.578125 6.003906 L 0.0898438 6.003906 Z M 0.0898438 0.796875 " fill-opacity="1" fill-rule="nonzero"/></g></g></g></g><g clip-path="url(#fb6a0c7761)"><g transform="matrix(1, 0, 0, 1, 23, 73)"><g clip-path="url(#3f597ede84)"><g clip-path="url(#356397487b)"><path fill="#8c52ff" d="M 0.304688 0.796875 L 5.796875 0.796875 L 5.796875 6.003906 L 0.304688 6.003906 Z M 0.304688 0.796875 " fill-opacity="1" fill-rule="nonzero"/></g></g></g></g><g mask="url(#47f13ba13b)"><g transform="matrix(1, 0, 0, 1, 30, 73)"><g clip-path="url(#621eae2adb)"><g clip-path="url(#e88660c76f)"><g transform="matrix(1, 0, 0, 1, -0.000000000000007105, -0.000000000000014211)"><g clip-path="url(#10233c49cf)"><g clip-path="url(#d1290a8220)"><path fill="#8c52ff" d="M 0.523438 0.796875 L 6.011719 0.796875 L 6.011719 6.003906 L 0.523438 6.003906 Z M 0.523438 0.796875 " fill-opacity="1" fill-rule="nonzero"/></g></g></g></g></g></g></g><g clip-path="url(#4c88180dae)"><g transform="matrix(1, 0, 0, 1, 37, 80)"><g clip-path="url(#025b73521f)"><g clip-path="url(#9e8818b615)"><path fill="#8c52ff" d="M 0.738281 0.722656 L 6.226562 0.722656 L 6.226562 5.929688 L 0.738281 5.929688 Z M 0.738281 0.722656 " fill-opacity="1" fill-rule="nonzero"/></g></g></g></g><g clip-path="url(#a8cc34bf81)"><g transform="matrix(1, 0, 0, 1, 44, 80)"><g clip-path="url(#1277e7a112)"><g clip-path="url(#013e7b46e9)"><path fill="#8c52ff" d="M 0.839844 0.722656 L 6.328125 0.722656 L 6.328125 5.929688 L 0.839844 5.929688 Z M 0.839844 0.722656 " fill-opacity="1" fill-rule="nonzero"/></g></g></g></g><g mask="url(#2608014a53)"><g transform="matrix(1, 0, 0, 1, 51, 80)"><g clip-path="url(#9a4ee36826)"><g clip-path="url(#1e808dcfaf)"><g transform="matrix(1, 0, 0, 1, 1, -0.000000000000028422)"><g clip-path="url(#87a31898a5)"><g clip-path="url(#6c3207d65c)"><path fill="#8c52ff" d="M 0.0585938 0.722656 L 5.546875 0.722656 L 5.546875 5.929688 L 0.0585938 5.929688 Z M 0.0585938 0.722656 " fill-opacity="1" fill-rule="nonzero"/></g></g></g></g></g></g></g><g mask="url(#9d567e1358)"><g transform="matrix(1, 0, 0, 1, 59, 80)"><g clip-path="url(#0e263c2a39)"><g clip-path="url(#f5c63a2bbc)"><g transform="matrix(1, 0, 0, 1, -0.000000000000014211, -0.000000000000028422)"><g clip-path="url(#6287abdc4b)"><g clip-path="url(#6b2996e90f)"><path fill="#8c52ff" d="M 0.273438 0.722656 L 5.761719 0.722656 L 5.761719 5.929688 L 0.273438 5.929688 Z M 0.273438 0.722656 " fill-opacity="1" fill-rule="nonzero"/></g></g></g></g></g></g></g><g mask="url(#374716f896)"><g transform="matrix(1, 0, 0, 1, 37, 87)"><g clip-path="url(#6327df57a9)"><g clip-path="url(#8795d5f125)"><g transform="matrix(1, 0, 0, 1, 0, -0.000000000000028422)"><g clip-path="url(#c25e6688d5)"><g clip-path="url(#1ad7563096)"><path fill="#8c52ff" d="M 0.738281 0.652344 L 6.226562 0.652344 L 6.226562 5.855469 L 0.738281 5.855469 Z M 0.738281 0.652344 " fill-opacity="1" fill-rule="nonzero"/></g></g></g></g></g></g></g><g mask="url(#df23effee5)"><g transform="matrix(1, 0, 0, 1, 44, 87)"><g clip-path="url(#5a485dc5b2)"><g clip-path="url(#2fcd3046d4)"><g transform="matrix(1, 0, 0, 1, -0.000000000000007105, -0.000000000000028422)"><g clip-path="url(#db88a7d1b6)"><g clip-path="url(#b180155fa9)"><path fill="#8c52ff" d="M 0.839844 0.652344 L 6.328125 0.652344 L 6.328125 5.855469 L 0.839844 5.855469 Z M 0.839844 0.652344 " fill-opacity="1" fill-rule="nonzero"/></g></g></g></g></g></g></g><g mask="url(#7d9a4809dc)"><g transform="matrix(1, 0, 0, 1, 51, 87)"><g clip-path="url(#c0efaee05a)"><g clip-path="url(#7f57d769c5)"><g transform="matrix(1, 0, 0, 1, 1, -0.000000000000028422)"><g clip-path="url(#019638037e)"><g clip-path="url(#480c10631d)"><path fill="#8c52ff" d="M 0.0585938 0.652344 L 5.546875 0.652344 L 5.546875 5.855469 L 0.0585938 5.855469 Z M 0.0585938 0.652344 " fill-opacity="1" fill-rule="nonzero"/></g></g></g></g></g></g></g><g mask="url(#feba24deaa)"><g transform="matrix(1, 0, 0, 1, 59, 87)"><g clip-path="url(#7b656bafa5)"><g clip-path="url(#f85a7bae79)"><g transform="matrix(1, 0, 0, 1, -0.000000000000014211, -0.000000000000028422)"><g clip-path="url(#ad92f98b53)"><g clip-path="url(#5e43794663)"><path fill="#8c52ff" d="M 0.273438 0.652344 L 5.761719 0.652344 L 5.761719 5.855469 L 0.273438 5.855469 Z M 0.273438 0.652344 " fill-opacity="1" fill-rule="nonzero"/></g></g></g></g></g></g></g><g mask="url(#d04ee39495)"><g transform="matrix(1, 0, 0, 1, 8, 80)"><g clip-path="url(#c1fff853dd)"><g clip-path="url(#7b401e8758)"><g transform="matrix(1, 0, 0, 1, -0.000000000000001776, -0.000000000000028422)"><g clip-path="url(#345d59c3ef)"><g clip-path="url(#f9b602143c)"><path fill="#8c52ff" d="M 0.988281 0.722656 L 6.476562 0.722656 L 6.476562 5.929688 L 0.988281 5.929688 Z M 0.988281 0.722656 " fill-opacity="1" fill-rule="nonzero"/></g></g></g></g></g></g></g><g mask="url(#7776b5b321)"><g transform="matrix(1, 0, 0, 1, 16, 80)"><g clip-path="url(#2b3ebf4840)"><g clip-path="url(#c795e00283)"><g transform="matrix(1, 0, 0, 1, -0.000000000000003553, -0.000000000000028422)"><g clip-path="url(#ab74a321c0)"><g clip-path="url(#d2fa9fdbc2)"><path fill="#8c52ff" d="M 0.0898438 0.722656 L 5.578125 0.722656 L 5.578125 5.929688 L 0.0898438 5.929688 Z M 0.0898438 0.722656 " fill-opacity="1" fill-rule="nonzero"/></g></g></g></g></g></g></g><g clip-path="url(#980fd82195)"><g transform="matrix(1, 0, 0, 1, 23, 80)"><g clip-path="url(#ea13b7c620)"><g clip-path="url(#ed5cc07655)"><path fill="#8c52ff" d="M 0.304688 0.722656 L 5.796875 0.722656 L 5.796875 5.929688 L 0.304688 5.929688 Z M 0.304688 0.722656 " fill-opacity="1" fill-rule="nonzero"/></g></g></g></g><g clip-path="url(#be6e0c1759)"><g transform="matrix(1, 0, 0, 1, 30, 80)"><g clip-path="url(#3cd5baa40e)"><g clip-path="url(#ca626dae7a)"><path fill="#8c52ff" d="M 0.523438 0.722656 L 6.011719 0.722656 L 6.011719 5.929688 L 0.523438 5.929688 Z M 0.523438 0.722656 " fill-opacity="1" fill-rule="nonzero"/></g></g></g></g><g mask="url(#9f8c68092f)"><g transform="matrix(1, 0, 0, 1, 8, 87)"><g clip-path="url(#a250961edc)"><g clip-path="url(#c148279a73)"><g transform="matrix(1, 0, 0, 1, -0.000000000000001776, -0.000000000000028422)"><g clip-path="url(#b0c90b3646)"><g clip-path="url(#aa0d47b22b)"><path fill="#8c52ff" d="M 0.988281 0.652344 L 6.476562 0.652344 L 6.476562 5.855469 L 0.988281 5.855469 Z M 0.988281 0.652344 " fill-opacity="1" fill-rule="nonzero"/></g></g></g></g></g></g></g><g mask="url(#92bb16e288)"><g transform="matrix(1, 0, 0, 1, 16, 87)"><g clip-path="url(#f96cde4f2c)"><g clip-path="url(#d5087da1d0)"><g transform="matrix(1, 0, 0, 1, -0.000000000000003553, -0.000000000000028422)"><g clip-path="url(#4b9eb59061)"><g clip-path="url(#2dbd64f4fb)"><path fill="#8c52ff" d="M 0.0898438 0.652344 L 5.578125 0.652344 L 5.578125 5.855469 L 0.0898438 5.855469 Z M 0.0898438 0.652344 " fill-opacity="1" fill-rule="nonzero"/></g></g></g></g></g></g></g><g mask="url(#7699635ed5)"><g transform="matrix(1, 0, 0, 1, 23, 87)"><g clip-path="url(#00a1bd975e)"><g clip-path="url(#b7ee33d53e)"><g transform="matrix(1, 0, 0, 1, -0.000000000000003553, -0.000000000000028422)"><g clip-path="url(#14a2ecf8c3)"><g clip-path="url(#7ae892dbb5)"><path fill="#8c52ff" d="M 0.304688 0.652344 L 5.796875 0.652344 L 5.796875 5.855469 L 0.304688 5.855469 Z M 0.304688 0.652344 " fill-opacity="1" fill-rule="nonzero"/></g></g></g></g></g></g></g><g mask="url(#6b44d86e51)"><g transform="matrix(1, 0, 0, 1, 30, 87)"><g clip-path="url(#e085c012fa)"><g clip-path="url(#0c78de7e68)"><g transform="matrix(1, 0, 0, 1, -0.000000000000007105, -0.000000000000028422)"><g clip-path="url(#9ebec93995)"><g clip-path="url(#4044ba0a28)"><path fill="#8c52ff" d="M 0.523438 0.652344 L 6.011719 0.652344 L 6.011719 5.855469 L 0.523438 5.855469 Z M 0.523438 0.652344 " fill-opacity="1" fill-rule="nonzero"/></g></g></g></g></g></g></g><g fill="#ffffff" fill-opacity="1"><g transform="translate(146.537517, 68.417302)"><g><path d="M 0.953125 0.046875 C 0.816406 0.046875 0.703125 0 0.609375 -0.09375 C 0.515625 -0.195312 0.46875 -0.316406 0.46875 -0.453125 C 0.46875 -0.585938 0.515625 -0.703125 0.609375 -0.796875 C 0.703125 -0.890625 0.816406 -0.9375 0.953125 -0.9375 C 1.085938 -0.9375 1.203125 -0.890625 1.296875 -0.796875 C 1.390625 -0.703125 1.4375 -0.585938 1.4375 -0.453125 C 1.4375 -0.316406 1.390625 -0.195312 1.296875 -0.09375 C 1.203125 0 1.085938 0.046875 0.953125 0.046875 Z M 0.953125 0.046875 "/></g></g></g><g fill="#ffffff" fill-opacity="1"><g transform="translate(146.537517, 63.326903)"><g><path d="M 0.953125 0.046875 C 0.816406 0.046875 0.703125 0 0.609375 -0.09375 C 0.515625 -0.195312 0.46875 -0.316406 0.46875 -0.453125 C 0.46875 -0.585938 0.515625 -0.703125 0.609375 -0.796875 C 0.703125 -0.890625 0.816406 -0.9375 0.953125 -0.9375 C 1.085938 -0.9375 1.203125 -0.890625 1.296875 -0.796875 C 1.390625 -0.703125 1.4375 -0.585938 1.4375 -0.453125 C 1.4375 -0.316406 1.390625 -0.195312 1.296875 -0.09375 C 1.203125 0 1.085938 0.046875 0.953125 0.046875 Z M 0.953125 0.046875 "/></g></g></g></svg>